<?xml version="1.0" encoding="utf-8" ?>
<svg baseProfile="full" height="300mm" version="1.1" viewBox="0,0,200,300" width="200mm" xmlns="http://www.w3.org/2000/svg" xmlns:ev="http://www.w3.org/2001/xml-events" xmlns:xlink="http://www.w3.org/1999/xlink"><defs /><rect fill="#222222" height="300" width="200" x="0" y="0" /><text fill="#FFFFFF" style="font-size:12px; font-family:Arial; font-weight:bold;" x="10" y="20">Over 10km Runs</text><text fill="#FFFFFF" style="font-size:4px; font-family:Arial" x="10" y="280">ATHLETE</text><text fill="#FFFFFF" style="font-size:9px; font-family:Arial" x="10" y="290">WangFan</text><text fill="#FFFFFF" style="font-size:4px; font-family:Arial" x="120" y="280">STATISTICS</text><text fill="#FFFFFF" style="font-size:3px; font-family:Arial" x="120" y="285">Number: 2</text><text fill="#FFFFFF" style="font-size:3px; font-family:Arial" x="120" y="290">Weekly: 1.0</text><text fill="#FFFFFF" style="font-size:3px; font-family:Arial" x="141" y="285">Total: 36.9 km</text><text fill="#FFFFFF" style="font-size:3px; font-family:Arial" x="141" y="290">Avg: 18.5 km</text><text fill="#FFFFFF" style="font-size:3px; font-family:Arial" x="167" y="285">Min: 10.9 km</text><text fill="#FFFFFF" style="font-size:3px; font-family:Arial" x="167" y="290">Max: 26.0 km</text><polyline fill="none" points="74.98937947675586,92.50352858146653 79.86950055509806,133.27160112047568 99.38998486101627,142.56954780966043 115.8603934943676,138.2781894034706 131.11077186465263,74.62271668482572 126.84066592156887,48.874263655394316 106.71016647666693,38.86094961874187 87.79969730600715,45.2980817896314 71.93930380418897,104.6624533883296 82.30956109240651,137.5629627360031 118.91046917065978,135.41728227119893 131.11077186465263,66.03991001285613 115.25037836283445,43.15237175440416 81.69954596087337,55.31138619640842 71.32928867265582,117.53658499708399 91.45978811383247,143.28477394208312 120.7405145727098,130.41069184802473 131.11077186465263,65.32467562519014 117.08042376488447,43.15237175440416 98.16995459422469,41.00666102999821 84.13960649818182,51.73520777095109 71.32928867265582,117.53658499708399 92.67981838434935,142.56954780966043 121.35052970796824,131.12591928010806 131.11077186465263,65.32467562519014 115.25037836283445,42.43713492155075 82.91957622766495,51.73520777095109 70.71927353739738,110.38429271616042 74.37936434149742,128.98023675428703 90.2397578433156,141.1390953110531 120.13049944117665,131.12591928010806 131.72078699618578,66.03991001285613 118.30045403540134,42.43713492155075 101.22003026679158,40.2914239699021 82.91957622766495,52.450443607755005 71.32928867265582,118.96704253740609 94.50986378639936,143.28477394208312 121.35052970796824,128.98023675428703 131.72078699618578,63.894206625875086 110.37025728449225,39.57618683343753 81.69954596087337,53.165679370984435 70.71927353739738,116.10612715221941 91.45978811383247,143.28477394208312 118.91046917065978,135.41728227119893 132.33080213144422,68.18561271345243 122.57055997475982,44.58284518821165 103.66009080782533,38.14571232814342 85.96965190023184,47.443791137076914 70.71927353739738,113.24521054467186 90.84977297857404,142.56954780966043 126.84066592156887,133.9868282461539 132.33080213144422,63.17897201096639 112.810317825526,39.57618683343753 81.08953082188964,54.59615066461265 71.32928867265582,119.68227119091898 95.11987891793251,144.0 121.35052970796824,131.12591928010806 132.33080213144422,63.17897201096639 112.20030269026756,39.57618683343753 81.69954596087337,53.165679370984435 70.71927353739738,116.82135611167178 95.11987891793251,144.0 123.18057511374354,128.98023675428703 133.5508324019611,65.32467562519014 110.98027241975069,39.57618683343753 81.08953082188964,55.31138619640842 71.32928867265582,121.11272827163339 93.28983351588249,144.0 121.35052970796824,131.84114663721994 132.94081726670265,64.60944116394967 114.03034809231758,40.2914239699021 83.52959136292338,51.01997185498476 71.32928867265582,119.68227119091898 93.28983351588249,144.0 122.57055997475982,129.6954643400386 132.33080213144422,63.17897201096639 110.98027241975069,40.2914239699021 84.13960649818182,51.73520777095109 71.32928867265582,116.82135611167178 93.28983351588249,141.854321598541 120.7405145727098,129.6954643400386 131.72078699618578,61.74850254924968 112.20030269026756,41.00666102999821 82.91957622766495,56.74185703182593 73.15933407470584,118.2518138056621 93.89984865114093,141.854321598541 120.7405145727098,129.6954643400386 131.72078699618578,62.4637373178266 112.810317825526,41.72189801512286 84.13960649818182,53.165679370984435 73.76934920996428,118.96704253740609 93.89984865114093,141.854321598541 120.7405145727098,128.98023675428703 131.72078699618578,63.894206625875086 112.810317825526,40.2914239699021 85.35963676869869,53.88091505644843 73.76934920996428,118.96704253740609 95.72989405691624,142.56954780966043 122.57055997475982,126.11932564852759 131.72078699618578,62.4637373178266 114.64036322757602,41.00666102999821 84.13960649818182,53.88091505644843 73.76934920996428,120.39749977039173 95.72989405691624,141.854321598541 121.96054484322667,127.54978135414422 131.11077186465263,62.4637373178266 114.64036322757602,41.72189801512286 81.69954596087337,56.026621653698385 73.76934920996428,113.96043981192634 91.45978811383247,141.1390953110531 120.13049944117665,132.55637391796336 132.94081726670265,61.03326770523563 117.69043890014291,41.72189801512286 99.99999999627471,41.00666102999821 82.91957622766495,53.88091505644843 73.15933407470584,118.96704253740609 89.01972757652402,139.7086425111629 118.30045403540134,132.55637391796336 131.72078699618578,64.60944116394967 119.52048430591822,43.15237175440416 87.79969730600715,50.304735865909606 66.44916759431362,106.80814370838925 87.18968217074871,139.7086425111629 118.30045403540134,132.55637391796336 131.11077186465263,62.4637373178266 116.47040863335133,41.72189801512286 84.74962162971497,52.450443607755005 74.37936434149742,115.39089811546728 89.62974270805717,141.854321598541 118.30045403540134,132.55637391796336 132.94081726670265,65.32467562519014 120.13049944117665,42.43713492155075 100.61001513153315,40.2914239699021 85.96965190023184,50.304735865909606 73.15933407470584,113.24521054467186 85.35963676869869,139.7086425111629 114.03034809231758,138.2781894034706 125.620635651052,117.53658499708399 131.72078699618578,55.31138619640842 103.0500756688416,39.57618683343753 80.4795156866312,65.32467562519014 74.98937947675586,125.4040976818651 103.66009080782533,142.56954780966043 123.79059024527669,121.11272827163339 131.11077186465263,56.74185703182593 104.88012107461691,38.86094961874187 81.08953082188964,66.03991001285613 74.98937947675586,123.9736415175721 86.57966703549027,139.7086425111629 104.27010593935847,143.28477394208312 123.79059024527669,121.82795669743791 131.11077186465263,53.165679370984435 106.10015134513378,38.86094961874187 84.13960649818182,57.457092334050685 74.37936434149742,123.25841332180426 84.74962162971497,138.9934159964323 104.27010593935847,142.56954780966043 122.57055997475982,124.68886963883415 131.72078699618578,58.887562713585794 122.57055997475982,44.58284518821165 103.0500756688416,40.2914239699021 80.4795156866312,67.47037855628878 75.5993946120143,128.26500909263268 88.40971244126558,140.42386894952506 110.98027241975069,139.7086425111629 130.5007567293942,84.63597723143175 126.23065078258514,41.72189801512286 101.83004539832473,36.0 80.4795156866312,54.59615066461265 74.98937947675586,126.83455353835598 90.2397578433156,141.1390953110531 112.20030269026756,138.9934159964323 123.79059024527669,121.11272827163339 128.6707113236189,51.01997185498476 114.03034809231758,40.2914239699021 96.94992432370782,43.15237175440416 70.10925840213895,79.62934882985428" stroke="#4dd2ff" stroke-linecap="round" stroke-linejoin="round" stroke-width="0.5"><title>2024-11-29 10.9km</title><desc>1732885717000</desc></polyline><polyline fill="none" points="116.72044504922815,264.0 116.8826583220507,263.32700200681575 117.51903346949257,262.99050176984747 117.86841590335825,262.2589766626479 117.78107029490639,261.87858206246165 117.30690842034528,261.51281702720735 117.18212897970807,261.00074433638656 117.59390113386326,260.4008853200794 117.25699664407875,260.9275909385178 116.93257009831723,260.9422216212406 116.7454009373323,259.61082309347694 110.65616423287429,258.8353872158332 109.79518609226216,258.5135068824893 111.04298049892532,247.83250299772772 111.0554584430065,246.2522289155604 110.74350984138437,244.3646554076695 111.20519377180608,244.20369832268625 111.32997321244329,243.852518571337 110.73103189724497,242.84287176722137 110.79342161759268,241.6722574538726 110.3691715192981,240.45773452168214 111.08041433111066,239.60902535292553 110.15704647020902,239.31636579864426 110.04474497359479,239.02370561849966 110.3816494634375,238.10182196076494 110.11961263796547,236.5507021102676 110.73103189724497,236.41900244535645 111.0554584430065,236.03853603481548 111.04298049892532,235.67270195030142 110.5189068481559,235.20443289514515 110.49395095999353,234.86786352207127 110.00731114135124,235.3215003091609 109.87005375663284,235.1312657105591 110.3691715192981,231.9411384274572 110.76846572948853,231.72163152207213 110.54386273626005,231.5752933895128 110.40660535154166,230.65335955617775 111.0554584430065,230.02409956372867 110.61873040063074,228.98508254505577 111.18023788370192,228.39971737009182 110.89324517006753,227.7411785550794 110.93067900236929,226.74604722145887 110.20695824647555,225.41431602548982 110.18200235837139,223.643532491551 108.59730346186552,222.51665831041464 107.78623709757812,220.4824073928903 108.09818569920026,217.77490421802213 107.91101653821534,217.17485572054284 105.70242043840699,214.89172030583723 104.70418491313467,214.37947315235215 104.27993481484009,213.79404548539605 103.35656695388025,213.22325109795202 102.80753741500666,212.38900886281044 102.20859609986655,212.2280141616502 100.98575758130755,210.44242386205588 98.56503643235192,209.06662527406297 95.55785191239556,206.08080201140547 94.97138854122022,205.86125361081213 93.44907936512027,205.99298269346764 92.03907168563455,205.30506275201333 91.0533141042688,205.34897263889434 90.62906400603242,205.11478641266876 90.41693895688513,204.30976820185606 89.05684305360774,204.090216958386 89.28144604683621,203.15346102658077 89.18162249436136,202.90463415376144 87.88391631137347,202.91927104114438 88.38303407403873,202.3045204214577 88.95701950113289,202.12887687972398 89.60587259259773,202.23133563979354 90.35454923659563,202.8021758980758 90.52924045349937,201.71904107181763 89.31887987907976,200.75299466532306 87.3224088284187,200.02113678411115 86.14948208612623,197.62061544317112 85.41328338626772,196.94729091470072 84.22787869989406,196.37642621761188 82.64317980350461,194.67845559719717 81.74476783064893,194.23932183303987 81.24565006798366,193.72699732577894 80.53440725622931,193.93192735899356 80.09767921385355,194.8687464570976 80.16006893420126,194.25395964788913 81.09591473924229,193.46351540321484 79.82316444441676,191.26781297152047 77.65200217685197,188.1644934037031 77.77678161754739,186.2029248936742 76.89084758877289,184.8268824272527 76.3418180498411,182.8945440952084 75.30614869232522,181.92836468735186 74.99420009064488,181.3720764762984 73.63410418742569,180.3180505004566 70.67683144361945,179.63000138230564 69.10461049125297,178.82483312340628 68.7427501133061,178.2246136997419 68.41832356754458,176.36538071131508 68.6054927285295,175.64803208921512 69.40408114885213,174.60860189641244 69.27930170815671,174.44756270870857 70.12780190468766,173.15924237713625 70.45222845044918,172.2661950214533 71.17594920628471,172.17835398280295 71.36311836732784,171.92947073325922 71.13851537409937,170.9046525782469 70.29001517756842,170.97785412981466 70.25258134538308,169.85054588819912 72.77312604681356,165.3705017578759 73.19737614504993,164.94591479394876 76.04234739230014,159.32367337563483 77.12792852608254,158.78193477152672 77.12792852608254,158.15234396573214 77.38996535143815,158.67944344264106 78.15111993951723,158.29876069104648 78.31333321233978,158.40125230542617 79.27413490542676,157.4641832553316 79.81068650039379,156.0 80.88378969003679,156.39533102507994 82.20645176112885,156.49782406710437 83.76619476941414,157.83022661780706 84.71451851853635,158.21091067467933 85.27602600154933,159.6604287227674 85.71275404380867,160.18752238276647 87.78409275884042,160.87566937912197 88.6825047316961,162.32515916250122 88.80728417233331,162.9547307441535 89.53100492816884,163.18898919691856 89.99268885864876,163.67214598768624 90.45437278912868,163.6575048979139 91.01588027208345,164.63845444488106 92.16385112621356,165.60475606989348 92.03907168563455,168.97211743655498 91.6647333635483,169.8212650307978 90.50428456539521,171.00713473952783 90.32959334843326,173.14460230355326 88.90710772492457,175.23811690071307 88.67002678755671,177.31695980935183 87.87143836729228,179.16154042677954 87.64683537412202,180.6986719291017 87.82152659108397,181.43063323674141 90.09251241118181,184.53410564761725 90.40446101286216,185.44171162376006 90.104990355263,188.9403298987745 90.40446101286216,189.83326834031323 90.97844643995631,190.50662789857597 91.01588027208345,191.3117273656535 91.41517448221566,191.94116546543955 91.65225541952532,192.90727412168053 93.07474104309222,194.37106211033824 93.72359413455706,195.65918257916928 94.49722666671732,195.43961744802073 94.72182965988759,195.54208121975535 95.49546219198965,197.40105346120254 97.22989641723689,195.92266027127334 97.99105100531597,196.5081644361053 99.83778672711924,197.2839535933308 102.75762563874014,198.00118871025916 102.72019180649659,198.7769693979062 106.75056774006225,198.23538711744186 109.95739936514292,195.99584842895274 111.37988498876803,193.5806185426045 112.60272350726882,190.4187985790195 113.13927510206122,190.0382042091078 124.44429242640035,190.62373357024626 125.64217505679699,191.73623244873306 125.95412365847733,191.7508705315704 129.85972015134757,203.7242974361725 129.84724220720818,203.88530214654747 129.57272743771318,203.84139178979967 129.2857347241952,204.22194774678792 128.81157284975052,204.39758860056463 128.89891845814418,204.8513264289213 128.89891845814418,204.39758860056463 129.4229921089718,204.295131463281 129.7723745428375,205.52461204541032 130.3713158579776,205.963709574964 131.58167643251363,211.27667796856258 130.70822034782032,211.34985791059444 130.20910258515505,211.77430080249906 129.61016126995673,212.7109976968204 129.87219809537055,213.16470794918132 129.4978597733425,213.545237968312 128.89891845814418,213.48669495733338 128.6119257446262,213.91113121922535 128.20015359047102,213.8818597951613 125.64217505679699,219.32623691641493 124.56907186709577,220.43850236339495 121.33728435385274,221.68247274361784 118.15540861681802,224.0533026200137 117.25699664407875,222.98497078545915 114.81131960707717,221.8141865922953 114.59919455787167,222.09224874529173 114.26229006814538,222.121518412765 114.32467978843488,222.39957994117867 114.61167250195285,222.28250147176732 114.42450334096793,224.27282182690396 115.01096671208506,227.60947041171312 114.77388577477541,227.79971546694287 114.9860108239227,227.69727585470537 114.97353287989972,228.01922866352834 114.47441511723446,229.70215147187992 114.87370932736667,230.22897522778658 114.93609904771438,231.09237644189852 114.6491063341964,235.17516602599062 114.68654016638175,238.01402319333283 115.44769475446083,240.3845701454702 118.11797478463268,243.92568109383865 118.7793058201787,245.8717898377945 118.79178376425989,247.94955961144296 117.80602618301054,250.8759424235468 117.65629085415276,252.52932105594664 117.86841590335825,253.62668522979948 119.16612208628794,256.50905323233746 119.72762956924271,259.69860801045434 119.40320302348118,259.8449160803284 116.85770243394654,259.65471555897966 116.57070972042857,262.31749881508586 116.2088493424817,263.4001541228354" stroke="#ff0000" stroke-linecap="round" stroke-linejoin="round" stroke-width="0.5"><title>2024-11-02 26.0km</title><desc>1730530506000</desc></polyline></svg>