<?xml version="1.0" encoding="utf-8" ?>
<svg baseProfile="full" height="200mm" version="1.1" viewBox="0,0,200,200" width="200mm" xmlns="http://www.w3.org/2000/svg" xmlns:ev="http://www.w3.org/2001/xml-events" xmlns:xlink="http://www.w3.org/1999/xlink"><defs /><rect fill="#1a1a1a" height="200" width="200" x="0" y="0" /><text alignment-baseline="middle" fill="#e1ed5e" style="dominant-baseline: central; font-size:9.0px; font-family:Arial;" text-anchor="middle" x="100.0" y="100.0">2024</text><line stroke="#e1ed5e" stroke-width="0.3" x1="100.0" x2="100.0" y1="15.0" y2="10.0" /><path d="M 100.0 14.0 a86.0,86.0 0 0,1 42.35913384403234,11.155469271406648" fill="none" id="id49" stroke="none" /><text fill="#e1ed5e" style="font-size:6.75px; font-family:Arial;" text-anchor="middle"><textPath startOffset="22.145653131862478" xlink:href="#id49">January</textPath></text><line stroke="#e1ed5e" stroke-width="0.3" x1="143.13028292997686" x2="145.6673583964461" y1="26.7553504044142" y2="22.446841604673864" /><path d="M 143.63769802327073 25.89364864446614 a86.0,86.0 0 0,1 29.32050498858742,28.57503671076993" fill="none" id="id50" stroke="none" /><text fill="#e1ed5e" style="font-size:6.75px; font-family:Arial;" text-anchor="middle"><textPath startOffset="20.669276256404974" xlink:href="#id50">February</textPath></text><line stroke="#e1ed5e" stroke-width="0.3" x1="172.87174338648825" x2="177.1583165268699" y1="56.24261187166439" y2="53.66864786411523" /><path d="M 173.72905801456457 55.72781907015455 a86.0,86.0 0 0,1 12.242430191666344,42.057860355516425" fill="none" id="id51" stroke="none" /><text fill="#e1ed5e" style="font-size:6.75px; font-family:Arial;" text-anchor="middle"><textPath startOffset="22.145653131862474" xlink:href="#id51">March</textPath></text><line stroke="#e1ed5e" stroke-width="0.3" x1="184.99686870605535" x2="189.99668451229388" y1="99.2704041080226" y2="99.22748670261217" /><path d="M 185.99683186730306 99.26182062694052 a86.0,86.0 0 0,1 -10.086455211305974,41.156179273409016" fill="none" id="id52" stroke="none" /><text fill="#e1ed5e" style="font-size:6.75px; font-family:Arial;" text-anchor="middle"><textPath startOffset="21.40746469413373" xlink:href="#id52">April</textPath></text><path d="M 120.82617615685814 102.69636545807757 l 7.4492909275232915 0.9644598505679138 a28.511465777479007,28.511465777479007 0 0,0 -0.06700938938890742,0.4848465609281384 l -7.431637021579173 -1.0921947196961372" fill="#ff5908" stroke="none" /><path d="M 120.77682067341334 103.0534771498775 l 12.986344329109077 1.9085454070514984 a34.12584033900157,34.12584033900157 0 0,0 -0.09015479531121551,0.5788584585844186 l -12.951668041659593 -2.131192047567368" fill="#ffa50f" stroke="none" /><path d="M 120.7213421655516 103.40968896794604 l 6.212872152796869 1.0223257484675923 a27.2964220254823,27.2964220254823 0 0,0 -0.08005024439277726,0.4617085371329156 l -6.194407090911858 -1.128827318521096" fill="#ff4906" stroke="none" /><path d="M 120.65975698304385 103.76489593502545 l 6.7402252766133754 1.228293574116318 a27.8512292242862,27.8512292242862 0 0,0 -0.08975218790985377,0.4696213728089968 l -6.718146796421363 -1.343817511958629" fill="#ff5007" stroke="none" /><path d="M 120.35273937422433 105.17358676015961 l 8.6739919342414 2.204894830302558 a29.94984342253985,29.94984342253985 0 0,0 -0.1309386035447818,0.4971952051466361 l -8.634863849891888 -2.3534705398219975" fill="#ff6d0a" stroke="none" /><path d="M 119.83427380445688 106.89939002012753 l 4.577938600251028 1.592444684525389 a25.846999267685266,25.846999267685266 0 0,0 -0.14937083028574322,0.4178167968489081 l -4.549927599921341 -1.6707964377552185" fill="#ff3404" stroke="none" /><line stroke="#e1ed5e" stroke-width="0.3" x1="174.33088141563837" x2="178.70328620479359" y1="141.23008692659167" y2="143.65538615756765" /><path d="M 175.20536237346943 141.71514677278685 a86.0,86.0 0 0,1 -30.301960400862466,31.631185727798858" fill="none" id="id53" stroke="none" /><text fill="#e1ed5e" style="font-size:6.75px; font-family:Arial;" text-anchor="middle"><textPath startOffset="22.145653131862474" xlink:href="#id53">May</textPath></text><path d="M 111.8722381534696 117.32195027204791 l 4.36405833963284 6.367291538987879 a28.71928796808265,28.71928796808265 0 0,0 -0.40904979211736153,0.2752269554487634 l -4.254112259418475 -6.441268168493763" fill="#ff5c08" stroke="none" /><line stroke="#e1ed5e" stroke-width="0.3" x1="143.1302829299769" x2="145.66735839644613" y1="173.24464959558577" y2="177.55315839532614" /><path d="M 143.63769802327073 174.10635135553383 a86.0,86.0 0 0,1 -40.68552437913181,11.842963189579606" fill="none" id="id54" stroke="none" /><text fill="#e1ed5e" style="font-size:6.75px; font-family:Arial;" text-anchor="middle"><textPath startOffset="21.407464694133747" xlink:href="#id54">June</textPath></text><path d="M 110.65571695917076 118.09573695890943 l 2.80951107202545 4.771164018087115 a26.53690875410845,26.53690875410845 0 0,0 -0.3945248948920945,0.22777905426796044 l -2.727193709272957 -4.818689969631247" fill="#ff3e05" stroke="none" /><path d="M 109.06512990194946 118.94263497670748 l 0.578395557717973 1.208624260270616 a22.3398932881773,22.3398932881773 0 0,0 -0.3473441566426703,0.16257460374339996 l -0.5575626872037965 -1.2183750955845496" fill="#ff0100" stroke="none" /><path d="M 107.407793817531 119.65005319985036 l 1.3774928451124162 3.653963427655694 a24.90498851073614,24.90498851073614 0 0,0 -0.4013389661886875,0.14737722750841503 l -1.3145647272696017 -3.6770715041728312" fill="#ff2703" stroke="none" /><path d="M 107.06938296918513 119.77432235084164 l 1.2483682688175217 3.4919082284497156 a24.70834820513194,24.70834820513194 0 0,0 -0.4006214260071034,0.13935692809794675 l -1.1882410707653965 -3.5128235891162527" fill="#ff2403" stroke="none" /><path d="M 106.72888874123015 119.89276391827305 l 1.1721965764468167 3.4653908925831796 a24.65827539316439,24.65827539316439 0 0,0 -0.40213803099900863,0.1321907582656052 l -1.112535807800074 -3.485002572250804" fill="#ff2303" stroke="none" /><path d="M 106.38641147887787 120.00534299687104 l 1.941882379659769 6.082918896340765 a27.38535899350167,27.38535899350167 0 0,0 -0.44906689959931456,0.13912207340794083 l -1.8371748471888303 -6.115357557555351" fill="#ff4a06" stroke="none" /><path d="M 106.0420521117495 120.11202640906438 l 1.2532368766475108 4.171617969155491 a25.35580063244063,25.35580063244063 0 0,0 -0.41793602461749746,0.12165508570126612 l -1.1814408396484066 -4.192516749159275" fill="#ff2d04" stroke="none" /><path d="M 103.2317021107853 120.74984581791261 l 0.5584958991477206 3.585944310453669 a24.62917542522263,24.62917542522263 0 0,0 -0.41831469256005094,0.061477854348748175 l -0.4968561009799841 -3.5950032381012993" fill="#ff2303" stroke="none" /><path d="M 101.08105385017728 120.97215588758144 l 0.385411034445328 7.476871104853777 a28.48679792595403,28.48679792595403 0 0,0 -0.48858146551896947,0.02098179036604169 l -0.257003808325529 -7.48238546364565" fill="#ff5908" stroke="none" /><line stroke="#e1ed5e" stroke-width="0.3" x1="101.45913802915013" x2="101.54496967792366" y1="184.9874750549273" y2="189.98673829345242" /><path d="M 101.47630435890484 185.9873277026323 a86.0,86.0 0 0,1 -42.54439059252881,-10.42667462771756" fill="none" id="id55" stroke="none" /><text fill="#e1ed5e" style="font-size:6.75px; font-family:Arial;" text-anchor="middle"><textPath startOffset="22.145653131862474" xlink:href="#id55">July</textPath></text><path d="M 100.36049292484886 120.99690560180557 l 0.1579328518197468 9.198796848713535 a30.200152512300324,30.200152512300324 0 0,0 -0.5184257766685979,0.004450061781224812 l -1.1266937325856073e-15 -9.200152512300324" fill="#ff710a" stroke="none" /><path d="M 100.0 121.0 l 6.051560598093581e-16 4.94147422939162 a25.94147422939162,25.94147422939162 0 0,0 -0.4453199009449766,-0.0038225357626861522 l 0.08482697609612382 -4.940746091823368" fill="#ff3505" stroke="none" /><path d="M 99.63950707515114 120.99690560180557 l -0.09970449845471294 5.8072871832554 a26.80814302645988,26.80814302645988 0 0,0 -0.4600618010106369,-0.01184956004247407 l 0.1993796135360937 -5.8047199058628784" fill="#ff4206" stroke="none" /><path d="M 99.27912038922189 120.98762331915562 l -0.08417290558497538 2.4506023054105874 a23.452047458210853,23.452047458210853 0 0,0 -0.40222968360067274,-0.01727347330162366 l 0.12622834978648684 -2.4487962636831355" fill="#ff1202" stroke="none" /><path d="M 98.91894614982273 120.97215588758144 l -0.31082598426475255 6.029941056907033 a27.03794683168602,27.03794683168602 0 0,0 -0.46332180352975444,-0.02787228917081641 l 0.41429213992695335 -6.023716789911525" fill="#ff4506" stroke="none" /><path d="M 98.55909050195518 120.95050786540614 l -0.4150468703960315 6.034690405291353 a27.04894637043023,27.04894637043023 0 0,0 -0.46296333258068884,-0.0358362899264956 l 0.5185791977519565 -6.026676348369803" fill="#ff4506" stroke="none" /><path d="M 98.19965949673042 120.92268563240118 l -0.25916783503812496 3.0119230938175092 a24.023052875784607,24.023052875784607 0 0,0 -0.4105659126639981,-0.038881018793050816 l 0.31083331108713835 -3.0070303195192745" fill="#ff1a02" stroke="none" /><path d="M 97.84075906011543 120.88869738790638 l -0.6216780988205735 6.014171665180696 a27.046217369299214,27.046217369299214 0 0,0 -0.46141374671051355,-0.05170237273588916 l 0.7248277471318862 -6.002613531937836" fill="#ff4506" stroke="none" /><path d="M 97.12497278360702 120.80226474461374 l -0.2489824032409481 1.801512639406063 a22.818636859591116,22.818636859591116 0 0,0 -0.38756356628910715,-0.0569584977601108 l 0.2798710751377402 -1.7969730683470697" fill="#ff0801" stroke="none" /><path d="M 96.05791012581884 120.62667999033965 l -0.7259938270243339 3.7987064787820013 a24.86745884901414,24.86745884901414 0 0,0 -0.4186063856686083,-0.08373300088929782 l 0.7910966982239003 -3.7856840812298422" fill="#ff2603" stroke="none" /><path d="M 95.70440661134978 120.55596938700252 l -2.466127641070486 11.801313510777824 a33.05623432592943,33.05623432592943 0 0,0 -0.5544594330779491,-0.12084185279960555 l 2.668349490767572 -11.7572401998445" fill="#ff970d" stroke="none" /><path d="M 95.35216902796893 120.47920084513623 l -2.6871595821256427 11.840120933062936 a33.141222769118635,33.141222769118635 0 0,0 -0.5537233074012974,-0.13067719283630833 l 2.890015043266828 -11.792247596580399" fill="#ff980e" stroke="none" /><path d="M 95.00130118170881 120.39639698878247 l -2.883458827866662 11.765496000433732 a33.11367949667748,33.11367949667748 0 0,0 -0.5509402065700199,-0.14004684607518167 l 3.0850043276620602 -11.714263922523287" fill="#ff980e" stroke="none" /><path d="M 94.6519064749342 120.30758222061772 l -3.083332943165676 11.707917403352763 a33.10711658332161,33.10711658332161 0 0,0 -0.5483462337667927,-0.14945420440052817 l 3.283860577867164 -11.653262704808089" fill="#ff980e" stroke="none" /><path d="M 94.30408787586889 120.21278271476187 l -3.2937266078062395 11.688273764506679 a33.14349120150486,33.14349120150486 0 0,0 -0.5462994111485341,-0.15901979673241412 l 3.4938860313363804 -11.630010273471749" fill="#ff980e" stroke="none" /><path d="M 93.95794788825049 120.11202640906438 l -3.5234669862592805 11.7284756517259 a33.24630396145655,33.24630396145655 0 0,0 -0.5451750567392607,-0.16889662616311935 l 3.724282675870175 -11.666262437756131" fill="#ff9a0e" stroke="none" /><path d="M 93.61358852112213 120.00534299687104 l -3.719627113599946 11.651678955253125 a33.230995394509655,33.230995394509655 0 0,0 -0.5419457299024814,-0.17814832582893153 l 3.919095581150171 -11.586109708022171" fill="#ff990e" stroke="none" /><path d="M 93.27111125876986 119.89276391827306 l -3.9764513117603326 11.755671734125672 a33.40999528425864,33.40999528425864 0 0,0 -0.5417100262044338,-0.18843486711159976 l 4.177667110009788 -11.685678434445482" fill="#ff9c0e" stroke="none" /><path d="M 92.93061703081489 119.77432235084164 l -4.133533633877434 11.56222924696923 a33.27889430941836,33.27889430941836 0 0,0 -0.5362828026315802,-0.19693047341714162 l 4.331405588163133 -11.489567924543369" fill="#ff9a0e" stroke="none" /><path d="M 92.59220618246901 119.65005319985036 l -4.288315853890605 11.375267285017092 a33.15674128491306,33.15674128491306 0 0,0 -0.5308674335863688,-0.20535092764256385 l 4.482955549970502 -11.299976469236489" fill="#ff980e" stroke="none" /><path d="M 92.25597844496254 119.51999308798841 l -4.445930662986977 11.206649567591718 a33.05633833263199,33.05633833263199 0 0,0 -0.5256674626458034,-0.2137843807808517 l 4.637652586823221 -11.128677930231575" fill="#ff970d" stroke="none" /><path d="M 91.92203290615298 119.3841803445677 l -4.730378803880449 11.351187095374861 a33.297395338135885,33.297395338135885 0 0,0 -0.5257261134433077,-0.22440121622185774 l 4.924539992494188 -11.2683112294936" fill="#ff9a0e" stroke="none" /><path d="M 91.59046798132341 119.24265499422711 l -4.88916135428088 11.187357981703787 a33.209048994863814,33.209048994863814 0 0,0 -0.5204120441962011,-0.23277368799499074 l 5.080486801332715 -11.101780542798942" fill="#ff990e" stroke="none" /><path d="M 91.26138138417905 119.09545874513695 l -5.040202484624587 11.01375204063003 a33.112240713365054,33.112240713365054 0 0,0 -0.5148343000913161,-0.24096844795048966 l 5.228525498587393 -10.925607361109012" fill="#ff980e" stroke="none" /><path d="M 90.93487009805054 118.94263497670748 l -5.210080205800578 10.887063793385401 a33.06951091768504,33.06951091768504 0 0,0 -0.5099629606003998,-0.2494484385994995 l 5.396203415663048 -10.79602160468868" fill="#ff970e" stroke="none" /><path d="M 90.6110303473126 118.78422872680471 l -5.54854877417328 11.100814373819016 a33.41025677660888,33.41025677660888 0 0,0 -0.5108154269775441,-0.2608259967187506 l 5.738291422864407 -11.003930425427429" fill="#ff9c0e" stroke="none" /><path d="M 90.28995756902619 118.62028667847754 l -5.565511109867855 10.672601393318327 a33.03658317026567,33.03658317026567 0 0,0 -0.5006004882369515,-0.266541563551544 l 5.747900413891369 -10.575489362044209" fill="#ff970d" stroke="none" /><path d="M 89.97174638481275 118.45085714620012 l -10.011730629566241 18.420456713680114 a41.96539948914777,41.96539948914777 0 0,0 -0.6299921945383218,-0.3494460505405007 l 10.326467012260666 -18.245877747706462" fill="#f6ff19" stroke="none" /><line stroke="#e1ed5e" stroke-width="0.3" x1="58.13341422392154" x2="55.67067388415222" y1="173.97424548756322" y2="178.32567169271397" /><path d="M 57.64086615596768 174.84453072859336 a86.0,86.0 0 0,1 -31.369924170532247,-30.572349798747897" fill="none" id="id56" stroke="none" /><text fill="#e1ed5e" style="font-size:6.75px; font-family:Arial;" text-anchor="middle"><textPath startOffset="22.145653131862474" xlink:href="#id56">August</textPath></text><path d="M 89.65649057296885 118.27599006163327 l -6.557743340431337 11.586904131711574 a34.313915467526684,34.313915467526684 0 0,0 -0.510145850769684,-0.29453284426785 l 6.755681659061421 -11.472624390167551" fill="#ffa80f" stroke="none" /><path d="M 89.34428304082925 118.09573695890944 l -6.137660117905363 10.423088700870286 a33.095935258967614,33.095935258967614 0 0,0 -0.48708902284014144,-0.2924829630111444 l 6.315681897302932 -10.316191737323223" fill="#ff980e" stroke="none" /><path d="M 89.03521579738668 117.91015095944536 l -6.368121913045888 10.401848562019161 a33.196369550263526,33.196369550263526 0 0,0 -0.4834590763058811,-0.30171422009355037 l 6.545745118141482 -10.290998545084063" fill="#ff990e" stroke="none" /><path d="M 88.72937992617639 117.7192867562869 l -7.1098440233099 11.177855718346553 a34.24742769355501,34.24742769355501 0 0,0 -0.493349473120932,-0.3197831679977547 l 7.300679128687841 -11.054158708644904" fill="#ffa70f" stroke="none" /><path d="M 88.4268655584334 117.5232005979908 l -7.21322121651445 10.921736282669151 a34.08873117404991,34.08873117404991 0 0,0 -0.48552695372484034,-0.32668420284555805 l 7.399644458336296 -10.796302405766472" fill="#ffa50f" stroke="none" /><path d="M 88.1277618465304 117.32195027204791 l -7.229028904373449 10.547369213627073 a33.78694084716258,33.78694084716258 0 0,0 -0.47559931279251794,-0.33200525723321167 l 7.409023308339732 -10.421719140588731" fill="#ffa10e" stroke="none" /><path d="M 87.83215693770417 117.11559508785305 l -7.269046053328565 10.224823601583624 a33.54535962852054,33.54535962852054 0 0,0 -0.46647057263632985,-0.33768872140392175 l 7.443497636338848 -10.098534108806637" fill="#ff9e0e" stroke="none" /><path d="M 86.13680546590413 115.77377054828092 l -4.400457049450933 5.006912341516186 a27.665822787900193,27.665822787900193 0 0,0 -0.3540368640388444,-0.3165819469231716 l 4.485758940313149 -4.930634864709631" fill="#ff4e07" stroke="none" /><line stroke="#e1ed5e" stroke-width="0.3" x1="26.387840678322732" x2="22.057713659400548" y1="142.50000000000003" y2="145.00000000000006" /><path d="M 25.521815274538298 143.00000000000003 a86.0,86.0 0 0,1 -11.493303480769221,-40.785679425670985" fill="none" id="id57" stroke="none" /><text fill="#e1ed5e" style="font-size:6.75px; font-family:Arial;" text-anchor="middle"><textPath startOffset="21.40746469413373" xlink:href="#id57">September</textPath></text><path d="M 79.48165901384964 104.47187691870673 l -3.663655153318807 0.7984765887888279 a24.749657843761653,24.749657843761653 0 0,0 -0.0869093536053643,-0.4158927185418344 l 3.676822217748538 -0.7354674189615844" fill="#ff2403" stroke="none" /><path d="M 79.407916724674 104.11899336999214 l -3.7650514375919935 0.7531157339336896 a24.839634831128087,24.839634831128087 0 0,0 -0.08004715177998652,-0.41884052281959966 l 3.7774248816541367 -0.6883726460807753" fill="#ff2603" stroke="none" /><path d="M 79.0935383218832 101.97986365728391 l -6.37081071994209 0.6033223988854474 a27.399314584103983,27.399314584103983 0 0,0 -0.04032445496950528,-0.46863129118777225 l 6.380228797609336 -0.49387006032201314" fill="#ff4a06" stroke="none" /><path d="M 79.03789590574601 101.26102812881392 l -6.308817527478691 0.3795227962771946 a27.320222792585433,27.320222792585433 0 0,0 -0.024143805272509578,-0.4683833722172713 l 6.3144029222077735 -0.2711676306831925" fill="#ff4906" stroke="none" /><path d="M 79.01933749520258 100.90099992219065 l -6.293910105428178 0.2702875809555129 a27.29971108794917,27.29971108794917 0 0,0 -0.01608773664804698,-0.46837689924750103 l 6.297622529073073 -0.16220441714389205" fill="#ff4906" stroke="none" /><line stroke="#e1ed5e" stroke-width="0.3" x1="15.003131293944662" x2="10.003315487706104" y1="100.72959589197737" y2="100.7725132973878" /><path d="M 14.003168132696942 100.73817937305945 a86.0,86.0 0 0,1 10.791469493833604,-42.45332614584628" fill="none" id="id58" stroke="none" /><text fill="#e1ed5e" style="font-size:6.75px; font-family:Arial;" text-anchor="middle"><textPath startOffset="22.145653131862435" xlink:href="#id58">October</textPath></text><path d="M 79.00077361379809 100.18025310272382 l -1.2380131077353507 0.010626853569648062 a22.23805871627372,22.23805871627372 0 0,0 0.0,-0.38175991258693076 l 1.2380131077353507 0.010626853569647607" fill="#ff0000" stroke="none" /><path d="M 79.01933749520258 99.09900007780938 l -12.194217794792412 -0.5236721805982625 a33.205456983643195,33.205456983643195 0 0,0 0.029344785856411613,-0.5692810060917998 l 12.18343141947943 0.7329249800667742" fill="#ff990e" stroke="none" /><path d="M 79.13060592940154 97.66154086499901 l -6.0182570955516645 -0.6743582604396022 a27.055920865696734,27.055920865696734 0 0,0 0.055680974006615314,-0.4611183406900951 l 6.005794035285381 0.7775702780531336" fill="#ff4506" stroke="none" /><path d="M 79.34024301695615 96.23510406497455 l -5.976327643776309 -1.0890859786443927 a27.074751054540812,27.074751054540812 0 0,0 0.0872499423522998,-0.4565285667035459 l 5.95675140914185 1.1915171103812532" fill="#ff4506" stroke="none" /><path d="M 79.407916724674 95.88100663000787 l -1.326638619438913 -0.265364878569232 a22.35291852872405,22.35291852872405 0 0,0 0.07849311343164467,-0.3756179625973464 l 1.3218877951829016 0.28809929245198757" fill="#ff0200" stroke="none" /><path d="M 79.48165901384962 95.52812308129327 l -6.114527033504528 -1.332632707897469 a27.25806286143051,27.25806286143051 0 0,0 0.10356654053907799,-0.4563332869243429 l 6.090749631407788 1.43740032876082" fill="#ff4806" stroke="none" /><path d="M 79.56144815229197 95.17655741523228 l -1.411211294927601 -0.3330420230737778 a22.44997734743144,22.44997734743144 0 0,0 0.09173752789696031,-0.3743204193277533 l 1.4052862405143427 0.35721826700964876" fill="#ff0300" stroke="none" /><path d="M 79.83685265289637 94.1308016681162 l -11.583842115542746 -3.371887615110594 a33.06461869462761,33.06461869462761 0 0,0 0.16331352041350278,-0.5436175946126711 l 11.524252275125614 3.570242813313989" fill="#ff970d" stroke="none" /><path d="M 80.28708602549916 92.7611449362534 l -23.797801581231443 -8.73888237452709 a46.35159610863746,46.35159610863746 0 0,0 0.2806905133926132,-0.7445649348130026 l 23.64428038402439 9.146115589534238" fill="#c2ff1e" stroke="none" /><path d="M 80.68587082218212 91.75594674310238 l -5.735502113950828 -2.4481447984082294 a27.23613642034134,27.23613642034134 0 0,0 0.1872369182790809,-0.4284347110665566 l 5.692631313654769 2.5462415792506525" fill="#ff4806" stroke="none" /><path d="M 80.9802524753101 91.09779779509293 l -5.056714204511799 -2.3667975761799065 a26.583197051217383,26.583197051217383 0 0,0 0.1969950881385007,-0.41164396839029205 l 5.015339858413393 2.453254046635286" fill="#ff3f05" stroke="none" /><path d="M 81.1358732173502 90.77261029715801 l -5.98760178943355 -2.9288360777639197 a27.665542435484106,27.665542435484106 0 0,0 0.21233973956169086,-0.42482171987585743 l 5.936442136660115 3.0311896538035477" fill="#ff4e07" stroke="none" /><path d="M 81.29705330413844 90.45014215332179 l -5.381062024117518 -2.747608611099323 a27.041951802785825,27.041951802785825 0 0,0 0.21465119831871304,-0.4116219755975187 l 5.333102756823865 2.839576829801328" fill="#ff4506" stroke="none" /><path d="M 81.46374523516351 90.13048839642627 l -3.328816970228297 -1.7724075402850732 a24.771266486227045,24.771266486227045 0 0,0 0.203070891501019,-0.3736275680106933 l 3.297900729111927 1.8292899417703863" fill="#ff2503" stroke="none" /><line stroke="#e1ed5e" stroke-width="0.3" x1="26.387840678322718" x2="22.05771365940052" y1="57.49999999999999" y2="54.99999999999999" /><path d="M 25.521815274538284 56.99999999999999 a86.0,86.0 0 0,1 29.574782752854787,-30.34633250058573" fill="none" id="id59" stroke="none" /><text fill="#e1ed5e" style="font-size:6.75px; font-family:Arial;" text-anchor="middle"><textPath startOffset="21.40746469413373" xlink:href="#id59">November</textPath></text><path d="M 81.99639281039701 89.18935116829357 l -54.01082156880897 -32.43194649511929 a84.0,84.0 0 0,0 0.752928142178428,-1.2298515355018278 l 53.44612546217515 33.35433514674566" fill="#4dd2ff" stroke="none" /><path d="M 82.18462484594161 88.88188828441811 l -5.203140650419583 -3.2471445884804826 a27.13323899799664,27.13323899799664 0 0,0 0.24999055785708643,-0.393026679279331 l 5.146632400936607 3.3359849424384858" fill="#ff4606" stroke="none" /><path d="M 82.37810715431573 88.57770195909679 l -5.367509766213295 -3.479154982046215 a27.39645843256189,27.39645843256189 0 0,0 0.2591907976511504,-0.3924479027981964 l 5.306994529641416 3.5707827631834723" fill="#ff4a06" stroke="none" /><path d="M 82.576782715395 88.27688183743585 l -6.000092257702405 -4.037129846591721 a28.23184101727783,28.23184101727783 0 0,0 0.27399709275807743,-0.3997699468363563 l 5.929905428129015 4.139534528498112" fill="#ff5607" stroke="none" /><path d="M 82.78059297857968 87.97951657250589 l -6.558300099050753 -4.578202812391046 a28.998202371820458,28.998202371820458 0 0,0 0.28844222120217333,-0.4057301067298501 l 6.478742779318607 4.690110145830417" fill="#ff6008" stroke="none" /><path d="M 82.98947788004972 87.6856937992154 l -3.485205029420938 -2.523019669952926 a25.30259019104427,25.30259019104427 0 0,0 0.2577225210077451,-0.34965009679031395 l 3.441380488829374 2.5824760760121035" fill="#ff2c04" stroke="none" /><path d="M 83.2033758604659 87.39550010848427 l -1.1182770783003586 -0.8391759674460614 a22.398127293271617,22.398127293271617 0 0,0 0.2334183747190013,-0.30555214533766084 l 1.1037067262270506 0.8582490260246065" fill="#ff0200" stroke="none" /><path d="M 83.42222388311158 87.10902102172516 l -4.826291534490389 -3.7529534887830973 a27.113734526855318,27.113734526855318 0 0,0 0.28886917163478426,-0.36497676174923144 l 4.761155932214043 3.8352501944470117" fill="#ff4606" stroke="none" /><path d="M 83.64595745247003 86.82634096563983 l -4.696693542148357 -3.7833238560632623 a27.030959262730555,27.030959262730555 0 0,0 0.29419103421562326,-0.3588652269500128 l 4.631055688694104 3.863391364711768" fill="#ff4506" stroke="none" /><path d="M 83.8745106332314 86.54754324733833 l -2.0024122840610783 -1.6704835456245215 a23.607713602288598,23.607713602288598 0 0,0 0.2622765679324272,-0.3089611375393496 l 1.9734411526215365 1.704611465613428" fill="#ff1402" stroke="none" /><path d="M 84.10781606972428 86.27271002978789 l -9.338871136684695 -8.066694461262198 a33.34042437029459,33.34042437029459 0 0,0 0.37784057728835346,-0.42991321771603286 l 9.199019495437748 8.22581995678953" fill="#ff9b0e" stroke="none" /><path d="M 85.34317274990677 84.96080404539775 l -4.446082445126418 -4.562072267185108 a27.370255291578257,27.370255291578257 0 0,0 0.33929669148993685,-0.32503855524568775 l 4.367113267771181 4.637722952736365" fill="#ff4a06" stroke="none" /><path d="M 85.86807049272753 84.46653392183569 l -2.6848248566242074 -2.951092829519332 a24.98964076066851,24.98964076066851 0 0,0 0.3197900209291107,-0.2859582086379339 l 2.6337698088717048 2.996746568040667" fill="#ff2803" stroke="none" /><path d="M 86.13680546590413 84.22622945171909 l -2.383271184365264 -2.7117251167505967 a24.61018484942833,24.61018484942833 0 0,0 0.31972206827397615,-0.2761683076617079 l 2.336369636328439 2.752237556877015" fill="#ff2203" stroke="none" /><path d="M 86.40962598614128 83.9905735841838 l -2.4868398051788136 -2.9294910374308984 a24.84269306021308,24.84269306021308 0 0,0 0.3274807165526099,-0.27319606100347893 l 2.436184754464295 2.9717492823462592" fill="#ff2603" stroke="none" /><path d="M 86.68645165197937 83.75963576809568 l -3.059219367742796 -3.731750206534951 a25.825430835059837,25.825430835059837 0 0,0 0.345260467246997,-0.27811739270806424 l 2.994708130140553 3.7837158930364136" fill="#ff3404" stroke="none" /><path d="M 86.96720088162412 83.53348406188908 l -7.488477118471801 -9.461446209942151 a33.06632727624709,33.06632727624709 0 0,0 0.448111805250299,-0.3484544501426561 l 7.324955368586258 9.588601711705612" fill="#ff970d" stroke="none" /><path d="M 87.25179093698888 83.31218511350988 l -4.481950970066874 -5.867017692376508 a28.383073960129504,28.383073960129504 0 0,0 0.38972259723468566,-0.2924551025109823 l 4.380575383921436 5.943091822151491" fill="#ff5808" stroke="none" /><path d="M 87.54013794807813 83.09580414077388 l -3.6349061781205805 -4.931448334565125 a27.126314193724014,27.126314193724014 0 0,0 0.3772094696728372,-0.2730705664783212 l 3.549715698073775 4.993119672416526" fill="#ff4606" stroke="none" /><path d="M 87.83215693770416 82.88440491214696 l -3.628356868850724 -5.1037383276179344 a27.262037885906835,27.262037885906835 0 0,0 0.3837520106514687,-0.2678887071178057 l 3.5402097670254897 5.165271850540867" fill="#ff4806" stroke="none" /><path d="M 88.12776184653039 82.6780497279521 l -3.4079376931968706 -4.972282941826094 a27.02807075060394,27.02807075060394 0 0,0 0.3849617279563253,-0.25901943086507373 l 3.322079677143556 5.030052046748277" fill="#ff4506" stroke="none" /><path d="M 88.4268655584334 82.4767994020092 l -2.0019032058078987 -3.0311366060985723 a24.632548082304584,24.632548082304584 0 0,0 0.3548428432865133,-0.23000484392871023 l 1.9495747302643596 3.065055291731189" fill="#ff2303" stroke="none" /><path d="M 88.72937992617638 82.28071324371311 l -14.20096610937236 -22.32627744170897 a47.4599717090496,47.4599717090496 0 0,0 0.6911886569168305,-0.4313528420081426 l 13.81561332366583 22.566766080558647" fill="#b6ff1f" stroke="none" /><path d="M 89.03521579738668 82.08984904055464 l -0.7581581722554622 -1.2383943965806625 a22.45204149239618,22.45204149239618 0 0,0 0.3304376463672856,-0.19841831239882207 l 0.7367877693307424 1.251226709515408" fill="#ff0300" stroke="none" /><line stroke="#e1ed5e" stroke-width="0.3" x1="56.869717070023135" x2="54.33264160355391" y1="26.7553504044142" y2="22.446841604673864" /><path d="M 56.362301976729285 25.89364864446614 a86.0,86.0 0 0,1 42.16139366436587,-11.88097634709845" fill="none" id="id60" stroke="none" /><text fill="#e1ed5e" style="font-size:6.75px; font-family:Arial;" text-anchor="middle"><textPath startOffset="22.145653131862474" xlink:href="#id60">December</textPath></text><path d="M 89.34428304082924 81.90426304109057 l -0.7170854162606632 -1.2177678066566124 a22.413212625595662,22.413212625595662 0 0,0 0.33321780005511203,-0.19238338656059278 l 0.6960751483451515 1.2298980904933792" fill="#ff0300" stroke="none" /><path d="M 89.65649057296885 81.72400993836675 l -0.6927891106445889 -1.2240919767385363 a22.406541118966445,22.406541118966445 0 0,0 0.3363710624320684,-0.18657935812861884 l 0.6716738600564179 1.2358042503003013" fill="#ff0200" stroke="none" /><path d="M 89.97174638481275 81.54914285379989 l -0.6778689688439573 -1.2472025526997286 a22.41951419379388,22.41951419379388 0 0,0 0.33972096005224456,-0.18088227636864654 l 0.6563591930051509 1.2586552967909506" fill="#ff0300" stroke="none" /><path d="M 90.61103034731259 81.2157712731953 l -2.7049334900076953 -5.4116789431261285 a27.050035881615905,27.050035881615905 0 0,0 0.4171369941597626,-0.20404260684488443 l 2.6116362465858796 5.457315300068227" fill="#ff4506" stroke="none" /><path d="M 90.93487009805054 81.0573650232925 l -2.7305836397074597 -5.705869603614222 a27.32558573943052,27.32558573943052 0 0,0 0.424862483047402,-0.19885709463057166 l 2.632232442788535 5.751902929815336" fill="#ff4906" stroke="none" /><path d="M 93.95794788825049 79.88797359093562 l -1.761153527606713 -5.86230730926069 a27.121136229166353,27.121136229166353 0 0,0 0.447033798026663,-0.13012502346518423 l 1.6602597171984257 5.891676027028395" fill="#ff4606" stroke="none" /><path d="M 94.30408787586887 79.78721728523814 l -3.2637791206545654 -11.582000697531923 a33.03307916977407,33.03307916977407 0 0,0 0.5471199676021286,-0.14911998010438537 l 3.0644777521177593 11.636321171780446" fill="#ff970d" stroke="none" /><path d="M 94.6519064749342 79.69241777938228 l -0.9269719340992064 -3.519863420431309 a24.639878495925107,24.639878495925107 0 0,0 0.40995443438314594,-0.10420881410585127 l 0.8664122064906824 3.535257466372423" fill="#ff2303" stroke="none" /><path d="M 95.00130118170881 79.60360301121753 l -1.4378136643231754 -5.866770405554602 a27.04038931897653,27.04038931897653 0 0,0 0.4517906267801784,-0.1066213577580234 l 1.336890883803091 5.890587906958857" fill="#ff4506" stroke="none" /><path d="M 95.35216902796891 79.52079915486377 l -1.7305658815703384 -7.625192585033214 a28.819106101678173,28.819106101678173 0 0,0 0.48338915659296855,-0.10535241682455315 l 1.5994143083582515 7.653776459991481" fill="#ff5e08" stroke="none" /><path d="M 95.70440661134978 79.44403061299748 l -1.4990805144612824 -7.173642934952233 a28.328601186244725,28.328601186244725 0 0,0 0.47686952758708817,-0.09538726102744811 l 1.3757145013432175 7.198319592642548" fill="#ff5708" stroke="none" /><path d="M 96.05791012581881 79.37332000966035 l -1.6537435314317923 -8.653084961951315 a29.809696193768573,29.809696193768573 0 0,0 0.5034506592059773,-0.09174548093117199 l 1.5049581386747766 8.680198616813849" fill="#ff6b09" stroke="none" /></svg>