<?xml version="1.0" encoding="utf-8" ?>
<svg baseProfile="full" height="200mm" version="1.1" viewBox="0,0,200,200" width="200mm" xmlns="http://www.w3.org/2000/svg" xmlns:ev="http://www.w3.org/2001/xml-events" xmlns:xlink="http://www.w3.org/1999/xlink"><defs /><rect fill="#1a1a1a" height="200" width="200" x="0" y="0" /><text alignment-baseline="middle" fill="#e1ed5e" style="dominant-baseline: central; font-size:9.0px; font-family:Arial;" text-anchor="middle" x="100.0" y="100.0">2024</text><line stroke="#e1ed5e" stroke-width="0.3" x1="100.0" x2="100.0" y1="15.0" y2="10.0" /><path d="M 100.0 14.0 a86.0,86.0 0 0,1 42.35913384403234,11.155469271406648" fill="none" id="id49" stroke="none" /><text fill="#e1ed5e" style="font-size:6.75px; font-family:Arial;" text-anchor="middle"><textPath startOffset="22.145653131862478" xlink:href="#id49">January</textPath></text><line stroke="#e1ed5e" stroke-width="0.3" x1="143.13028292997686" x2="145.6673583964461" y1="26.7553504044142" y2="22.446841604673864" /><path d="M 143.63769802327073 25.89364864446614 a86.0,86.0 0 0,1 29.32050498858742,28.57503671076993" fill="none" id="id50" stroke="none" /><text fill="#e1ed5e" style="font-size:6.75px; font-family:Arial;" text-anchor="middle"><textPath startOffset="20.669276256404974" xlink:href="#id50">February</textPath></text><line stroke="#e1ed5e" stroke-width="0.3" x1="172.87174338648825" x2="177.1583165268699" y1="56.24261187166439" y2="53.66864786411523" /><path d="M 173.72905801456457 55.72781907015455 a86.0,86.0 0 0,1 12.242430191666344,42.057860355516425" fill="none" id="id51" stroke="none" /><text fill="#e1ed5e" style="font-size:6.75px; font-family:Arial;" text-anchor="middle"><textPath startOffset="22.145653131862474" xlink:href="#id51">March</textPath></text><line stroke="#e1ed5e" stroke-width="0.3" x1="184.99686870605535" x2="189.99668451229388" y1="99.2704041080226" y2="99.22748670261217" /><path d="M 185.99683186730306 99.26182062694052 a86.0,86.0 0 0,1 -10.086455211305974,41.156179273409016" fill="none" id="id52" stroke="none" /><text fill="#e1ed5e" style="font-size:6.75px; font-family:Arial;" text-anchor="middle"><textPath startOffset="21.40746469413373" xlink:href="#id52">April</textPath></text><path d="M 120.82617615685814 102.69636545807757 l 22.384754875617407 2.8981546770539715 a43.57158725862244,43.57158725862244 0 0,0 -0.10240460731457876,0.7409487257302038 l -22.331705751747617 -3.2819917109842605" fill="#faff18" stroke="none" /><path d="M 120.77682067341334 103.0534771498775 l 38.668132707143904 5.682883897668862 a60.083495959953176,60.083495959953176 0 0,0 -0.15873060490355398,1.0191643491337745 l -38.56488061010208 -6.345836428734088" fill="#3cff2e" stroke="none" /><path d="M 120.7213421655516 103.40968896794604 l 18.669376933590375 3.072038869891165 a39.92044021439772,39.92044021439772 0 0,0 -0.11707179030447772,0.6752389758586289 l -18.613890325793662 -3.3920708786703817" fill="#ffd513" stroke="none" /><path d="M 120.65975698304385 103.76489593502545 l 20.254047276630434 3.6909621116155296 a41.58760870993429,41.58760870993429 0 0,0 -0.13401846078666768,0.7012412176469485 l -20.187702523561608 -4.038105894295793" fill="#ffeb16" stroke="none" /><path d="M 120.35273937422433 105.17358676015961 l 26.064921497921883 6.62560111868909 a47.893841727741396,47.893841727741396 0 0,0 -0.2093884988228577,0.7950822355606665 l -25.947343518294293 -7.072063858622561" fill="#c4ff1e" stroke="none" /><path d="M 119.83427380445688 106.89939002012753 l 13.756481576470952 4.785218386944155 a35.56499572174785,35.56499572174785 0 0,0 -0.20553151586567645,0.5749082297140702 l -13.672309890561332 -5.020661573039147" fill="#ff9a0e" stroke="none" /><line stroke="#e1ed5e" stroke-width="0.3" x1="174.33088141563837" x2="178.70328620479359" y1="141.23008692659167" y2="143.65538615756765" /><path d="M 175.20536237346943 141.71514677278685 a86.0,86.0 0 0,1 -30.301960400862466,31.631185727798858" fill="none" id="id53" stroke="none" /><text fill="#e1ed5e" style="font-size:6.75px; font-family:Arial;" text-anchor="middle"><textPath startOffset="22.145653131862474" xlink:href="#id53">May</textPath></text><path d="M 111.8722381534696 117.32195027204791 l 13.113781854678354 19.133399636094524 a44.196082776335174,44.196082776335174 0 0,0 -0.6294863052368548,0.423546479244567 l -12.783399261344497 -19.35569578939621" fill="#f2ff19" stroke="none" /><line stroke="#e1ed5e" stroke-width="0.3" x1="143.1302829299769" x2="145.66735839644613" y1="173.24464959558577" y2="177.55315839532614" /><path d="M 143.63769802327073 174.10635135553383 a86.0,86.0 0 0,1 -40.68552437913181,11.842963189579606" fill="none" id="id54" stroke="none" /><text fill="#e1ed5e" style="font-size:6.75px; font-family:Arial;" text-anchor="middle"><textPath startOffset="21.407464694133747" xlink:href="#id54">June</textPath></text><path d="M 110.65571695917076 118.09573695890943 l 8.442443351924808 14.337114505978189 a37.638139983423315,37.638139983423315 0 0,0 -0.5595671808833073,0.32306626251265874 l -8.195083703181101 -14.47992766576702" fill="#ffb610" stroke="none" /><path d="M 109.06512990194946 118.94263497670748 l 1.7380503603136233 3.631856785579622 a25.026313793775525,25.026313793775525 0 0,0 -0.38911304304099575,0.18212455161252916 l -1.6754486034011213 -3.661157568762685" fill="#ff0000" stroke="none" /><path d="M 107.407793817531 119.65005319985036 l 4.139298623286566 10.979981376527837 a32.73429947298262,32.73429947298262 0 0,0 -0.5275067645076148,0.19370779065722823 l -3.9502027071248236 -11.049420016193787" fill="#ff720a" stroke="none" /><path d="M 107.06938296918513 119.77432235084164 l 3.751285587294135 10.4930134293985 a32.14340497276205,32.14340497276205 0 0,0 -0.5211735171449915,0.18129120321697625 l -3.5706062981041216 -10.555863065184067" fill="#ff6a09" stroke="none" /><path d="M 106.72888874123015 119.89276391827305 l 3.5223933774491285 10.413330132142157 a31.99293862197353,31.99293862197353 0 0,0 -0.5217549539932174,0.17151121674778727 l -3.343115685808177 -10.472262270291964" fill="#ff6809" stroke="none" /><path d="M 106.38641147887787 120.00534299687104 l 5.835261569038597 18.278873754246113 a40.187691453188584,40.187691453188584 0 0,0 -0.6590003807224025,0.20416000249523397 l -5.52062055544457 -18.376350344547994" fill="#ffd814" stroke="none" /><path d="M 106.0420521117495 120.11202640906438 l 3.7659155156886825 12.535507954085688 a34.08896784846881,34.08896784846881 0 0,0 -0.5618835670948952,0.1635561174024738 l -3.5501719362121804 -12.598307765790679" fill="#ff850c" stroke="none" /><path d="M 103.2317021107853 120.74984581791261 l 1.678252859647114 10.775587256303904 a31.905494641653483,31.905494641653483 0 0,0 -0.5418994729450625,0.07964056118970161 l -1.493028281094366 -10.80280889079249" fill="#ff6609" stroke="none" /><path d="M 101.08105385017728 120.97215588758144 l 1.1581413071868283 22.467631959486955 a43.497461571350044,43.497461571350044 0 0,0 -0.7460316732026498,0.03203781002404313 l -0.7722838733833489 -22.48420233793683" fill="#fbff18" stroke="none" /><line stroke="#e1ed5e" stroke-width="0.3" x1="101.45913802915013" x2="101.54496967792366" y1="184.9874750549273" y2="189.98673829345242" /><path d="M 101.47630435890484 185.9873277026323 a86.0,86.0 0 0,1 -42.54439059252881,-10.42667462771756" fill="none" id="id55" stroke="none" /><text fill="#e1ed5e" style="font-size:6.75px; font-family:Arial;" text-anchor="middle"><textPath startOffset="22.145653131862474" xlink:href="#id55">July</textPath></text><path d="M 100.36049292484886 120.99690560180557 l 0.47458049486699766 27.64193459652077 a48.646008299290514,48.646008299290514 0 0,0 -0.8350734197158466,0.007168100964180488 l -3.385659557292729e-15 -27.646008299290514" fill="#bbff1f" stroke="none" /><path d="M 100.0 121.0 l 1.8184643601818293e-15 14.848888360692364 a35.848888360692364,35.848888360692364 0 0,0 -0.6153938389393315,-0.005282415972182149 l 0.2549009140904776 -14.846700342914616" fill="#ff9e0e" stroke="none" /><path d="M 99.63950707515114 120.99690560180557 l -0.29960714108492514 17.450613938192216 a38.453185705160465,38.453185705160465 0 0,0 -0.6599055314145249,-0.01699682564316262 l 0.599125986570194 -17.442899395199007" fill="#ffc112" stroke="none" /><path d="M 99.27912038922189 120.98762331915562 l -0.25293546419653773 7.363940063282941 a28.36828267676206,28.36828267676206 0 0,0 -0.48654879219824654,-0.020894498627598537 l 0.37931001699562306 -7.358512996229513" fill="#ff3304" stroke="none" /><path d="M 98.91894614982273 120.97215588758144 l -0.9340168795169189 18.11967793801315 a39.14373489964354,39.14373489964354 0 0,0 -0.670766384869857,-0.04035164005389862 l 1.2449276165192222 -18.100974320134558" fill="#ffcb12" stroke="none" /><path d="M 98.55909050195518 120.95050786540614 l -1.2471955446632361 18.13394949760671 a39.17678797555769,39.17678797555769 0 0,0 -0.670540584930102,-0.051904082068635546 l 1.5583051243685742 -18.109867648543023" fill="#ffcb12" stroke="none" /><path d="M 98.19965949673042 120.92268563240118 l -0.7787866678072819 9.050681576982267 a30.084126027410704,30.084126027410704 0 0,0 -0.5141526650675203,-0.048690791944404836 l 0.9340388962598175 -9.035979029532678" fill="#ff4c07" stroke="none" /><path d="M 97.84075906011543 120.88869738790638 l -1.8681122792804064 18.072291687191953 a39.168587460640566,39.168587460640566 0 0,0 -0.6682237462931729,-0.07487586455350538 l 2.1780719271743787 -18.037560062131476" fill="#ffcb12" stroke="none" /><path d="M 97.12497278360702 120.80226474461374 l -0.7481799434491655 5.41345736537623 a26.464914809448153,26.464914809448153 0 0,0 -0.44949384260769215,-0.06606011569275162 l 0.8409988916645426 -5.399816176384595" fill="#ff1602" stroke="none" /><path d="M 96.05791012581884 120.62667999033965 l -2.1815759402155925 11.414927165453898 a32.62152467516827,32.62152467516827 0 0,0 -0.5491344580957406,-0.10984227102659523 l 2.377206883842291 -11.375795497764441" fill="#ff710a" stroke="none" /><path d="M 95.70440661134978 120.55596938700252 l -7.410592937561817 35.462369871074884 a57.228394451854484,57.228394451854484 0 0,0 -0.9599043505946687,-0.20920668549605942 l 8.018259704775621 -35.32993172744511" fill="#5aff2a" stroke="none" /><path d="M 95.35216902796893 120.47920084513623 l -8.074783109262711 35.57898427688326 a57.483780566661956,57.483780566661956 0 0,0 -0.9604385848720747,-0.2266608908911265 l 8.684353847874673 -35.43512724234591" fill="#57ff2a" stroke="none" /><path d="M 95.00130118170881 120.39639698878247 l -8.664652741276429 35.35474000440596 a57.40101438017974,57.40101438017974 0 0,0 -0.9550290756156534,-0.24276465640935227 l 9.27028711011746 -35.20079011616134" fill="#58ff2a" stroke="none" /><path d="M 94.6519064749342 120.30758222061772 l -9.265264681457005 35.18171913647646 a57.38129314655223,57.38129314655223 0 0,0 -0.9503943330852085,-0.25903420169824504 l 9.867840415476907 -35.01748444063407" fill="#58ff2a" stroke="none" /><path d="M 94.30408787586889 120.21278271476187 l -9.897487352874093 35.12269096255857 a57.49059709502841,57.49059709502841 0 0,0 -0.9476092650784366,-0.275835246458932 l 10.498956630334137 -34.94761202179713" fill="#57ff2a" stroke="none" /><path d="M 93.95794788825049 120.11202640906438 l -10.58784595300635 35.24349566728752 a57.79954440987969,57.79954440987969 0 0,0 -0.9478006920616225,-0.29363107718414716 l 11.191287277939606 -35.05654800229672" fill="#54ff2b" stroke="none" /><path d="M 93.61358852112213 120.00534299687104 l -11.177297541031601 35.01272535068616 a57.753542914980756,57.753542914980756 0 0,0 -0.941870250888865,-0.30961145938749235 l 11.77669052956821 -34.815692969896645" fill="#54ff2b" stroke="none" /><path d="M 93.27111125876986 119.89276391827306 l -11.949041694653836 35.32521856467722 a58.29142882838887,58.29142882838887 0 0,0 -0.9451378597768965,-0.3287680094405157 l 12.553685326475755 -35.11489212266812" fill="#4eff2b" stroke="none" /><path d="M 92.93061703081489 119.77432235084164 l -13.393220077423099 37.46322023876111 a60.7853140580819,60.7853140580819 0 0,0 -0.9795433189222054,-0.35970187479696103 l 14.034352547999422 -37.22778751495543" fill="#34ff2f" stroke="none" /><path d="M 92.59220618246901 119.65005319985036 l -13.979936391486214 37.083442194775834 a60.631052301488054,60.631052301488054 0 0,0 -0.9707543589507566,-0.3755086402209452 l 14.614463012930498 -36.83799366641685" fill="#36ff2e" stroke="none" /><path d="M 92.25597844496254 119.51999308798841 l -13.359804181797882 33.675433808152896 a57.22870698690848,57.22870698690848 0 0,0 -0.9100605423865492,-0.3701136999196153 l 13.935919185374873 -33.44113285165399" fill="#5aff2a" stroke="none" /><path d="M 91.92203290615298 119.3841803445677 l -15.369532759294943 36.881283540365516 a60.9556205410938,60.9556205410938 0 0,0 -0.9624164639355947,-0.41079835963365413 l 16.00038429840097 -36.61201053107246" fill="#33ff2f" stroke="none" /><path d="M 91.59046798132341 119.24265499422711 l -16.283937633749826 37.26083605340386 a61.66370037586957,61.66370037586957 0 0,0 -0.9663189201916481,-0.43222216192126517 l 16.92116995679711 -36.97581014057274" fill="#30ff34" stroke="none" /><path d="M 91.26138138417905 119.09545874513695 l -16.629647057733987 36.338779994613034 a60.963134170904176,60.963134170904176 0 0,0 -0.9478643497412783,-0.44364837615567515 l 17.251000121346756 -36.047955386886834" fill="#33ff2f" stroke="none" /><path d="M 90.93487009805054 118.94263497670748 l -17.141521092086688 35.819186322206164 a60.70951843242844,60.70951843242844 0 0,0 -0.9361978722179728,-0.45794129277545803 l 17.75387921356673 -35.51965127933349" fill="#35ff2f" stroke="none" /><path d="M 90.6110303473126 118.78422872680471 l -18.138461344543995 36.289073162644314 a61.56970065148705,61.56970065148705 0 0,0 -0.941350230782667,-0.4806601352235759 l 18.758738797040245 -35.9723550757479" fill="#30ff33" stroke="none" /><path d="M 90.28995756902619 118.62028667847754 l -17.421086009824688 33.40722948013088 a58.67674640013168,58.67674640013168 0 0,0 -0.8891236646560712,-0.4734082713397857 l 17.99199849026732 -33.10325074106852" fill="#4aff2c" stroke="none" /><path d="M 89.97174638481275 118.45085714620012 l -30.084760845561753 55.35257143860034 a84.0,84.0 0 0,0 -1.2610232473755896,-0.6994683382674065 l 31.030528281093442 -54.82797018489979" fill="#4dd2ff" stroke="none" /><line stroke="#e1ed5e" stroke-width="0.3" x1="58.13341422392154" x2="55.67067388415222" y1="173.97424548756322" y2="178.32567169271397" /><path d="M 57.64086615596768 174.84453072859336 a86.0,86.0 0 0,1 -31.369924170532247,-30.572349798747897" fill="none" id="id56" stroke="none" /><text fill="#e1ed5e" style="font-size:6.75px; font-family:Arial;" text-anchor="middle"><textPath startOffset="22.145653131862474" xlink:href="#id56">August</textPath></text><path d="M 89.65649057296885 118.27599006163327 l -19.70569798400574 34.81808017422625 a61.00766476633815,61.00766476633815 0 0,0 -0.9070024980142133,-0.523658136384173 l 20.300492949880354 -34.47467514056591" fill="#32ff2f" stroke="none" /><path d="M 89.34428304082925 118.09573695890944 l -22.753936448317933 38.641158574893915 a65.84284513614395,65.84284513614395 0 0,0 -0.9690412688878199,-0.5818814391499999 l 23.41391047376318 -38.244863135208" fill="#35ff68" stroke="none" /><path d="M 89.03521579738668 117.91015095944536 l -19.13589486952338 31.257046151036416 a57.64949394664914,57.64949394664914 0 0,0 -0.8395849145716967,-0.5239630821245337 l 19.66964391288479 -30.923947272070333" fill="#55ff2b" stroke="none" /><path d="M 88.72937992617639 117.7192867562869 l -21.364733531568458 33.58890969954316 a60.80787225761998,60.80787225761998 0 0,0 -0.8759645252290681,-0.5677896221503343 l 21.938183689054537 -33.217206235688934" fill="#34ff2f" stroke="none" /><path d="M 88.4268655584334 117.5232005979908 l -21.675376940736875 32.819283322710774 a60.3309969787112,60.3309969787112 0 0,0 -0.8592964351971836,-0.5781729907821175 l 22.235569664031065 -32.44236065787153" fill="#39ff2e" stroke="none" /><path d="M 88.1277618465304 117.32195027204791 l -21.72287826956357 31.694328591375502 a59.4241318076591,59.4241318076591 0 0,0 -0.8364792888133912,-0.5839275078471327 l 22.263752649550725 -31.316756267723243" fill="#42ff2d" stroke="none" /><path d="M 87.83215693770417 117.11559508785305 l -21.84312784484484 30.72509480361698 a58.69819206192105,58.69819206192105 0 0,0 -0.8162374637522755,-0.5908929773183698 l 22.36734631897107 -30.345601054925545" fill="#4aff2c" stroke="none" /><path d="M 87.54013794807813 116.9041958592261 l -6.47111581219138 8.779311413014032 a31.90649571317349,31.90649571317349 0 0,0 -0.4381020320583344,-0.3287599323339533 l 6.620870833160481 -8.666932453416063" fill="#ff6609" stroke="none" /><path d="M 86.13680546590413 115.77377054828092 l -13.22315819733888 15.045526686901296 a41.03047143724055,41.03047143724055 0 0,0 -0.5250629829100611,-0.46951455701719563 l 13.479486207072313 -14.816316600000718" fill="#ffe415" stroke="none" /><line stroke="#e1ed5e" stroke-width="0.3" x1="26.387840678322732" x2="22.057713659400548" y1="142.50000000000003" y2="145.00000000000006" /><path d="M 25.521815274538298 143.00000000000003 a86.0,86.0 0 0,1 -11.493303480769221,-40.785679425670985" fill="none" id="id57" stroke="none" /><text fill="#e1ed5e" style="font-size:6.75px; font-family:Arial;" text-anchor="middle"><textPath startOffset="21.40746469413373" xlink:href="#id57">September</textPath></text><line stroke="#e1ed5e" stroke-width="0.3" x1="15.003131293944662" x2="10.003315487706104" y1="100.72959589197737" y2="100.7725132973878" /><path d="M 14.003168132696942 100.73817937305945 a86.0,86.0 0 0,1 10.791469493833604,-42.45332614584628" fill="none" id="id58" stroke="none" /><text fill="#e1ed5e" style="font-size:6.75px; font-family:Arial;" text-anchor="middle"><textPath startOffset="22.145653131862435" xlink:href="#id58">October</textPath></text><line stroke="#e1ed5e" stroke-width="0.3" x1="26.387840678322718" x2="22.05771365940052" y1="57.49999999999999" y2="54.99999999999999" /><path d="M 25.521815274538284 56.99999999999999 a86.0,86.0 0 0,1 29.574782752854787,-30.34633250058573" fill="none" id="id59" stroke="none" /><text fill="#e1ed5e" style="font-size:6.75px; font-family:Arial;" text-anchor="middle"><textPath startOffset="21.40746469413373" xlink:href="#id59">November</textPath></text><line stroke="#e1ed5e" stroke-width="0.3" x1="56.869717070023135" x2="54.33264160355391" y1="26.7553504044142" y2="22.446841604673864" /><path d="M 56.362301976729285 25.89364864446614 a86.0,86.0 0 0,1 42.16139366436587,-11.88097634709845" fill="none" id="id60" stroke="none" /><text fill="#e1ed5e" style="font-size:6.75px; font-family:Arial;" text-anchor="middle"><textPath startOffset="22.145653131862474" xlink:href="#id60">December</textPath></text></svg>