<?xml version="1.0" encoding="utf-8" ?>
<svg baseProfile="full" height="200mm" version="1.1" viewBox="0,0,200,200" width="200mm" xmlns="http://www.w3.org/2000/svg" xmlns:ev="http://www.w3.org/2001/xml-events" xmlns:xlink="http://www.w3.org/1999/xlink"><defs /><rect fill="#1a1a1a" height="200" width="200" x="0" y="0" /><text alignment-baseline="middle" fill="#e1ed5e" style="dominant-baseline: central; font-size:9.0px; font-family:Arial;" text-anchor="middle" x="100.0" y="100.0">2020</text><line stroke="#e1ed5e" stroke-width="0.3" x1="100.0" x2="100.0" y1="15.0" y2="10.0" /><path d="M 100.0 14.0 a86.0,86.0 0 0,1 42.35913384403234,11.155469271406648" fill="none" id="id13" stroke="none" /><text fill="#e1ed5e" style="font-size:6.75px; font-family:Arial;" text-anchor="middle"><textPath startOffset="22.145653131862478" xlink:href="#id13">January</textPath></text><line stroke="#e1ed5e" stroke-width="0.3" x1="143.13028292997686" x2="145.6673583964461" y1="26.7553504044142" y2="22.446841604673864" /><path d="M 143.63769802327073 25.89364864446614 a86.0,86.0 0 0,1 29.32050498858742,28.57503671076993" fill="none" id="id14" stroke="none" /><text fill="#e1ed5e" style="font-size:6.75px; font-family:Arial;" text-anchor="middle"><textPath startOffset="20.669276256404974" xlink:href="#id14">February</textPath></text><path d="M 113.59037401385872 83.9905735841838 l 21.619297095419558 -25.467477617454932 a54.40638296936058,54.40638296936058 0 0,0 0.7068179859962864,0.61053254181435 l -22.053294561178706 25.092600943175864" fill="#ffda14" stroke="none" /><path d="M 113.86319453409587 84.22622945171908 l 23.382615596935015 -26.60512426176974 a56.42004163095009,56.42004163095009 0 0,0 0.7220018273484479,0.6456184860991766 l -23.835882451106837 26.199810245787173" fill="#fdff18" stroke="none" /><path d="M 114.13192950727249 84.46653392183569 l 22.647677628709747 -24.893765003124575 a54.654373237437504,54.654373237437504 0 0,0 0.6885676202914646,0.6373279096241002 l -23.071675020315176 24.5013193473681" fill="#ffdf14" stroke="none" /><line stroke="#e1ed5e" stroke-width="0.3" x1="172.87174338648825" x2="177.1583165268699" y1="56.24261187166439" y2="53.66864786411523" /><path d="M 173.72905801456457 55.72781907015455 a86.0,86.0 0 0,1 12.242430191666344,42.057860355516425" fill="none" id="id15" stroke="none" /><text fill="#e1ed5e" style="font-size:6.75px; font-family:Arial;" text-anchor="middle"><textPath startOffset="22.145653131862474" xlink:href="#id15">March</textPath></text><line stroke="#e1ed5e" stroke-width="0.3" x1="184.99686870605535" x2="189.99668451229388" y1="99.2704041080226" y2="99.22748670261217" /><path d="M 185.99683186730306 99.26182062694052 a86.0,86.0 0 0,1 -10.086455211305974,41.156179273409016" fill="none" id="id16" stroke="none" /><text fill="#e1ed5e" style="font-size:6.75px; font-family:Arial;" text-anchor="middle"><textPath startOffset="21.40746469413373" xlink:href="#id16">April</textPath></text><line stroke="#e1ed5e" stroke-width="0.3" x1="174.33088141563837" x2="178.70328620479359" y1="141.23008692659167" y2="143.65538615756765" /><path d="M 175.20536237346943 141.71514677278685 a86.0,86.0 0 0,1 -30.301960400862466,31.631185727798858" fill="none" id="id17" stroke="none" /><text fill="#e1ed5e" style="font-size:6.75px; font-family:Arial;" text-anchor="middle"><textPath startOffset="22.145653131862474" xlink:href="#id17">May</textPath></text><path d="M 114.65682725009322 115.03919595460226 l 22.546818627971398 23.135022178608388 a53.30461702988197,53.30461702988197 0 0,0 -0.6607932592043202,0.6330249945694837 l -22.146352882901766 -23.518659303483453" fill="#ffc412" stroke="none" /><path d="M 112.45986205192187 116.90419585922612 l 26.700724217682048 36.22466042384956 a66.00171881797323,66.00171881797323 0 0,0 -0.9177978687050482,0.6644148783890764 l -26.07494533860303 -36.67767607361172" fill="#58ff2a" stroke="none" /><path d="M 112.16784306229584 117.11559508785304 l 34.5971376862975 48.66520687403089 a80.7098341663821,80.7098341663821 0 0,0 -1.136105865244498,0.7930901283686587 l -33.75663672987924 -49.25194181820468" fill="#47fffc" stroke="none" /><path d="M 111.5731344415666 117.5232005979908 l 33.29261510518259 50.40926257837904 a81.4110252705398,81.4110252705398 0 0,0 -1.172762135096474,0.7601702470593951 l -32.42236733782911 -50.97334666714233" fill="#48f7ff" stroke="none" /><path d="M 111.27062007382361 117.71928675628689 l 18.912668278385375 29.733855844326285 a56.23905794398342,56.23905794398342 0 0,0 -0.8190438705878035,0.511143951469544 l -18.399460279007858 -30.054135592637376" fill="#fffd17" stroke="none" /><line stroke="#e1ed5e" stroke-width="0.3" x1="143.1302829299769" x2="145.66735839644613" y1="173.24464959558577" y2="177.55315839532614" /><path d="M 143.63769802327073 174.10635135553383 a86.0,86.0 0 0,1 -40.68552437913181,11.842963189579606" fill="none" id="id18" stroke="none" /><text fill="#e1ed5e" style="font-size:6.75px; font-family:Arial;" text-anchor="middle"><textPath startOffset="21.407464694133747" xlink:href="#id18">June</textPath></text><path d="M 110.34350942703117 118.27599006163325 l 31.03052828109348 54.82797018489977 a84.0,84.0 0 0,0 -1.2610232473756222,0.6994683382674252 l -30.084760845561767 -55.352571438600336" fill="#4dd2ff" stroke="none" /><path d="M 109.71004243097381 118.62028667847754 l 25.389651842964216 48.688005159964746 a75.91043859926535,75.91043859926535 0 0,0 -1.1606083534288878,0.5926148949227122 l -24.550116267821746 -49.11667800656029" fill="#3dffb0" stroke="none" /><line stroke="#e1ed5e" stroke-width="0.3" x1="101.45913802915013" x2="101.54496967792366" y1="184.9874750549273" y2="189.98673829345242" /><path d="M 101.47630435890484 185.9873277026323 a86.0,86.0 0 0,1 -42.54439059252881,-10.42667462771756" fill="none" id="id19" stroke="none" /><text fill="#e1ed5e" style="font-size:6.75px; font-family:Arial;" text-anchor="middle"><textPath startOffset="22.145653131862474" xlink:href="#id19">July</textPath></text><line stroke="#e1ed5e" stroke-width="0.3" x1="58.13341422392154" x2="55.67067388415222" y1="173.97424548756322" y2="178.32567169271397" /><path d="M 57.64086615596768 174.84453072859336 a86.0,86.0 0 0,1 -31.369924170532247,-30.572349798747897" fill="none" id="id20" stroke="none" /><text fill="#e1ed5e" style="font-size:6.75px; font-family:Arial;" text-anchor="middle"><textPath startOffset="22.145653131862474" xlink:href="#id20">August</textPath></text><line stroke="#e1ed5e" stroke-width="0.3" x1="26.387840678322732" x2="22.057713659400548" y1="142.50000000000003" y2="145.00000000000006" /><path d="M 25.521815274538298 143.00000000000003 a86.0,86.0 0 0,1 -11.493303480769221,-40.785679425670985" fill="none" id="id21" stroke="none" /><text fill="#e1ed5e" style="font-size:6.75px; font-family:Arial;" text-anchor="middle"><textPath startOffset="21.40746469413373" xlink:href="#id21">September</textPath></text><path d="M 80.5471966667186 107.91128576633889 l -21.357708078525537 8.685993942794784 a44.05641310225384,44.05641310225384 0 0,0 -0.27890085400254394,-0.7030123436087722 l 21.503667607494204 -8.318080581972447" fill="#ff0000" stroke="none" /><path d="M 80.41425534168474 107.57618678355246 l -26.91649095576956 10.411876933774547 a49.860087779771064,49.860087779771064 0 0,0 -0.30193682228122304,-0.8009232933533843 l 27.09125846186522 -9.948285360227018" fill="#ff7e0b" stroke="none" /><line stroke="#e1ed5e" stroke-width="0.3" x1="15.003131293944662" x2="10.003315487706104" y1="100.72959589197737" y2="100.7725132973878" /><path d="M 14.003168132696942 100.73817937305945 a86.0,86.0 0 0,1 10.791469493833604,-42.45332614584628" fill="none" id="id22" stroke="none" /><text fill="#e1ed5e" style="font-size:6.75px; font-family:Arial;" text-anchor="middle"><textPath startOffset="22.145653131862435" xlink:href="#id22">October</textPath></text><line stroke="#e1ed5e" stroke-width="0.3" x1="26.387840678322718" x2="22.05771365940052" y1="57.49999999999999" y2="54.99999999999999" /><path d="M 25.521815274538284 56.99999999999999 a86.0,86.0 0 0,1 29.574782752854787,-30.34633250058573" fill="none" id="id23" stroke="none" /><text fill="#e1ed5e" style="font-size:6.75px; font-family:Arial;" text-anchor="middle"><textPath startOffset="21.40746469413373" xlink:href="#id23">November</textPath></text><line stroke="#e1ed5e" stroke-width="0.3" x1="56.869717070023135" x2="54.33264160355391" y1="26.7553504044142" y2="22.446841604673864" /><path d="M 56.362301976729285 25.89364864446614 a86.0,86.0 0 0,1 42.16139366436587,-11.88097634709845" fill="none" id="id24" stroke="none" /><text fill="#e1ed5e" style="font-size:6.75px; font-family:Arial;" text-anchor="middle"><textPath startOffset="22.145653131862474" xlink:href="#id24">December</textPath></text></svg>