<?xml version="1.0" encoding="utf-8" ?>
<svg baseProfile="full" height="200mm" version="1.1" viewBox="0,0,200,200" width="200mm" xmlns="http://www.w3.org/2000/svg" xmlns:ev="http://www.w3.org/2001/xml-events" xmlns:xlink="http://www.w3.org/1999/xlink"><defs /><rect fill="#1a1a1a" height="200" width="200" x="0" y="0" /><text alignment-baseline="middle" fill="#e1ed5e" style="dominant-baseline: central; font-size:9.0px; font-family:Arial;" text-anchor="middle" x="100.0" y="100.0">2023</text><line stroke="#e1ed5e" stroke-width="0.3" x1="100.0" x2="100.0" y1="15.0" y2="10.0" /><path d="M 100.0 14.0 a86.0,86.0 0 0,1 42.46469731375804,11.215312516191453" fill="none" id="id37" stroke="none" /><text fill="#e1ed5e" style="font-size:6.75px; font-family:Arial;" text-anchor="middle"><textPath startOffset="22.20632615414155" xlink:href="#id37">January</textPath></text><path d="M 102.16513564639614 79.11191278185805 l 4.638646282244375 -44.75121375370077 a65.99097878198691,65.99097878198691 0 0,0 1.1288646117368064,0.12684109228936732 l -5.4082775974909065 44.6647367079408" fill="#34ff5d" stroke="none" /><path d="M 109.41281617654863 81.2277094730956 l 21.024236639382153 -41.92933027675292 a67.90508782345225,67.90508782345225 0 0,0 1.0403690403123933,0.5329174306007636 l -21.7428661672833 41.56122032083966" fill="#37ff75" stroke="none" /><path d="M 109.73455568895987 81.39251694778311 l 7.12282253490676 -13.615187363152035 a36.365803844820825,36.365803844820825 0 0,0 0.552162699661948,0.29494619155415663 l -7.35613028109702 13.490562445096124" fill="#ff7e0b" stroke="none" /><path d="M 110.05341064243156 81.56283822128135 l 30.16023192729467 -55.311485336155954 a84.0,84.0 0 0,0 1.2635036437118596,0.7031384097592803 l -31.107859660078564 54.7841315288365" fill="#4dd2ff" stroke="none" /><line stroke="#e1ed5e" stroke-width="0.3" x1="143.23703022742887" x2="145.7803849466894" y1="26.81831364943548" y2="22.513508569990506" /><path d="M 143.74570117128098 25.957352633546492 a86.0,86.0 0 0,1 28.547481713284135,27.462654790039103" fill="none" id="id38" stroke="none" /><text fill="#e1ed5e" style="font-size:6.75px; font-family:Arial;" text-anchor="middle"><textPath startOffset="19.985693538727396" xlink:href="#id38">February</textPath></text><path d="M 112.19680574252982 82.90503203632743 l 14.816662254787378 -20.766942748865183 a46.51077010807563,46.51077010807563 0 0,0 0.6477282170523295,0.47060209627760174 l -15.171935788193496 20.508821417770907" fill="#f1ff19" stroke="none" /><path d="M 112.48926042617603 83.11751280151076 l 16.704647226404287 -22.58067998678102 a49.08793954037977,49.08793954037977 0 0,0 0.6749681593505055,0.5083720240653601 l -17.090861539513178 22.289791373209816" fill="#cfff1d" stroke="none" /><path d="M 112.77801427241765 83.33499621200491 l 37.57910282899308 -49.01042350112643 a82.75929550433523,82.75929550433523 0 0,0 1.1230335703179075,0.876545514896449 l -38.41716895447041 48.35629959700676" fill="#4bdfff" stroke="none" /><path d="M 113.06298171725822 83.55741782278167 l 17.102479172024346 -21.5271616623833 a48.493880829521174,48.493880829521174 0 0,0 0.6491173853141418,0.5248744491690511 l -17.47049995590298 21.22958111595012" fill="#d7ff1c" stroke="none" /><path d="M 113.34407831869373 83.78471172551755 l 18.978919679155 -23.062563512132645 a50.86772887145872,50.86772887145872 0 0,0 0.6713146508919947,0.5622067141462176 l -19.37309186700611 22.732455640592608" fill="#b8ff1f" stroke="none" /><path d="M 113.6212207817346 84.01681056812373 l 18.916432597456737 -22.196610012070288 a50.16369178005526,50.16369178005526 0 0,0 0.6523816813288301,0.5657389653725224 l -19.29570807743233 21.867706053278095" fill="#c1ff1e" stroke="none" /><path d="M 114.16331599549186 84.49514656593476 l 19.609461761565573 -21.466853569514132 a50.07502008173449,50.07502008173449 0 0,0 0.6314033588789533,0.5868206092540542 l -19.976073004239375 21.126128374185438" fill="#c2ff1e" stroke="none" /><path d="M 114.42810811169701 84.74124197986012 l 18.59479590734641 -19.665328883560324 a48.06458192794521,48.06458192794521 0 0,0 0.5962680467139747,0.5736093885162894 l -18.9305471976728 19.34233640828173" fill="#dcff1b" stroke="none" /><path d="M 114.68862486808459 84.99185889309783 l 18.72589222695903 -19.13322965347755 a47.771991272006595,47.771991272006595 0 0,0 0.5827368532670105,0.5802343960259199 l -19.052464880393366 18.80805940680151" fill="#e0ff1b" stroke="none" /><path d="M 114.94478906791727 85.2469230424477 l 34.04474613961306 -33.60801932469426 a68.83872597216319,68.83872597216319 0 0,0 0.8251984461115434,0.8504395357092093 l -34.61820884942771 33.017015593434934" fill="#38ff81" stroke="none" /><line stroke="#e1ed5e" stroke-width="0.3" x1="172.23445277983987" x2="176.4835382374775" y1="55.19839476539836" y2="52.563006222186495" /><path d="M 173.08426987136738 54.67131705675599 a86.0,86.0 0 0,1 12.851231095245387,41.99856678651699" fill="none" id="id39" stroke="none" /><text fill="#e1ed5e" style="font-size:6.75px; font-family:Arial;" text-anchor="middle"><textPath startOffset="22.20632615414155" xlink:href="#id39">March</textPath></text><line stroke="#e1ed5e" stroke-width="0.3" x1="184.98032266829074" x2="189.97916517819016" y1="98.17113171792111" y2="98.06355123074" /><path d="M 185.9800911702706 98.14961562048488 a86.0,86.0 0 0,1 -9.607161424134198,41.387399972396054" fill="none" id="id40" stroke="none" /><text fill="#e1ed5e" style="font-size:6.75px; font-family:Arial;" text-anchor="middle"><textPath startOffset="21.466115282336823" xlink:href="#id40">April</textPath></text><line stroke="#e1ed5e" stroke-width="0.3" x1="174.80103733775053" x2="179.2010983576182" y1="140.37084112569926" y2="142.7455964860345" /><path d="M 175.68104954172406 140.8457921977663 a86.0,86.0 0 0,1 -30.038265399797805,32.042727171017184" fill="none" id="id41" stroke="none" /><text fill="#e1ed5e" style="font-size:6.75px; font-family:Arial;" text-anchor="middle"><textPath startOffset="22.206326154141568" xlink:href="#id41">May</textPath></text><path d="M 117.94076556474637 110.91462005526583 l 22.777677646553958 13.857251317188846 a47.66169561445888,47.66169561445888 0 0,0 -0.43243992133032355,0.69723084505302 l -22.535773085555668 -14.247278493607139" fill="#e1ff1b" stroke="none" /><path d="M 116.93607887273984 112.41649034213515 l 31.225323493752946 22.89248476601522 a59.71804083436762,59.71804083436762 0 0,0 -0.614921595498782,0.8237879662215762 l -30.826640631559073 -23.42658561174611" fill="#4fff2b" stroke="none" /><path d="M 116.71984013943494 112.70617746262583 l 14.447081423519506 10.979003319014248 a39.14543125794282,39.14543125794282 0 0,0 -0.41231916815788966,0.5329781060272757 l -14.255955438143548 -11.226059419154776" fill="#ffa70f" stroke="none" /><path d="M 116.498646956653 112.99209946851258 l 32.63717913885045 25.700621321109143 a62.541634518064704,62.541634518064704 0 0,0 -0.6733115864450613,0.8400597304794187 l -32.189949640350534 -26.25860888516681" fill="#30ff2f" stroke="none" /><path d="M 115.56566222782051 114.09645910891815 l 27.694428257395295 25.080421877425174 a58.36320272746492,58.36320272746492 0 0,0 -0.6807750547126862,0.7388468671843744 l -27.258606794686887 -25.553419999410885" fill="#5eff2a" stroke="none" /><path d="M 115.07121518719521 114.62390073753431 l 35.53427535967178 34.47961622109651 a70.5129140739169,70.5129140739169 0 0,0 -0.8527340754154602,0.8638151163161762 l -34.93550065920079 -35.086171831393344" fill="#3aff96" stroke="none" /><path d="M 114.81725581225074 114.88116024355365 l 26.97102842540908 27.087350115134882 a59.22513453977791,59.22513453977791 0 0,0 -0.7286103013762675,0.7130985320371271 l -26.50076817165702 -27.547598750094583" fill="#54ff2b" stroke="none" /><path d="M 114.55890576462653 115.13401014063108 l 40.06597264080931 41.64865451038999 a78.79180379759667,78.79180379759667 0 0,0 -0.9855134953018535,0.9318645224587706 l -39.343123311116656 -42.33215366959468" fill="#46fff5" stroke="none" /><path d="M 112.34349029814194 116.9893568818739 l 36.31875971523129 49.98848424598112 a82.78916462020999,82.78916462020999 0 0,0 -1.1601232713308465,0.8277171509112683 l -35.45290911605156 -50.606245658736604" fill="#4bdeff" stroke="none" /><path d="M 111.7513745106137 117.40417183066458 l 16.649724835801607 24.658789634680915 a50.75347447535087,50.75347447535087 0 0,0 -0.7282526660132687,0.482646156629468 l -16.222797471048374 -24.9417338124017" fill="#baff1f" stroke="none" /><path d="M 111.45004920935366 117.60387380957326 l 33.835157570951644 52.019850160948096 a83.05548081047006,83.05548081047006 0 0,0 -1.2051674496520088,0.7691948868922596 l -32.93470831925271 -52.594559476664166" fill="#4cdcff" stroke="none" /><line stroke="#e1ed5e" stroke-width="0.3" x1="143.8653032363475" x2="146.44561519142675" y1="172.8068346515853" y2="177.08958963109032" /><path d="M 144.38136562736335 173.6633856474863 a86.0,86.0 0 0,1 -40.68145358897372,12.25698825130547" fill="none" id="id42" stroke="none" /><text fill="#e1ed5e" style="font-size:6.75px; font-family:Arial;" text-anchor="middle"><textPath startOffset="21.466115282336833" xlink:href="#id42">June</textPath></text><path d="M 109.2508944713604 118.85261126421891 l 13.292147099455205 27.088373227977485 a51.17384858866636,51.17384858866636 0 0,0 -0.7941385230819302,0.38123475079789887 l -12.823895908373041 -27.313162255274946" fill="#b4ff20" stroke="none" /><path d="M 108.59647513512805 119.15986991738527 l 7.162936860872409 15.96479211810285 a38.498064231425246,38.498064231425246 0 0,0 -0.6069482444153681,0.266068273786985 l -6.8870679417992875 -16.08572494518429" fill="#ff9d0e" stroke="none" /><path d="M 106.91757812671514 119.82793768551818 l 9.66134741188754 27.692436707182427 a50.329382615297085,50.329382615297085 0 0,0 -0.820441475799959,0.2783382937239112 l -9.183236203150354 -27.854637987804463" fill="#bfff1e" stroke="none" /><path d="M 106.2309692047433 120.05430185196036 l 9.75754979865217 31.404560441214212 a53.88550128216162,53.88550128216162 0 0,0 -0.8881485956470646,0.2675918862744369 l -9.215526228564858 -31.567867696594373" fill="#93ff23" stroke="none" /><path d="M 105.88484417918355 120.15858648285463 l 11.526669639937788 39.484710167503195 a62.132790447524876,62.132790447524876 0 0,0 -1.0292410112086565,0.290873790578148 l -10.845297460624526 -39.677272751419856" fill="#34ff2f" stroke="none" /><line stroke="#e1ed5e" stroke-width="0.3" x1="102.19456741930631" x2="102.32365962044197" y1="184.97166512339345" y2="189.96999836594603" /><path d="M 102.22038585953345 185.97133177190398 a86.0,86.0 0 0,1 -42.740103519485714,-10.115201625700543" fill="none" id="id43" stroke="none" /><text fill="#e1ed5e" style="font-size:6.75px; font-family:Arial;" text-anchor="middle"><textPath startOffset="22.20632615414155" xlink:href="#id43">July</textPath></text><path d="M 97.65516085044442 120.86867818915974 l -0.8187681065127081 7.286899883772323 a28.33275467531565,28.33275467531565 0 0,0 -0.4841832705896821,-0.05862785115096425 l 0.9440788001537795 -7.27172650389601" fill="#ff0000" stroke="none" /><path d="M 96.93821686468263 120.77559828337769 l -1.6921675117157071 11.482130150261066 a32.60615111375172,32.60615111375172 0 0,0 -0.5545594192187295,-0.08661077619148207 l 1.8895627945429538 -11.451301066722477" fill="#ff4406" stroke="none" /><line stroke="#e1ed5e" stroke-width="0.3" x1="58.666819895761336" x2="56.23545636021788" y1="174.27360380694188" y2="178.64263932499728" /><path d="M 58.180547188652646 175.14741091055294 a86.0,86.0 0 0,1 -31.652253787137756,-30.449443065178592" fill="none" id="id44" stroke="none" /><text fill="#e1ed5e" style="font-size:6.75px; font-family:Arial;" text-anchor="middle"><textPath startOffset="22.20632615414155" xlink:href="#id44">August</textPath></text><line stroke="#e1ed5e" stroke-width="0.3" x1="26.63291911575756" x2="22.317208475507996" y1="142.92168965132927" y2="145.44649492493687" /><path d="M 25.769776987707644 143.4266507060508 a86.0,86.0 0 0,1 -11.730757126820373,-40.83630448921669" fill="none" id="id45" stroke="none" /><text fill="#e1ed5e" style="font-size:6.75px; font-family:Arial;" text-anchor="middle"><textPath startOffset="21.46611528233685" xlink:href="#id45">September</textPath></text><line stroke="#e1ed5e" stroke-width="0.3" x1="15.007084014347285" x2="10.007500721073583" y1="101.09737516637583" y2="101.16192664675087" /><path d="M 14.007167355692545 101.11028546245083 a86.0,86.0 0 0,1 10.666146001902534,-42.60595125391555" fill="none" id="id46" stroke="none" /><text fill="#e1ed5e" style="font-size:6.75px; font-family:Arial;" text-anchor="middle"><textPath startOffset="22.20632615414155" xlink:href="#id46">October</textPath></text><line stroke="#e1ed5e" stroke-width="0.3" x1="26.266209847984243" x2="21.928928074336255" y1="57.711370442889674" y2="55.22380399835377" /><path d="M 25.398753493254645 57.213857153982495 a86.0,86.0 0 0,1 29.58750427330803,-30.492523968695096" fill="none" id="id47" stroke="none" /><text fill="#e1ed5e" style="font-size:6.75px; font-family:Arial;" text-anchor="middle"><textPath startOffset="21.46611528233685" xlink:href="#id47">November</textPath></text><line stroke="#e1ed5e" stroke-width="0.3" x1="56.762969772571076" x2="54.21961505331055" y1="26.818313649435495" y2="22.513508569990535" /><path d="M 56.25429882871897 25.957352633546506 a86.0,86.0 0 0,1 42.265352541879196,-11.944610805530505" fill="none" id="id48" stroke="none" /><text fill="#e1ed5e" style="font-size:6.75px; font-family:Arial;" text-anchor="middle"><textPath startOffset="22.20632615414155" xlink:href="#id48">December</textPath></text></svg>