<?xml version="1.0" encoding="utf-8" ?>
<svg baseProfile="full" height="200mm" version="1.1" viewBox="0,0,200,200" width="200mm" xmlns="http://www.w3.org/2000/svg" xmlns:ev="http://www.w3.org/2001/xml-events" xmlns:xlink="http://www.w3.org/1999/xlink"><defs /><rect fill="#1a1a1a" height="200" width="200" x="0" y="0" /><rect fill="#1a1a1a" height="200" width="180" x="10" y="0" /><text alignment-baseline="middle" fill="#e1ed5e" style="dominant-baseline: central; font-size:9.0px; font-family:Arial;" text-anchor="middle" x="100.0" y="100.0">2026</text><line stroke="#e1ed5e" stroke-width="0.3" x1="100.0" x2="100.0" y1="15.0" y2="10.0" /><path d="M 100.0 14.0 a86.0,86.0 0 0,1 42.46469731375804,11.215312516191453" fill="none" id="id73" stroke="none" /><text fill="#e1ed5e" style="font-size:6.75px; font-family:Arial;" text-anchor="middle"><textPath startOffset="22.20632615414155" xlink:href="#id73">January</textPath></text><path d="M 101.08401301168833 79.027996857942 l 1.4969078402205347 -28.96012832870159 a49.99878904190618,49.99878904190618 0 0,0 0.8591171713515185,0.051824293923151236 l -1.9951870604116653 28.93007076539813" fill="red" stroke="none" /><path d="M 101.44485096284872 79.0497635885617 l 1.5168115855464726 -21.993660333072313 a43.04590239097975,43.04590239097975 0 0,0 0.7387697871171502,0.05734275396421936 l -1.8951715620259642 21.96429231691963" fill="red" stroke="none" /><path d="M 101.80526077348638 79.07773832637324 l 1.170664117799112 -13.567536260823369 a34.617947520293185,34.617947520293185 0 0,0 0.5932442602029574,0.05633569078610268 l -1.4040335050923136 13.545375025522087" fill="red" stroke="none" /><path d="M 103.95276090670814 79.375362276772 l 3.9474161793513334 -20.59675011047707 a41.97160484098539,41.97160484098539 0 0,0 0.7083879335341636,0.14209595529927396 l -4.301370522352622 20.52575019910059" fill="red" stroke="none" /><path d="M 104.307194497241 79.44645832069477 l 7.508247203173788 -35.82867500592567 a57.60693552790522,57.60693552790522 0 0,0 0.9687765914713503,0.21173703994360568 l -8.123866518798666 35.69412446788619" fill="red" stroke="none" /><path d="M 104.66035177308747 79.52364482259891 l 3.028379823916478 -13.30590133660823 a34.64617509551512,34.64617509551512 0 0,0 0.5803668445691023,0.13735408120880307 l -3.2569703554481033 13.251801343258558" fill="red" stroke="none" /><path d="M 106.0581310904928 79.89281104454417 l 1.5053800106915758 -4.99641884148787 a26.218272723436822,26.218272723436822 0 0,0 0.4309967260185707,0.1339127807585297 l -1.5911621094208648 4.969765925846819" fill="red" stroke="none" /><path d="M 106.40334571778207 80.00007090966166 l 2.1456110451203707 -6.701507407086813 a28.036607725614804,28.036607725614804 0 0,0 0.45835471610735756,0.15111234346986027 l -2.2606485834701457 6.663581339357716" fill="red" stroke="none" /><path d="M 106.74666289553966 80.11325718540242 l 6.540077153968989 -19.277802131568226 a41.35697089951655,41.35697089951655 0 0,0 0.6721846869255476,0.23451203857601302 l -6.87094384495781 19.162369239820006" fill="red" stroke="none" /><path d="M 107.08798089147638 80.2323363322302 l 5.333693268619476 -14.875132460911045 a36.80246340332311,36.80246340332311 0 0,0 0.5944783829292922,0.21895140544231023 l -5.588953977321345 14.78111778766241" fill="red" stroke="none" /><path d="M 107.4271985657038 80.35727306442388 l 13.578702193054141 -35.91162091037973 a59.393041943280245,59.393041943280245 0 0,0 0.9531645246079207,0.369813027248508 l -14.19484988266173 35.67256517924068" fill="red" stroke="none" /><path d="M 107.76421540070413 80.48803036053334 l 8.058122135527398 -20.25057605244513 a42.79493433821127,42.79493433821127 0 0,0 0.6821026106145295,0.27824678144625137 l -8.405508615730314 20.1088683848153" fill="red" stroke="none" /><path d="M 108.09893153111575 80.62456947434976 l 7.540566134070482 -18.039628399553337 a40.552195028084746,40.552195028084746 0 0,0 0.6417215745279707,0.27475168813051737 l -7.849971466388768 17.907157183460026" fill="red" stroke="none" /><path d="M 108.43124777332544 80.76684994638697 l 3.8872752494690825 -8.86755438611033 a30.682170709905886,30.682170709905886 0 0,0 0.48188231163722695,0.21620654669939232 l -4.039339679573089 8.799327508894406" fill="red" stroke="none" /><path d="M 108.76106565485865 80.91482961587045 l 2.2484336235575677 -4.8980044772526385 a26.389424980341698,26.389424980341698 0 0,0 0.41119975451630864,0.1930637983321494 l -2.332411589373474 4.858575696280487" fill="red" stroke="none" /><path d="M 109.08828744355905 81.06846463323043 l 5.1675225915679714 -10.764309261607046 a32.94042057943876,32.94042057943876 0 0,0 0.5090529978470837,0.24979009525066714 l -5.352046856425487 10.673764006221548" fill="red" stroke="none" /><path d="M 109.41281617654863 81.2277094730956 l 6.475974309912353 -12.915249688326464 a35.44790357714439,35.44790357714439 0 0,0 0.5430948196624401,0.27819426054834023 l -6.697329617163549 12.801862902465622" fill="red" stroke="none" /><path d="M 109.73455568895987 81.39251694778311 l 3.3747189425037547 -6.450733606655607 a28.280157416219083,28.280157416219083 0 0,0 0.429393727481932,0.2293672583743475 l -3.4852577165139977 6.391687621779505" fill="red" stroke="none" /><path d="M 110.05341064243156 81.56283822128135 l 3.3715016597288714 -6.183067990407399 a28.042538833088187,28.042538833088187 0 0,0 0.4218077380302172,0.23473554953226777 l -3.4774334868311234 6.124117043314952" fill="red" stroke="none" /><line stroke="#e1ed5e" stroke-width="0.3" x1="143.23703022742887" x2="145.7803849466894" y1="26.81831364943548" y2="22.513508569990506" /><path d="M 143.74570117128098 25.957352633546492 a86.0,86.0 0 0,1 28.547481713284135,27.462654790039103" fill="none" id="id74" stroke="none" /><text fill="#e1ed5e" style="font-size:6.75px; font-family:Arial;" text-anchor="middle"><textPath startOffset="19.985693538727396" xlink:href="#id74">February</textPath></text><path d="M 110.68208982089419 81.91981866633111 l 5.174154038951658 -8.757616238125792 a31.171907991772454,31.171907991772454 0 0,0 0.45961929441077787,0.2769154821671076 l -5.324135399580073 8.667254146500069" fill="red" stroke="none" /><path d="M 110.99172775467656 82.1063720568725 l 6.320013199122907 -10.288461223272718 a33.07456008225037,33.07456008225037 0 0,0 0.4825434168054465,0.30216864333495247 l -6.496175768300617 10.178148238614822" fill="red" stroke="none" /><path d="M 111.2981086023043 82.29822771554956 l 7.418848564731803 -11.623783460438657 a34.78954879470646,34.78954879470646 0 0,0 0.5020181163277528,0.3265265474019638 l -7.617833706843836 11.494357988877166" fill="red" stroke="none" /><path d="M 111.60114157652 82.49532879139004 l 13.38391703523956 -20.194656331007344 a45.227120743779494,45.227120743779494 0 0,0 0.645230145730707,0.4356622746426811 l -13.729551875376808 19.961282144065994" fill="red" stroke="none" /><path d="M 111.90073688211348 82.69761687909136 l 10.897967006493085 -15.844464275885947 a40.230515673388425,40.230515673388425 0 0,0 0.5671906156848657,0.39735327305161017 l -11.169088761761602 15.6545261600704" fill="red" stroke="none" /><path d="M 112.77801427241765 83.33499621200491 l 18.649487967908676 -24.322541907019147 a51.64946078292199,51.64946078292199 0 0,0 0.7008768984144043,0.5470455363375918 l -19.06539742148251 23.997917981458333" fill="red" stroke="none" /><line stroke="#e1ed5e" stroke-width="0.3" x1="172.23445277983987" x2="176.4835382374775" y1="55.19839476539836" y2="52.563006222186495" /><path d="M 173.08426987136738 54.67131705675599 a86.0,86.0 0 0,1 12.851231095245387,41.99856678651699" fill="none" id="id75" stroke="none" /><text fill="#e1ed5e" style="font-size:6.75px; font-family:Arial;" text-anchor="middle"><textPath startOffset="22.20632615414155" xlink:href="#id75">March</textPath></text><path d="M 118.03404312379186 89.2402003453031 l 11.195413810565055 -6.679611933176891 a34.03666007716815,34.03666007716815 0 0,0 0.29586014335376615,0.5057208894661294 l -11.308733628389149 6.485911631356866" fill="red" stroke="none" /><path d="M 118.21658344932153 89.55222093294921 l 16.118330655039394 -9.244365612356125 a39.58114309401053,39.58114309401053 0 0,0 0.3338808118102263,0.5939367087882509 l -16.275069108142056 8.96554539363308" fill="red" stroke="none" /><path d="M 118.3937258080291 89.86733742301442 l 10.61813835435455 -5.8492778604680105 a33.1226611600414,33.1226611600414 0 0,0 0.2708044120719161,0.5017594475068825 l -10.71725086564493 5.665637429628669" fill="red" stroke="none" /><path d="M 118.56541770881063 90.18545643968196 l 9.403987142746864 -4.971385125870822 a31.63718215744555,31.63718215744555 0 0,0 0.2503714874267871,0.48363802206468265 l -9.488168063333768 4.808774381545795" fill="red" stroke="none" /><path d="M 118.73160827565052 90.50648371742162 l 10.003696187410185 -5.0700533154218865 a32.215140571175446,32.215140571175446 0 0,0 0.24643046495513143,0.4967887799587444 l -10.089486665318724 4.897104946964192" fill="red" stroke="none" /><path d="M 119.34039704204932 91.81776055985345 l 8.64784009267609 -3.658595949428203 a30.38991281054667,30.38991281054667 0 0,0 0.19967375739403662,0.48352584151002725 l -8.709535536956324 3.5091955374648727" fill="red" stroke="none" /><path d="M 120.08093135843002 93.85539295169968 l 12.991721101264243 -3.975364470078118 a34.58632915260756,34.58632915260756 0 0,0 0.16929860368769867,0.5707907287907416 l -13.058225602063644 3.7511443545408465" fill="red" stroke="none" /><path d="M 120.18372546131832 94.20196356495316 l 6.161467380196658 -1.7699612706384629 a27.410650760787675,27.410650760787675 0 0,0 0.12636731528711576,0.4546104679006216 l -6.191021466050137 1.6636394993188892" fill="red" stroke="none" /><path d="M 120.28053869075195 94.5502522615342 l 13.000258484776074 -3.493404704737275 a34.46144855140311,34.46144855140311 0 0,0 0.14901075893001173,0.5741992394714447 l -13.05846557557639 3.26910903971698" fill="red" stroke="none" /><path d="M 120.37134235888165 94.90015583598534 l 25.076052652325703 -6.277640349985648 a46.8498971948822,46.8498971948822 0 0,0 0.1891111711085074,0.7839878937866747 l -25.18039662369503 5.845067224539568" fill="red" stroke="none" /><path d="M 120.45610955862082 95.25157060432595 l 12.54554200356018 -2.912167646719678 a33.87910495980577,33.87910495980577 0 0,0 0.1269750344611344,0.5692041821870272 l -12.593811425023354 2.695785294982687" fill="red" stroke="none" /><path d="M 120.53481517161879 95.60439243477599 l 21.850958454056478 -4.677336391164349 a43.34595849537479,43.34595849537479 0 0,0 0.14989590596063992,0.7309456719115516 l -21.928233655932114 4.300515063089386" fill="red" stroke="none" /><path d="M 120.6074358757038 95.95851677861258 l 49.39928907935905 -9.688075661954642 a71.34032748778895,71.34032748778895 0 0,0 0.2259595351849452,1.2070848722576928 l -49.55873433845385 8.836312712234387" fill="red" stroke="none" /><path d="M 120.67395015179393 96.31383870115 l 26.206807212546327 -4.672668638747233 a47.62011601182651,47.62011601182651 0 0,0 0.1369376266735821,0.8082136242220711 l -26.283356700740132 4.220869226209324" fill="red" stroke="none" /><path d="M 120.73433829027371 96.67025291283417 l 15.654087261391151 -2.513904747339242 a36.85465751966732,36.85465751966732 0 0,0 0.09519752236928294,0.6272327290483297 l -15.695040677199735 2.2440729058988302" fill="red" stroke="none" /><path d="M 120.78858239683441 97.02765380044208 l 26.128278456080835 -3.735814577801553 a47.3940001825834,47.3940001825834 0 0,0 0.1085187214015358,0.8085905219811228 l -26.188713176540205 3.2855057137557657" fill="red" stroke="none" /><path d="M 120.83666639777658 97.38593545837742 l 28.33311823267772 -3.554532107571016 a49.555214712739385,49.555214712739385 0 0,0 0.09889721692582212,0.8472909591078791 l -28.39010580260713 3.0662974101382843" fill="red" stroke="none" /><path d="M 120.87857604477298 97.74499172005257 l 60.50155333269869 -6.534521483761464 a81.8534134350007,81.8534134350007 0 0,0 0.1392399619342431,1.4021274146636238 l -60.60507042031516 5.492118538393405" fill="red" stroke="none" /><path d="M 120.91429891909075 98.10471618934814 l 29.147407590419018 -2.6413799449986097 a50.266845700482605,50.266845700482605 0 0,0 0.07067402695583619,0.8624021396070661 l -29.18855610119435 2.139263888183775" fill="red" stroke="none" /><path d="M 120.96714384426684 98.82574320788733 l 13.762214929989206 -0.7707475312844295 a34.78378074173406,34.78378074173406 0 0,0 0.0283345228803935,0.5980969950238555 l -13.773443061103094 0.5337394296375743" fill="red" stroke="none" /><path d="M 120.98425023603335 99.18683210126433 l 29.595276679602076 -1.1468567463386254 a50.617489463808724,50.617489463808724 0 0,0 0.02624469957952934,0.8709338097940319 l -29.61063307363725 0.6372527891195945" fill="red" stroke="none" /><line stroke="#e1ed5e" stroke-width="0.3" x1="184.98032266829074" x2="189.97916517819016" y1="98.17113171792111" y2="98.06355123074" /><path d="M 185.9800911702706 98.14961562048488 a86.0,86.0 0 0,1 -9.607161424134198,41.387399972396054" fill="none" id="id76" stroke="none" /><text fill="#e1ed5e" style="font-size:6.75px; font-family:Arial;" text-anchor="middle"><textPath startOffset="21.466115282336823" xlink:href="#id76">April</textPath></text><path d="M 120.99513854157772 99.54816195383933 l 26.819479967961307 -0.5771841611700156 a47.825690062098744,47.825690062098744 0 0,0 0.010628674052864615,0.8232025186041311 l -26.825441649131886 0.11544538450542177" fill="red" stroke="none" /><path d="M 120.99980553446 99.90962569577887 l 26.25612545497577 -0.11299528777265677 a47.25636859587566,47.25636859587566 0 0,0 -0.003500802891088021,0.8134633019962904 l -26.254180354795178 -0.33897749242731834" fill="red" stroke="none" /><path d="M 120.99824983174949 100.27111621757518 l 59.39831895314626 0.7669137996706908 a80.40326970155616,80.40326970155616 0 0,0 -0.02977959960281634,1.383740976853166 l -59.37631729085844 -1.7892445923139717" fill="red" stroke="none" /><path d="M 120.9904718944345 100.63252640178507 l 6.764163236181026 0.203831140833135 a27.76723366078609,27.76723366078609 0 0,0 -0.018508668946346785,0.47762650408354795 l -6.759652434383476 -0.3202348919306891" fill="red" stroke="none" /><path d="M 120.9764740272857 100.99374915477107 l 5.960854929903019 0.2823922905536356 a26.967540272265722,26.967540272265722 0 0,0 -0.025957733166190565,0.4634927631011532 l -5.955110845849299 -0.38495676999021217" fill="red" stroke="none" /><path d="M 120.92983693683757 101.71520430193887 l 32.011322514799105 2.6233342502300525 a53.11863402660384,53.11863402660384 0 0,0 -0.08252461334896351,0.9106522316406938 l -31.961423305173067 -3.173967870419317" fill="red" stroke="none" /><path d="M 120.89721153311464 102.0752229133903 l 26.727264472379176 2.654183385062233 a47.85872959799183,47.85872959799183 0 0,0 -0.08846503505131102,0.8190763546399744 l -26.677617135826814 -3.113856061586999" fill="red" stroke="none" /><path d="M 120.8583938346157 102.4346265915055 l 12.40242371352603 1.4476316254973662 a33.48662289384015,33.48662289384015 0 0,0 -0.07175464241155952,0.571955100042558 l -12.375667561867623 -1.6609044798273194" fill="red" stroke="none" /><path d="M 120.81339534386255 102.79330883721812 l 26.76241715007777 3.591710775468155 a48.00235837865631,48.00235837865631 0 0,0 -0.11695648666119751,0.8179933953057761 l -26.69662661239997 -4.05184964275434" fill="red" stroke="none" /><path d="M 120.76222939487914 103.15116336523771 l 18.693091561543604 2.8371223625098154 a39.90716624531836,39.90716624531836 0 0,0 -0.10892422655209794,0.6782712627162075 l -18.641485580630217 -3.158472854919228" fill="red" stroke="none" /><path d="M 120.64145759157962 103.86396538481128 l 21.260548107110488 3.979855665885814 a42.62984412648512,42.62984412648512 0 0,0 -0.14122671967221717,0.7201120010049423 l -21.188891454462606 -4.345231393958701" fill="red" stroke="none" /><path d="M 120.5718875245553 104.21870165774334 l 26.48231346009034 5.430759795940352 a48.03342520213974,48.03342520213974 0 0,0 -0.17307120434654596,0.8085310483363574 l -26.384908217019348 -5.885804663692879" fill="red" stroke="none" /><path d="M 120.49622156327973 104.57218783832717 l 28.52101421850665 6.362315802647169 a50.222034741353525,50.222034741353525 0 0,0 -0.19548193797973104,0.8421310725790397 l -28.407271714596366 -6.8523155325747735" fill="red" stroke="none" /><path d="M 120.41448212921028 104.9243191809786 l 26.18715056348077 6.316784672700949 a47.93823719614335,47.93823719614335 0 0,0 -0.20040165897433576,0.8005050101453194 l -26.074537590211374 -6.766617522243664" fill="red" stroke="none" /><path d="M 120.32669344350535 105.2749913415812 l 31.422372778892367 8.154437159259391 a53.46321543593589,53.46321543593589 0 0,0 -0.23883271833329217,0.8887853928702002 l -31.277351984217297 -8.69411348530514" fill="red" stroke="none" /><path d="M 120.23288151984713 105.62410040840565 l 18.056743236752776 5.019202870964309 a39.74135464095148,39.74135464095148 0 0,0 -0.18887999110894013,0.657516027777137 l -17.967670608757736 -5.329276374246028" fill="red" stroke="none" /><path d="M 120.13307415673323 105.97154293290107 l 43.49327987059652 12.900264808943193 a66.36609114793663,66.36609114793663 0 0,0 -0.3342740788985445,1.0924270308092083 l -43.26477901919184 -13.647018812304458" fill="red" stroke="none" /><path d="M 120.02730092923936 106.31721596034902 l 35.63336919869994 11.239841525244705 a58.36403401619628,58.36403401619628 0 0,0 -0.3104626124552608,0.9555056712619837 l -35.43461433522843 -11.851546096484483" fill="red" stroke="none" /><path d="M 119.9155931802556 106.66101706037122 l 19.734488310441733 6.600444291253682 a41.809033944825615,41.809033944825615 0 0,0 -0.2341488448246285,0.6805461457051155 l -19.617948634673873 -6.939163140048098" fill="red" stroke="none" /><path d="M 119.79798401119884 107.00284435728193 l 6.952305767100612 2.459134989890872 a28.374408476465486,28.374408476465486 0 0,0 -0.16683576453195878,0.4590603708822408 l -6.908945741563427 -2.578443157779244" fill="red" stroke="none" /><path d="M 119.54520255179757 107.68017299344265 l 17.782557809674337 6.987552054385484 a40.106157278928606,40.106157278928606 0 0,0 -0.2580112857411955,0.6403628518581099 l -17.65964390967575 -7.292614274086407" fill="red" stroke="none" /><path d="M 119.41010516605496 108.01547362559984 l 36.649604034447506 15.134587474597275 a60.65159787332696,60.65159787332696 0 0,0 -0.4067960975988926,0.9615458090991662 l -36.383656955656306 -15.763207809362605" fill="red" stroke="none" /><path d="M 119.26925614724726 108.34839909993367 l 22.737546809936394 9.851034926944493 a45.7798087980099,45.7798087980099 0 0,0 -0.31949710088790767,0.7203816177309078 l -22.564608624317216 -10.240964881168088" fill="red" stroke="none" /><path d="M 119.12269723197855 108.67885076344098 l 18.95719954915991 8.603739513523987 a41.81825517096096,41.81825517096096 0 0,0 -0.3031333293566303,0.6529222234272083 l -18.806291602963448 -8.928781804230026" fill="red" stroke="none" /><path d="M 118.81262510543309 109.33194174019688 l 12.737299050336237 6.318295931537747 a35.218285781914176,35.218285781914176 0 0,0 -0.27406757668227344,0.5407613295918624 l -12.626652803867694 -6.536611472832305" fill="red" stroke="none" /><path d="M 118.64920377521936 109.65438752849418 l 25.792432117655004 13.352319914971403 a50.04365682305834,50.04365682305834 0 0,0 -0.40260715711952016,0.7615810148015129 l -25.558772452310592 -13.794315944859049" fill="red" stroke="none" /><line stroke="#e1ed5e" stroke-width="0.3" x1="174.80103733775053" x2="179.2010983576182" y1="140.37084112569926" y2="142.7455964860345" /><path d="M 175.68104954172406 140.8457921977663 a86.0,86.0 0 0,1 -30.038265399797805,32.042727171017184" fill="none" id="id77" stroke="none" /><text fill="#e1ed5e" style="font-size:6.75px; font-family:Arial;" text-anchor="middle"><textPath startOffset="22.206326154141568" xlink:href="#id77">May</textPath></text><path d="M 118.12598468904814 110.60418214915192 l 32.13095332487596 18.797460525758396 a58.22556492227892,58.22556492227892 0 0,0 -0.5135470546133581,0.8607344027033796 l -31.802625394564377 -19.34775702234788" fill="red" stroke="none" /><path d="M 117.94076556474637 110.91462005526583 l 13.452900542698481 8.184338485162584 a36.74687046531629,36.74687046531629 0 0,0 -0.3334084859611301,0.5375606389423926 l -13.310027417069389 -8.414695455470252" fill="red" stroke="none" /><path d="M 117.75023020441432 111.22182372390056 l 12.10638854566203 7.65374626852343 a35.32286548011511,35.32286548011511 0 0,0 -0.3293354891711053,0.5111359927755771 l -11.972848193113874 -7.86100386122046" fill="red" stroke="none" /><path d="M 117.55443506779139 111.5257021239791 l 15.061239930362676 9.88874688275459 a39.01744330228736,39.01744330228736 0 0,0 -0.3734469018368105,0.5582524483050111 l -14.888789923115144 -10.146536245265409" fill="red" stroke="none" /><path d="M 117.35343817320211 111.8261652097733 l 5.094240300280834 3.471665200181459 a27.164717633367836,27.164717633367836 0 0,0 -0.2666528690542461,0.38413334578337743 l -5.033726524064452 -3.558839808151856" fill="red" stroke="none" /><path d="M 117.14729908036423 112.12312394758627 l 4.47842092106625 3.1662392812475724 a26.48464448550305,26.48464448550305 0 0,0 -0.266385338432681,0.36998593636288624 l -4.423255790257966 -3.2428588230615896" fill="red" stroke="none" /><path d="M 116.93607887273984 112.41649034213515 l 50.80823661821952 37.24947102640542 a84.0,84.0 0 0,0 -0.8649549332196318,1.15874848196274 l -50.159520418304794 -38.11853238787748" fill="red" stroke="none" /><line stroke="#e1ed5e" stroke-width="0.3" x1="143.8653032363475" x2="146.44561519142675" y1="172.8068346515853" y2="177.08958963109032" /><path d="M 144.38136562736335 173.6633856474863 a86.0,86.0 0 0,1 -40.68145358897372,12.25698825130547" fill="none" id="id78" stroke="none" /><text fill="#e1ed5e" style="font-size:6.75px; font-family:Arial;" text-anchor="middle"><textPath startOffset="21.466115282336833" xlink:href="#id78">June</textPath></text><line stroke="#e1ed5e" stroke-width="0.3" x1="102.19456741930631" x2="102.32365962044197" y1="184.97166512339345" y2="189.96999836594603" /><path d="M 102.22038585953345 185.97133177190398 a86.0,86.0 0 0,1 -42.740103519485714,-10.115201625700543" fill="none" id="id79" stroke="none" /><text fill="#e1ed5e" style="font-size:6.75px; font-family:Arial;" text-anchor="middle"><textPath startOffset="22.20632615414155" xlink:href="#id79">July</textPath></text><line stroke="#e1ed5e" stroke-width="0.3" x1="58.666819895761336" x2="56.23545636021788" y1="174.27360380694188" y2="178.64263932499728" /><path d="M 58.180547188652646 175.14741091055294 a86.0,86.0 0 0,1 -31.652253787137756,-30.449443065178592" fill="none" id="id80" stroke="none" /><text fill="#e1ed5e" style="font-size:6.75px; font-family:Arial;" text-anchor="middle"><textPath startOffset="22.20632615414155" xlink:href="#id80">August</textPath></text><line stroke="#e1ed5e" stroke-width="0.3" x1="26.63291911575756" x2="22.317208475507996" y1="142.92168965132927" y2="145.44649492493687" /><path d="M 25.769776987707644 143.4266507060508 a86.0,86.0 0 0,1 -11.730757126820373,-40.83630448921669" fill="none" id="id81" stroke="none" /><text fill="#e1ed5e" style="font-size:6.75px; font-family:Arial;" text-anchor="middle"><textPath startOffset="21.46611528233685" xlink:href="#id81">September</textPath></text><line stroke="#e1ed5e" stroke-width="0.3" x1="15.007084014347285" x2="10.007500721073583" y1="101.09737516637583" y2="101.16192664675087" /><path d="M 14.007167355692545 101.11028546245083 a86.0,86.0 0 0,1 10.666146001902534,-42.60595125391555" fill="none" id="id82" stroke="none" /><text fill="#e1ed5e" style="font-size:6.75px; font-family:Arial;" text-anchor="middle"><textPath startOffset="22.20632615414155" xlink:href="#id82">October</textPath></text><line stroke="#e1ed5e" stroke-width="0.3" x1="26.266209847984243" x2="21.928928074336255" y1="57.711370442889674" y2="55.22380399835377" /><path d="M 25.398753493254645 57.213857153982495 a86.0,86.0 0 0,1 29.58750427330803,-30.492523968695096" fill="none" id="id83" stroke="none" /><text fill="#e1ed5e" style="font-size:6.75px; font-family:Arial;" text-anchor="middle"><textPath startOffset="21.46611528233685" xlink:href="#id83">November</textPath></text><line stroke="#e1ed5e" stroke-width="0.3" x1="56.762969772571076" x2="54.21961505331055" y1="26.818313649435495" y2="22.513508569990535" /><path d="M 56.25429882871897 25.957352633546506 a86.0,86.0 0 0,1 42.265352541879196,-11.944610805530505" fill="none" id="id84" stroke="none" /><text fill="#e1ed5e" style="font-size:6.75px; font-family:Arial;" text-anchor="middle"><textPath startOffset="22.20632615414155" xlink:href="#id84">December</textPath></text></svg>