<?xml version="1.0" encoding="utf-8" ?>
<svg baseProfile="full" height="200mm" version="1.1" viewBox="0,0,200,200" width="200mm" xmlns="http://www.w3.org/2000/svg" xmlns:ev="http://www.w3.org/2001/xml-events" xmlns:xlink="http://www.w3.org/1999/xlink"><defs /><rect fill="#1a1a1a" height="200" width="200" x="0" y="0" /><text alignment-baseline="middle" fill="#e1ed5e" style="dominant-baseline: central; font-size:9.0px; font-family:Arial;" text-anchor="middle" x="100.0" y="100.0">2024</text><line stroke="#e1ed5e" stroke-width="0.3" x1="100.0" x2="100.0" y1="15.0" y2="10.0" /><path d="M 100.0 14.0 a86.0,86.0 0 0,1 42.35913384403234,11.155469271406648" fill="none" id="id49" stroke="none" /><text fill="#e1ed5e" style="font-size:6.75px; font-family:Arial;" text-anchor="middle"><textPath startOffset="22.145653131862478" xlink:href="#id49">January</textPath></text><line stroke="#e1ed5e" stroke-width="0.3" x1="143.13028292997686" x2="145.6673583964461" y1="26.7553504044142" y2="22.446841604673864" /><path d="M 143.63769802327073 25.89364864446614 a86.0,86.0 0 0,1 29.32050498858742,28.57503671076993" fill="none" id="id50" stroke="none" /><text fill="#e1ed5e" style="font-size:6.75px; font-family:Arial;" text-anchor="middle"><textPath startOffset="20.669276256404974" xlink:href="#id50">February</textPath></text><line stroke="#e1ed5e" stroke-width="0.3" x1="172.87174338648825" x2="177.1583165268699" y1="56.24261187166439" y2="53.66864786411523" /><path d="M 173.72905801456457 55.72781907015455 a86.0,86.0 0 0,1 12.242430191666344,42.057860355516425" fill="none" id="id51" stroke="none" /><text fill="#e1ed5e" style="font-size:6.75px; font-family:Arial;" text-anchor="middle"><textPath startOffset="22.145653131862474" xlink:href="#id51">March</textPath></text><line stroke="#e1ed5e" stroke-width="0.3" x1="184.99686870605535" x2="189.99668451229388" y1="99.2704041080226" y2="99.22748670261217" /><path d="M 185.99683186730306 99.26182062694052 a86.0,86.0 0 0,1 -10.086455211305974,41.156179273409016" fill="none" id="id52" stroke="none" /><text fill="#e1ed5e" style="font-size:6.75px; font-family:Arial;" text-anchor="middle"><textPath startOffset="21.40746469413373" xlink:href="#id52">April</textPath></text><path d="M 120.82617615685814 102.69636545807757 l 14.803061057044516 1.9165526214414614 a35.92661350103707,35.92661350103707 0 0,0 -0.08443692275608555,0.6109435108570006 l -14.767979617733221 -2.1703844404985473" fill="#ffb010" stroke="none" /><path d="M 120.77682067341334 103.0534771498775 l 25.571275299031548 3.758096873730767 a46.845955438544074,46.845955438544074 0 0,0 -0.1237592241470303,0.7946229979010493 l -25.50299458274625 -4.196508053563266" fill="#c5ff1e" stroke="none" /><path d="M 120.7213421655516 103.40968896794604 l 12.346077863284815 2.031542414169888 a33.512106265008406,33.512106265008406 0 0,0 -0.09827853240715144,0.5668444584207903 l -12.30938451338543 -2.2431799055112664" fill="#ff900d" stroke="none" /><path d="M 120.65975698304385 103.76489593502545 l 13.394021965136972 2.440836980394928 a34.614606478610945,34.614606478610945 0 0,0 -0.11154756007626639,0.5836639698313023 l -13.350148112778546 -2.6704035152595447" fill="#ff9f0e" stroke="none" /><path d="M 120.35273937422433 105.17358676015961 l 17.23675896943088 4.381516726207703 a38.784924756441725,38.784924756441725 0 0,0 -0.16956495613516118,0.6438657574537853 l -17.15900453249099 -4.676762988034292" fill="#ffd513" stroke="none" /><path d="M 119.83427380445688 106.89939002012753 l 9.097175190800064 3.1644697628734977 a30.63184641344788,30.63184641344788 0 0,0 -0.1770226510464801,0.49516386089876185 l -9.04151236970964 -3.3201685801531813" fill="#ff6809" stroke="none" /><line stroke="#e1ed5e" stroke-width="0.3" x1="174.33088141563837" x2="178.70328620479359" y1="141.23008692659167" y2="143.65538615756765" /><path d="M 175.20536237346943 141.71514677278685 a86.0,86.0 0 0,1 -30.301960400862466,31.631185727798858" fill="none" id="id53" stroke="none" /><text fill="#e1ed5e" style="font-size:6.75px; font-family:Arial;" text-anchor="middle"><textPath startOffset="22.145653131862474" xlink:href="#id53">May</textPath></text><path d="M 111.8722381534696 117.32195027204791 l 8.672157214239407 12.65293654613355 a36.33959301901346,36.33959301901346 0 0,0 -0.5175860552871977,0.3482549971289535 l -8.453674870855206 -12.799941217319624" fill="#ffb610" stroke="none" /><line stroke="#e1ed5e" stroke-width="0.3" x1="143.1302829299769" x2="145.66735839644613" y1="173.24464959558577" y2="177.55315839532614" /><path d="M 143.63769802327073 174.10635135553383 a86.0,86.0 0 0,1 -40.68552437913181,11.842963189579606" fill="none" id="id54" stroke="none" /><text fill="#e1ed5e" style="font-size:6.75px; font-family:Arial;" text-anchor="middle"><textPath startOffset="21.407464694133747" xlink:href="#id54">June</textPath></text><path d="M 110.65571695917076 118.09573695890943 l 5.582996334050121 9.481148334798558 a32.00281881212585,32.00281881212585 0 0,0 -0.4757867182306964,0.2746955898473422 l -5.4194171479590265 -9.575590821922072" fill="#ff7b0b" stroke="none" /><path d="M 109.06512990194946 118.94263497670748 l 1.1493744625260798 2.4017505684611056 a23.662605387249556,23.662605387249556 0 0,0 -0.36790989134008945,0.1722004060066129 l -1.107975857314484 -2.421127206038252" fill="#ff0300" stroke="none" /><path d="M 107.407793817531 119.65005319985036 l 2.7373223693681976 7.261072798210407 a28.759904118915042,28.759904118915042 0 0,0 -0.4634601691060955,0.1701889936880064 l -2.612273048607975 -7.306992640907135" fill="#ff4d07" stroke="none" /><path d="M 107.06938296918513 119.77432235084164 l 2.480728955920477 6.939040401865909 a28.369144987817087,28.369144987817087 0 0,0 -0.45997762477950566,0.1600040951926653 l -2.36124555909595 -6.980602929627165" fill="#ff4806" stroke="none" /><path d="M 106.72888874123015 119.89276391827305 l 2.329362305865793 6.886345756735036 a28.269641437738937,28.269641437738937 0 0,0 -0.4610337812989048,0.151550961207426 l -2.2108057869191535 -6.925317639344481" fill="#ff4606" stroke="none" /><path d="M 106.38641147887787 120.00534299687104 l 3.8588643820439095 12.087837715518013 a33.68883977973191,33.68883977973191 0 0,0 -0.5524317878970346,0.17114478002557407 l -3.650791961275251 -12.152299083350233" fill="#ff920d" stroke="none" /><path d="M 106.0420521117495 120.11202640906438 l 2.4904037423761727 8.28974409844993 a29.655747686816355,29.655747686816355 0 0,0 -0.4888114351013717,0.14228588474382167 l -2.3477322948931945 -8.33127367749627" fill="#ff5a08" stroke="none" /><path d="M 103.2317021107853 120.74984581791261 l 1.1098303148084208 7.125906759619049 a28.21181464504269,28.21181464504269 0 0,0 -0.47916409567315016,0.07042062114209564 l -0.9873411135275851 -7.1439084540600275" fill="#ff4606" stroke="none" /><path d="M 101.08105385017728 120.97215588758144 l 0.7658800187106857 14.85786775649545 a35.87759410901398,35.87759410901398 0 0,0 -0.6153421509374413,0.02642543961557073 l -0.5107121071724149 -14.868825764536851" fill="#ffaf10" stroke="none" /><line stroke="#e1ed5e" stroke-width="0.3" x1="101.45913802915013" x2="101.54496967792366" y1="184.9874750549273" y2="189.98673829345242" /><path d="M 101.47630435890484 185.9873277026323 a86.0,86.0 0 0,1 -42.54439059252881,-10.42667462771756" fill="none" id="id55" stroke="none" /><text fill="#e1ed5e" style="font-size:6.75px; font-family:Arial;" text-anchor="middle"><textPath startOffset="22.145653131862474" xlink:href="#id55">July</textPath></text><path d="M 100.36049292484886 120.99690560180557 l 0.313840561624859 18.279639327783443 a39.28233327154847,39.28233327154847 0 0,0 -0.674333486473709,0.005788341959460476 l -2.2389400921946986e-15 -18.282333271548467" fill="#ffdc14" stroke="none" /><path d="M 100.0 121.0 l 1.2025523220337942e-15 9.819584902937386 a30.819584902937386,30.819584902937386 0 0,0 -0.5290591573470202,-0.004541336565565852 l 0.1685662324981669 -9.818137964566255" fill="#ff6a09" stroke="none" /><path d="M 99.63950707515114 120.99690560180557 l -0.19813050566113788 11.540108660798841 a32.54180937289808,32.54180937289808 0 0,0 -0.5584588016209687,-0.014383917740005508 l 0.39620262135285045 -11.535007025708788" fill="#ff820c" stroke="none" /><path d="M 99.27912038922189 120.98762331915562 l -0.16726647849388054 4.869781017612641 a25.872652792301967,25.872652792301967 0 0,0 -0.44374585908123554,-0.01905635650986788 l 0.25083809817595487 -4.866192092676945" fill="#ff2403" stroke="none" /><path d="M 98.91894614982273 120.97215588758144 l -0.6176663078343313 11.982561361105509 a32.99847025418209,32.99847025418209 0 0,0 -0.5654612329503282,-0.03401674361018018 l 0.8232718929171059 -11.970192639670636" fill="#ff890c" stroke="none" /><path d="M 98.55909050195518 120.95050786540614 l -0.8247716760943338 11.991999157910367 a33.02032828674036,33.02032828674036 0 0,0 -0.5651680851883235,-0.04374758416635768 l 1.0305087560578934 -11.976073806748955" fill="#ff890c" stroke="none" /><path d="M 98.19965949673042 120.92268563240118 l -0.5150124117070753 5.985224887937982 a27.007341736858706,27.007341736858706 0 0,0 -0.46156889243660426,-0.04371105400511478 l 0.6176808675286949 -5.975502078427684" fill="#ff3405" stroke="none" /><path d="M 97.84075906011543 120.88869738790638 l -1.235384541187196 11.95122478547319 a33.01490527792512,33.01490527792512 0 0,0 -0.5632407272919456,-0.06311229830079515 l 1.4403611700799408 -11.928256726665424" fill="#ff890c" stroke="none" /><path d="M 97.12497278360702 120.80226474461374 l -0.49477215390899526 3.5799248352127147 a24.613953695062587,24.613953695062587 0 0,0 -0.41805615879827535,-0.0614398587888661 l 0.5561534183149555 -3.5709039031249663" fill="#ff1101" stroke="none" /><path d="M 96.05791012581884 120.62667999033965 l -1.4426783774508496 7.548702888678362 a28.68532603097001,28.68532603097001 0 0,0 -0.48287445550658054,-0.0965884147891626 l 1.5720493184883881 -7.522825077226337" fill="#ff4c07" stroke="none" /><path d="M 95.70440661134978 120.55596938700252 l -4.9006326105951965 23.451301090673148 a44.95787392131106,44.95787392131106 0 0,0 -0.7540882316182932,-0.1643500203022458 l 5.302483258832626 -23.363719612237183" fill="#dcff1b" stroke="none" /><path d="M 95.35216902796893 120.47920084513623 l -5.3398622434328 23.528418315271065 a45.12676101753449,45.12676101753449 0 0,0 -0.7539775927103387,-0.17793665890509275 l 5.742971989883027 -23.433285512719742" fill="#daff1c" stroke="none" /><path d="M 95.00130118170881 120.39639698878247 l -5.729943628148191 23.38012535090227 a45.07202765463805,45.07202765463805 0 0,0 -0.7499013279109469,-0.19062198508863298 l 6.130450249284516 -23.278318133978374" fill="#daff1b" stroke="none" /><path d="M 94.6519064749342 120.30758222061772 l -6.1271289121276675 23.265706475809164 a45.0589859828784,45.0589859828784 0 0,0 -0.7463025418984749,-0.20340807645441888 l 6.525612854960838 -23.1570979052106" fill="#daff1b" stroke="none" /><path d="M 94.30408787586889 120.21278271476187 l -6.54521840467016 23.226671084649077 a45.13126879464291,45.13126879464291 0 0,0 -0.7438922296085748,-0.21653618643754113 l 6.942970646660341 -23.11089120390902" fill="#daff1c" stroke="none" /><path d="M 93.95794788825049 120.11202640906438 l -7.0017532457170475 23.30655935816458 a45.33557596666983,45.33557596666983 0 0,0 -0.7434157261086856,-0.2303120922797721 l 7.400809604697367 -23.182930678078158" fill="#d7ff1c" stroke="none" /><path d="M 93.61358852112213 120.00534299687104 l -7.391558177519723 23.1539507142109 a45.305155131530555,45.305155131530555 0 0,0 -0.7388564523757556,-0.24287679144981833 l 7.787937367543222 -23.023653001359058" fill="#d8ff1c" stroke="none" /><path d="M 93.27111125876986 119.89276391827306 l -7.901913367467809 23.36060279292812 a45.66085963051425,45.66085963051425 0 0,0 -0.740345673697742,-0.25753065642398476 l 8.301764813210573 -23.221513703935546" fill="#d3ff1c" stroke="none" /><path d="M 92.93061703081489 119.77432235084164 l -8.856949993787248 24.774465464080308 a47.31006845721531,47.31006845721531 0 0,0 -0.7623924000908545,-0.2799610495484525 l 9.280931545532221 -24.618773565523135" fill="#c0ff1e" stroke="none" /><path d="M 92.59220618246901 119.65005319985036 l -9.244946086150126 24.52331785918236 a47.20805500143639,47.20805500143639 0 0,0 -0.7558408345340017,-0.29237547210820714 l 9.664559183177655 -24.361002498936113" fill="#c1ff1e" stroke="none" /><path d="M 92.25597844496254 119.51999308798841 l -8.834852028186797 22.269598463530155 a44.95808060105861,44.95808060105861 0 0,0 -0.7149309738173384,-0.2907562031123388 l 9.215837463194577 -22.114655003838525" fill="#dcff1b" stroke="none" /><path d="M 91.92203290615298 119.3841803445677 l -10.163887570728365 24.38963013639627 a47.42269230681491,47.42269230681491 0 0,0 -0.748747686186898,-0.319595863943632 l 10.581070332085693 -24.211559622793235" fill="#beff1e" stroke="none" /><path d="M 91.59046798132341 119.24265499422711 l -10.768584439763947 24.640628597450736 a47.89094621826895,47.89094621826895 0 0,0 -0.7504889773806628,-0.3356841737479551 l 11.189986820000245 -24.452140672792925" fill="#b9ff1f" stroke="none" /><path d="M 91.26138138417905 119.09545874513695 l -10.997202431770976 24.030871992469287 a47.427661077813795,47.427661077813795 0 0,0 -0.7374126960278125,-0.3451463758908269 l 11.408103841670277 -23.838549385007934" fill="#beff1e" stroke="none" /><path d="M 90.93487009805054 118.94263497670748 l -11.335705248806168 23.687264170975073 a47.25994473325051,47.25994473325051 0 0,0 -0.7287927963002009,-0.3564890769431808 l 11.740658294368437 -23.48918134393467" fill="#c0ff1e" stroke="none" /><path d="M 90.6110303473126 118.78422872680471 l -11.994982846856875 23.998000814175224 a47.82878410538848,47.82878410538848 0 0,0 -0.7312628854656349,-0.37338803977309903 l 12.405172954036091 -23.78855482272929" fill="#baff1f" stroke="none" /><path d="M 90.28995756902619 118.62028667847754 l -11.520581811881291 22.09223466993338 a45.915670530725365,45.915670530725365 0 0,0 -0.6957561854064849,-0.37045098010596333 l 11.898126813074336 -21.89121322210484" fill="#d0ff1d" stroke="none" /><path d="M 89.97174638481275 118.45085714620012 l -19.895082798897505 36.604711520095194 a62.66196376845884,62.66196376845884 0 0,0 -0.9406927742646846,-0.5217864246392421 l 20.520519761318294 -36.257792180022804" fill="#32ff48" stroke="none" /><line stroke="#e1ed5e" stroke-width="0.3" x1="58.13341422392154" x2="55.67067388415222" y1="173.97424548756322" y2="178.32567169271397" /><path d="M 57.64086615596768 174.84453072859336 a86.0,86.0 0 0,1 -31.369924170532247,-30.572349798747897" fill="none" id="id56" stroke="none" /><text fill="#e1ed5e" style="font-size:6.75px; font-family:Arial;" text-anchor="middle"><textPath startOffset="22.145653131862474" xlink:href="#id56">August</textPath></text><path d="M 89.65649057296885 118.27599006163327 l -13.031398022886343 23.025231661998557 a47.45710920564805,47.45710920564805 0 0,0 -0.7055460451226135,-0.4073471990772199 l 13.424736535869355 -22.798137565645167" fill="#beff1f" stroke="none" /><path d="M 89.34428304082925 118.09573695890944 l -15.047201204756142 25.55343727807148 a50.65461887835937,50.65461887835937 0 0,0 -0.7455087344937447,-0.4476565748577354 l 15.483642695807314 -25.291366702677827" fill="#99ff23" stroke="none" /><path d="M 89.03521579738668 117.91015095944536 l -12.654586646525724 20.67031625799246 a45.23634744345473,45.23634744345473 0 0,0 -0.6588046538447732,-0.4111428289806609 l 13.00755542916021 -20.450037632170254" fill="#d8ff1c" stroke="none" /><path d="M 88.72937992617639 117.7192867562869 l -14.12851990976163 22.21237998292703 a47.32498621740319,47.32498621740319 0 0,0 -0.6817375373334981,-0.4418940351803202 l 14.507743079352139 -21.966572106042815" fill="#c0ff1e" stroke="none" /><path d="M 88.4268655584334 117.5232005979908 l -14.333948710677266 21.70342528091367 a47.00962811276872,47.00962811276872 0 0,0 -0.6695597268432609,-0.4505096657213441 l 14.704404725617533 -21.454165941135205" fill="#c3ff1e" stroke="none" /><path d="M 88.1277618465304 117.32195027204791 l -14.365361387511102 20.959491578405007 a46.40991725722509,46.40991725722509 0 0,0 -0.6532856837835769,-0.45604414400397164 l 14.723042162468444 -20.70980261859591" fill="#caff1d" stroke="none" /><path d="M 87.83215693770417 117.11559508785305 l -14.444882553360953 20.31853629350402 a45.92985256857392,45.92985256857392 0 0,0 -0.6386851971784865,-0.4623588287593028 l 14.791548760913393 -20.067576693371652" fill="#d0ff1d" stroke="none" /><path d="M 86.13680546590413 115.77377054828092 l -8.744487900351302 9.949622027096229 a34.246171036245485,34.246171036245485 0 0,0 -0.43824494546798487,-0.39188133258990626 l 8.913997872642657 -9.798045164622941" fill="#ff9a0e" stroke="none" /><line stroke="#e1ed5e" stroke-width="0.3" x1="26.387840678322732" x2="22.057713659400548" y1="142.50000000000003" y2="145.00000000000006" /><path d="M 25.521815274538298 143.00000000000003 a86.0,86.0 0 0,1 -11.493303480769221,-40.785679425670985" fill="none" id="id57" stroke="none" /><text fill="#e1ed5e" style="font-size:6.75px; font-family:Arial;" text-anchor="middle"><textPath startOffset="21.40746469413373" xlink:href="#id57">September</textPath></text><path d="M 79.48165901384964 104.47187691870673 l -7.280331974437377 1.5867144687274921 a28.451234559674283,28.451234559674283 0 0,0 -0.09990757934777475,-0.4780939341299558 l 7.306497264609519 -1.4615040833121273" fill="#ff4906" stroke="none" /><path d="M 79.407916724674 104.11899336999214 l -7.481824358297393 1.4965744123713374 a28.630034777127612,28.630034777127612 0 0,0 -0.09226193359328652,-0.4827534227422804 l 7.506412584172836 -1.3679184245957425" fill="#ff4c07" stroke="none" /><path d="M 79.0935383218832 101.97986365728391 l -12.65992978227412 1.198908512860726 a33.716572011132605,33.716572011132605 0 0,0 -0.04962176647213603,-0.5766801438591276 l 12.678645171443996 -0.9814073216259364" fill="#ff920d" stroke="none" /><path d="M 79.03789590574601 101.26102812881392 l -12.53673832390777 0.7541790460987488 a33.559402606641456,33.559402606641456 0 0,0 -0.029657579579343684,-0.575349120753209 l 12.547837492943685 -0.5388581319688089" fill="#ff900d" stroke="none" /><path d="M 79.01933749520258 100.90099992219065 l -12.507114634758844 0.5371093172186774 a33.518642214938566,33.518642214938566 0 0,0 -0.01975255661192973,-0.575074133826619 l 12.514491878367622 -0.32232891882793846" fill="#ff900d" stroke="none" /><line stroke="#e1ed5e" stroke-width="0.3" x1="15.003131293944662" x2="10.003315487706104" y1="100.72959589197737" y2="100.7725132973878" /><path d="M 14.003168132696942 100.73817937305945 a86.0,86.0 0 0,1 10.791469493833604,-42.45332614584628" fill="none" id="id58" stroke="none" /><text fill="#e1ed5e" style="font-size:6.75px; font-family:Arial;" text-anchor="middle"><textPath startOffset="22.145653131862435" xlink:href="#id58">October</textPath></text><path d="M 79.00077361379809 100.18025310272382 l -2.460151415957776 0.02111744107812334 a23.460242048205163,23.460242048205163 0 0,0 0.0,-0.4027410876038809 l 2.460151415957776 0.021117441078122433" fill="#ff0000" stroke="none" /><path d="M 79.01933749520258 99.09900007780938 l -24.232071524051303 -1.04062941542935 a45.25440578383636,45.25440578383636 0 0,0 0.03999284959216157,-0.7758505979122456 l 24.21063708500257 1.4564518067183077" fill="#d8ff1c" stroke="none" /><path d="M 79.13060592940154 97.66154086499901 l -11.959343259541953 -1.3400693570345925 a33.0341878446871,33.0341878446871 0 0,0 0.06798422289302858,-0.5630068908244036 l 11.934576950389257 1.5451699247824324" fill="#ff890c" stroke="none" /><path d="M 79.34024301695615 96.23510406497455 l -11.876022009135998 -2.1642068211724603 a33.07160676655316,33.07160676655316 0 0,0 0.10657515476567063,-0.5576462441077787 l 11.837120562088169 2.3677556303135536" fill="#ff8a0c" stroke="none" /><path d="M 79.407916724674 95.88100663000787 l -2.636266011792982 -0.5273270352942948 a23.688488848235593,23.688488848235593 0 0,0 0.08318301879906434,-0.39806085754530424 l 2.626825282169551 0.5725043441250082" fill="#ff0300" stroke="none" /><path d="M 79.48165901384962 95.52812308129327 l -12.150648684895762 -2.6481773276882294 a33.43587980894963,33.43587980894963 0 0,0 0.12703904966750784,-0.5597574931127925 l 12.103398773670593 2.85636915474003" fill="#ff8f0d" stroke="none" /><path d="M 79.56144815229197 95.17655741523228 l -2.8043269039231418 -0.6618135135395876 a23.881361919435108,23.881361919435108 0 0,0 0.097586606498391,-0.39818665602455744 l 2.7925527709084528 0.7098559941722626" fill="#ff0601" stroke="none" /><path d="M 79.83685265289637 94.1308016681162 l -23.019146893294273 -6.70053817599652 a44.97453514759037,44.97453514759037 0 0,0 0.22213925198257972,-0.7394293229738232 l 22.900731321308065 7.0947051025610675" fill="#dbff1b" stroke="none" /><path d="M 80.28708602549916 92.7611449362534 l -47.29044861556029 -17.365707772600647 a71.37811366758694,71.37811366758694 0 0,0 0.4322431383677378,-1.1465762780945197 l 46.985374793378114 18.17495233088931" fill="#3dffac" stroke="none" /><path d="M 80.68587082218212 91.75594674310238 l -11.397459008068326 -4.864897515738708 a33.39230808522926,33.39230808522926 0 0,0 0.2295579947027452,-0.5252736161086295 l 11.312267131348603 5.059833201623204" fill="#ff8e0d" stroke="none" /><path d="M 80.9802524753101 91.09779779509293 l -10.048587153556094 -4.703246170774099 a32.094801860579295,32.094801860579295 0 0,0 0.23783889910348438,-0.4969918244646936 l 9.966368996492704 4.87505049730388" fill="#ff7c0b" stroke="none" /><path d="M 81.1358732173502 90.77261029715801 l -11.898425734289692 -5.820116264358174 a34.24561392631741,34.24561392631741 0 0,0 0.2628433821314738,-0.5258628360643673 l 11.796762438946475 6.023510956586312" fill="#ff9a0e" stroke="none" /><path d="M 81.29705330413844 90.45014215332179 l -10.693123744227151 -5.459985175325589 a33.006428841421986,33.006428841421986 0 0,0 0.2619954933246604,-0.5024109038507127 l 10.59782018192755 5.642742322280788" fill="#ff890c" stroke="none" /><path d="M 81.46374523516351 90.13048839642627 l -6.614949172672293 -3.522087845954113 a28.494174761216577,28.494174761216577 0 0,0 0.23359069971506383,-0.4297805776068969 l 6.553513123341879 3.6351232570356293" fill="#ff4a06" stroke="none" /><line stroke="#e1ed5e" stroke-width="0.3" x1="26.387840678322718" x2="22.05771365940052" y1="57.49999999999999" y2="54.99999999999999" /><path d="M 25.521815274538284 56.99999999999999 a86.0,86.0 0 0,1 29.574782752854787,-30.34633250058573" fill="none" id="id59" stroke="none" /><text fill="#e1ed5e" style="font-size:6.75px; font-family:Arial;" text-anchor="middle"><textPath startOffset="21.40746469413373" xlink:href="#id59">November</textPath></text><path d="M 81.99639281039701 89.18935116829357 l -54.01082156880897 -32.43194649511929 a84.0,84.0 0 0,0 0.752928142178428,-1.2298515355018278 l 53.44612546217515 33.35433514674566" fill="#4dd2ff" stroke="none" /><path d="M 82.18462484594161 88.88188828441811 l -10.339562447745553 -6.452651678125511 a33.1878326740256,33.1878326740256 0 0,0 0.3057742131287708,-0.4807278507852834 l 10.227270542990892 6.629193203589467" fill="#ff8b0c" stroke="none" /><path d="M 82.37810715431573 88.57770195909679 l -10.666193006366475 -6.91369744143876 a33.710896331920026,33.710896331920026 0 0,0 0.31893005920139755,-0.48290075885083256 l 10.545938508244348 7.095778078628654" fill="#ff920d" stroke="none" /><path d="M 82.576782715395 88.27688183743585 l -11.923246508000082 -8.022492368167367 a35.37094955414707,35.37094955414707 0 0,0 0.34328393036776134,-0.5008615135711133 l 11.783772840817008 8.225988616808515" fill="#ffa90f" stroke="none" /><path d="M 82.78059297857968 87.97951657250589 l -13.032504400918482 -9.097700227139597 a36.89384536173847,36.89384536173847 0 0,0 0.36697939301129423,-0.5162024743588618 l 12.874409909377215 9.32007992820798" fill="#ffbd11" stroke="none" /><path d="M 82.98947788004972 87.6856937992154 l -6.925719957616123 -5.01368715302074 a29.55000911108798,29.55000911108798 0 0,0 0.300985108101975,-0.4083441050040636 l 6.838632829930329 5.131837567293667" fill="#ff5908" stroke="none" /><path d="M 83.2033758604659 87.39550010848427 l -2.2222147087329995 -1.6675913458837859 a23.77832667420082,23.77832667420082 0 0,0 0.24780189402248537,-0.3243806338230939 l 2.1932608373562075 1.705492892947764" fill="#ff0500" stroke="none" /><path d="M 83.42222388311158 87.10902102172516 l -9.590696478263558 -7.457783590306787 a33.14907383375483,33.14907383375483 0 0,0 0.3531695528453514,-0.4462181928810539 l 9.461260494776644 7.621321727102523" fill="#ff8b0c" stroke="none" /><line stroke="#e1ed5e" stroke-width="0.3" x1="56.869717070023135" x2="54.33264160355391" y1="26.7553504044142" y2="22.446841604673864" /><path d="M 56.362301976729285 25.89364864446614 a86.0,86.0 0 0,1 42.16139366436587,-11.88097634709845" fill="none" id="id60" stroke="none" /><text fill="#e1ed5e" style="font-size:6.75px; font-family:Arial;" text-anchor="middle"><textPath startOffset="22.145653131862474" xlink:href="#id60">December</textPath></text></svg>