<?xml version="1.0" encoding="utf-8" ?>
<svg baseProfile="full" height="200mm" version="1.1" viewBox="0,0,200,200" width="200mm" xmlns="http://www.w3.org/2000/svg" xmlns:ev="http://www.w3.org/2001/xml-events" xmlns:xlink="http://www.w3.org/1999/xlink"><defs /><rect fill="#1a1a1a" height="200" width="200" x="0" y="0" /><text alignment-baseline="middle" fill="#e1ed5e" style="dominant-baseline: central; font-size:9.0px; font-family:Arial;" text-anchor="middle" x="100.0" y="100.0">2024</text><line stroke="#e1ed5e" stroke-width="0.3" x1="100.0" x2="100.0" y1="15.0" y2="10.0" /><path d="M 100.0 14.0 a86.0,86.0 0 0,1 42.35913384403234,11.155469271406648" fill="none" id="id49" stroke="none" /><text fill="#e1ed5e" style="font-size:6.75px; font-family:Arial;" text-anchor="middle"><textPath startOffset="22.145653131862478" xlink:href="#id49">January</textPath></text><line stroke="#e1ed5e" stroke-width="0.3" x1="143.13028292997686" x2="145.6673583964461" y1="26.7553504044142" y2="22.446841604673864" /><path d="M 143.63769802327073 25.89364864446614 a86.0,86.0 0 0,1 29.32050498858742,28.57503671076993" fill="none" id="id50" stroke="none" /><text fill="#e1ed5e" style="font-size:6.75px; font-family:Arial;" text-anchor="middle"><textPath startOffset="20.669276256404974" xlink:href="#id50">February</textPath></text><line stroke="#e1ed5e" stroke-width="0.3" x1="172.87174338648825" x2="177.1583165268699" y1="56.24261187166439" y2="53.66864786411523" /><path d="M 173.72905801456457 55.72781907015455 a86.0,86.0 0 0,1 12.242430191666344,42.057860355516425" fill="none" id="id51" stroke="none" /><text fill="#e1ed5e" style="font-size:6.75px; font-family:Arial;" text-anchor="middle"><textPath startOffset="22.145653131862474" xlink:href="#id51">March</textPath></text><line stroke="#e1ed5e" stroke-width="0.3" x1="184.99686870605535" x2="189.99668451229388" y1="99.2704041080226" y2="99.22748670261217" /><path d="M 185.99683186730306 99.26182062694052 a86.0,86.0 0 0,1 -10.086455211305974,41.156179273409016" fill="none" id="id52" stroke="none" /><text fill="#e1ed5e" style="font-size:6.75px; font-family:Arial;" text-anchor="middle"><textPath startOffset="21.40746469413373" xlink:href="#id52">April</textPath></text><path d="M 120.82617615685814 102.69636545807757 l 7.4492909275232915 0.9644598505679138 a28.511465777479007,28.511465777479007 0 0,0 -0.06700938938890742,0.4848465609281384 l -7.431637021579173 -1.0921947196961372" fill="#ff5808" stroke="none" /><path d="M 120.77682067341334 103.0534771498775 l 12.986344329109077 1.9085454070514984 a34.12584033900157,34.12584033900157 0 0,0 -0.09015479531121551,0.5788584585844186 l -12.951668041659593 -2.131192047567368" fill="#ffa40f" stroke="none" /><path d="M 120.7213421655516 103.40968896794604 l 6.212872152796869 1.0223257484675923 a27.2964220254823,27.2964220254823 0 0,0 -0.08005024439277726,0.4617085371329156 l -6.194407090911858 -1.128827318521096" fill="#ff4706" stroke="none" /><path d="M 120.65975698304385 103.76489593502545 l 6.7402252766133754 1.228293574116318 a27.8512292242862,27.8512292242862 0 0,0 -0.08975218790985377,0.4696213728089968 l -6.718146796421363 -1.343817511958629" fill="#ff4f07" stroke="none" /><path d="M 120.35273937422433 105.17358676015961 l 8.6739919342414 2.204894830302558 a29.94984342253985,29.94984342253985 0 0,0 -0.1309386035447818,0.4971952051466361 l -8.634863849891888 -2.3534705398219975" fill="#ff6c0a" stroke="none" /><path d="M 119.83427380445688 106.89939002012753 l 4.577938600251028 1.592444684525389 a25.846999267685266,25.846999267685266 0 0,0 -0.14937083028574322,0.4178167968489081 l -4.549927599921341 -1.6707964377552185" fill="#ff3304" stroke="none" /><line stroke="#e1ed5e" stroke-width="0.3" x1="174.33088141563837" x2="178.70328620479359" y1="141.23008692659167" y2="143.65538615756765" /><path d="M 175.20536237346943 141.71514677278685 a86.0,86.0 0 0,1 -30.301960400862466,31.631185727798858" fill="none" id="id53" stroke="none" /><text fill="#e1ed5e" style="font-size:6.75px; font-family:Arial;" text-anchor="middle"><textPath startOffset="22.145653131862474" xlink:href="#id53">May</textPath></text><path d="M 111.8722381534696 117.32195027204791 l 4.36405833963284 6.367291538987879 a28.71928796808265,28.71928796808265 0 0,0 -0.40904979211736153,0.2752269554487634 l -4.254112259418475 -6.441268168493763" fill="#ff5b08" stroke="none" /><line stroke="#e1ed5e" stroke-width="0.3" x1="143.1302829299769" x2="145.66735839644613" y1="173.24464959558577" y2="177.55315839532614" /><path d="M 143.63769802327073 174.10635135553383 a86.0,86.0 0 0,1 -40.68552437913181,11.842963189579606" fill="none" id="id54" stroke="none" /><text fill="#e1ed5e" style="font-size:6.75px; font-family:Arial;" text-anchor="middle"><textPath startOffset="21.407464694133747" xlink:href="#id54">June</textPath></text><path d="M 110.65571695917076 118.09573695890943 l 2.80951107202545 4.771164018087115 a26.53690875410845,26.53690875410845 0 0,0 -0.3945248948920945,0.22777905426796044 l -2.727193709272957 -4.818689969631247" fill="#ff3d05" stroke="none" /><path d="M 109.06512990194946 118.94263497670748 l 0.578395557717973 1.208624260270616 a22.3398932881773,22.3398932881773 0 0,0 -0.3473441566426703,0.16257460374339996 l -0.5575626872037965 -1.2183750955845496" fill="#ff0000" stroke="none" /><path d="M 107.407793817531 119.65005319985036 l 1.3774928451124162 3.653963427655694 a24.90498851073614,24.90498851073614 0 0,0 -0.4013389661886875,0.14737722750841503 l -1.3145647272696017 -3.6770715041728312" fill="#ff2503" stroke="none" /><path d="M 107.06938296918513 119.77432235084164 l 1.2483682688175217 3.4919082284497156 a24.70834820513194,24.70834820513194 0 0,0 -0.4006214260071034,0.13935692809794675 l -1.1882410707653965 -3.5128235891162527" fill="#ff2203" stroke="none" /><path d="M 106.72888874123015 119.89276391827305 l 1.1721965764468167 3.4653908925831796 a24.65827539316439,24.65827539316439 0 0,0 -0.40213803099900863,0.1321907582656052 l -1.112535807800074 -3.485002572250804" fill="#ff2203" stroke="none" /><path d="M 106.38641147887787 120.00534299687104 l 1.941882379659769 6.082918896340765 a27.38535899350167,27.38535899350167 0 0,0 -0.44906689959931456,0.13912207340794083 l -1.8371748471888303 -6.115357557555351" fill="#ff4806" stroke="none" /><path d="M 106.0420521117495 120.11202640906438 l 1.2532368766475108 4.171617969155491 a25.35580063244063,25.35580063244063 0 0,0 -0.41793602461749746,0.12165508570126612 l -1.1814408396484066 -4.192516749159275" fill="#ff2c04" stroke="none" /><path d="M 103.2317021107853 120.74984581791261 l 0.5584958991477206 3.585944310453669 a24.62917542522263,24.62917542522263 0 0,0 -0.41831469256005094,0.061477854348748175 l -0.4968561009799841 -3.5950032381012993" fill="#ff2103" stroke="none" /><path d="M 101.08105385017728 120.97215588758144 l 0.385411034445328 7.476871104853777 a28.48679792595403,28.48679792595403 0 0,0 -0.48858146551896947,0.02098179036604169 l -0.257003808325529 -7.48238546364565" fill="#ff5808" stroke="none" /><line stroke="#e1ed5e" stroke-width="0.3" x1="101.45913802915013" x2="101.54496967792366" y1="184.9874750549273" y2="189.98673829345242" /><path d="M 101.47630435890484 185.9873277026323 a86.0,86.0 0 0,1 -42.54439059252881,-10.42667462771756" fill="none" id="id55" stroke="none" /><text fill="#e1ed5e" style="font-size:6.75px; font-family:Arial;" text-anchor="middle"><textPath startOffset="22.145653131862474" xlink:href="#id55">July</textPath></text><path d="M 100.36049292484886 120.99690560180557 l 0.1579328518197468 9.198796848713535 a30.200152512300324,30.200152512300324 0 0,0 -0.5184257766685979,0.004450061781224812 l -1.1266937325856073e-15 -9.200152512300324" fill="#ff6f0a" stroke="none" /><path d="M 100.0 121.0 l 6.051560598093581e-16 4.94147422939162 a25.94147422939162,25.94147422939162 0 0,0 -0.4453199009449766,-0.0038225357626861522 l 0.08482697609612382 -4.940746091823368" fill="#ff3404" stroke="none" /><path d="M 99.63950707515114 120.99690560180557 l -0.09970449845471294 5.8072871832554 a26.80814302645988,26.80814302645988 0 0,0 -0.4600618010106369,-0.01184956004247407 l 0.1993796135360937 -5.8047199058628784" fill="#ff4006" stroke="none" /><path d="M 99.27912038922189 120.98762331915562 l -0.08417290558497538 2.4506023054105874 a23.452047458210853,23.452047458210853 0 0,0 -0.40222968360067274,-0.01727347330162366 l 0.12622834978648684 -2.4487962636831355" fill="#ff1001" stroke="none" /><path d="M 98.91894614982273 120.97215588758144 l -0.31082598426475255 6.029941056907033 a27.03794683168602,27.03794683168602 0 0,0 -0.46332180352975444,-0.02787228917081641 l 0.41429213992695335 -6.023716789911525" fill="#ff4406" stroke="none" /><path d="M 98.55909050195518 120.95050786540614 l -0.4150468703960315 6.034690405291353 a27.04894637043023,27.04894637043023 0 0,0 -0.46296333258068884,-0.0358362899264956 l 0.5185791977519565 -6.026676348369803" fill="#ff4406" stroke="none" /><path d="M 98.19965949673042 120.92268563240118 l -0.25916783503812496 3.0119230938175092 a24.023052875784607,24.023052875784607 0 0,0 -0.4105659126639981,-0.038881018793050816 l 0.31083331108713835 -3.0070303195192745" fill="#ff1902" stroke="none" /><path d="M 97.84075906011543 120.88869738790638 l -0.6216780988205735 6.014171665180696 a27.046217369299214,27.046217369299214 0 0,0 -0.46141374671051355,-0.05170237273588916 l 0.7248277471318862 -6.002613531937836" fill="#ff4406" stroke="none" /><path d="M 97.12497278360702 120.80226474461374 l -0.2489824032409481 1.801512639406063 a22.818636859591116,22.818636859591116 0 0,0 -0.38756356628910715,-0.0569584977601108 l 0.2798710751377402 -1.7969730683470697" fill="#ff0701" stroke="none" /><path d="M 96.05791012581884 120.62667999033965 l -0.7259938270243339 3.7987064787820013 a24.86745884901414,24.86745884901414 0 0,0 -0.4186063856686083,-0.08373300088929782 l 0.7910966982239003 -3.7856840812298422" fill="#ff2503" stroke="none" /><path d="M 95.70440661134978 120.55596938700252 l -2.466127641070486 11.801313510777824 a33.05623432592943,33.05623432592943 0 0,0 -0.5544594330779491,-0.12084185279960555 l 2.668349490767572 -11.7572401998445" fill="#ff960d" stroke="none" /><path d="M 95.35216902796893 120.47920084513623 l -2.6871595821256427 11.840120933062936 a33.141222769118635,33.141222769118635 0 0,0 -0.5537233074012974,-0.13067719283630833 l 2.890015043266828 -11.792247596580399" fill="#ff970d" stroke="none" /><path d="M 95.00130118170881 120.39639698878247 l -2.883458827866662 11.765496000433732 a33.11367949667748,33.11367949667748 0 0,0 -0.5509402065700199,-0.14004684607518167 l 3.0850043276620602 -11.714263922523287" fill="#ff970d" stroke="none" /><path d="M 94.6519064749342 120.30758222061772 l -3.083332943165676 11.707917403352763 a33.10711658332161,33.10711658332161 0 0,0 -0.5483462337667927,-0.14945420440052817 l 3.283860577867164 -11.653262704808089" fill="#ff970d" stroke="none" /><path d="M 94.30408787586889 120.21278271476187 l -3.2937266078062395 11.688273764506679 a33.14349120150486,33.14349120150486 0 0,0 -0.5462994111485341,-0.15901979673241412 l 3.4938860313363804 -11.630010273471749" fill="#ff970d" stroke="none" /><path d="M 93.95794788825049 120.11202640906438 l -3.5234669862592805 11.7284756517259 a33.24630396145655,33.24630396145655 0 0,0 -0.5451750567392607,-0.16889662616311935 l 3.724282675870175 -11.666262437756131" fill="#ff980e" stroke="none" /><path d="M 93.61358852112213 120.00534299687104 l -3.719627113599946 11.651678955253125 a33.230995394509655,33.230995394509655 0 0,0 -0.5419457299024814,-0.17814832582893153 l 3.919095581150171 -11.586109708022171" fill="#ff980e" stroke="none" /><path d="M 93.27111125876986 119.89276391827306 l -3.9764513117603326 11.755671734125672 a33.40999528425864,33.40999528425864 0 0,0 -0.5417100262044338,-0.18843486711159976 l 4.177667110009788 -11.685678434445482" fill="#ff9b0e" stroke="none" /><path d="M 92.93061703081489 119.77432235084164 l -8.158276122141306 22.82015029735933 a45.23461839763874,45.23461839763874 0 0,0 -0.7289469326927205,-0.2676794106518629 l 8.548812206488144 -22.676740037698746" fill="#d0ff1d" stroke="none" /><path d="M 92.59220618246901 119.65005319985036 l -8.478444065361135 22.490080183121265 a45.0351351236618,45.0351351236618 0 0,0 -0.7210505519489071,-0.2789178434239006 l 8.86326687980357 -22.34122245155932" fill="#d2ff1c" stroke="none" /><path d="M 92.25597844496254 119.51999308798841 l -4.445930662986977 11.206649567591718 a33.05633833263199,33.05633833263199 0 0,0 -0.5256674626458034,-0.2137843807808517 l 4.637652586823221 -11.128677930231575" fill="#ff960d" stroke="none" /><path d="M 91.92203290615298 119.3841803445677 l -9.332386260827509 22.39432969005755 a45.26106831094367,45.26106831094367 0 0,0 -0.7146182243916199,-0.30502802616647406 l 9.71543956038956 -22.23082701423167" fill="#d0ff1d" stroke="none" /><path d="M 91.59046798132341 119.24265499422711 l -9.668409967001631 22.123214100924145 a45.1436275949855,45.1436275949855 0 0,0 -0.7074363232374394,-0.31642726915734437 l 10.046759693094705 -21.953983080856947" fill="#d1ff1c" stroke="none" /><path d="M 91.26138138417905 119.09545874513695 l -9.951585380772114 21.74601003220341 a44.914911747934354,44.914911747934354 0 0,0 -0.6983440762460273,-0.3268602891426931 l 10.32341817088963 -21.571973511490192" fill="#d4ff1c" stroke="none" /><path d="M 90.93487009805054 118.94263497670748 l -10.220103186736706 21.356084930344508 a44.67557544600835,44.67557544600835 0 0,0 -0.6889393912623313,-0.3369947794595643 l 10.585202827261107 -21.177496400787724" fill="#d7ff1c" stroke="none" /><path d="M 90.6110303473126 118.78422872680471 l -10.958490104896617 21.92432101129274 a45.51049483762679,45.51049483762679 0 0,0 -0.6958181437479286,-0.3552897020982546 l 11.333235470358128 -21.732973357521647" fill="#cdff1d" stroke="none" /><path d="M 90.28995756902619 118.62028667847754 l -10.94391598501473 20.986401910677376 a44.66850992866986,44.66850992866986 0 0,0 -0.6768580686405599,-0.3603887973687682 l 11.302562869441852 -20.795442645586032" fill="#d7ff1c" stroke="none" /><path d="M 89.97174638481275 118.45085714620012 l -10.011730629566241 18.420456713680114 a41.96539948914777,41.96539948914777 0 0,0 -0.6299921945383218,-0.3494460505405007 l 10.326467012260666 -18.245877747706462" fill="#f7ff19" stroke="none" /><line stroke="#e1ed5e" stroke-width="0.3" x1="58.13341422392154" x2="55.67067388415222" y1="173.97424548756322" y2="178.32567169271397" /><path d="M 57.64086615596768 174.84453072859336 a86.0,86.0 0 0,1 -31.369924170532247,-30.572349798747897" fill="none" id="id56" stroke="none" /><text fill="#e1ed5e" style="font-size:6.75px; font-family:Arial;" text-anchor="middle"><textPath startOffset="22.145653131862474" xlink:href="#id56">August</textPath></text><path d="M 89.65649057296885 118.27599006163327 l -6.557743340431337 11.586904131711574 a34.313915467526684,34.313915467526684 0 0,0 -0.510145850769684,-0.29453284426785 l 6.755681659061421 -11.472624390167551" fill="#ffa70f" stroke="none" /><path d="M 89.34428304082925 118.09573695890944 l -18.118634436165333 30.769402384445634 a56.707716770011004,56.707716770011004 0 0,0 -0.8345951287633074,-0.5011503949565969 l 18.644162321486068 -30.45383798895312" fill="#53ff2b" stroke="none" /><path d="M 89.03521579738668 117.91015095944536 l -6.368121913045888 10.401848562019161 a33.196369550263526,33.196369550263526 0 0,0 -0.4834590763058811,-0.30171422009355037 l 6.545745118141482 -10.290998545084063" fill="#ff980e" stroke="none" /><path d="M 88.72937992617639 117.7192867562869 l -13.834510857122188 21.750148918572187 a46.777173402758855,46.777173402758855 0 0,0 -0.6738460493685628,-0.4367788680237019 l 14.205842538747762 -21.50945620884459" fill="#beff1f" stroke="none" /><path d="M 88.4268655584334 117.5232005979908 l -14.130118518625027 21.394800390976346 a46.63976858554132,46.63976858554132 0 0,0 -0.6642918050586704,-0.446965172844792 l 14.495306611780702 -21.14908554407443" fill="#c0ff1e" stroke="none" /><path d="M 88.1277618465304 117.32195027204791 l -14.090304899469551 20.558175942189653 a45.923388417910616,45.923388417910616 0 0,0 -0.646437097441344,-0.4512632988490738 l 14.44113708808466 -20.313267827535448" fill="#c8ff1d" stroke="none" /><path d="M 87.83215693770417 117.11559508785305 l -14.20026032948236 19.974444500738397 a45.507668729158,45.507668729158 0 0,0 -0.632814449644073,-0.4581088602835274 l 14.541055789500387 -19.727734869081804" fill="#cdff1d" stroke="none" /><path d="M 86.13680546590413 115.77377054828092 l -8.655257333541561 9.84809402189597 a34.111004361753835,34.111004361753835 0 0,0 -0.4365152305801807,-0.3903346108712805 l 8.823037590945113 -9.698063881141307" fill="#ffa40f" stroke="none" /><line stroke="#e1ed5e" stroke-width="0.3" x1="26.387840678322732" x2="22.057713659400548" y1="142.50000000000003" y2="145.00000000000006" /><path d="M 25.521815274538298 143.00000000000003 a86.0,86.0 0 0,1 -11.493303480769221,-40.785679425670985" fill="none" id="id57" stroke="none" /><text fill="#e1ed5e" style="font-size:6.75px; font-family:Arial;" text-anchor="middle"><textPath startOffset="21.40746469413373" xlink:href="#id57">September</textPath></text><path d="M 79.48165901384964 104.47187691870673 l -7.201993738774767 1.5696410148771882 a28.37105736844692,28.37105736844692 0 0,0 -0.0996260341277377,-0.4767466383315615 l 7.227877483726871 -1.4457779252602176" fill="#ff5608" stroke="none" /><path d="M 79.407916724674 104.11899336999214 l -7.453486313734755 1.490906009805585 a28.60113537302854,28.60113537302854 0 0,0 -0.09216880360156174,-0.48226612727258766 l 7.477981409618474 -1.3627373174996829" fill="#ff5908" stroke="none" /><path d="M 79.0935383218832 101.97986365728391 l -12.582155497636615 1.1915432072439354 a33.63844975388344,33.63844975388344 0 0,0 -0.049506791426505235,-0.5753439595479178 l 12.60075591176086 -0.9753782003203555" fill="#ff9e0e" stroke="none" /><path d="M 79.03789590574601 101.26102812881392 l -12.425456913940177 0.7474846328112166 a33.447920018881575,33.447920018881575 0 0,0 -0.029559058644482182,-0.5734378409369751 l 12.436457562041232 -0.5340749984975106" fill="#ff9b0e" stroke="none" /><path d="M 79.01933749520258 100.90099992219065 l -12.41845300599958 0.5333018053922455 a33.42989886836794,33.42989886836794 0 0,0 -0.019700260102845986,-0.5735515780251422 l 12.425777953099274 -0.3200439628029833" fill="#ff9b0e" stroke="none" /><line stroke="#e1ed5e" stroke-width="0.3" x1="15.003131293944662" x2="10.003315487706104" y1="100.72959589197737" y2="100.7725132973878" /><path d="M 14.003168132696942 100.73817937305945 a86.0,86.0 0 0,1 10.791469493833604,-42.45332614584628" fill="none" id="id58" stroke="none" /><text fill="#e1ed5e" style="font-size:6.75px; font-family:Arial;" text-anchor="middle"><textPath startOffset="22.145653131862435" xlink:href="#id58">October</textPath></text><path d="M 79.00077361379809 100.18025310272382 l -2.4506053566001462 0.02103549963959829 a23.450695637169662,23.450695637169662 0 0,0 0.0,-0.4025772047268308 l 2.4506053566001462 0.02103549963959739" fill="#ff1001" stroke="none" /><path d="M 79.01933749520258 99.09900007780938 l -24.149204725819825 -1.0370707585594026 a45.17146260878347,45.17146260878347 0 0,0 0.039919549901951706,-0.774428603504344 l 24.127843586461303 1.4514711554404587" fill="#d1ff1d" stroke="none" /><path d="M 79.13060592940154 97.66154086499901 l -11.901159088005917 -1.3335496992534115 a32.975639541936985,32.975639541936985 0 0,0 0.06786373072646205,-0.5620090428358481 l 11.876513271019785 1.537652419012696" fill="#ff950d" stroke="none" /><path d="M 79.34024301695615 96.23510406497455 l -5.976327643776309 -1.0890859786443927 a27.074751054540812,27.074751054540812 0 0,0 0.0872499423522998,-0.4565285667035459 l 5.95675140914185 1.1915171103812532" fill="#ff4406" stroke="none" /><path d="M 79.407916724674 95.88100663000787 l -2.6332310270745727 -0.5267199533509086 a23.685393742304132,23.685393742304132 0 0,0 0.08317215021827258,-0.3980088474517451 l 2.6238011660319334 0.5718452520880628" fill="#ff1402" stroke="none" /><path d="M 79.48165901384962 95.52812308129327 l -12.057200995466227 -2.627810838713878 a33.3402384761857,33.3402384761857 0 0,0 0.1266756620703311,-0.5581563403101205 l 12.010314471838234 2.8344015129630065" fill="#ff9a0e" stroke="none" /><path d="M 79.56144815229197 95.17655741523228 l -2.8093386808784278 -0.662996279254674 a23.88651137018119,23.88651137018119 0 0,0 0.097607648741515,-0.3982725155571864 l 2.797543505620615 0.7111246194199781" fill="#ff1702" stroke="none" /><path d="M 79.83685265289637 94.1308016681162 l -22.879644836618297 -6.659931160422903 a44.829243187968984,44.829243187968984 0 0,0 0.2214216226146838,-0.7370405682044003 l 22.761946893999983 7.051709332218026" fill="#d5ff1c" stroke="none" /><path d="M 80.28708602549916 92.7611449362534 l -46.822883302763806 -17.194011313287366 a70.88002030698956,70.88002030698956 0 0,0 0.4292268435075598,-1.1385751976205105 l 46.52082577544181 17.99525479110202" fill="#3dffaa" stroke="none" /><path d="M 80.68587082218212 91.75594674310238 l -11.341007068481638 -4.840801539568975 a33.330928629784694,33.330928629784694 0 0,0 0.22913603690720027,-0.5243080940957799 l 11.25623714955746 5.034771703440622" fill="#ff9a0e" stroke="none" /><path d="M 80.9802524753101 91.09779779509293 l -10.075878929291694 -4.716020099860902 a32.12493513599232,32.12493513599232 0 0,0 0.23806220208824025,-0.49745844181879567 l 9.993437469243549 4.888291043744785" fill="#ff8a0c" stroke="none" /><path d="M 81.1358732173502 90.77261029715801 l -11.757352240471603 -5.75111014924882 a34.08856751731508,34.08856751731508 0 0,0 0.26163801290134137,-0.5234512901592661 l 11.656894314358517 5.952093295571856" fill="#ffa40f" stroke="none" /><path d="M 81.29705330413844 90.45014215332179 l -10.63711323785137 -5.4313858116794576 a32.94353925225625,32.94353925225625 0 0,0 0.261496293940879,-0.501453623210406 l 10.542308874935552 5.61318567799435" fill="#ff940d" stroke="none" /><path d="M 81.46374523516351 90.13048839642627 l -6.589543218074952 -3.5085606061271126 a28.46539197562624,28.46539197562624 0 0,0 0.23335474302980663,-0.429346443882379 l 6.528343125429795 3.621161883484111" fill="#ff5808" stroke="none" /><line stroke="#e1ed5e" stroke-width="0.3" x1="26.387840678322718" x2="22.05771365940052" y1="57.49999999999999" y2="54.99999999999999" /><path d="M 25.521815274538284 56.99999999999999 a86.0,86.0 0 0,1 29.574782752854787,-30.34633250058573" fill="none" id="id59" stroke="none" /><text fill="#e1ed5e" style="font-size:6.75px; font-family:Arial;" text-anchor="middle"><textPath startOffset="21.40746469413373" xlink:href="#id59">November</textPath></text><path d="M 81.99639281039701 89.18935116829357 l -54.01082156880897 -32.43194649511929 a84.0,84.0 0 0,0 0.752928142178428,-1.2298515355018278 l 53.44612546217515 33.35433514674566" fill="#4dd2ff" stroke="none" /><path d="M 82.18462484594161 88.88188828441811 l -10.300712396823286 -6.428406373012674 a33.142037900560965,33.142037900560965 0 0,0 0.30535228558203714,-0.48006451060151534 l 10.18884241961536 6.6042845582928615" fill="#ff970d" stroke="none" /><path d="M 82.37810715431573 88.57770195909679 l -10.611580138535906 -6.878298040324935 a33.6458142074011,33.6458142074011 0 0,0 0.3183143340773486,-0.48196847253579755 l 10.491941365537828 7.059446391199794" fill="#ff9e0e" stroke="none" /><path d="M 82.576782715395 88.27688183743585 l -11.86177231048763 -7.9811297845747236 a35.29685542292699,35.29685542292699 0 0,0 0.34256482825421825,-0.49981232209682697 l 11.7230177454181 8.183576841741585" fill="#ffb310" stroke="none" /><path d="M 82.78059297857968 87.97951657250589 l -12.973959716489157 -9.056831490598602 a36.82244694648024,36.82244694648024 0 0,0 0.36626920010956415,-0.5152034991026847 l 12.81657541784962 9.278212216410807" fill="#ffc712" stroke="none" /><path d="M 82.98947788004972 87.6856937992154 l -6.897827681164094 -4.9934952958604955 a29.515575258830992,29.515575258830992 0 0,0 0.300634378032655,-0.4078682723053709 l 6.811091283547621 5.11116987743473" fill="#ff6609" stroke="none" /><path d="M 83.2033758604659 87.39550010848427 l -2.219125658403847 -1.665273264928039 a23.77446458522548,23.77446458522548 0 0,0 0.24776164590174563,-0.32432794774106355 l 2.1902120351477947 1.703122125909987" fill="#ff1502" stroke="none" /><path d="M 83.42222388311158 87.10902102172516 l -9.539398638043789 -7.417894079479681 a33.08409197870868,33.08409197870868 0 0,0 0.3524772374942558,-0.4453434750511028 l 9.410654969907972 7.580557498445467" fill="#ff960d" stroke="none" /><path d="M 83.64595745247003 86.82634096563983 l -9.286331161884162 -7.480411039122094 a32.92444949515073,32.92444949515073 0 0,0 0.3583327455682755,-0.4371076855038682 l 9.156551597077256 7.638721006324456" fill="#ff940d" stroke="none" /><path d="M 83.8745106332314 86.54754324733833 l -3.9761722326250903 -3.317064293921766 a26.17811366749606,26.17811366749606 0 0,0 0.2908331540835971,-0.34260072422091326 l 3.9186445150343787 3.3848318005922358" fill="#ff3705" stroke="none" /><path d="M 84.10781606972428 86.27271002978789 l -18.491866992123228 -15.972834281629519 a45.435232346813805,45.435232346813805 0 0,0 0.514908695476779,-0.5858715749670498 l 18.21494723268786 16.287918134407867" fill="#ceff1d" stroke="none" /><path d="M 85.34317274990677 84.96080404539775 l -8.804446060321721 -9.03413728725375 a33.61482885155654,33.61482885155654 0 0,0 0.41670784918995674,-0.3991966932110761 l 8.648065725266463 9.183946110770396" fill="#ff9d0e" stroke="none" /><path d="M 85.86807049272753 84.46653392183569 l -5.299672751798835 -5.825268720246217 a28.87529599057953,28.87529599057953 0 0,0 0.36951437588071473,-0.33042203345124627 l 5.198893349094728 5.9153862835808635" fill="#ff5d08" stroke="none" /><path d="M 86.13680546590413 84.22622945171909 l -4.720833305545331 -5.371441710293436 a28.151129501402288,28.151129501402288 0 0,0 0.36572408551599966,-0.3159037545119635 l 4.627929740266483 5.451689597270111" fill="#ff5307" stroke="none" /><path d="M 86.40962598614128 83.9905735841838 l -4.9185051066610415 -5.7939866482415345 a28.600129851802002,28.600129851802002 0 0,0 0.3770119042514739,-0.31451673941960706 l 4.818318868247658 5.877565571573024" fill="#ff5908" stroke="none" /><path d="M 86.68645165197937 83.75963576809568 l -6.037479185089758 -7.364742925425743 a30.523160886386442,30.523160886386442 0 0,0 0.4080644716750426,-0.3287078530130897 l 5.9101639430594695 7.467299072232231" fill="#ff740a" stroke="none" /><path d="M 86.96720088162412 83.53348406188908 l -14.813410322847721 -18.71626002698232 a44.869133096756315,44.869133096756315 0 0,0 0.6080623367702122,-0.4728329509046816 l 14.489938041442265 18.967794029507804" fill="#d4ff1c" stroke="none" /><path d="M 87.25179093698888 83.31218511350988 l -8.85336899376063 -11.589344209795359 a35.584068079682,35.584068079682 0 0,0 0.4885980796748861,-0.36665310785645744 l 8.653117925174993 11.739616344915817" fill="#ffb711" stroke="none" /><path d="M 87.54013794807813 83.09580414077388 l -7.210975728364778 -9.783073483514373 a33.15346443360526,33.15346443360526 0 0,0 0.4610210088811428,-0.3337436575035333 l 7.041973709109667 9.905417912390986" fill="#ff970e" stroke="none" /><path d="M 87.83215693770416 82.88440491214696 l -7.175822001357557 -10.093692297718508 a33.38446791736283,33.38446791736283 0 0,0 0.4699339330916377,-0.3280503822064402 l 7.001492977092154 10.215387495730075" fill="#ff9a0e" stroke="none" /><path d="M 88.12776184653039 82.6780497279521 l -6.740389099407417 -9.834429135004124 a32.922618907892186,32.922618907892186 0 0,0 0.4689179771866093,-0.31550894219556536 l 6.570574834123818 9.948687751256797" fill="#ff940d" stroke="none" /><path d="M 88.4268655584334 82.4767994020092 l -3.9686860219322337 -6.009096465948149 a28.201368555889278,28.201368555889278 0 0,0 0.4062532941986397,-0.263328477086504 l 3.864947095476568 6.076338784738559" fill="#ff5407" stroke="none" /><path d="M 88.72937992617638 82.28071324371311 l -7.029572936731881 -11.051656237572793 a34.09786246936174,34.09786246936174 0 0,0 0.49658807022506135,-0.30990768331531543 l 6.838820737717121 11.170699717729645" fill="#ffa40f" stroke="none" /><line stroke="#e1ed5e" stroke-width="0.3" x1="56.869717070023135" x2="54.33264160355391" y1="26.7553504044142" y2="22.446841604673864" /><path d="M 56.362301976729285 25.89364864446614 a86.0,86.0 0 0,1 42.16139366436587,-11.88097634709845" fill="none" id="id60" stroke="none" /><text fill="#e1ed5e" style="font-size:6.75px; font-family:Arial;" text-anchor="middle"><textPath startOffset="22.145653131862474" xlink:href="#id60">December</textPath></text></svg>