<?xml version="1.0" encoding="utf-8" ?>
<svg baseProfile="full" height="200mm" version="1.1" viewBox="0,0,200,200" width="200mm" xmlns="http://www.w3.org/2000/svg" xmlns:ev="http://www.w3.org/2001/xml-events" xmlns:xlink="http://www.w3.org/1999/xlink"><defs /><rect fill="#1a1a1a" height="200" width="200" x="0" y="0" /><text alignment-baseline="middle" fill="#e1ed5e" style="dominant-baseline: central; font-size:9.0px; font-family:Arial;" text-anchor="middle" x="100.0" y="100.0">2025</text><line stroke="#e1ed5e" stroke-width="0.3" x1="100.0" x2="100.0" y1="15.0" y2="10.0" /><path d="M 100.0 14.0 a86.0,86.0 0 0,1 42.46469731375804,11.215312516191453" fill="none" id="id61" stroke="none" /><text fill="#e1ed5e" style="font-size:6.75px; font-family:Arial;" text-anchor="middle"><textPath startOffset="22.20632615414155" xlink:href="#id61">January</textPath></text><path d="M 100.0 79.0 l 0.0 -4.383867791952781 a25.38386779195278,25.38386779195278 0 0,0 0.4369415569155042,0.003760893927744417 l -0.07546107764297581 4.383218274633595" fill="#ff0400" stroke="none" /><path d="M 100.36148047927253 79.00311137660856 l 0.12675693441065727 -7.3627799747840275 a28.363871011737093,28.363871011737093 0 0,0 0.4880927384004849,0.012605995419040105 l -0.25347630800600995 7.359507187222628" fill="#ff3104" stroke="none" /><path d="M 100.72285384407766 79.0124445844662 l 1.6908767706947705 -49.093423541346915 a70.12253351837373,70.12253351837373 0 0,0 1.2059712302974788,0.05193165800447939 l -2.5356888333815806 49.05704415681824" fill="#3bff9a" stroke="none" /><path d="M 101.08401301168833 79.027996857942 l 0.9523780486488262 -18.425309671866632 a39.4499067870743,39.4499067870743 0 0,0 0.6778582637388656,0.04089026161935047 l -1.2693983612273039 18.40618614086698" fill="#ffcd13" stroke="none" /><path d="M 101.44485096284872 79.0497635885617 l 0.314908337891734 -4.566148548468456 a25.576994628351045,25.576994628351045 0 0,0 0.43896189479449604,0.03407189136834151 l -0.3934604220485712 4.56005139491165" fill="#ff0701" stroke="none" /><path d="M 101.80526077348638 79.07773832637324 l 0.36975042259539725 -4.2852618353496625 a25.301184066337296,25.301184066337296 0 0,0 0.4335838285875939,0.041174008980396484 l -0.4434593782732354 4.278262281854088" fill="#ff0200" stroke="none" /><path d="M 102.16513564639614 79.11191278185805 l 0.42978944894096616 -4.146382010687912 a25.168597215968138,25.168597215968138 0 0,0 0.4305427688537231,0.04837649662404974 l -0.5010989213044145 4.138369560593261" fill="#ff0000" stroke="none" /><path d="M 102.52436894288641 79.15227682838746 l 0.5133142318997412 -4.2392507786356015 a25.270215294904155,25.270215294904155 0 0,0 0.4313809519361379,0.05600562827752948 l -0.5862099123437252 4.229786827193935" fill="#ff0200" stroke="none" /><path d="M 102.88285421437855 79.19881850522331 l 1.0069329864415206 -7.265506420539775 a28.334950414698707,28.334950414698707 0 0,0 0.482545581252961,0.07111467513714581 l -1.1318475481231376 7.2470972612416595" fill="#ff3004" stroke="none" /><path d="M 103.2404852339499 79.25152402106235 l 3.3919390531487057 -21.71821837944052 a42.98149813177763,42.98149813177763 0 0,0 0.7300116695238847,0.12045818045279305 l -3.7652799288114656 21.656613936048103" fill="#fffc17" stroke="none" /><path d="M 103.59715602781102 79.31037775812273 l 0.7454553920855432 -4.287606748547364 a25.35192777648921,25.35192777648921 0 0,0 0.42929853365554516,0.0784515630183806 l -0.8191490468439893 4.2741397041782445" fill="#ff0300" stroke="none" /><path d="M 103.95276090670814 79.375362276772 l 11.858282720124386 -61.87391316968404 a84.0,84.0 0 0,0 1.4177343621314986,0.2843841756911667 l -12.921583491723009 61.66062503791566" fill="#4dd2ff" stroke="none" /><path d="M 104.307194497241 79.44645832069477 l 1.5077435792308707 -7.194815678111821 a28.35109946489065,28.35109946489065 0 0,0 0.47678081210824536,0.1042058187062355 l -1.631367115492644 7.167796361309715" fill="#ff3104" stroke="none" /><path d="M 104.66035177308747 79.52364482259891 l 1.6380076854518941 -7.196973272342743 a28.381022521332344,28.381022521332344 0 0,0 0.4754176887041846,0.11251600678680898 l -1.7616490611186022 7.167711353415065" fill="#ff3104" stroke="none" /><path d="M 105.01212808612495 79.60689891045804 l 1.7544281632885323 -7.13833131825325 a28.350768136004234,28.350768136004234 0 0,0 0.4729058131901954,0.12055422146934806 l -1.877042865163753 7.107074100615034" fill="#ff3104" stroke="none" /><path d="M 105.36241919743992 79.69619591428918 l 1.8855355689897348 -7.139230145916944 a28.384026778004987,28.384026778004987 0 0,0 0.47131285951528823,0.12882760845194127 l -2.008146317728734 7.1057159966387085" fill="#ff3104" stroke="none" /><path d="M 105.71112130821622 79.79150937346287 l 5.12614701551051 -18.138591061647524 a39.84902832843929,39.84902832843929 0 0,0 0.6584763163897477,0.19222729336365826 l -5.437613549623684 18.047665439365165" fill="#ffd313" stroke="none" /><path d="M 106.0581310904928 79.89281104454417 l 4.380153421176203 -14.537911309263546 a36.183432063570294,36.183432063570294 0 0,0 0.5948119054224984,0.18481095441076334 l -4.629750699309421 14.460360219970262" fill="#ffa10e" stroke="none" /><path d="M 106.40334571778207 80.00007090966166 l 1.6712695164242353 -5.219969886446532 a26.48098781351843,26.48098781351843 0 0,0 0.4329227619223849,0.14272782802612868 l -1.7608751005890377 5.190428334161167" fill="#ff1402" stroke="none" /><path d="M 106.74666289553966 80.11325718540242 l 1.7017754093267425 -5.0162236378908975 a26.297031161804185,26.297031161804185 0 0,0 0.42741190358250697,0.14911562070721504 l -1.7878693169725233 4.986187164011475" fill="#ff1201" stroke="none" /><path d="M 107.08798089147638 80.2323363322302 l 1.4017913803320987 -3.909454746429466 a25.153174146162577,25.153174146162577 0 0,0 0.40630482063326806,0.14964549438666624 l -1.4688785267379432 3.884745984236475" fill="#ff0000" stroke="none" /><path d="M 107.4271985657038 80.35727306442388 l 1.710211396906684 -4.522999509757266 a25.83552971114582,25.83552971114582 0 0,0 0.41461945018130625,0.1608659051707081 l -1.7878140120876573 4.492890900696011" fill="#ff0a01" stroke="none" /><path d="M 107.76421540070413 80.48803036053334 l 1.5616586149291676 -3.924547930360878 a25.22384352069088,25.22384352069088 0 0,0 0.4020393951120798,0.16400196387424754 l -1.6289818796296347 3.8970850803030515" fill="#ff0100" stroke="none" /><line stroke="#e1ed5e" stroke-width="0.3" x1="143.23703022742887" x2="145.7803849466894" y1="26.81831364943548" y2="22.513508569990506" /><path d="M 143.74570117128098 25.957352633546492 a86.0,86.0 0 0,1 28.547481713284135,27.462654790039103" fill="none" id="id62" stroke="none" /><text fill="#e1ed5e" style="font-size:6.75px; font-family:Arial;" text-anchor="middle"><textPath startOffset="19.985693538727396" xlink:href="#id62">February</textPath></text><path d="M 116.15771136456269 86.58626213691792 l 3.467453397378904 -2.878595233908165 a25.506611097451533,25.506611097451533 0 0,0 0.27753805227563233,0.3402288356212317 l -3.516489941730945 2.8184822286788327" fill="#ff0500" stroke="none" /><path d="M 116.82858285166822 87.43820079747576 l 3.549837801341893 -2.6497982661425703 a25.429760633159315,25.429760633159315 0 0,0 0.25882336200644296,0.3530347749052436 l -3.5949237758619623 2.588301047565833" fill="#ff0400" stroke="none" /><line stroke="#e1ed5e" stroke-width="0.3" x1="172.23445277983987" x2="176.4835382374775" y1="55.19839476539836" y2="52.563006222186495" /><path d="M 173.08426987136738 54.67131705675599 a86.0,86.0 0 0,1 12.851231095245387,41.99856678651699" fill="none" id="id63" stroke="none" /><text fill="#e1ed5e" style="font-size:6.75px; font-family:Arial;" text-anchor="middle"><textPath startOffset="22.20632615414155" xlink:href="#id63">March</textPath></text><path d="M 119.196687751892 91.48605970444005 l 22.71231720409218 -10.073160284143356 a45.845883177889746,45.845883177889746 0 0,0 0.3137371108633295,0.7241485079661288 l -22.88234502479819 9.680712631590625" fill="#deff1b" stroke="none" /><path d="M 119.47837535516314 92.15188598940014 l 7.003579819730687 -2.8218417555555138 a28.55069011314433,28.55069011314433 0 0,0 0.17974216134697354,0.4574241952133095 l -7.051115530959361 2.70086855544642" fill="#ff3304" stroke="none" /><path d="M 119.61058180528143 92.48833698450437 l 4.563985960815761 -1.7481951777620435 a25.88734633825697,25.88734633825697 0 0,0 0.15581151395356832,0.4174973927845737 l -4.593402063270955 1.6693746479481364" fill="#ff0b01" stroke="none" /><path d="M 120.28053869075195 94.5502522615342 l 10.631527170347026 -2.8568837364984283 a32.008685419145024,32.008685419145024 0 0,0 0.13840504990799649,0.5333311162686304 l -10.679128552125325 2.6734561946809476" fill="#ff6609" stroke="none" /><path d="M 120.37134235888165 94.90015583598534 l 17.952994343853916 -4.49442514970907 a39.507022000764685,39.507022000764685 0 0,0 0.15947141071614387,0.6611119516297842 l -18.02769855483088 4.18472796641988" fill="#ffce13" stroke="none" /><path d="M 120.96714384426684 98.82574320788733 l 39.592401081961235 -2.217357129414381 a60.65444358548295,60.65444358548295 0 0,0 0.04940850830250277,1.0429355196514156 l -39.62470319849724 1.5355105031399652" fill="#36ff2e" stroke="none" /><path d="M 120.98425023603335 99.18683210126433 l 12.885111521054561 -0.4993153885745549 a33.894782462968514,33.894782462968514 0 0,0 0.0175741308483926,0.5831998452574353 l -12.891797346358599 0.2774453958921205" fill="#ff810b" stroke="none" /><line stroke="#e1ed5e" stroke-width="0.3" x1="184.98032266829074" x2="189.97916517819016" y1="98.17113171792111" y2="98.06355123074" /><path d="M 185.9800911702706 98.14961562048488 a86.0,86.0 0 0,1 -9.607161424134198,41.387399972396054" fill="none" id="id64" stroke="none" /><text fill="#e1ed5e" style="font-size:6.75px; font-family:Arial;" text-anchor="middle"><textPath startOffset="21.466115282336823" xlink:href="#id64">April</textPath></text><path d="M 120.99513854157772 99.54816195383933 l 11.513208679251287 -0.2477766795570771 a32.51587458141671,32.51587458141671 0 0,0 0.0072262550110821725,0.5596814142207414 l -11.515767941380085 0.04955900727587298" fill="#ff6d0a" stroke="none" /><path d="M 120.99980553446 99.90962569577887 l 5.702205179757149 -0.024539885609942053 a26.702257984170394,26.702257984170394 0 0,0 -0.001978132148683985,0.45964824627798007 l -5.701782750318962 -0.07361783887172275" fill="#ff1802" stroke="none" /><path d="M 120.9764740272857 100.99374915477107 l 18.779871072894718 0.8896862733518973 a39.8009334656431,39.8009334656431 0 0,0 -0.03831057635349057,0.6840610763810749 l -18.7617741456537 -1.2128190660683957" fill="#ffd213" stroke="none" /><path d="M 120.95626037817324 101.35467743843564 l 43.93660207987928 2.840197749266813 a65.02830595856025,65.02830595856025 0 0,0 -0.08182245845969131,1.1164024374365769 l -43.88120306275525 -3.59607332320016" fill="#34ff5e" stroke="none" /><path d="M 120.92983693683757 101.71520430193887 l 18.528084137131515 1.5183801820624736 a39.59019580773437,39.59019580773437 0 0,0 -0.061506958176046345,0.678724158180511 l -18.499202582678393 -1.8370857287915552" fill="#ffcf13" stroke="none" /><path d="M 120.89721153311464 102.0752229133903 l 18.381237541182536 1.8253710674022443 a39.471650523953926,39.471650523953926 0 0,0 -0.07296183949022338,0.6755360180755782 l -18.34709340019126 -2.1415034073626136" fill="#ffce13" stroke="none" /><path d="M 120.8583938346157 102.4346265915055 l 7.455367706558773 0.870202979757566 a28.5059816723716,28.5059816723716 0 0,0 -0.06108219774732049,0.48688521535660034 l -7.439283999564604 -0.9984059494015614" fill="#ff3304" stroke="none" /><path d="M 120.81339534386255 102.79330883721812 l 21.763633174668573 2.920837656346231 a42.95875728670146,42.95875728670146 0 0,0 -0.10466788493912249,0.7320469434828907 l -21.71013123871285 -3.295030071809531" fill="#fffb17" stroke="none" /><path d="M 120.76222939487914 103.15116336523771 l 36.830144970685836 5.589852677219899 a58.25192654769358,58.25192654769358 0 0,0 -0.15899515403756592,0.9900629759646494 l -36.728468062286986 -6.222994882877753" fill="#4fff2b" stroke="none" /><path d="M 120.64145759157962 103.86396538481128 l 50.02513200596504 9.36442485149478 a71.89406925186393,71.89406925186393 0 0,0 -0.23817501030973423,1.2144492463012033 l -49.856527062679646 -10.224137824863929" fill="#3dffae" stroke="none" /><path d="M 120.5718875245553 104.21870165774334 l 18.084964477780268 3.7087053646182255 a39.46132269487,39.46132269487 0 0,0 -0.14218471023391852,0.6642396304855068 l -18.018445728821906 -4.0194588145199015" fill="#ffce13" stroke="none" /><path d="M 120.49622156327973 104.57218783832717 l 17.870683042454093 3.986496702186971 a39.309928136407414,39.309928136407414 0 0,0 -0.1530081561514562,0.6591551321049794 l -17.799414320372083 -4.293520491640516" fill="#ffcc13" stroke="none" /><path d="M 120.41448212921028 104.9243191809786 l 17.850511886239797 4.305846090796599 a39.36249125686427,39.36249125686427 0 0,0 -0.16455149397677485,0.6573014217021764 l -17.77374907796796 -4.612475351896172" fill="#ffcc13" stroke="none" /><path d="M 120.32669344350535 105.2749913415812 l 17.754119987004984 4.607381395756153 a39.34221196690655,39.34221196690655 0 0,0 -0.1757508850278598,0.6540344241226915 l -17.672181025635346 -4.912306753054393" fill="#ffcc13" stroke="none" /><path d="M 120.23288151984713 105.62410040840565 l 7.289282107507183 2.0261896180038006 a28.56565119543128,28.56565119543128 0 0,0 -0.135764872449878,0.4726153316760095 l -7.253324598171205 -2.151362425184392" fill="#ff3404" stroke="none" /><path d="M 120.13307415673323 105.97154293290107 l 17.591556805259568 5.217719653808731 a39.34904545796364,39.34904545796364 0 0,0 -0.19819407318531973,0.6477096986019532 l -17.499135959568115 -5.519756324962742" fill="#ffcc13" stroke="none" /><path d="M 120.02730092923936 106.31721596034902 l 34.90486711109483 11.010049950672235 a57.60014956198249,57.60014956198249 0 0,0 -0.3063991927950748,0.942999751469195 l -34.71017566728351 -11.609248602119226" fill="#56ff2a" stroke="none" /><path d="M 119.9155931802556 106.66101706037122 l 8.1521205573052 2.7265777935375546 a29.59600465594628,29.59600465594628 0 0,0 -0.16575054833267214,0.4817486795665999 l -8.103979178029295 -2.866499176193455" fill="#ff4306" stroke="none" /><path d="M 119.79798401119884 107.00284435728193 l 7.008463557151633 2.478998843854678 a28.433975833950186,28.433975833950186 0 0,0 -0.1671860085074535,0.4600240918790003 l -6.9647532876389535 -2.5992707327398095" fill="#ff3204" stroke="none" /><path d="M 119.67450827220406 107.3425965602758 l 8.046259667145394 3.002892765484555 a29.588344403441805,29.588344403441805 0 0,0 -0.18218772327249882,0.47563465557268547 l -7.993377664279388 -3.1409509878903843" fill="#ff4306" stroke="none" /><path d="M 119.41010516605496 108.01547362559984 l 41.76762227065009 17.24809174655577 a66.18883644265816,66.18883644265816 0 0,0 -0.44393488899862604,1.049330941346509 l -41.46453640045915 -17.96449721356844" fill="#36ff6c" stroke="none" /><path d="M 119.26925614724726 108.34839909993367 l 8.125588814306653 3.52040877060423 a29.855420458190146,29.855420458190146 0 0,0 -0.20836085891638625,0.46979873119615134 l -8.063786870658994 -3.6597558382930693" fill="#ff4706" stroke="none" /><path d="M 118.97047184881838 109.00673069616215 l 16.598650996200533 7.880646334670575 a39.37443336665993,39.37443336665993 0 0,0 -0.2959583847413429,0.6097619325451034 l -16.460539354844478 -8.165197223180954" fill="#ffcc13" stroke="none" /><path d="M 118.81262510543309 109.33194174019688 l 4.047973003013527 2.007983894767694 a25.51863748875397,25.51863748875397 0 0,0 -0.1985852230311503,0.39182748482545005 l -4.012809110196108 -2.0773655912958384" fill="#ff0600" stroke="none" /><line stroke="#e1ed5e" stroke-width="0.3" x1="174.80103733775053" x2="179.2010983576182" y1="140.37084112569926" y2="142.7455964860345" /><path d="M 175.68104954172406 140.8457921977663 a86.0,86.0 0 0,1 -30.038265399797805,32.042727171017184" fill="none" id="id65" stroke="none" /><text fill="#e1ed5e" style="font-size:6.75px; font-family:Arial;" text-anchor="middle"><textPath startOffset="22.206326154141568" xlink:href="#id65">May</textPath></text><path d="M 117.35343817320211 111.8261652097733 l 9.91473220246343 6.756774067865082 a32.99816279480902,32.99816279480902 0 0,0 -0.3239148258970514,0.46662346541398747 l -9.796956469404243 -6.926438795466089" fill="#ff740a" stroke="none" /><path d="M 116.71984013943494 112.70617746262583 l 6.638902031565152 5.045207769127918 a29.338413615214144,29.338413615214144 0 0,0 -0.3090217659677129,0.3994522890665279 l -6.551073448379371 -5.158738052307699" fill="#ff3f05" stroke="none" /><path d="M 116.27256486870786 113.27417163493432 l 15.0204746314527 12.252792347412678 a40.384157925040974,40.384157925040974 0 0,0 -0.444041124086801,0.5348761389423743 l -14.807337507472356 -12.509529743468823" fill="#ffda14" stroke="none" /><path d="M 115.80600337817218 113.82643327865902 l 16.58575694366408 14.508529213293514 a43.03598768667501,43.03598768667501 0 0,0 -0.4925389898635914,0.5533727764817269 l -16.333559104152148 -14.791876159516107" fill="#fffc17" stroke="none" /><path d="M 115.32070863581623 114.36230785411682 l 5.354429433352189 5.019478258673336 a28.339283108454296,28.339283108454296 0 0,0 -0.3366888321036248,0.3530168943964386 l -5.2672340498696 -5.110902269652282" fill="#ff3004" stroke="none" /><path d="M 113.75828350139079 115.86535959552629 l 12.038684264747278 13.882404363735636 a39.375284208537835,39.375284208537835 0 0,0 -0.5158809550171131,0.43964494166388957 l -11.797937833153117 -14.087573695622472" fill="#ffcc13" stroke="none" /><path d="M 112.92097659922987 116.55440617244103 l 11.254752860450129 14.419633747609979 a39.29194629789359,39.29194629789359 0 0,0 -0.5367490759258141,0.41155630326515474 l -11.004875056030821 -14.611229392702505" fill="#ffcb13" stroke="none" /><path d="M 112.63410532772338 116.77436683061366 l 16.120973690489286 21.403899946722046 a47.79575947157937,47.79575947157937 0 0,0 -0.6614364787000108,0.48931489422935803 l -15.750152241370712 -21.67822478969117" fill="#c6ff1e" stroke="none" /><path d="M 112.34349029814194 116.9893568818739 l 11.189115412230336 15.400496159459191 a40.036060140316,40.036060140316 0 0,0 -0.5610246857092167,0.40027621712425127 l -10.922363398672234 -15.590816638427661" fill="#ffd513" stroke="none" /><path d="M 112.04921762599082 117.19931262002967 l 10.911594573421752 15.575444985447142 a40.01729167440563,40.01729167440563 0 0,0 -0.5675654676790346,0.3903767040078822 l -10.641872221119835 -15.760962478820117" fill="#ffd513" stroke="none" /><path d="M 111.7513745106137 117.40417183066458 l 20.470773649494944 30.3178884972703 a57.581784220316145,57.581784220316145 0 0,0 -0.82623087987034,0.5475807741852299 l -19.94586807088464 -30.66576729254685" fill="#57ff2a" stroke="none" /><line stroke="#e1ed5e" stroke-width="0.3" x1="143.8653032363475" x2="146.44561519142675" y1="172.8068346515853" y2="177.08958963109032" /><path d="M 144.38136562736335 173.6633856474863 a86.0,86.0 0 0,1 -40.68145358897372,12.25698825130547" fill="none" id="id66" stroke="none" /><text fill="#e1ed5e" style="font-size:6.75px; font-family:Arial;" text-anchor="middle"><textPath startOffset="21.466115282336833" xlink:href="#id66">June</textPath></text><path d="M 110.5260780823613 118.17145234162733 l 22.451255772934616 38.75820805198201 a65.79126675125914,65.79126675125914 0 0,0 -0.9848364680511728,0.5592158492124227 l -21.780770537962244 -39.13892706698906" fill="#35ff67" stroke="none" /><path d="M 109.89434966115114 118.52300852407294 l 8.638762672521597 16.17244994371301 a39.335112699246096,39.335112699246096 0 0,0 -0.5999711641768618,0.31387655670893894 l -8.359100605818242 -16.318755919366666" fill="#ffcc13" stroke="none" /><path d="M 109.2508944713604 118.85261126421891 l 19.796443482582323 40.34362888330745 a65.9389315185966,65.9389315185966 0 0,0 -1.0232696413100386,0.49123161182251474 l -19.099061173272048 -40.67841477162953" fill="#35ff69" stroke="none" /><path d="M 102.70371172650421 120.8252237178851 l 5.259480107661401 40.510920157687366 a61.850909206839034,61.850909206839034 0 0,0 -1.0569807225558776,0.12798564559235784 l -4.561371962054142 -40.59545133200507" fill="#30ff36" stroke="none" /><path d="M 101.26447882468166 120.96189622390904 l 2.0700902578629115 34.316918806743786 a55.37929885940585,55.37929885940585 0 0,0 -0.9520279833876806,0.04920897229001359 l -1.4790742060617512 -34.347467585796004" fill="#6eff28" stroke="none" /><path d="M 100.90346689309514 120.98055641714683 l 1.573079677908866 36.53048848084191 a57.56434285368702,57.56434285368702 0 0,0 -0.9903250258218947,0.034108796266565496 l -0.9440343004123191 -36.55215407553457" fill="#57ff2a" stroke="none" /><line stroke="#e1ed5e" stroke-width="0.3" x1="102.19456741930631" x2="102.32365962044197" y1="184.97166512339345" y2="189.96999836594603" /><path d="M 102.22038585953345 185.97133177190398 a86.0,86.0 0 0,1 -42.740103519485714,-10.115201625700543" fill="none" id="id67" stroke="none" /><text fill="#e1ed5e" style="font-size:6.75px; font-family:Arial;" text-anchor="middle"><textPath startOffset="22.20632615414155" xlink:href="#id67">July</textPath></text><path d="M 100.18074693466247 120.99922214144158 l 0.0696306269469929 8.089702908867189 a29.090002569711785,29.090002569711785 0 0,0 -0.5007551232188912,0.0 l 0.06963062694698734 -8.089702908867189" fill="#ff3c05" stroke="none" /><path d="M 99.81925306533755 120.99922214144158 l -0.0716386097298705 8.322990829310767 a29.32329913166619,29.32329913166619 0 0,0 -0.504696301500928,-0.008688804528418604 l 0.21489460112346645 -8.320524547503188" fill="#ff3f05" stroke="none" /><path d="M 99.09653310690486 120.98055641714683 l -1.5725980558594614 36.51930412128617 a57.553148129104855,57.553148129104855 0 0,0 -0.9893987226177495,-0.05114061264441501 l 2.2009848468907 -36.48682370187955" fill="#57ff2a" stroke="none" /><path d="M 98.01472825383883 120.90594882070398 l -3.454642158374983 36.37918702892287 a57.542848839790416,57.542848839790416 0 0,0 -0.9852634638685851,-0.10212658652922306 l 4.080338218849161 -36.314331073937886" fill="#57ff2a" stroke="none" /><line stroke="#e1ed5e" stroke-width="0.3" x1="58.666819895761336" x2="56.23545636021788" y1="174.27360380694188" y2="178.64263932499728" /><path d="M 58.180547188652646 175.14741091055294 a86.0,86.0 0 0,1 -31.652253787137756,-30.449443065178592" fill="none" id="id68" stroke="none" /><text fill="#e1ed5e" style="font-size:6.75px; font-family:Arial;" text-anchor="middle"><textPath startOffset="22.20632615414155" xlink:href="#id68">August</textPath></text><line stroke="#e1ed5e" stroke-width="0.3" x1="26.63291911575756" x2="22.317208475507996" y1="142.92168965132927" y2="145.44649492493687" /><path d="M 25.769776987707644 143.4266507060508 a86.0,86.0 0 0,1 -11.730757126820373,-40.83630448921669" fill="none" id="id69" stroke="none" /><text fill="#e1ed5e" style="font-size:6.75px; font-family:Arial;" text-anchor="middle"><textPath startOffset="21.46611528233685" xlink:href="#id69">September</textPath></text><line stroke="#e1ed5e" stroke-width="0.3" x1="15.007084014347285" x2="10.007500721073583" y1="101.09737516637583" y2="101.16192664675087" /><path d="M 14.007167355692545 101.11028546245083 a86.0,86.0 0 0,1 10.666146001902534,-42.60595125391555" fill="none" id="id70" stroke="none" /><text fill="#e1ed5e" style="font-size:6.75px; font-family:Arial;" text-anchor="middle"><textPath startOffset="22.20632615414155" xlink:href="#id70">October</textPath></text><line stroke="#e1ed5e" stroke-width="0.3" x1="26.266209847984243" x2="21.928928074336255" y1="57.711370442889674" y2="55.22380399835377" /><path d="M 25.398753493254645 57.213857153982495 a86.0,86.0 0 0,1 29.58750427330803,-30.492523968695096" fill="none" id="id71" stroke="none" /><text fill="#e1ed5e" style="font-size:6.75px; font-family:Arial;" text-anchor="middle"><textPath startOffset="21.46611528233685" xlink:href="#id71">November</textPath></text><line stroke="#e1ed5e" stroke-width="0.3" x1="56.762969772571076" x2="54.21961505331055" y1="26.818313649435495" y2="22.513508569990535" /><path d="M 56.25429882871897 25.957352633546506 a86.0,86.0 0 0,1 42.265352541879196,-11.944610805530505" fill="none" id="id72" stroke="none" /><text fill="#e1ed5e" style="font-size:6.75px; font-family:Arial;" text-anchor="middle"><textPath startOffset="22.20632615414155" xlink:href="#id72">December</textPath></text></svg>