<?xml version="1.0" encoding="utf-8" ?>
<svg baseProfile="full" height="200mm" version="1.1" viewBox="0,0,200,200" width="200mm" xmlns="http://www.w3.org/2000/svg" xmlns:ev="http://www.w3.org/2001/xml-events" xmlns:xlink="http://www.w3.org/1999/xlink"><defs /><rect fill="#1a1a1a" height="200" width="200" x="0" y="0" /><text alignment-baseline="middle" fill="#e1ed5e" style="dominant-baseline: central; font-size:9.0px; font-family:Arial;" text-anchor="middle" x="100.0" y="100.0">2024</text><line stroke="#e1ed5e" stroke-width="0.3" x1="100.0" x2="100.0" y1="15.0" y2="10.0" /><path d="M 100.0 14.0 a86.0,86.0 0 0,1 42.35913384403234,11.155469271406648" fill="none" id="id49" stroke="none" /><text fill="#e1ed5e" style="font-size:6.75px; font-family:Arial;" text-anchor="middle"><textPath startOffset="22.145653131862478" xlink:href="#id49">January</textPath></text><line stroke="#e1ed5e" stroke-width="0.3" x1="143.13028292997686" x2="145.6673583964461" y1="26.7553504044142" y2="22.446841604673864" /><path d="M 143.63769802327073 25.89364864446614 a86.0,86.0 0 0,1 29.32050498858742,28.57503671076993" fill="none" id="id50" stroke="none" /><text fill="#e1ed5e" style="font-size:6.75px; font-family:Arial;" text-anchor="middle"><textPath startOffset="20.669276256404974" xlink:href="#id50">February</textPath></text><line stroke="#e1ed5e" stroke-width="0.3" x1="172.87174338648825" x2="177.1583165268699" y1="56.24261187166439" y2="53.66864786411523" /><path d="M 173.72905801456457 55.72781907015455 a86.0,86.0 0 0,1 12.242430191666344,42.057860355516425" fill="none" id="id51" stroke="none" /><text fill="#e1ed5e" style="font-size:6.75px; font-family:Arial;" text-anchor="middle"><textPath startOffset="22.145653131862474" xlink:href="#id51">March</textPath></text><line stroke="#e1ed5e" stroke-width="0.3" x1="184.99686870605535" x2="189.99668451229388" y1="99.2704041080226" y2="99.22748670261217" /><path d="M 185.99683186730306 99.26182062694052 a86.0,86.0 0 0,1 -10.086455211305974,41.156179273409016" fill="none" id="id52" stroke="none" /><text fill="#e1ed5e" style="font-size:6.75px; font-family:Arial;" text-anchor="middle"><textPath startOffset="21.40746469413373" xlink:href="#id52">April</textPath></text><path d="M 120.82617615685814 102.69636545807757 l 14.995343407476682 1.9414474213316721 a36.120500719154435,36.120500719154435 0 0,0 -0.08489260834579736,0.6142406247846326 l -14.959806282575675 -2.1985763543163896" fill="#ffb210" stroke="none" /><path d="M 120.77682067341334 103.0534771498775 l 26.141373013534942 3.8418816053697635 a47.42217699778827,47.42217699778827 0 0,0 -0.12528150568534596,0.8043971373881288 l -26.07157001571133 -4.290066924689343" fill="#bfff1e" stroke="none" /><path d="M 120.7213421655516 103.40968896794604 l 12.506445564331427 2.0579308583500406 a33.67463056942231,33.67463056942231 0 0,0 -0.0987551556904504,0.5695934948611501 l -12.469275591148742 -2.2723173861317787" fill="#ff910d" stroke="none" /><path d="M 120.65975698304385 103.76489593502545 l 13.568001793719185 2.4725419007356266 a34.79145155976195,34.79145155976195 0 0,0 -0.11211745352070215,0.5866458931466378 l -13.523558047916325 -2.7050903589155793" fill="#ffa10e" stroke="none" /><path d="M 120.35273937422433 105.17358676015961 l 17.460653508249766 4.43842984244268 a39.01593962027628,39.01593962027628 0 0,0 -0.1705749368299457,0.6477008186591371 l -17.38188909061509 -4.73751116547462" fill="#ffd814" stroke="none" /><path d="M 119.83427380445688 106.89939002012753 l 9.215341711983722 3.205574212928257 a30.75695797383681,30.75695797383681 0 0,0 -0.1777456756985914,0.49718628953231797 l -9.158955866241186 -3.3632954588414963" fill="#ff6909" stroke="none" /><line stroke="#e1ed5e" stroke-width="0.3" x1="174.33088141563837" x2="178.70328620479359" y1="141.23008692659167" y2="143.65538615756765" /><path d="M 175.20536237346943 141.71514677278685 a86.0,86.0 0 0,1 -30.301960400862466,31.631185727798858" fill="none" id="id53" stroke="none" /><text fill="#e1ed5e" style="font-size:6.75px; font-family:Arial;" text-anchor="middle"><textPath startOffset="22.145653131862474" xlink:href="#id53">May</textPath></text><path d="M 111.8722381534696 117.32195027204791 l 8.784803022160173 12.817290146350702 a36.538844578471505,36.538844578471505 0 0,0 -0.5204240020032149,0.3501644943330277 l -8.563482732059953 -12.966204314740851" fill="#ffb811" stroke="none" /><line stroke="#e1ed5e" stroke-width="0.3" x1="143.1302829299769" x2="145.66735839644613" y1="173.24464959558577" y2="177.55315839532614" /><path d="M 143.63769802327073 174.10635135553383 a86.0,86.0 0 0,1 -40.68552437913181,11.842963189579606" fill="none" id="id54" stroke="none" /><text fill="#e1ed5e" style="font-size:6.75px; font-family:Arial;" text-anchor="middle"><textPath startOffset="21.407464694133747" xlink:href="#id54">June</textPath></text><path d="M 110.65571695917076 118.09573695890943 l 5.655515906416162 9.604302422968951 a32.145738432224825,32.145738432224825 0 0,0 -0.47791150784428826,0.27592233770272084 l -5.489811930711475 -9.699971657947843" fill="#ff7d0b" stroke="none" /><path d="M 109.06512990194946 118.94263497670748 l 1.1643041059511494 2.432947781164332 a23.69719093818127,23.69719093818127 0 0,0 -0.3684476328980026,0.17245209620787927 l -1.1223677591816406 -2.4525761089427447" fill="#ff0300" stroke="none" /><path d="M 107.407793817531 119.65005319985036 l 2.772878446387969 7.355389516821421 a28.860700339194302,28.860700339194302 0 0,0 -0.46508448026870325,0.1707854632459699 l -2.646204814465139 -7.401905829076113" fill="#ff4e07" stroke="none" /><path d="M 107.06938296918513 119.77432235084164 l 2.512952047657475 7.029174124416462 a28.464865495452134,28.464865495452134 0 0,0 -0.4615296381293463,0.16054396600026652 l -2.391916637483107 -7.071276522985319" fill="#ff4906" stroke="none" /><path d="M 106.72888874123015 119.89276391827305 l 2.359619241066827 6.975795009351839 a28.364069457528956,28.364069457528956 0 0,0 -0.4625737550944778,0.15205718118179706 l -2.2395227483246147 -7.015273111935655" fill="#ff4706" stroke="none" /><path d="M 106.38641147887787 120.00534299687104 l 3.9089885766627837 12.244851041250149 a33.853659740124016,33.853659740124016 0 0,0 -0.5551345163375465,0.17198209220520283 l -3.698213427453613 -12.310149721261995" fill="#ff940d" stroke="none" /><path d="M 106.0420521117495 120.11202640906438 l 2.522752503437403 8.397422603158422 a29.76818034541008,29.76818034541008 0 0,0 -0.4906646464848734,0.14282532756856692 l -2.3782278445709224 -8.439491625029506" fill="#ff5b08" stroke="none" /><path d="M 103.2317021107853 120.74984581791261 l 1.1242463048992457 7.218467757335662 a28.305491531565426,28.305491531565426 0 0,0 -0.48075515251160245,0.07065445170629679 l -1.0001660467799578 -7.236703282340842" fill="#ff4706" stroke="none" /><path d="M 101.08105385017728 120.97215588758144 l 0.7758283131600043 15.050862011104003 a36.070844596398516,36.070844596398516 0 0,0 -0.618656619856834,0.02656777717225145 l -0.5173459327023409 -15.061962356702086" fill="#ffb210" stroke="none" /><line stroke="#e1ed5e" stroke-width="0.3" x1="101.45913802915013" x2="101.54496967792366" y1="184.9874750549273" y2="189.98673829345242" /><path d="M 101.47630435890484 185.9873277026323 a86.0,86.0 0 0,1 -42.54439059252881,-10.42667462771756" fill="none" id="id55" stroke="none" /><text fill="#e1ed5e" style="font-size:6.75px; font-family:Arial;" text-anchor="middle"><textPath startOffset="22.145653131862474" xlink:href="#id55">July</textPath></text><path d="M 100.36049292484886 120.99690560180557 l 0.31791715096118817 18.5170802193297 a39.51980915571126,39.51980915571126 0 0,0 -0.6784100758100381,0.005823334575992627 l -2.2680225003361637e-15 -18.519809155711258" fill="#ffdf14" stroke="none" /><path d="M 100.0 121.0 l 1.218172712040108e-15 9.947135066929071 a30.94713506692907,30.94713506692907 0 0,0 -0.5312487255223686,-0.004560131374954221 l 0.17075580067351517 -9.945669333748553" fill="#ff6c09" stroke="none" /><path d="M 99.63950707515114 120.99690560180557 l -0.20070409494608563 11.690007334390073 a32.69173013765806,32.69173013765806 0 0,0 -0.5610316324573416,-0.014450184735891184 l 0.40134904147417105 -11.684839432304134" fill="#ff840c" stroke="none" /><path d="M 99.27912038922189 120.98762331915562 l -0.1694391636911768 4.933036376524429 a25.935945453740917,25.935945453740917 0 0,0 -0.4448314012809176,-0.01910297436272284 l 0.2540963255729331 -4.929400833735877" fill="#ff2403" stroke="none" /><path d="M 98.91894614982273 120.97215588758144 l -0.6256894004227809 12.138207213935017 a33.15432275341681,33.15432275341681 0 0,0 -0.5681319187638467,-0.03417740543682353 l 0.833965671319074 -12.125677830673501" fill="#ff8a0c" stroke="none" /><path d="M 98.55909050195518 120.95050786540614 l -0.8354849357261193 12.147767601719236 a33.17646470791932,33.17646470791932 0 0,0 -0.5678404790367307,-0.04395444435162432 l 1.043894409538086 -12.131635390372558" fill="#ff8b0c" stroke="none" /><path d="M 98.19965949673042 120.92268563240118 l -0.5217020954585081 6.0629691534573205 a27.085373286182268,27.085373286182268 0 0,0 -0.4629024903947933,-0.043837347118291854 l 0.6257041492383166 -6.0531200508338445" fill="#ff3505" stroke="none" /><path d="M 97.84075906011543 120.88869738790638 l -1.2514314008435639 12.106463596110965 a33.170971257667865,33.170971257667865 0 0,0 -0.5659032433644847,-0.06341063878020023 l 1.4590705458088478 -12.083197196823793" fill="#ff8b0c" stroke="none" /><path d="M 97.12497278360702 120.80226474461374 l -0.5011989295816347 3.6264257824852133 a24.66089665558689,24.66089665558689 0 0,0 -0.41885346239291665,-0.06155703496062119 l 0.5633774975822362 -3.6172876742257096" fill="#ff1101" stroke="none" /><path d="M 96.05791012581884 120.62667999033965 l -1.461417852230081 7.64675573927161 a28.78515352930821,28.78515352930821 0 0,0 -0.48455490176863797,-0.09692455110521647 l 1.592469239529677 -7.620541791503532" fill="#ff4d07" stroke="none" /><path d="M 95.70440661134978 120.55596938700252 l -4.964288712082484 23.75591858005796 a45.26907146965562,45.26907146965562 0 0,0 -0.7593080160174807,-0.16548764801742546 l 5.371359144719102 -23.667199473906813" fill="#d8ff1c" stroke="none" /><path d="M 95.35216902796893 120.47920084513623 l -5.40922365856137 23.83403750836752 a45.44015230187017,45.44015230187017 0 0,0 -0.7592137319946982,-0.1791723735189335 l 5.8175695442959565 -23.73766899120236" fill="#d6ff1c" stroke="none" /><path d="M 95.00130118170881 120.39639698878247 l -5.804371952426419 23.68381831268538 a45.384707987392545,45.384707987392545 0 0,0 -0.7551036542527063,-0.19194439610116934 l 6.210080899904504 -23.580688684748946" fill="#d7ff1c" stroke="none" /><path d="M 94.6519064749342 120.30758222061772 l -6.206716420689898 23.567913209159382 a45.37149691260943,45.37149691260943 0 0,0 -0.7514785949352198,-0.20481883272646917 l 6.610376416559813 -23.45789388228877" fill="#d7ff1c" stroke="none" /><path d="M 94.30408787586889 120.21278271476187 l -6.630236629893442 23.528370773089243 a45.4447186321369,45.4447186321369 0 0,0 -0.7490587783166299,-0.21804009346836833 l 7.0331554205916795 -23.41108698531836" fill="#d6ff1c" stroke="none" /><path d="M 93.95794788825049 120.11202640906438 l -7.092701568232532 23.60929674447982 a45.651679624417355,45.651679624417355 0 0,0 -0.7485992144672047,-0.23191795022335804 l 7.496941415571371 -23.484062206449813" fill="#d4ff1c" stroke="none" /><path d="M 93.61358852112213 120.00534299687104 l -7.4875698182373185 23.45470581127917 a45.62086364197307,45.62086364197307 0 0,0 -0.7440051660118346,-0.2445692758884449 l 7.8890977218968965 -23.322715613988702" fill="#d4ff1c" stroke="none" /><path d="M 93.27111125876986 119.89276391827306 l -8.004554197587536 23.664042169096803 a45.98118851621972,45.98118851621972 0 0,0 -0.7455394897277401,-0.25933733524858055 l 8.4095994593603 -23.52314640127963" fill="#d0ff1d" stroke="none" /><path d="M 92.93061703081489 119.77432235084164 l -8.320759241303417 23.274644499878416 a45.717283648238066,45.717283648238066 0 0,0 -0.7367249877842631,-0.2705356202187663 l 8.719073380741799 -23.128378030650932" fill="#d3ff1c" stroke="none" /><path d="M 92.59220618246901 119.65005319985036 l -8.632334203947652 22.898292058970323 a45.47139090911156,45.47139090911156 0 0,0 -0.7280353755544252,-0.28161972324561596 l 9.024141841995606 -22.74673244758667" fill="#d6ff1c" stroke="none" /><path d="M 92.25597844496254 119.51999308798841 l -8.949611138289345 22.558866387187763 a45.26928083404167,45.26928083404167 0 0,0 -0.7198797323640617,-0.2927688201311289 l 9.335545331843848 -22.40191031047734" fill="#d8ff1c" stroke="none" /><path d="M 91.92203290615298 119.3841803445677 l -9.52220222055683 22.849818893334074 a45.75452602227205,45.75452602227205 0 0,0 -0.722409332437485,-0.30835358690333203 l 9.913046628164745 -22.682990656771338" fill="#d2ff1c" stroke="none" /><path d="M 91.59046798132341 119.24265499422711 l -9.841829805723657 22.520032629977994 a45.57668577290486,45.57668577290486 0 0,0 -0.714222687148726,-0.3194627234157988 l 10.22696589572802 -22.34776615565234" fill="#d5ff1c" stroke="none" /><path d="M 91.26138138417905 119.09545874513695 l -10.145873994652973 22.17056571704528 a45.38181173188734,45.38181173188734 0 0,0 -0.7056035102581164,-0.33025807081066244 l 10.524966218782579 -21.993131414664095" fill="#d7ff1c" stroke="none" /><path d="M 90.93487009805054 118.94263497670748 l -10.4878360405843 21.915543622780508 a45.29579710765165,45.29579710765165 0 0,0 -0.6985037926103709,-0.34167320743715407 l 10.862500082456739 -21.732276665246133" fill="#d8ff1c" stroke="none" /><path d="M 90.6110303473126 118.78422872680471 l -11.169169668813685 22.345821267771782 a45.98171489753955,45.98171489753955 0 0,0 -0.7030227120250945,-0.35896840599515684 l 11.551119602552362 -22.150794910103787" fill="#d0ff1d" stroke="none" /><path d="M 90.28995756902619 118.62028667847754 l -11.203314670157807 21.48383309243791 a45.22951390231144,45.22951390231144 0 0,0 -0.685358913345366,-0.36491501836209533 l 11.570462399289735 -21.288347606353238" fill="#d9ff1c" stroke="none" /><path d="M 89.97174638481275 118.45085714620012 l -20.153507273934984 37.08018344720892 a63.203126186566045,63.203126186566045 0 0,0 -0.9488168027151509,-0.5262926862740781 l 20.787068264806237 -36.72875784550169" fill="#33ff4e" stroke="none" /><line stroke="#e1ed5e" stroke-width="0.3" x1="58.13341422392154" x2="55.67067388415222" y1="173.97424548756322" y2="178.32567169271397" /><path d="M 57.64086615596768 174.84453072859336 a86.0,86.0 0 0,1 -31.369924170532247,-30.572349798747897" fill="none" id="id56" stroke="none" /><text fill="#e1ed5e" style="font-size:6.75px; font-family:Arial;" text-anchor="middle"><textPath startOffset="22.145653131862474" xlink:href="#id56">August</textPath></text><path d="M 89.65649057296885 118.27599006163327 l -13.20066759703737 23.324314780426093 a47.80077023116827,47.80077023116827 0 0,0 -0.7106552622973865,-0.4102970069884233 l 13.599115327195157 -23.0942708761615" fill="#baff1f" stroke="none" /><path d="M 89.34428304082925 118.09573695890944 l -12.35504453803962 20.981566696322485 a45.34898902560785,45.34898902560785 0 0,0 -0.667423191954862,-0.4007684501430041 l 12.713400486551908 -20.76638424564356" fill="#d7ff1c" stroke="none" /><path d="M 89.03521579738668 117.91015095944536 l -12.81896168049773 20.938810522722353 a45.5511621857813,45.5511621857813 0 0,0 -0.6633894938918822,-0.41400410826336065 l 13.176515303179325 -20.715670617617445" fill="#d5ff1c" stroke="none" /><path d="M 88.72937992617639 117.7192867562869 l -14.312040399605436 22.50090467490464 a47.66693104931806,47.66693104931806 0 0,0 -0.686663405173008,-0.4450869232012437 l 14.696189437035455 -22.251903909999502" fill="#bcff1f" stroke="none" /><path d="M 88.4268655584334 117.5232005979908 l -14.520137590020669 21.98533897493691 a47.347476643428514,47.347476643428514 0 0,0 -0.6743717149185617,-0.45374738605061105 l 14.895405593036237 -21.732841914829176" fill="#c0ff1e" stroke="none" /><path d="M 88.1277618465304 117.32195027204791 l -14.551958297552458 21.231742046671567 a46.7399759252045,46.7399759252045 0 0,0 -0.6579317296147845,-0.4592874448242576 l 14.914285118341008 -20.978809786042177" fill="#c7ff1e" stroke="none" /><path d="M 87.83215693770417 117.11559508785305 l -14.632512392782244 20.582461160178607 a46.253675501502485,46.253675501502485 0 0,0 -0.6431881707828456,-0.46561863438943657 l 14.983681573939043 -20.328241754416105" fill="#ccff1d" stroke="none" /><path d="M 86.13680546590413 115.77377054828092 l -8.85807323789235 10.078861290645118 a34.41823037527413,34.41823037527413 0 0,0 -0.4404467722231587,-0.3938502196515203 l 9.029785036938879 -9.925315541110217" fill="#ff9c0e" stroke="none" /><line stroke="#e1ed5e" stroke-width="0.3" x1="26.387840678322732" x2="22.057713659400548" y1="142.50000000000003" y2="145.00000000000006" /><path d="M 25.521815274538298 143.00000000000003 a86.0,86.0 0 0,1 -11.493303480769221,-40.785679425670985" fill="none" id="id57" stroke="none" /><text fill="#e1ed5e" style="font-size:6.75px; font-family:Arial;" text-anchor="middle"><textPath startOffset="21.40746469413373" xlink:href="#id57">September</textPath></text><path d="M 79.48165901384964 104.47187691870673 l -7.374898857501413 1.6073248807453813 a28.548021358650146,28.548021358650146 0 0,0 -0.10024744982960627,-0.47972033742001907 l 7.401404018155386 -1.480488092039953" fill="#ff4a06" stroke="none" /><path d="M 79.407916724674 104.11899336999214 l -7.579008499306484 1.5160139623737638 a28.729144077235986,28.729144077235986 0 0,0 -0.09258131901269863,-0.4844245822160765 l 7.6039161106013395 -1.3856868151243729" fill="#ff4d07" stroke="none" /><path d="M 79.0935383218832 101.97986365728391 l -12.824374220182008 1.2144815721028406 a33.881752195576745,33.881752195576745 0 0,0 -0.04986486747705448,-0.579505346032601 l 12.843332710356805 -0.9941551786945776" fill="#ff940d" stroke="none" /><path d="M 79.03789590574601 101.26102812881392 l -12.699582583104203 0.7639753523540381 a33.72254126045925,33.72254126045925 0 0,0 -0.02980175072758429,-0.578146002513445 l 12.71082592328836 -0.5458575564638624" fill="#ff920d" stroke="none" /><path d="M 79.01933749520258 100.90099992219065 l -12.669574101069793 0.5440860257221304 a33.681251417186104,33.681251417186104 0 0,0 -0.01984838231550145,-0.5778639946310958 l 12.677047170382142 -0.3265157665269147" fill="#ff920d" stroke="none" /><line stroke="#e1ed5e" stroke-width="0.3" x1="15.003131293944662" x2="10.003315487706104" y1="100.72959589197737" y2="100.7725132973878" /><path d="M 14.003168132696942 100.73817937305945 a86.0,86.0 0 0,1 10.791469493833604,-42.45332614584628" fill="none" id="id58" stroke="none" /><text fill="#e1ed5e" style="font-size:6.75px; font-family:Arial;" text-anchor="middle"><textPath startOffset="22.145653131862435" xlink:href="#id58">October</textPath></text><path d="M 79.00077361379809 100.18025310272382 l -2.4921072185351263 0.02139174320995721 a23.492199028037778,23.492199028037778 0 0,0 0.0,-0.4032896918675486 l 2.4921072185351263 0.021391743209956293" fill="#ff0000" stroke="none" /><path d="M 79.01933749520258 99.09900007780938 l -24.54683072490371 -1.0541465298394386 a45.56945509252188,45.56945509252188 0 0,0 0.04027126932606678,-0.7812518663695767 l 24.52511786612107 1.4753701895857274" fill="#d5ff1c" stroke="none" /><path d="M 79.13060592940154 97.66154086499901 l -12.114687523995649 -1.3574760058837576 a33.190504292711026,33.190504292711026 0 0,0 0.06830592150097588,-0.5656710167838622 l 12.089599516235005 1.5652406995910562" fill="#ff8b0c" stroke="none" /><path d="M 79.34024301695615 96.23510406497455 l -12.030283983527715 -2.1923184916433684 a33.22840926257888,33.22840926257888 0 0,0 0.1070804598268836,-0.5602902137096397 l 11.990877231418672 2.3985112703863227" fill="#ff8b0c" stroke="none" /><path d="M 79.407916724674 95.88100663000787 l -2.6705094309857107 -0.5341766781757277 a23.723410608867212,23.723410608867212 0 0,0 0.08330564787387477,-0.39864768206049694 l 2.660946072287469 0.5799408115216337" fill="#ff0300" stroke="none" /><path d="M 79.48165901384962 95.52812308129327 l -12.308477885181023 -2.6825754673004916 a33.59741398016882,33.59741398016882 0 0,0 0.12765279596991622,-0.5624617725649965 l 12.260614227653445 2.8934715738044963" fill="#ff900d" stroke="none" /><path d="M 79.56144815229197 95.17655741523228 l -2.8407533272411696 -0.6704100502586336 a23.918788978621023,23.918788978621023 0 0,0 0.09773954499953216,-0.39881069729960483 l 2.828826255725339 0.7190765721663562" fill="#ff0601" stroke="none" /><path d="M 79.83685265289637 94.1308016681162 l -23.318150974445413 -6.787573906287447 a45.28594911467007,45.28594911467007 0 0,0 0.22367739496675945,-0.744549300714264 l 23.198197259475027 7.186860810592434" fill="#d8ff1c" stroke="none" /><path d="M 80.28708602549916 92.7611449362534 l -47.904721472893684 -17.591277274379113 a72.03249333061837,72.03249333061837 0 0,0 0.43620585333314,-1.1570878503391084 l 47.59568493574611 18.411033404912367" fill="#3effb4" stroke="none" /><path d="M 80.68587082218212 91.75594674310238 l -11.54550475337603 -4.928089441066386 a33.55327628746291,33.55327628746291 0 0,0 0.230664583011087,-0.527805706716142 l 11.459206288347966 5.125557217558395" fill="#ff900d" stroke="none" /><path d="M 80.9802524753101 91.09779779509293 l -10.179111911169569 -4.764338347918579 a32.23891628198919,32.23891628198919 0 0,0 0.2389068606843647,-0.4992234534225327 l 10.0958257925253 4.938374303406198" fill="#ff7e0b" stroke="none" /><path d="M 81.1358732173502 90.77261029715801 l -12.052978718825482 -5.89571587384345 a34.41766602884233,34.41766602884233 0 0,0 0.26416392369419134,-0.5285048037855261 l 11.949994881919547 6.101752533792746" fill="#ff9c0e" stroke="none" /><path d="M 81.29705330413844 90.45014215332179 l -10.832020622317337 -5.530906910957878 a33.162384717644386,33.162384717644386 0 0,0 0.26323342599905164,-0.5047848029813995 l 10.735479127343346 5.716037957043763" fill="#ff8a0c" stroke="none" /><path d="M 81.46374523516351 90.13048839642627 l -6.700873156232803 -3.567837527512464 a28.591519326106443,28.591519326106443 0 0,0 0.23438871493103813,-0.4312488357219627 l 6.638639091686414 3.682341196709046" fill="#ff4b06" stroke="none" /><line stroke="#e1ed5e" stroke-width="0.3" x1="26.387840678322718" x2="22.05771365940052" y1="57.49999999999999" y2="54.99999999999999" /><path d="M 25.521815274538284 56.99999999999999 a86.0,86.0 0 0,1 29.574782752854787,-30.34633250058573" fill="none" id="id59" stroke="none" /><text fill="#e1ed5e" style="font-size:6.75px; font-family:Arial;" text-anchor="middle"><textPath startOffset="21.40746469413373" xlink:href="#id59">November</textPath></text><path d="M 81.99639281039701 89.18935116829357 l -54.01082156880897 -32.43194649511929 a84.0,84.0 0 0,0 0.752928142178428,-1.2298515355018278 l 53.44612546217515 33.35433514674566" fill="#4dd2ff" stroke="none" /><path d="M 82.18462484594161 88.88188828441811 l -10.473866789410511 -6.536467520430607 a33.34614487068578,33.34614487068578 0 0,0 0.30723281356941784,-0.4830210129450742 l 10.360116284215204 6.715302208054354" fill="#ff8d0d" stroke="none" /><path d="M 82.37810715431573 88.57770195909679 l -10.804740071296079 -7.003501975047979 a33.87600279290014,33.87600279290014 0 0,0 0.32049208866678025,-0.48526587054983467 l 10.68292354370857 7.187947723936875" fill="#ff940d" stroke="none" /><path d="M 82.576782715395 88.27688183743585 l -12.078121898603792 -8.126699442834617 a35.557619050919726,35.557619050919726 0 0,0 0.3450956046185132,-0.5035048004455012 l 11.936836557169965 8.332838978350154" fill="#ffab0f" stroke="none" /><path d="M 82.78059297857968 87.97951657250589 l -13.201788346216647 -9.215873568211453 a37.1002963067007,37.1002963067007 0 0,0 0.3690329399301909,-0.5190910452730162 l 13.041640307756484 9.441141840193989" fill="#ffbf11" stroke="none" /><path d="M 82.98947788004972 87.6856937992154 l -7.015680656065831 -5.078811761127088 a29.661068292818104,29.661068292818104 0 0,0 0.3021163145152486,-0.40987880375815144 l 6.927462321966763 5.198496874154103" fill="#ff5a08" stroke="none" /><path d="M 83.2033758604659 87.39550010848427 l -2.2510798647783274 -1.6892522971094295 a23.8144153710673,23.8144153710673 0 0,0 0.24817798640101343,-0.32487295081931467 l 2.2217499010230073 1.7276461611696285" fill="#ff0500" stroke="none" /><path d="M 83.42222388311158 87.10902102172516 l -9.715273527160104 -7.554655457026285 a33.306882577725155,33.306882577725155 0 0,0 0.35485084396746824,-0.44834244929040085 l 9.584156252551074 7.7203178502313685" fill="#ff8c0c" stroke="none" /><path d="M 83.64595745247003 86.82634096563983 l -9.454394146961908 -7.615790683346231 a33.14025685142826,33.14025685142826 0 0,0 0.3606814816496532,-0.43997276162400417 l 9.322265846073625 7.776965726668728" fill="#ff8a0c" stroke="none" /><path d="M 83.8745106332314 86.54754324733833 l -4.030834630434927 -3.362665610310279 a26.249299746125846,26.249299746125846 0 0,0 0.29162401594773707,-0.34353235750827626 l 3.9725160509800754 3.431364750268112" fill="#ff2904" stroke="none" /><path d="M 84.10781606972428 86.27271002978789 l -18.799048271204903 -16.23817015427453 a45.841143006356695,45.841143006356695 0 0,0 0.5195088024288018,-0.5911056522484656 l 18.517528404817508 16.558488084334297" fill="#d1ff1c" stroke="none" /><path d="M 85.34317274990677 84.96080404539775 l -8.949916674121706 -9.183402952274148 a33.82325614879307,33.82325614879307 0 0,0 0.4192916282455472,-0.401671895098885 l 8.790952560010858 9.335686977678602" fill="#ff930d" stroke="none" /><path d="M 85.86807049272753 84.46653392183569 l -5.404523880958798 -5.940518478407362 a29.031104417958545,29.031104417958545 0 0,0 0.3715082412879714,-0.33220496019319934 l 5.301750612847434 6.032418968483962" fill="#ff5107" stroke="none" /><path d="M 86.13680546590413 84.22622945171909 l -4.7974995459846825 -5.4586738184857735 a28.267263704472633,28.267263704472633 0 0,0 0.3672328375969034,-0.31720697862506164 l 4.703087228624931 5.540224929575546" fill="#ff4606" stroke="none" /><path d="M 86.40962598614128 83.9905735841838 l -5.005982078140837 -5.897034300687019 a28.735300259857176,28.735300259857176 0 0,0 0.3787937441663063,-0.31600321364989287 l 4.904013999812622 5.982099698248794" fill="#ff4d07" stroke="none" /><path d="M 86.68645165197937 83.75963576809568 l -6.158176049832292 -7.511973475375943 a30.713540948360684,30.713540948360684 0 0,0 0.4106096648054706,-0.33075808043419413 l 6.028315614671576 7.616579849603536" fill="#ff6909" stroke="none" /><path d="M 86.96720088162412 83.53348406188908 l -15.074224793077128 -19.045790589980644 a45.28938847129784,45.28938847129784 0 0,0 0.613757598689646,-0.477261621020717 l 14.745057249752238 19.301753262622164" fill="#d8ff1c" stroke="none" /><path d="M 87.25179093698888 83.31218511350988 l -9.022119633334174 -11.810244213965431 a35.862049356387494,35.862049356387494 0 0,0 0.4924149877833053,-0.3695173868591208 l 8.818051656640117 11.963380628088553" fill="#ffaf10" stroke="none" /><path d="M 87.54013794807813 83.09580414077388 l -7.317027476197504 -9.926953047277374 a33.332205313336246,33.332205313336246 0 0,0 0.46350651988609093,-0.33554297579397274 l 7.145539945937445 10.051096794444426" fill="#ff8d0d" stroke="none" /><path d="M 87.83215693770416 82.88440491214696 l -7.303843786294831 -10.273770970840149 a33.60541566216185,33.60541566216185 0 0,0 0.473044087280051,-0.33022151137669953 l 7.126404607841015 10.397637298021975" fill="#ff910d" stroke="none" /><path d="M 88.12776184653039 82.6780497279521 l -6.860142330051483 -10.009152677382472 a33.13444230723921,33.13444230723921 0 0,0 0.4719349850443526,-0.31753891972703774 l 6.687311056910141 10.125441271166618" fill="#ff8a0c" stroke="none" /><path d="M 88.4268655584334 82.4767994020092 l -4.029809861325764 -6.101645749326837 a28.312280654400283,28.312280654400283 0 0,0 0.4078510324536922,-0.26436411172010305 l 3.924473196615046 6.169923702750847" fill="#ff4706" stroke="none" /><path d="M 88.72937992617638 82.28071324371311 l -14.150455556076055 -22.246866462347274 a47.36585784377204,47.36585784377204 0 0,0 0.6898180190130149,-0.43049746258422056 l 13.766473408273342 22.486499721773033" fill="#bfff1e" stroke="none" /><path d="M 89.03521579738668 82.08984904055464 l -1.5261643370848168 -2.4928747489254035 a23.922944080481088,23.922944080481088 0 0,0 0.3520856372373779,-0.2114173089190142 l 1.4831459432900045 2.5187060583803413" fill="#ff0601" stroke="none" /><line stroke="#e1ed5e" stroke-width="0.3" x1="56.869717070023135" x2="54.33264160355391" y1="26.7553504044142" y2="22.446841604673864" /><path d="M 56.362301976729285 25.89364864446614 a86.0,86.0 0 0,1 42.16139366436587,-11.88097634709845" fill="none" id="id60" stroke="none" /><text fill="#e1ed5e" style="font-size:6.75px; font-family:Arial;" text-anchor="middle"><textPath startOffset="22.145653131862474" xlink:href="#id60">December</textPath></text><path d="M 89.34428304082924 81.90426304109057 l -1.443485316111438 -2.45135364278985 a23.844781984590103,23.844781984590103 0 0,0 0.3545009779912227,-0.20467123507121693 l 1.4011918702598156 2.475771775137241" fill="#ff0500" stroke="none" /><path d="M 89.65649057296885 81.72400993836675 l -1.3945771113184218 -2.464084129901758 a23.831352312702702,23.831352312702702 0 0,0 0.3577605866990015,-0.19844376667656544 l 1.3520723364633178 2.4876608120114696" fill="#ff0500" stroke="none" /><path d="M 89.97174638481275 81.54914285379989 l -1.364543024562318 -2.510605473510757 a23.85746697435051,23.85746697435051 0 0,0 0.36151013420195555,-0.1924837843232528 l 1.3212440745738008 2.5336597255565847" fill="#ff0500" stroke="none" /><path d="M 90.61103034731259 81.2157712731953 l -5.445002346087113 -10.893652154644352 a33.17865788234819,33.17865788234819 0 0,0 0.5116461094494883,-0.25027175104525157 l 5.257195987375572 10.985517655786818" fill="#ff8b0c" stroke="none" /><path d="M 90.93487009805054 81.0573650232925 l -5.496635824621299 -11.485854825235728 a33.73333681541885,33.73333681541885 0 0,0 0.5244911994765489,-0.24548836446821193 l 5.298655911273228 11.578519421274484" fill="#ff920d" stroke="none" /><path d="M 93.95794788825049 79.88797359093562 l -3.5451833196870464 -11.800762262852269 a33.321782125753785,33.321782125753785 0 0,0 0.5492381548776489,-0.15987522220225014 l 3.342085152427773 11.85988117935704" fill="#ff8d0d" stroke="none" /></svg>