<?xml version="1.0" encoding="utf-8" ?>
<svg baseProfile="full" height="200mm" version="1.1" viewBox="0,0,200,200" width="200mm" xmlns="http://www.w3.org/2000/svg" xmlns:ev="http://www.w3.org/2001/xml-events" xmlns:xlink="http://www.w3.org/1999/xlink"><defs /><rect fill="#1a1a1a" height="200" width="200" x="0" y="0" /><rect fill="#1a1a1a" height="200" width="180" x="10" y="0" /><text alignment-baseline="middle" fill="#e1ed5e" style="dominant-baseline: central; font-size:9.0px; font-family:Arial;" text-anchor="middle" x="100.0" y="100.0">2026</text><line stroke="#e1ed5e" stroke-width="0.3" x1="100.0" x2="100.0" y1="15.0" y2="10.0" /><path d="M 100.0 14.0 a86.0,86.0 0 0,1 42.46469731375804,11.215312516191453" fill="none" id="id73" stroke="none" /><text fill="#e1ed5e" style="font-size:6.75px; font-family:Arial;" text-anchor="middle"><textPath startOffset="22.20632615414155" xlink:href="#id73">January</textPath></text><path d="M 101.08401301168833 79.027996857942 l 1.5497108314987755 -29.98168848255306 a51.02171294123837,51.02171294123837 0 0,0 0.8766938267814244,0.05288456577844708 l -2.065566707119812 29.95057064739431" fill="red" stroke="none" /><path d="M 101.44485096284872 79.0497635885617 l 1.5703166756865212 -22.769480342521067 a43.82356522391698,43.82356522391698 0 0,0 0.7521163258961433,0.05837870224313341 l -1.9620231909450057 22.73907637808947" fill="red" stroke="none" /><path d="M 101.80526077348638 79.07773832637324 l 1.2119589560924227 -14.046127179781964 a35.09831668185469,35.09831668185469 0 0,0 0.601476297868039,0.05711742195410576 l -1.4535603810507058 14.02318421331268" fill="red" stroke="none" /><path d="M 103.95276090670814 79.375362276772 l 4.086660143802187 -21.32329451569803 a42.711372138447146,42.711372138447146 0 0,0 0.7208735706483622,0.1446004566456066 l -4.453100123917675 21.249790102975215" fill="red" stroke="none" /><path d="M 104.307194497241 79.44645832069477 l 7.7730984524836 -37.092521157984095 a58.89823459486603,58.89823459486603 0 0,0 0.9904923848423489,0.21648327127173764 l -8.410433561479477 36.95322438861648" fill="red" stroke="none" /><path d="M 104.66035177308747 79.52364482259891 l 3.1352050466408787 -13.775263159258941 a35.127539976631425,35.127539976631425 0 0,0 0.5884303094788554,0.13926244283283912 l -3.3718590430822575 13.719254804285233" fill="red" stroke="none" /><path d="M 106.0581310904928 79.89281104454417 l 1.5584818553337105 -5.172666071558259 a26.402345785050635,26.402345785050635 0 0,0 0.4340226647499521,0.13485295465188488 l -1.6472898927943809 5.145072982023854" fill="red" stroke="none" /><path d="M 106.40334571778207 80.00007090966166 l 2.2212968543985796 -6.937901143334018 a28.284822028713982,28.284822028713982 0 0,0 0.46241263201302785,0.15245017454383097 l -2.340392308654025 6.898637244530951" fill="red" stroke="none" /><path d="M 106.74666289553966 80.11325718540242 l 6.7707764847101295 -19.957821028167015 a42.075057162395765,42.075057162395765 0 0,0 0.6838559137901012,0.238583900458509 l -7.113314402563504 19.838316274536297" fill="red" stroke="none" /><path d="M 107.08798089147638 80.2323363322302 l 5.521837756594255 -15.399848457775919 a37.35989073107193,37.35989073107193 0 0,0 0.6034826306278522,0.22226774585966216 l -5.786102712994684 15.302517444109931" fill="red" stroke="none" /><path d="M 107.4271985657038 80.35727306442388 l 14.057686987043887 -37.17839295523648 a60.74734539764487,60.74734539764487 0 0,0 0.9748989562183961,0.37824564904871805 l -14.695569108261951 36.93090460229722" fill="red" stroke="none" /><path d="M 107.76421540070413 80.48803036053334 l 8.34237006409631 -20.96490926785475 a43.563744345646896,43.563744345646896 0 0,0 0.694356568267414,0.28324547845141596 l -8.702010501952111 20.818202903219756" fill="red" stroke="none" /><path d="M 108.09893153111575 80.62456947434976 l 7.806557424323635 -18.67597107573571 a41.241893054775765,41.241893054775765 0 0,0 0.6526357581703228,0.27942457197817117 l -8.126876940284273 18.53882697579475" fill="red" stroke="none" /><path d="M 108.43124777332544 80.76684994638697 l 4.024397760006269 -9.18035480329575 a31.02370648239157,31.02370648239157 0 0,0 0.4872463404443241,0.21861323006745007 l -4.181826218917373 9.109721242711768" fill="red" stroke="none" /><path d="M 108.76106565485865 80.91482961587045 l 2.327746469562116 -5.070780169078163 a26.579535388334342,26.579535388334342 0 0,0 0.41416205298078085,0.19445463718130493 l -2.4146867338424953 5.029960549256855" fill="red" stroke="none" /><path d="M 109.08828744355905 81.06846463323043 l 5.349805456952972 -11.144017158636416 a33.361615463167695,33.361615463167695 0 0,0 0.5155620379403333,0.2529840529559739 l -5.540838761903737 11.050277945545611" fill="red" stroke="none" /><path d="M 109.41281617654863 81.2277094730956 l 6.704412431362791 -13.370831387029124 a35.957549198654675,35.957549198654675 0 0,0 0.5509030641275471,0.2821939466372284 l -6.933575983079094 13.253444915079395" fill="red" stroke="none" /><path d="M 109.73455568895987 81.39251694778311 l 3.4937611775028623 -6.678281369596249 a28.536962864239317,28.536962864239317 0 0,0 0.43329295077620666,0.2314500884194948 l -3.60819917480738 6.617152554675" fill="red" stroke="none" /><path d="M 110.05341064243156 81.56283822128135 l 3.4904304060082763 -6.401173926122289 a28.290962354288695,28.290962354288695 0 0,0 0.42554445260427165,0.23681502714707403 l -3.600098947684583 6.340143501415035" fill="red" stroke="none" /><line stroke="#e1ed5e" stroke-width="0.3" x1="143.23703022742887" x2="145.7803849466894" y1="26.81831364943548" y2="22.513508569990506" /><path d="M 143.74570117128098 25.957352633546492 a86.0,86.0 0 0,1 28.547481713284135,27.462654790039103" fill="none" id="id74" stroke="none" /><text fill="#e1ed5e" style="font-size:6.75px; font-family:Arial;" text-anchor="middle"><textPath startOffset="19.985693538727396" xlink:href="#id74">February</textPath></text><path d="M 110.68208982089419 81.91981866633111 l 5.356670826725839 -9.066538618926343 a31.53071910528329,31.53071910528329 0 0,0 0.4649098435443799,0.2801029788237446 l -5.511942736487857 8.972989030643983" fill="red" stroke="none" /><path d="M 110.99172775467656 82.1063720568725 l 6.542949837481674 -10.651383718326885 a33.50048669815862,33.50048669815862 0 0,0 0.48875750050112177,0.3060599019751032 l -6.72532649035506 10.537179475028838" fill="red" stroke="none" /><path d="M 111.2981086023043 82.29822771554956 l 7.680546302917482 -12.0338090613409 a35.27597114160959,35.27597114160959 0 0,0 0.5090372596852312,0.3310919934918425 l -7.886550588386993 11.89981814368953" fill="red" stroke="none" /><path d="M 111.60114157652 82.49532879139004 l 13.85603083910362 -20.907016994410746 a46.08172542347855,46.08172542347855 0 0,0 0.6574223147867089,0.44389448161396344 l -14.213857848296872 20.665410600498113" fill="red" stroke="none" /><path d="M 111.90073688211348 82.69761687909136 l 11.282389641830227 -16.403373172271138 a40.908866553846366,40.908866553846366 0 0,0 0.5767543572153233,0.40405328517215333 l -11.5630751386292 16.206735044335048" fill="red" stroke="none" /><path d="M 112.77801427241765 83.33499621200491 l 19.307343264042373 -25.18051254066334 a52.7306116506768,52.7306116506768 0 0,0 0.7155479841416068,0.5584965514565791 l -19.73792380334341 24.84443759998354" fill="red" stroke="none" /><line stroke="#e1ed5e" stroke-width="0.3" x1="172.23445277983987" x2="176.4835382374775" y1="55.19839476539836" y2="52.563006222186495" /><path d="M 173.08426987136738 54.67131705675599 a86.0,86.0 0 0,1 12.851231095245387,41.99856678651699" fill="none" id="id75" stroke="none" /><text fill="#e1ed5e" style="font-size:6.75px; font-family:Arial;" text-anchor="middle"><textPath startOffset="22.20632615414155" xlink:href="#id75">March</textPath></text><path d="M 118.03404312379186 89.2402003453031 l 11.590328795918108 -6.915233312912339 a34.49652449223507,34.49652449223507 0 0,0 0.29985746716451983,0.5125536116102585 l -11.707645937552954 6.714700288948185" fill="red" stroke="none" /><path d="M 118.21658344932153 89.55222093294921 l 16.68690010876906 -9.570457936603816 a40.23658754447732,40.23658754447732 0 0,0 0.33940971542724874,0.6037720113912896 l -16.84916746548874 9.281802415277733" fill="red" stroke="none" /><path d="M 118.3937258080291 89.86733742301442 l 10.992690114891483 -6.0556094458545875 a33.550284527561764,33.550284527561764 0 0,0 0.2743005772523052,0.5082373106106749 l -11.095298791362252 5.865491151911454" fill="red" stroke="none" /><path d="M 118.56541770881063 90.18545643968196 l 9.735710070329363 -5.146749298860563 a32.01240568263058,32.01240568263058 0 0,0 0.253340945062128,0.48937406905677916 l -9.822860448551607 4.978402507543438" fill="red" stroke="none" /><path d="M 118.73160827565052 90.50648371742162 l 10.356573678155483 -5.248897980271122 a32.61075141230563,32.61075141230563 0 0,0 0.24945669925963831,0.5028894836533099 l -10.445390390368528 5.069848908118862" fill="red" stroke="none" /><path d="M 119.34039704204932 91.81776055985345 l 8.952890151684349 -3.7876518637721377 a30.721139270129974,30.721139270129974 0 0,0 0.20185004635365383,0.48879589784743216 l -9.016761884924199 3.6329813954714028" fill="red" stroke="none" /><path d="M 120.08093135843002 93.85539295169968 l 13.450000306948894 -4.115594302403959 a35.06558298539045,35.06558298539045 0 0,0 0.17164453072563654,0.5787000285398674 l -13.518850734786232 3.883464887117562" fill="red" stroke="none" /><path d="M 120.18372546131832 94.20196356495316 l 6.378811360631524 -1.8323961427295714 a27.636784612929066,27.636784612929066 0 0,0 0.12740982712092894,0.45836093764420144 l -6.409407958318816 1.7223239016664182" fill="red" stroke="none" /><path d="M 120.28053869075195 94.5502522615342 l 13.45883884419578 -3.616633545684779 a34.93629725708395,34.93629725708395 0 0,0 0.15106399722917646,0.5821112042067413 l -13.519099173295258 3.384425915929187" fill="red" stroke="none" /><path d="M 120.37134235888165 94.90015583598534 l 25.96060315965579 -6.499082298341927 a47.76174484471727,47.76174484471727 0 0,0 0.19279187453066315,0.799246785721375 l -26.06862783444727 6.0512502809611455" fill="red" stroke="none" /><path d="M 120.45610955862082 95.25157060432595 l 12.988082370572481 -3.014893518492691 a34.333411663660016,34.333411663660016 0 0,0 0.12867772434760735,0.5768370070841499 l -13.038054481922126 2.790878341858577" fill="red" stroke="none" /><path d="M 120.53481517161879 95.60439243477599 l 22.621744695980876 -4.8423280800526 a44.13420572064243,44.13420572064243 0 0,0 0.15262176636502023,0.7442379353129284 l -22.70174575826089 4.45221448857626" fill="red" stroke="none" /><path d="M 120.6074358757038 95.95851677861258 l 51.14183471932602 -10.029819729916605 a73.11606798554055,73.11606798554055 0 0,0 0.23158392060074964,1.2371305640476302 l -51.30690436383663 9.148011088406413" fill="red" stroke="none" /><path d="M 120.67395015179393 96.31383870115 l 27.13124476006478 -4.837495674018508 a48.55913290774386,48.55913290774386 0 0,0 0.13963788773765387,0.8241507178752373 l -27.210494509322658 4.369759167827433" fill="red" stroke="none" /><path d="M 120.73433829027371 96.67025291283417 l 16.206280663631784 -2.6025820104822595 a37.41392597977983,37.41392597977983 0 0,0 0.0966421422714916,0.6367509692414405 l -16.248678699342577 2.323231928848737" fill="red" stroke="none" /><path d="M 120.78858239683441 97.02765380044208 l 27.049945924419177 -3.8675943569359297 a48.32504090799873,48.32504090799873 0 0,0 0.11065053869287217,0.8244750369671764 l -27.112512462169885 3.401400977904089" fill="red" stroke="none" /><path d="M 120.83666639777658 97.38593545837742 l 29.33256078667291 -3.6799171999803435 a50.562491655856284,50.562491655856284 0 0,0 0.10090743697885324,0.8645132969015517 l -29.391558576655353 3.1744601647539388" fill="red" stroke="none" /><path d="M 120.87857604477298 97.74499172005257 l 62.63572813431897 -6.7650248398422885 a84.0,84.0 0 0,0 0.1428914972710853,1.43889787718226 l -62.74289675727228 5.6858514319555935" fill="red" stroke="none" /><path d="M 120.91429891909075 98.10471618934814 l 30.175573966081448 -2.7345538588834706 a51.299225220945615,51.299225220945615 0 0,0 0.07212552877659109,0.880114138339568 l -30.218173978677534 2.214725803336134" fill="red" stroke="none" /><path d="M 120.96714384426684 98.82574320788733 l 14.247673082717185 -0.7979354276121962 a35.26999962223624,35.26999962223624 0 0,0 0.02873059195916212,0.6064573872857382 l -14.259297282909843 0.5525669337034583" fill="red" stroke="none" /><path d="M 120.98425023603335 99.18683210126433 l 30.63924150789766 -1.1873117864868472 a51.662237841645045,51.662237841645045 0 0,0 0.02678639193928415,0.8889099420483922 l -30.65513959429259 0.6597316970134559" fill="red" stroke="none" /><line stroke="#e1ed5e" stroke-width="0.3" x1="184.98032266829074" x2="189.97916517819016" y1="98.17113171792111" y2="98.06355123074" /><path d="M 185.9800911702706 98.14961562048488 a86.0,86.0 0 0,1 -9.607161424134198,41.387399972396054" fill="none" id="id76" stroke="none" /><text fill="#e1ed5e" style="font-size:6.75px; font-family:Arial;" text-anchor="middle"><textPath startOffset="21.466115282336823" xlink:href="#id76">April</textPath></text><path d="M 120.99513854157772 99.54816195383933 l 27.765529369791267 -0.5975441655799791 a48.77195852320394,48.77195852320394 0 0,0 0.010838970632517387,0.8394902204532002 l -27.7717013475415 0.11951768706631614" fill="red" stroke="none" /><path d="M 120.99980553446 99.90962569577887 l 27.182302689237048 -0.11698116387967407 a48.18255440686188,48.18255440686188 0 0,0 -0.0035694157375915983,0.8294065111436121 l -27.180288976209955 -0.35093482546762267" fill="red" stroke="none" /><path d="M 120.99824983174949 100.27111621757518 l 61.4935774809946 0.7939664622241902 a82.4987028656233,82.4987028656233 0 0,0 -0.030555701878905422,1.4198033999876905 l -61.47079971643069 -1.8523596780019953" fill="red" stroke="none" /><path d="M 120.9904718944345 100.63252640178507 l 7.002767138684496 0.21102122539442647 a28.005945871629784,28.005945871629784 0 0,0 -0.01866778617559372,0.4817326127488971 l -6.9980972196577 -0.33153108515732976" fill="red" stroke="none" /><path d="M 120.9764740272857 100.99374915477107 l 6.1711223641547885 0.2923535969577422 a27.178043530036472,27.178043530036472 0 0,0 -0.026160354070457702,0.46711069545986744 l -6.165175659196802 -0.39853600875303297" fill="red" stroke="none" /><path d="M 120.92983693683757 101.71520430193887 l 33.140512661404834 2.7158716074493188 a54.25160955576261,54.25160955576261 0 0,0 -0.08428479354167775,0.9300756733938456 l -33.08885327158608 -3.2859286693917347" fill="red" stroke="none" /><path d="M 120.89721153311464 102.0752229133903 l 27.670060999263796 2.747808936593612 a48.80616351917328,48.80616351917328 0 0,0 -0.09021633049417281,0.8352911754039615 l -27.61866236726857 -3.223696433882365" fill="red" stroke="none" /><path d="M 120.8583938346157 102.4346265915055 l 12.839915624235696 1.4986964125479714 a33.92708490629175,33.92708490629175 0 0,0 -0.07269845792557943,0.5794782383176644 l -12.812215657063268 -1.7194924051530307" fill="red" stroke="none" /><path d="M 120.81339534386255 102.79330883721812 l 27.70645367750487 3.718407334638469 a48.95485876354979,48.95485876354979 0 0,0 -0.11927722885644167,0.8342246608140872 l -27.638342397631828 -4.194777467432965" fill="red" stroke="none" /><path d="M 120.76222939487914 103.15116336523771 l 19.352484961836115 2.937201033579396 a40.57411106818782,40.57411106818782 0 0,0 -0.11074461260851216,0.6896068084271931 l -19.299058594866317 -3.2698870716997943" fill="red" stroke="none" /><path d="M 120.64145759157962 103.86396538481128 l 22.010507794745614 4.120243923845278 a43.39283062443293,43.39283062443293 0 0,0 -0.1437543873770216,0.7330005241753942 l -21.93632347439293 -4.498508175088617" fill="red" stroke="none" /><path d="M 120.5718875245553 104.21870165774334 l 27.41646941083663 5.622328277602532 a48.987021460249565,48.987021460249565 0 0,0 -0.1765071461341009,0.8245826244838943 l -27.315628225978088 -6.093424721502595" fill="red" stroke="none" /><path d="M 120.49622156327973 104.57218783832717 l 29.52708474907753 6.586744653114741 a51.25283356818899,51.25283356818899 0 0,0 -0.1994941719199682,0.8594156713836634 l -29.40933001122701 -7.09402898184697" fill="red" stroke="none" /><path d="M 120.41448212921028 104.9243191809786 l 27.110894728386565 6.539607425723615 a48.888475724862374,48.888475724862374 0 0,0 -0.20437404904778522,0.8163727338574023 l -26.99430936504372 -7.005307998978413" fill="red" stroke="none" /><path d="M 120.32669344350535 105.2749913415812 l 32.53078789384095 8.442082572443878 a54.60834597468357,54.60834597468357 0 0,0 -0.24394828493708726,0.907822319240409 l -32.380651532562084 -9.000795824859836" fill="red" stroke="none" /><path d="M 120.23288151984713 105.62410040840565 l 18.693689633869127 5.1962538010871695 a40.4024505074163,40.4024505074163 0 0,0 -0.19202200230881408,0.6684537809570429 l -18.601474994674213 -5.517265057548794" fill="red" stroke="none" /><path d="M 120.13307415673323 105.97154293290107 l 45.02749274326798 13.355317920358031 a67.96636689694964,67.96636689694964 0 0,0 -0.3423343803677479,1.1187685623764871 l -44.790931590394095 -14.128413455286575" fill="red" stroke="none" /><path d="M 120.02730092923936 106.31721596034902 l 36.890325994875234 11.636323685388154 a59.68203951343947,59.68203951343947 0 0,0 -0.31747363280027263,0.9770833731566276 l -36.68456011105871 -12.269605958522575" fill="red" stroke="none" /><path d="M 119.9155931802556 106.66101706037122 l 20.43061667996332 6.833273055309214 a42.54306660092779,42.54306660092779 0 0,0 -0.2382597481934242,0.6924943551660482 l -20.309966100826664 -7.183940113564563" fill="red" stroke="none" /><path d="M 119.79798401119884 107.00284435728193 l 7.197546342986563 2.5458802656749144 a28.634538603386076,28.634538603386076 0 0,0 -0.16836527689654565,0.46326893201016195 l -7.15265680508479 -2.6693969946912075" fill="red" stroke="none" /><path d="M 119.54520255179757 107.68017299344265 l 18.40983239512291 7.234035932865012 a40.780121452976445,40.780121452976445 0 0,0 -0.26234703802681636,0.651123833458564 l -18.2825827428387 -7.54985913416639" fill="red" stroke="none" /><path d="M 119.41010516605496 108.01547362559984 l 37.94240822064029 15.668455672056375 a62.050296524250676,62.050296524250676 0 0,0 -0.4161773039127139,0.9837202096614935 l -37.66707993553526 -16.319250407384033" fill="red" stroke="none" /><path d="M 119.26925614724726 108.34839909993367 l 23.539607199784296 10.198527335864243 a46.65390938902893,46.65390938902893 0 0,0 -0.3255974453857887,0.7341362841297155 l -23.360568669667234 -10.602211956486647" fill="red" stroke="none" /><path d="M 119.12269723197855 108.67885076344098 l 19.62590928235677 8.907233937352999 a42.552613103149014,42.552613103149014 0 0,0 -0.308456563528251,0.6643879962557357 l -19.469678101988684 -9.243742000887565" fill="red" stroke="none" /><path d="M 118.81262510543309 109.33194174019688 l 13.18660359173282 6.541171993778945 a35.71983170208474,35.71983170208474 0 0,0 -0.27797059103644217,0.548462347191705 l -13.07205433091011 -6.7671885526733435" fill="red" stroke="none" /><path d="M 118.64920377521936 109.65438752849418 l 26.702252703505163 13.82331913955335 a51.068163420398506,51.068163420398506 0 0,0 -0.410849434258933,0.7771722969660421 l -26.460350761021335 -14.280906451605526" fill="red" stroke="none" /><line stroke="#e1ed5e" stroke-width="0.3" x1="174.80103733775053" x2="179.2010983576182" y1="140.37084112569926" y2="142.7455964860345" /><path d="M 175.68104954172406 140.8457921977663 a86.0,86.0 0 0,1 -30.038265399797805,32.042727171017184" fill="none" id="id77" stroke="none" /><text fill="#e1ed5e" style="font-size:6.75px; font-family:Arial;" text-anchor="middle"><textPath startOffset="22.206326154141568" xlink:href="#id77">May</textPath></text><path d="M 118.12598468904814 110.60418214915192 l 33.26436341371953 19.460535511088466 a59.538685962268325,59.538685962268325 0 0,0 -0.5251287274290282,0.8801459525190183 l -32.924453810592276 -20.030243557493588" fill="red" stroke="none" /><path d="M 117.94076556474637 110.91462005526583 l 13.927447719843663 8.473038658973245 a37.30233676824993,37.30233676824993 0 0,0 -0.33844829416026173,0.5456864144692584 l -13.779534786015438 -8.711521404807776" fill="red" stroke="none" /><path d="M 117.75023020441432 111.22182372390056 l 12.533437901414894 7.923729955296807 a35.828100418903674,35.828100418903674 0 0,0 -0.3340460864980955,0.5184469444357128 l -12.395186951539747 -8.138298499653972" fill="red" stroke="none" /><path d="M 117.55443506779139 111.5257021239791 l 15.592520814405116 10.237569570012273 a39.65300340557783,39.65300340557783 0 0,0 -0.3795300259837736,0.5673458935355982 l -15.413987683010623 -10.504452377753678" fill="red" stroke="none" /><path d="M 117.35343817320211 111.8261652097733 l 5.273938154028038 3.5941271863910753 a27.382176265543603,27.382176265543603 0 0,0 -0.26878747501455447,0.38720840487563707 l -5.211289771851346 -3.684376853453732" fill="red" stroke="none" /><path d="M 117.14729908036423 112.12312394758627 l 4.636395924257169 3.277927456471444 a26.678113734010427,26.678113734010427 0 0,0 -0.26833127247261734,0.3726886685481571 l -4.579284859408949 -3.357249730470732" fill="red" stroke="none" /><line stroke="#e1ed5e" stroke-width="0.3" x1="143.8653032363475" x2="146.44561519142675" y1="172.8068346515853" y2="177.08958963109032" /><path d="M 144.38136562736335 173.6633856474863 a86.0,86.0 0 0,1 -40.68145358897372,12.25698825130547" fill="none" id="id78" stroke="none" /><text fill="#e1ed5e" style="font-size:6.75px; font-family:Arial;" text-anchor="middle"><textPath startOffset="21.466115282336833" xlink:href="#id78">June</textPath></text><line stroke="#e1ed5e" stroke-width="0.3" x1="102.19456741930631" x2="102.32365962044197" y1="184.97166512339345" y2="189.96999836594603" /><path d="M 102.22038585953345 185.97133177190398 a86.0,86.0 0 0,1 -42.740103519485714,-10.115201625700543" fill="none" id="id79" stroke="none" /><text fill="#e1ed5e" style="font-size:6.75px; font-family:Arial;" text-anchor="middle"><textPath startOffset="22.20632615414155" xlink:href="#id79">July</textPath></text><line stroke="#e1ed5e" stroke-width="0.3" x1="58.666819895761336" x2="56.23545636021788" y1="174.27360380694188" y2="178.64263932499728" /><path d="M 58.180547188652646 175.14741091055294 a86.0,86.0 0 0,1 -31.652253787137756,-30.449443065178592" fill="none" id="id80" stroke="none" /><text fill="#e1ed5e" style="font-size:6.75px; font-family:Arial;" text-anchor="middle"><textPath startOffset="22.20632615414155" xlink:href="#id80">August</textPath></text><line stroke="#e1ed5e" stroke-width="0.3" x1="26.63291911575756" x2="22.317208475507996" y1="142.92168965132927" y2="145.44649492493687" /><path d="M 25.769776987707644 143.4266507060508 a86.0,86.0 0 0,1 -11.730757126820373,-40.83630448921669" fill="none" id="id81" stroke="none" /><text fill="#e1ed5e" style="font-size:6.75px; font-family:Arial;" text-anchor="middle"><textPath startOffset="21.46611528233685" xlink:href="#id81">September</textPath></text><line stroke="#e1ed5e" stroke-width="0.3" x1="15.007084014347285" x2="10.007500721073583" y1="101.09737516637583" y2="101.16192664675087" /><path d="M 14.007167355692545 101.11028546245083 a86.0,86.0 0 0,1 10.666146001902534,-42.60595125391555" fill="none" id="id82" stroke="none" /><text fill="#e1ed5e" style="font-size:6.75px; font-family:Arial;" text-anchor="middle"><textPath startOffset="22.20632615414155" xlink:href="#id82">October</textPath></text><line stroke="#e1ed5e" stroke-width="0.3" x1="26.266209847984243" x2="21.928928074336255" y1="57.711370442889674" y2="55.22380399835377" /><path d="M 25.398753493254645 57.213857153982495 a86.0,86.0 0 0,1 29.58750427330803,-30.492523968695096" fill="none" id="id83" stroke="none" /><text fill="#e1ed5e" style="font-size:6.75px; font-family:Arial;" text-anchor="middle"><textPath startOffset="21.46611528233685" xlink:href="#id83">November</textPath></text><line stroke="#e1ed5e" stroke-width="0.3" x1="56.762969772571076" x2="54.21961505331055" y1="26.818313649435495" y2="22.513508569990535" /><path d="M 56.25429882871897 25.957352633546506 a86.0,86.0 0 0,1 42.265352541879196,-11.944610805530505" fill="none" id="id84" stroke="none" /><text fill="#e1ed5e" style="font-size:6.75px; font-family:Arial;" text-anchor="middle"><textPath startOffset="22.20632615414155" xlink:href="#id84">December</textPath></text></svg>