<?xml version="1.0" encoding="utf-8" ?>
<svg baseProfile="full" height="200mm" version="1.1" viewBox="0,0,200,200" width="200mm" xmlns="http://www.w3.org/2000/svg" xmlns:ev="http://www.w3.org/2001/xml-events" xmlns:xlink="http://www.w3.org/1999/xlink"><defs /><rect fill="#1a1a1a" height="200" width="200" x="0" y="0" /><text alignment-baseline="middle" fill="#e1ed5e" style="dominant-baseline: central; font-size:9.0px; font-family:Arial;" text-anchor="middle" x="100.0" y="100.0">2021</text><line stroke="#e1ed5e" stroke-width="0.3" x1="100.0" x2="100.0" y1="15.0" y2="10.0" /><path d="M 100.0 14.0 a86.0,86.0 0 0,1 42.46469731375804,11.215312516191453" fill="none" id="id25" stroke="none" /><text fill="#e1ed5e" style="font-size:6.75px; font-family:Arial;" text-anchor="middle"><textPath startOffset="22.20632615414155" xlink:href="#id25">January</textPath></text><line stroke="#e1ed5e" stroke-width="0.3" x1="143.23703022742887" x2="145.7803849466894" y1="26.81831364943548" y2="22.513508569990506" /><path d="M 143.74570117128098 25.957352633546492 a86.0,86.0 0 0,1 28.547481713284135,27.462654790039103" fill="none" id="id26" stroke="none" /><text fill="#e1ed5e" style="font-size:6.75px; font-family:Arial;" text-anchor="middle"><textPath startOffset="19.985693538727396" xlink:href="#id26">February</textPath></text><line stroke="#e1ed5e" stroke-width="0.3" x1="172.23445277983987" x2="176.4835382374775" y1="55.19839476539836" y2="52.563006222186495" /><path d="M 173.08426987136738 54.67131705675599 a86.0,86.0 0 0,1 12.851231095245387,41.99856678651699" fill="none" id="id27" stroke="none" /><text fill="#e1ed5e" style="font-size:6.75px; font-family:Arial;" text-anchor="middle"><textPath startOffset="22.20632615414155" xlink:href="#id27">March</textPath></text><path d="M 118.03404312379186 89.2402003453031 l 11.911537888863812 -7.106878939111551 a34.87056102445123,34.87056102445123 0 0,0 0.303108740990745,0.5181110924951726 l -12.032106304324884 6.900788434262483" fill="#ff0000" stroke="none" /><path d="M 119.47837535516314 92.15188598940014 l 51.730270666288156 -20.842860586963898 a76.7713702597941,76.7713702597941 0 0,0 0.48331763489357027,1.2299906628296147 l -52.081381851063426 19.9493209192385" fill="#42ffd4" stroke="none" /><path d="M 120.08093135843002 93.85539295169968 l 60.24279407529006 -18.433821144900946 a84.0,84.0 0 0,0 0.41117641155319085,1.3862824530138804 l -60.551176383954946 17.394109305140535" fill="#4dd2ff" stroke="none" /><path d="M 120.6074358757038 95.95851677861258 l 27.500942663693195 -5.393422016112807 a49.02482557368789,49.02482557368789 0 0,0 0.15527860873710797,0.8295045369002524 l -27.589706996340162 4.9192394017499925" fill="#fff016" stroke="none" /><path d="M 120.67395015179393 96.31383870115 l 27.63628416207256 -4.9275441013585475 a49.07213731010975,49.07213731010975 0 0,0 0.14111309635150182,0.8328574826209394 l -27.717009119944283 4.45110083042177" fill="#fff116" stroke="none" /><path d="M 120.73433829027371 96.67025291283417 l 28.34885279314641 -4.552569206259732 a49.71207657180632,49.71207657180632 0 0,0 0.12840891328165455,0.8460542995998266 l -28.423017599867364 4.063915794267824" fill="#fffb17" stroke="none" /><line stroke="#e1ed5e" stroke-width="0.3" x1="184.98032266829074" x2="189.97916517819016" y1="98.17113171792111" y2="98.06355123074" /><path d="M 185.9800911702706 98.14961562048488 a86.0,86.0 0 0,1 -9.607161424134198,41.387399972396054" fill="none" id="id28" stroke="none" /><text fill="#e1ed5e" style="font-size:6.75px; font-family:Arial;" text-anchor="middle"><textPath startOffset="21.466115282336823" xlink:href="#id28">April</textPath></text><line stroke="#e1ed5e" stroke-width="0.3" x1="174.80103733775053" x2="179.2010983576182" y1="140.37084112569926" y2="142.7455964860345" /><path d="M 175.68104954172406 140.8457921977663 a86.0,86.0 0 0,1 -30.038265399797805,32.042727171017184" fill="none" id="id29" stroke="none" /><text fill="#e1ed5e" style="font-size:6.75px; font-family:Arial;" text-anchor="middle"><textPath startOffset="22.206326154141568" xlink:href="#id29">May</textPath></text><path d="M 114.81725581225074 114.88116024355365 l 20.669904851449076 20.759050812843974 a50.294763307086065,50.294763307086065 0 0,0 -0.6187454521730401,0.6055726536062054 l -20.309509446900243 -21.11177356937275" fill="#faff18" stroke="none" /><path d="M 113.20401910651253 116.32954008644616 l 17.802264734146764 22.016235606808156 a49.31316407537548,49.31316407537548 0 0,0 -0.6646534096159488,0.5280408663644149 l -17.420653831813464 -22.319410387177697" fill="#fff517" stroke="none" /><path d="M 112.63410532772338 116.77436683061366 l 17.662678927895065 23.450829945016032 a50.35833190118214,50.35833190118214 0 0,0 -0.6968994340539907,0.5155495408007083 l -17.25639452342251 -23.751389434556508" fill="#f9ff18" stroke="none" /><path d="M 112.34349029814194 116.9893568818739 l 17.503428439840736 24.091402450857743 a50.77861110256521,50.77861110256521 0 0,0 -0.7115598846321028,0.5076790845983048 l -17.086141227359747 -24.389125797300267" fill="#f3ff19" stroke="none" /><path d="M 112.04921762599082 117.19931262002967 l 17.15245146406323 24.483778456615777 a50.89418001450596,50.89418001450596 0 0,0 -0.7218324347659165,0.4964829306515473 l -16.72846214467443 -24.77540217663242" fill="#f1ff19" stroke="none" /><line stroke="#e1ed5e" stroke-width="0.3" x1="143.8653032363475" x2="146.44561519142675" y1="172.8068346515853" y2="177.08958963109032" /><path d="M 144.38136562736335 173.6633856474863 a86.0,86.0 0 0,1 -40.68145358897372,12.25698825130547" fill="none" id="id30" stroke="none" /><text fill="#e1ed5e" style="font-size:6.75px; font-family:Arial;" text-anchor="middle"><textPath startOffset="21.466115282336833" xlink:href="#id30">June</textPath></text><path d="M 110.8373102113329 117.98757091392108 l 15.053975662461376 24.986315744823685 a50.17084430978993,50.17084430978993 0 0,0 -0.7435608898495,0.4393088800434374 l -14.621646901583492 -25.241743197160872" fill="#fcff18" stroke="none" /><path d="M 110.5260780823613 118.17145234162733 l 14.636879576913842 25.268039775205906 a50.20123418334344,50.20123418334344 0 0,0 -0.7514676127434124,0.4267029226156802 l -14.199763197249231 -25.516245863616213" fill="#fcff18" stroke="none" /><path d="M 110.21172684928248 118.3499491758327 l 14.066063108032779 25.275993663558733 a49.92628539995106,49.92628539995106 0 0,0 -0.7545459082895145,0.411438591017677 l -13.628894387874617 -25.51437290633618" fill="#fffe18" stroke="none" /><path d="M 109.57404056367764 118.69057910512821 l 13.346197464761914 26.054637831195347 a50.273966920852615,50.273966920852615 0 0,0 -0.7736112359885564,0.3879047336304797 l -12.895732321090598 -26.28051040573513" fill="#faff18" stroke="none" /><path d="M 109.2508944713604 118.85261126421891 l 14.118057201128615 28.771514478182514 a53.04870644039484,53.04870644039484 0 0,0 -0.8232334003761498,0.39520205999190566 l -13.620711132752232 -29.01027081467398" fill="#d1ff1c" stroke="none" /><path d="M 108.92500713936063 119.00905698771935 l 13.762099189256405 29.31140823467869 a53.38138395428648,53.38138395428648 0 0,0 -0.8351187171052692,0.3833620430365513 l -13.255512476383716 -29.543957348049318" fill="#ccff1d" stroke="none" /><path d="M 106.57524785965236 119.94407469862006 l 9.321807932473218 28.27495445035045 a50.77195244352163,50.77195244352163 0 0,0 -0.8323666425886842,0.2664975136846735 l -8.833719944793593 -28.43122481069483" fill="#f3ff19" stroke="none" /><path d="M 106.2309692047433 120.05430185196036 l 8.68702766671428 27.95909742131296 a50.27756100321078,50.27756100321078 0 0,0 -0.8286820041580204,0.24967509007067626 l -8.204470688116015 -28.104487880489366" fill="#faff18" stroke="none" /><path d="M 105.88484417918355 120.15858648285463 l 8.471145977708176 29.01798647525245 a51.22918876274346,51.22918876274346 0 0,0 -0.8486208597068678,0.23982873159781384 l -7.970393949896702 -29.159504000188782" fill="#ecff1a" stroke="none" /><path d="M 104.48393922423573 120.51570834832081 l 6.258939034203919 28.63700005156399 a50.31300206030009,50.31300206030009 0 0,0 -0.8476747490502604,0.17763848545068872 l -5.76507282372428 -28.740494517741222" fill="#faff18" stroke="none" /><path d="M 103.41894727170886 120.7198165907248 l 4.731584277886637 28.674779290283396 a50.062533563425085,50.062533563425085 0 0,0 -0.851454360273826,0.13297966003143713 l -4.237294054004294 -28.75197725766194" fill="#feff18" stroke="none" /><line stroke="#e1ed5e" stroke-width="0.3" x1="102.19456741930631" x2="102.32365962044197" y1="184.97166512339345" y2="189.96999836594603" /><path d="M 102.22038585953345 185.97133177190398 a86.0,86.0 0 0,1 -42.740103519485714,-10.115201625700543" fill="none" id="id31" stroke="none" /><text fill="#e1ed5e" style="font-size:6.75px; font-family:Arial;" text-anchor="middle"><textPath startOffset="22.20632615414155" xlink:href="#id31">July</textPath></text><line stroke="#e1ed5e" stroke-width="0.3" x1="58.666819895761336" x2="56.23545636021788" y1="174.27360380694188" y2="178.64263932499728" /><path d="M 58.180547188652646 175.14741091055294 a86.0,86.0 0 0,1 -31.652253787137756,-30.449443065178592" fill="none" id="id32" stroke="none" /><text fill="#e1ed5e" style="font-size:6.75px; font-family:Arial;" text-anchor="middle"><textPath startOffset="22.20632615414155" xlink:href="#id32">August</textPath></text><line stroke="#e1ed5e" stroke-width="0.3" x1="26.63291911575756" x2="22.317208475507996" y1="142.92168965132927" y2="145.44649492493687" /><path d="M 25.769776987707644 143.4266507060508 a86.0,86.0 0 0,1 -11.730757126820373,-40.83630448921669" fill="none" id="id33" stroke="none" /><text fill="#e1ed5e" style="font-size:6.75px; font-family:Arial;" text-anchor="middle"><textPath startOffset="21.46611528233685" xlink:href="#id33">September</textPath></text><line stroke="#e1ed5e" stroke-width="0.3" x1="15.007084014347285" x2="10.007500721073583" y1="101.09737516637583" y2="101.16192664675087" /><path d="M 14.007167355692545 101.11028546245083 a86.0,86.0 0 0,1 10.666146001902534,-42.60595125391555" fill="none" id="id34" stroke="none" /><text fill="#e1ed5e" style="font-size:6.75px; font-family:Arial;" text-anchor="middle"><textPath startOffset="22.20632615414155" xlink:href="#id34">October</textPath></text><line stroke="#e1ed5e" stroke-width="0.3" x1="26.266209847984243" x2="21.928928074336255" y1="57.711370442889674" y2="55.22380399835377" /><path d="M 25.398753493254645 57.213857153982495 a86.0,86.0 0 0,1 29.58750427330803,-30.492523968695096" fill="none" id="id35" stroke="none" /><text fill="#e1ed5e" style="font-size:6.75px; font-family:Arial;" text-anchor="middle"><textPath startOffset="21.46611528233685" xlink:href="#id35">November</textPath></text><line stroke="#e1ed5e" stroke-width="0.3" x1="56.762969772571076" x2="54.21961505331055" y1="26.818313649435495" y2="22.513508569990535" /><path d="M 56.25429882871897 25.957352633546506 a86.0,86.0 0 0,1 42.265352541879196,-11.944610805530505" fill="none" id="id36" stroke="none" /><text fill="#e1ed5e" style="font-size:6.75px; font-family:Arial;" text-anchor="middle"><textPath startOffset="22.20632615414155" xlink:href="#id36">December</textPath></text></svg>