<?xml version="1.0" encoding="utf-8" ?>
<svg baseProfile="full" height="200mm" version="1.1" viewBox="0,0,200,200" width="200mm" xmlns="http://www.w3.org/2000/svg" xmlns:ev="http://www.w3.org/2001/xml-events" xmlns:xlink="http://www.w3.org/1999/xlink"><defs /><rect fill="#1a1a1a" height="200" width="200" x="0" y="0" /><rect fill="#1a1a1a" height="200" width="180" x="10" y="0" /><text alignment-baseline="middle" fill="#e1ed5e" style="dominant-baseline: central; font-size:9.0px; font-family:Arial;" text-anchor="middle" x="100.0" y="100.0">2026</text><line stroke="#e1ed5e" stroke-width="0.3" x1="100.0" x2="100.0" y1="15.0" y2="10.0" /><path d="M 100.0 14.0 a86.0,86.0 0 0,1 42.46469731375804,11.215312516191453" fill="none" id="id73" stroke="none" /><text fill="#e1ed5e" style="font-size:6.75px; font-family:Arial;" text-anchor="middle"><textPath startOffset="22.20632615414155" xlink:href="#id73">January</textPath></text><path d="M 101.08401301168833 79.027996857942 l 1.155351794014095 -22.352168463834328 a43.3820077920539,43.3820077920539 0 0,0 0.7454226099480343,0.04496592749291364 l -1.5399364528017412 22.32896926696111" fill="red" stroke="none" /><path d="M 101.44485096284872 79.0497635885617 l 1.17071401422034 -16.975270113494833 a38.015591871257456,38.015591871257456 0 0,0 0.6524377270284962,0.05064172454041746 l -1.4627419306111775 16.95260312676595" fill="red" stroke="none" /><path d="M 101.80526077348638 79.07773832637324 l 0.9035485367541856 -10.471771833985573 a31.510680534643043,31.510680534643043 0 0,0 0.53999534060498,0.05127906424893329 l -1.0836690044494097 10.45466722522146" fill="red" stroke="none" /><path d="M 103.95276090670814 79.375362276772 l 3.0467168665920803 -15.897099040842637 a37.18642151865373,37.18642151865373 0 0,0 0.6276246141869236,0.12589559322007862 l -3.319907890246129 15.84229949154535" fill="red" stroke="none" /><path d="M 104.307194497241 79.44645832069477 l 5.7950574130269334 -27.653488633706154 a49.25417002912656,49.25417002912656 0 0,0 0.8283080243602517,0.18103605184473778 l -6.2702081615407135 27.549639083765545" fill="red" stroke="none" /><path d="M 104.66035177308747 79.52364482259891 l 2.3373810788528684 -10.269835301256759 a31.532467299864685,31.532467299864685 0 0,0 0.5282083375105329,0.12500984776181528 l -2.5138131033259246 10.228079541354074" fill="red" stroke="none" /><path d="M 106.0581310904928 79.89281104454417 l 1.1618908320830437 -3.856363977162663 a25.027596483020172,25.027596483020172 0 0,0 0.4114234472301118,0.12783126776111647 l -1.2280996520238736 3.835792574519026" fill="red" stroke="none" /><path d="M 106.40334571778207 80.00007090966166 l 1.6560375352640704 -5.172394984741212 a26.431033989617404,26.431033989617404 0 0,0 0.4321060949776278,0.14245858577439693 l -1.7448264524841157 5.143122674707579" fill="red" stroke="none" /><path d="M 106.74666289553966 80.11325718540242 l 5.047798982544878 -14.879101223809965 a36.712031307140535,36.712031307140535 0 0,0 0.5966893786914078,0.20817320792235733 l -5.303170365299559 14.790007162715401" fill="red" stroke="none" /><path d="M 107.08798089147638 80.2323363322302 l 4.116681014719345 -11.481008057502667 a33.1967458198239,33.1967458198239 0 0,0 0.5362344242342671,0.1974996639139452 l -4.313697764726188 11.408445125782398" fill="red" stroke="none" /><path d="M 107.4271985657038 80.35727306442388 l 10.480389986344745 -27.717508406294836 a50.632732687332435,50.632732687332435 0 0,0 0.8125753960810801,0.3152666295632532 l -10.955948547425493 27.532999072841037" fill="red" stroke="none" /><path d="M 107.76421540070413 80.48803036053334 l 6.219464963383893 -15.629913040314102 a37.82188830299799,37.82188830299799 0 0,0 0.6028379094114151,0.24591271960738065 l -6.487586742383696 15.520539434523142" fill="red" stroke="none" /><path d="M 108.09893153111575 80.62456947434976 l 5.820001991302783 -13.92344703846361 a36.090884686182896,36.090884686182896 0 0,0 0.5711231989016837,0.2445251480662184 l -6.058808947994782 13.821202362434601" fill="red" stroke="none" /><path d="M 108.43124777332544 80.76684994638697 l 3.000298557217138 -6.844205496980188 a28.472947231001505,28.472947231001505 0 0,0 0.4471851017493368,0.20063892002208808 l -3.1176657774332552 6.791546246441569" fill="red" stroke="none" /><path d="M 108.76106565485865 80.91482961587045 l 1.7353986337035494 -3.7804052513007034 a25.15969617663623,25.15969617663623 0 0,0 0.39203813267036064,0.184067159946179 l -1.8002149776735081 3.7499731087145216" fill="red" stroke="none" /><path d="M 109.08828744355905 81.06846463323043 l 3.988426231969521 -8.30816946946313 a30.215922294658405,30.215922294658405 0 0,0 0.46694928468555896,0.2291299860567256 l -4.130846783665511 8.238284323271571" fill="red" stroke="none" /><path d="M 109.41281617654863 81.2277094730956 l 4.9983227663796095 -9.968320357884961 a32.1512618673553,32.1512618673553 0 0,0 0.49258720555281577,0.2523222988750155 l -5.1691704595211805 9.880805533697444" fill="red" stroke="none" /><path d="M 109.73455568895987 81.39251694778311 l 2.604694477343801 -4.978841345408789 a26.61901187603811,26.61901187603811 0 0,0 0.40417160919983164,0.21589447628532105 l -2.690011133071944 4.9332681426217135" fill="red" stroke="none" /><path d="M 110.05341064243156 81.56283822128135 l 2.602211296131213 -4.772250170174718 a26.435611770210002,26.435611770210002 0 0,0 0.3976368070882436,0.22128445263237112 l -2.6839721922914914 4.726750319982167" fill="red" stroke="none" /><line stroke="#e1ed5e" stroke-width="0.3" x1="143.23703022742887" x2="145.7803849466894" y1="26.81831364943548" y2="22.513508569990506" /><path d="M 143.74570117128098 25.957352633546492 a86.0,86.0 0 0,1 28.547481713284135,27.462654790039103" fill="none" id="id74" stroke="none" /><text fill="#e1ed5e" style="font-size:6.75px; font-family:Arial;" text-anchor="middle"><textPath startOffset="19.985693538727396" xlink:href="#id74">February</textPath></text><path d="M 110.68208982089419 81.91981866633111 l 3.993544552834567 -6.75935241979555 a28.8509390031047,28.8509390031047 0 0,0 0.42539738764772916,0.25629716625389903 l -4.109304006699934 6.6896086440830365" fill="red" stroke="none" /><path d="M 110.99172775467656 82.1063720568725 l 4.87794798825 -7.940897771102155 a30.319454597087073,30.319454597087073 0 0,0 0.44234762852696274,0.2769980444025346 l -5.013914769149226 7.855755385376676" fill="red" stroke="none" /><path d="M 111.2981086023043 82.29822771554956 l 5.726057255147376 -8.97153365986154 a31.64312679146756,31.64312679146756 0 0,0 0.45661480119540676,0.2969949682645104 l -5.879639082127063 8.871639767437502" fill="red" stroke="none" /><path d="M 111.60114157652 82.49532879139004 l 10.330049814771296 -15.586752767685434 a39.69911203818529,39.69911203818529 0 0,0 0.5663651239461455,0.3824122598878737 l -10.596819633123985 15.40662859549889" fill="red" stroke="none" /><path d="M 111.90073688211348 82.69761687909136 l 8.411329938791162 -12.229163168548915 a35.84260432478741,35.84260432478741 0 0,0 0.5053275722282815,0.3540142577036106 l -8.620588650603095 12.08256406808137" fill="red" stroke="none" /><path d="M 112.77801427241765 83.33499621200491 l 14.394152266577182 -18.77276053488873 a44.656038501272455,44.656038501272455 0 0,0 0.6059770089718912,0.4729746673506067 l -14.715161830708503 18.522207478314897" fill="red" stroke="none" /><line stroke="#e1ed5e" stroke-width="0.3" x1="172.23445277983987" x2="176.4835382374775" y1="55.19839476539836" y2="52.563006222186495" /><path d="M 173.08426987136738 54.67131705675599 a86.0,86.0 0 0,1 12.851231095245387,41.99856678651699" fill="none" id="id75" stroke="none" /><text fill="#e1ed5e" style="font-size:6.75px; font-family:Arial;" text-anchor="middle"><textPath startOffset="22.20632615414155" xlink:href="#id75">March</textPath></text><path d="M 118.03404312379186 89.2402003453031 l 8.640906997227626 -5.155495497422816 a31.062028004268537,31.062028004268537 0 0,0 0.2700034620719518,0.46152343958912523 l -8.728370133769905 5.005992645479795" fill="red" stroke="none" /><path d="M 118.21658344932153 89.55222093294921 l 12.440540251341439 -7.135038048290488 a35.34140194317834,35.34140194317834 0 0,0 0.29811710953556203,0.5303170730627625 l -12.561515002169434 6.9198374652929315" fill="red" stroke="none" /><path d="M 118.3937258080291 89.86733742301442 l 8.195351021066228 -4.514622402393866 a30.356580240380982,30.356580240380982 0 0,0 0.24818947441420014,0.4598574026409196 l -8.271848594698893 4.372884016420488" fill="red" stroke="none" /><path d="M 118.56541770881063 90.18545643968196 l 7.258238031980234 -3.837042314551337 a29.210049515839827,29.210049515839827 0 0,0 0.23116355649802334,0.446534413271933 l -7.3232110216383735 3.711535179019059" fill="red" stroke="none" /><path d="M 118.73160827565052 90.50648371742162 l 7.721108826040718 -3.9131969492903393 a29.656132616099356,29.656132616099356 0 0,0 0.22685527425248625,0.4573263899965395 l -7.787324113246612 3.77971097079485" fill="red" stroke="none" /><path d="M 119.34039704204932 91.81776055985345 l 6.67462438031479 -2.823798018936042 a28.247375102065554,28.247375102065554 0 0,0 0.18559643649884916,0.44943649235925354 l -6.722242503699836 2.7084869561234854" fill="red" stroke="none" /><path d="M 120.08093135843002 93.85539295169968 l 10.02734295216534 -3.0682880728903004 a31.486276668988893,31.486276668988893 0 0,0 0.15412397921340248,0.519629438773329 l -10.078672828490445 2.8952292473704415" fill="red" stroke="none" /><path d="M 120.18372546131832 94.20196356495316 l 4.755578266208267 -1.366101422159925 a25.947904378791065,25.947904378791065 0 0,0 0.11962382952123672,0.430350561671372 l -4.778388866295867 1.2840395570696013" fill="red" stroke="none" /><path d="M 120.28053869075195 94.5502522615342 l 10.033932323328715 -2.6962991871569484 a31.389890623861447,31.389890623861447 0 0,0 0.13572939099221962,0.5230207109961784 l -10.078858046191238 2.5231820506119194" fill="red" stroke="none" /><path d="M 120.37134235888165 94.90015583598534 l 19.354339419044067 -4.845243538481733 a40.95161244849052,40.95161244849052 0 0,0 0.16530254819346235,0.6852857810361942 l -19.43487476749835 4.511372525786133" fill="red" stroke="none" /><path d="M 120.45610955862082 95.25157060432595 l 9.682970501749129 -2.2476855452982942 a30.940422931057142,30.940422931057142 0 0,0 0.11596118824786025,0.5198312692111359 l -9.720226076999026 2.080676106537194" fill="red" stroke="none" /><path d="M 120.53481517161879 95.60439243477599 l 16.86512914990295 -3.610087973046485 a38.24718285448499,38.24718285448499 0 0,0 0.1322636832457409,0.644964691997262 l -16.924772129063683 3.3192476248858114" fill="red" stroke="none" /><path d="M 120.6074358757038 95.95851677861258 l 38.12763600226043 -7.477504824167756 a59.85395353778451,59.85395353778451 0 0,0 0.18957820908088827,1.0127343734529541 l -38.25069993525118 6.820092373252239" fill="red" stroke="none" /><path d="M 120.67395015179393 96.31383870115 l 20.227084737518748 -3.6064852822299738 a41.546087050085845,41.546087050085845 0 0,0 0.119470993241593,0.7051245649770439 l -20.286167592280563 3.2577749289370916" fill="red" stroke="none" /><path d="M 120.73433829027371 96.67025291283417 l 12.082225314844303 -1.9402960434698777 a33.23703057506066,33.23703057506066 0 0,0 0.08585300134642086,0.565664010903723 l -12.113834209630024 1.7320329201740725" fill="red" stroke="none" /><path d="M 120.78858239683441 97.02765380044208 l 20.166474232832808 -2.8833973332193543 a41.3715650641949,41.3715650641949 0 0,0 0.09472906540597803,0.7058415677418742 l -20.213119297296622 2.535837423412816" fill="red" stroke="none" /><path d="M 120.83666639777658 97.38593545837742 l 21.868226019388715 -2.7434788816109363 a43.039645768680465,43.039645768680465 0 0,0 0.08589411242933222,0.7358883006440465 l -21.912210484821635 2.3666468426420373" fill="red" stroke="none" /><path d="M 120.87857604477298 97.74499172005257 l 46.696647786462684 -5.043510974045792 a67.96822242152955,67.96822242152955 0 0,0 0.11562001272222033,1.1642777495022685 l -46.77654492486713 4.2389576938390885" fill="red" stroke="none" /><path d="M 120.91429891909075 98.10471618934814 l 22.496715392638578 -2.038684664566521 a43.588900783768125,43.588900783768125 0 0,0 0.061284990256265895,0.7478321103144303 l -22.528474866714337 1.651138637044322" fill="red" stroke="none" /><path d="M 120.96714384426684 98.82574320788733 l 10.62202981489366 -0.5948826768588561 a31.638674860513248,31.638674860513248 0 0,0 0.025772550816045996,0.544017813966545 l -10.630695973943201 0.41195375626931124" fill="red" stroke="none" /><path d="M 120.98425023603335 99.18683210126433 l 22.842392221744408 -0.8851733979590134 a43.859536617273406,43.859536617273406 0 0,0 0.022740763605842686,0.7546552333298693 l -22.854244679805895 0.49184801720414506" fill="red" stroke="none" /><line stroke="#e1ed5e" stroke-width="0.3" x1="184.98032266829074" x2="189.97916517819016" y1="98.17113171792111" y2="98.06355123074" /><path d="M 185.9800911702706 98.14961562048488 a86.0,86.0 0 0,1 -9.607161424134198,41.387399972396054" fill="none" id="id76" stroke="none" /><text fill="#e1ed5e" style="font-size:6.75px; font-family:Arial;" text-anchor="middle"><textPath startOffset="21.466115282336823" xlink:href="#id76">April</textPath></text><path d="M 120.99513854157772 99.54816195383933 l 20.699961255426462 -0.44548551231186884 a41.70475436506882,41.70475436506882 0 0,0 0.009268371037104641,0.7178455509270013 l -20.704562633581283 0.08910370332440477" fill="red" stroke="none" /><path d="M 120.99980553446 99.90962569577887 l 20.26514981964169 -0.0872126559401576 a41.26533748201297,41.26533748201297 0 0,0 -0.0030569808271590703,0.710334684689234 l -20.263648541525026 -0.26163150695276116" fill="red" stroke="none" /><path d="M 120.99824983174949 100.27111621757518 l 45.845143247982776 0.5919237046504873 a66.84896436235161,66.84896436235161 0 0,0 -0.02475938354202578,1.1504712630684544 l -45.82816180175574 -1.3809847835090565" fill="red" stroke="none" /><path d="M 120.9904718944345 100.63252640178507 l 5.220754357712882 0.15732209285697055 a26.22312419003023,26.22312419003023 0 0,0 -0.017479419458973477,0.45106614818172996 l -5.217272805402706 -0.2471654880527067" fill="red" stroke="none" /><path d="M 120.9764740272857 100.99374915477107 l 4.600740441112655 0.21795759948643545 a25.605900359502293,25.605900359502293 0 0,0 -0.024647080241707937,0.44009017468768236 l -4.596307009983417 -0.2971194905095411" fill="red" stroke="none" /><path d="M 120.92983693683757 101.71520430193887 l 24.70715825149807 2.0247565353491517 a45.78998402363358,45.78998402363358 0 0,0 -0.07113889120177694,0.7850117365034143 l -24.668644764019216 -2.4497496604011366" fill="red" stroke="none" /><path d="M 120.89721153311464 102.0752229133903 l 20.628786975090662 2.0485666873935764 a41.73025512472938,41.73025512472938 0 0,0 -0.07713678389123475,0.7141908181197034 l -20.590467889698374 -2.4033538273980715" fill="red" stroke="none" /><path d="M 120.8583938346157 102.4346265915055 l 9.57250814147261 1.117319149950818 a30.63749522445569,30.63749522445569 0 0,0 -0.06564957359797163,0.5232916947674753 l -9.551857058627792 -1.2819285990056881" fill="red" stroke="none" /><path d="M 120.81339534386255 102.79330883721812 l 20.655918711696103 2.7721743293197862 a41.84111149474367,41.84111149474367 0 0,0 -0.10194477029279761,0.7130014859888841 l -20.605139890386706 -3.1273212872890794" fill="red" stroke="none" /><path d="M 120.76222939487914 103.15116336523771 l 14.427806636457536 2.1897636736810098 a35.59303495800586,35.59303495800586 0 0,0 -0.097149062892868,0.6049473073699112 l -14.38797581920338 -2.437790210744126" fill="red" stroke="none" /><path d="M 120.64145759157962 103.86396538481128 l 16.409435328800352 3.071754492795567 a37.69446745104769,37.69446745104769 0 0,0 -0.12487650604838263,0.6367426139877772 l -16.354128889776305 -3.353760833851289" fill="red" stroke="none" /><path d="M 120.5718875245553 104.21870165774334 l 20.43972751271803 4.191599445544298 a41.86508966446225,41.86508966446225 0 0,0 -0.15084582158804374,0.7047014592995419 l -20.36454765240554 -4.542814724260009" fill="red" stroke="none" /><path d="M 120.49622156327973 104.57218783832717 l 22.013248951651214 4.910598220655773 a43.55431453828914,43.55431453828914 0 0,0 -0.16952881055440236,0.7303256788871749 l -21.925459575166258 -5.288792556891512" fill="red" stroke="none" /><path d="M 120.41448212921028 104.9243191809786 l 20.21191323253227 4.875456128902746 a41.79162112448831,41.79162112448831 0 0,0 -0.1747062615236952,0.6978646702290354 l -20.124995656713516 -5.2226486385291775" fill="red" stroke="none" /><path d="M 120.32669344350535 105.2749913415812 l 24.25259176738925 6.2938033644994045 a46.05594077712152,46.05594077712152 0 0,0 -0.20574268572337873,0.7656450717344337 l -24.140661005324098 -6.710339369409387" fill="red" stroke="none" /><path d="M 120.23288151984713 105.62410040840565 l 13.936656707977882 3.8739492744155646 a35.46505731674679,35.46505731674679 0 0,0 -0.16855589778418303,0.5867651926431048 l -13.8679081733076 -4.113271942563252" fill="red" stroke="none" /><path d="M 120.13307415673323 105.97154293290107 l 33.569226892851084 9.956754644343103 a56.0147105832872,56.0147105832872 0 0,0 -0.28213603454900826,0.9220368851878672 l -33.39286408579594 -10.533118502083028" fill="red" stroke="none" /><path d="M 120.02730092923936 106.31721596034902 l 27.50274661158783 8.67519744482894 a49.83851802516857,49.83851802516857 0 0,0 -0.26511184101322766,0.8159303485966397 l -27.349342519558355 -9.147326693403375" fill="red" stroke="none" /><path d="M 119.9155931802556 106.66101706037122 l 15.231583308468716 5.094391884584255 a37.060945138955574,37.060945138955574 0 0,0 -0.20755747439290834,0.6032591760859485 l -15.141635003132578 -5.355823763759504" fill="red" stroke="none" /><path d="M 119.79798401119884 107.00284435728193 l 5.365967579788245 1.8980233424889221 a26.69175725729509,26.69175725729509 0 0,0 -0.15694211678160067,0.43183730142588544 l -5.332501202001418 -1.9901084409209386" fill="red" stroke="none" /><path d="M 119.54520255179757 107.68017299344265 l 13.725033375828769 5.393171566668901 a35.74662133219469,35.74662133219469 0 0,0 -0.2299654805290681,0.5707554633413546 l -13.63016528104231 -5.628626397853069" fill="red" stroke="none" /><path d="M 119.41010516605496 108.01547362559984 l 28.287102674849276 11.68126207947651 a51.6041183749325,51.6041183749325 0 0,0 -0.34611378283548494,0.8181107422644691 l -28.081837910821484 -12.166447347407143" fill="red" stroke="none" /><path d="M 119.26925614724726 108.34839909993367 l 17.549420740871543 7.603280956871761 a40.125690828026606,40.125690828026606 0 0,0 -0.28003703438875677,0.6314095849286426 l -17.415942621751512 -7.904238878293092" fill="red" stroke="none" /><path d="M 119.12269723197855 108.67885076344098 l 14.631651942833242 6.640586424288764 a37.0680623173631,37.0680623173631 0 0,0 -0.26869999948883844,0.5787558942248155 l -14.515177326504572 -6.89146238579241" fill="red" stroke="none" /><path d="M 118.81262510543309 109.33194174019688 l 9.83097349969917 4.876622557163324 a31.974036974460287,31.974036974460287 0 0,0 -0.24882093593663415,0.4909473122512879 l -9.745573893976266 -5.045124081117306" fill="red" stroke="none" /><path d="M 118.64920377521936 109.65438752849418 l 19.907259430700304 10.305662348417908 a43.41663789422501,43.41663789422501 0 0,0 -0.3492920035017798,0.6607288364969842 l -19.72691491897363 -10.646806200001027" fill="red" stroke="none" /><line stroke="#e1ed5e" stroke-width="0.3" x1="174.80103733775053" x2="179.2010983576182" y1="140.37084112569926" y2="142.7455964860345" /><path d="M 175.68104954172406 140.8457921977663 a86.0,86.0 0 0,1 -30.038265399797805,32.042727171017184" fill="none" id="id77" stroke="none" /><text fill="#e1ed5e" style="font-size:6.75px; font-family:Arial;" text-anchor="middle"><textPath startOffset="22.206326154141568" xlink:href="#id77">May</textPath></text><path d="M 118.12598468904814 110.60418214915192 l 24.79949237343125 14.508361275029797 a49.731644033480904,49.731644033480904 0 0,0 -0.4386310265699436,0.735170830540735 l -24.546080471163076 -14.933094199456637" fill="red" stroke="none" /><path d="M 117.94076556474637 110.91462005526583 l 10.38329305190225 6.316881973347203 a33.153837767013364,33.153837767013364 0 0,0 -0.30080849644418056,0.4849990757784311 l -10.273019915790107 -6.494677380490908" fill="red" stroke="none" /><path d="M 117.75023020441432 111.22182372390056 l 9.34402062000132 5.9073573166431235 a32.054754262918145,32.054754262918145 0 0,0 -0.298864999539197,0.46384511620602625 l -9.240950757085074 -6.067324032770602" fill="red" stroke="none" /><path d="M 117.55443506779139 111.5257021239791 l 11.624650567036646 7.632388009844748 a34.90632401242425,34.90632401242425 0 0,0 -0.3340982251440216,0.49943151554785387 l -11.491549236481903 -7.831356439598409" fill="red" stroke="none" /><path d="M 117.35343817320211 111.8261652097733 l 3.931865083425077 2.679520080979083 a25.758086894816806,25.758086894816806 0 0,0 -0.2528451745588764,0.3642423320362796 l -3.8851590017040643 -2.746803675202382" fill="red" stroke="none" /><path d="M 117.14729908036423 112.12312394758627 l 3.456559920710854 2.443784537415705 a25.23318902847212,25.23318902847212 0 0,0 -0.2537980678866449,0.3525033184882352 l -3.4139820604486064 -2.502921461355071" fill="red" stroke="none" /><path d="M 116.93607887273984 112.41649034213515 l 39.21509778377823 28.7500953766754 a69.62501288801084,69.62501288801084 0 0,0 -0.7169345044400646,0.9604509284597473 l -38.71440201264308 -29.42085918464446" fill="red" stroke="none" /><path d="M 116.498646956653 112.99209946851258 l 49.495940869959 38.97629840553772 a84.0,84.0 0 0,0 -0.9043283517805842,1.1282886656869988 l -48.81769460612357 -39.822514904802965" fill="red" stroke="none" /><line stroke="#e1ed5e" stroke-width="0.3" x1="143.8653032363475" x2="146.44561519142675" y1="172.8068346515853" y2="177.08958963109032" /><path d="M 144.38136562736335 173.6633856474863 a86.0,86.0 0 0,1 -40.68145358897372,12.25698825130547" fill="none" id="id78" stroke="none" /><text fill="#e1ed5e" style="font-size:6.75px; font-family:Arial;" text-anchor="middle"><textPath startOffset="21.466115282336833" xlink:href="#id78">June</textPath></text><line stroke="#e1ed5e" stroke-width="0.3" x1="102.19456741930631" x2="102.32365962044197" y1="184.97166512339345" y2="189.96999836594603" /><path d="M 102.22038585953345 185.97133177190398 a86.0,86.0 0 0,1 -42.740103519485714,-10.115201625700543" fill="none" id="id79" stroke="none" /><text fill="#e1ed5e" style="font-size:6.75px; font-family:Arial;" text-anchor="middle"><textPath startOffset="22.20632615414155" xlink:href="#id79">July</textPath></text><line stroke="#e1ed5e" stroke-width="0.3" x1="58.666819895761336" x2="56.23545636021788" y1="174.27360380694188" y2="178.64263932499728" /><path d="M 58.180547188652646 175.14741091055294 a86.0,86.0 0 0,1 -31.652253787137756,-30.449443065178592" fill="none" id="id80" stroke="none" /><text fill="#e1ed5e" style="font-size:6.75px; font-family:Arial;" text-anchor="middle"><textPath startOffset="22.20632615414155" xlink:href="#id80">August</textPath></text><line stroke="#e1ed5e" stroke-width="0.3" x1="26.63291911575756" x2="22.317208475507996" y1="142.92168965132927" y2="145.44649492493687" /><path d="M 25.769776987707644 143.4266507060508 a86.0,86.0 0 0,1 -11.730757126820373,-40.83630448921669" fill="none" id="id81" stroke="none" /><text fill="#e1ed5e" style="font-size:6.75px; font-family:Arial;" text-anchor="middle"><textPath startOffset="21.46611528233685" xlink:href="#id81">September</textPath></text><line stroke="#e1ed5e" stroke-width="0.3" x1="15.007084014347285" x2="10.007500721073583" y1="101.09737516637583" y2="101.16192664675087" /><path d="M 14.007167355692545 101.11028546245083 a86.0,86.0 0 0,1 10.666146001902534,-42.60595125391555" fill="none" id="id82" stroke="none" /><text fill="#e1ed5e" style="font-size:6.75px; font-family:Arial;" text-anchor="middle"><textPath startOffset="22.20632615414155" xlink:href="#id82">October</textPath></text><line stroke="#e1ed5e" stroke-width="0.3" x1="26.266209847984243" x2="21.928928074336255" y1="57.711370442889674" y2="55.22380399835377" /><path d="M 25.398753493254645 57.213857153982495 a86.0,86.0 0 0,1 29.58750427330803,-30.492523968695096" fill="none" id="id83" stroke="none" /><text fill="#e1ed5e" style="font-size:6.75px; font-family:Arial;" text-anchor="middle"><textPath startOffset="21.46611528233685" xlink:href="#id83">November</textPath></text><line stroke="#e1ed5e" stroke-width="0.3" x1="56.762969772571076" x2="54.21961505331055" y1="26.818313649435495" y2="22.513508569990535" /><path d="M 56.25429882871897 25.957352633546506 a86.0,86.0 0 0,1 42.265352541879196,-11.944610805530505" fill="none" id="id84" stroke="none" /><text fill="#e1ed5e" style="font-size:6.75px; font-family:Arial;" text-anchor="middle"><textPath startOffset="22.20632615414155" xlink:href="#id84">December</textPath></text></svg>