<?xml version="1.0" encoding="utf-8" ?>
<svg baseProfile="full" height="200mm" version="1.1" viewBox="0,0,200,200" width="200mm" xmlns="http://www.w3.org/2000/svg" xmlns:ev="http://www.w3.org/2001/xml-events" xmlns:xlink="http://www.w3.org/1999/xlink"><defs /><rect fill="#1a1a1a" height="200" width="200" x="0" y="0" /><text alignment-baseline="middle" fill="#e1ed5e" style="dominant-baseline: central; font-size:9.0px; font-family:Arial;" text-anchor="middle" x="100.0" y="100.0">2022</text><line stroke="#e1ed5e" stroke-width="0.3" x1="100.0" x2="100.0" y1="15.0" y2="10.0" /><path d="M 100.0 14.0 a86.0,86.0 0 0,1 42.46469731375804,11.215312516191453" fill="none" id="id37" stroke="none" /><text fill="#e1ed5e" style="font-size:6.75px; font-family:Arial;" text-anchor="middle"><textPath startOffset="22.20632615414155" xlink:href="#id37">January</textPath></text><path d="M 105.36241919743992 79.69619591428918 l 4.368305935815316 -16.539778902325452 a38.1069103840141,38.1069103840141 0 0,0 0.6327600040985052,0.1729572117677531 l -4.652363829137532 16.462135149731402" fill="#ff0000" stroke="none" /><line stroke="#e1ed5e" stroke-width="0.3" x1="143.23703022742887" x2="145.7803849466894" y1="26.81831364943548" y2="22.513508569990506" /><path d="M 143.74570117128098 25.957352633546492 a86.0,86.0 0 0,1 28.547481713284135,27.462654790039103" fill="none" id="id38" stroke="none" /><text fill="#e1ed5e" style="font-size:6.75px; font-family:Arial;" text-anchor="middle"><textPath startOffset="19.985693538727396" xlink:href="#id38">February</textPath></text><line stroke="#e1ed5e" stroke-width="0.3" x1="172.23445277983987" x2="176.4835382374775" y1="55.19839476539836" y2="52.563006222186495" /><path d="M 173.08426987136738 54.67131705675599 a86.0,86.0 0 0,1 12.851231095245387,41.99856678651699" fill="none" id="id39" stroke="none" /><text fill="#e1ed5e" style="font-size:6.75px; font-family:Arial;" text-anchor="middle"><textPath startOffset="22.20632615414155" xlink:href="#id39">March</textPath></text><line stroke="#e1ed5e" stroke-width="0.3" x1="184.98032266829074" x2="189.97916517819016" y1="98.17113171792111" y2="98.06355123074" /><path d="M 185.9800911702706 98.14961562048488 a86.0,86.0 0 0,1 -9.607161424134198,41.387399972396054" fill="none" id="id40" stroke="none" /><text fill="#e1ed5e" style="font-size:6.75px; font-family:Arial;" text-anchor="middle"><textPath startOffset="21.466115282336823" xlink:href="#id40">April</textPath></text><path d="M 120.13307415673323 105.97154293290107 l 40.37898870268692 11.976554735163562 a63.11769927211227,63.11769927211227 0 0,0 -0.3179125125713635,1.038956485378089 l -40.16684941760942 -12.669838193093709" fill="#5aff2a" stroke="none" /><path d="M 120.02730092923936 106.31721596034902 l 40.276606196182016 12.704458798027197 a63.23278678980465,63.23278678980465 0 0,0 -0.3363615368694606,1.0352143645621132 l -40.05195240829631 -13.395872062567106" fill="#59ff2a" stroke="none" /><path d="M 119.67450827220406 107.3425965602758 l 59.02352481661219 22.027789680827375 a84.0,84.0 0 0,0 -0.517222881625973,1.3503057326674246 l -58.635607655392704 -23.040518980327946" fill="#4dd2ff" stroke="none" /><path d="M 119.54520255179757 107.68017299344265 l 39.30662240644081 15.445307311058302 a63.23231088793917,63.23231088793917 0 0,0 -0.40678666168687627,1.0096111339755118 l -39.03493313049654 -16.119617812876626" fill="#59ff2a" stroke="none" /><path d="M 119.41010516605496 108.01547362559984 l 38.982543473045226 16.09798331301366 a63.175629958234495,63.175629958234495 0 0,0 -0.4237250234369096,1.0015607890563882 l -38.69966746841601 -16.76661862773621" fill="#5aff2a" stroke="none" /><line stroke="#e1ed5e" stroke-width="0.3" x1="174.80103733775053" x2="179.2010983576182" y1="140.37084112569926" y2="142.7455964860345" /><path d="M 175.68104954172406 140.8457921977663 a86.0,86.0 0 0,1 -30.038265399797805,32.042727171017184" fill="none" id="id41" stroke="none" /><text fill="#e1ed5e" style="font-size:6.75px; font-family:Arial;" text-anchor="middle"><textPath startOffset="22.206326154141568" xlink:href="#id41">May</textPath></text><path d="M 118.48025628344425 109.97397251340804 l 36.98503005729822 19.96117735280193 a63.027860398184266,63.027860398184266 0 0,0 -0.5235021769162052,0.9503085125891713 l -36.6359514709305 -20.59485638378891" fill="#5cff2a" stroke="none" /><path d="M 118.30583269289576 110.29060199501025 l 36.74473046073513 20.656006363048416 a63.152648973728475,63.152648973728475 0 0,0 -0.5408513264578354,0.9430198761732139 l -36.38372713812491 -21.285446085079947" fill="#5aff2a" stroke="none" /><line stroke="#e1ed5e" stroke-width="0.3" x1="143.8653032363475" x2="146.44561519142675" y1="172.8068346515853" y2="177.08958963109032" /><path d="M 144.38136562736335 173.6633856474863 a86.0,86.0 0 0,1 -40.68145358897372,12.25698825130547" fill="none" id="id42" stroke="none" /><text fill="#e1ed5e" style="font-size:6.75px; font-family:Arial;" text-anchor="middle"><textPath startOffset="21.466115282336833" xlink:href="#id42">June</textPath></text><line stroke="#e1ed5e" stroke-width="0.3" x1="102.19456741930631" x2="102.32365962044197" y1="184.97166512339345" y2="189.96999836594603" /><path d="M 102.22038585953345 185.97133177190398 a86.0,86.0 0 0,1 -42.740103519485714,-10.115201625700543" fill="none" id="id43" stroke="none" /><text fill="#e1ed5e" style="font-size:6.75px; font-family:Arial;" text-anchor="middle"><textPath startOffset="22.20632615414155" xlink:href="#id43">July</textPath></text><path d="M 94.81253420990036 120.34920634021253 l -6.259841097291435 24.55588206265146 a46.34121059535607,46.34121059535607 0 0,0 -0.7712712378458295,-0.20369974389028023 l 6.681602777948754 -24.4444909694576" fill="#ff9b0e" stroke="none" /><path d="M 93.42475214034765 119.94407469862007 l -8.312763016207214 25.214314362885276 a47.549268874189835,47.549268874189835 0 0,0 -0.7751216148733839,-0.2629633362964979 l 8.745554364017824 -25.067488039690655" fill="#ffb010" stroke="none" /><path d="M 91.40352486487194 119.15986991738527 l -17.24957277916421 38.44594038651089 a63.138320959274495,63.138320959274495 0 0,0 -0.9877599585062095,-0.4534321503836049 l 17.90880073343784 -38.14332116579321" fill="#5aff2a" stroke="none" /><line stroke="#e1ed5e" stroke-width="0.3" x1="58.666819895761336" x2="56.23545636021788" y1="174.27360380694188" y2="178.64263932499728" /><path d="M 58.180547188652646 175.14741091055294 a86.0,86.0 0 0,1 -31.652253787137756,-30.449443065178592" fill="none" id="id44" stroke="none" /><text fill="#e1ed5e" style="font-size:6.75px; font-family:Arial;" text-anchor="middle"><textPath startOffset="22.20632615414155" xlink:href="#id44">August</textPath></text><path d="M 89.4739219176387 118.17145234162733 l -21.142978417635504 36.499693586724035 a63.181194486327016,63.181194486327016 0 0,0 -0.9363817938547335,-0.5532308688729568 l 21.76812808251862 -36.13034414555733" fill="#5aff2a" stroke="none" /><line stroke="#e1ed5e" stroke-width="0.3" x1="26.63291911575756" x2="22.317208475507996" y1="142.92168965132927" y2="145.44649492493687" /><path d="M 25.769776987707644 143.4266507060508 a86.0,86.0 0 0,1 -11.730757126820373,-40.83630448921669" fill="none" id="id45" stroke="none" /><text fill="#e1ed5e" style="font-size:6.75px; font-family:Arial;" text-anchor="middle"><textPath startOffset="21.46611528233685" xlink:href="#id45">September</textPath></text><line stroke="#e1ed5e" stroke-width="0.3" x1="15.007084014347285" x2="10.007500721073583" y1="101.09737516637583" y2="101.16192664675087" /><path d="M 14.007167355692545 101.11028546245083 a86.0,86.0 0 0,1 10.666146001902534,-42.60595125391555" fill="none" id="id46" stroke="none" /><text fill="#e1ed5e" style="font-size:6.75px; font-family:Arial;" text-anchor="middle"><textPath startOffset="22.20632615414155" xlink:href="#id46">October</textPath></text><line stroke="#e1ed5e" stroke-width="0.3" x1="26.266209847984243" x2="21.928928074336255" y1="57.711370442889674" y2="55.22380399835377" /><path d="M 25.398753493254645 57.213857153982495 a86.0,86.0 0 0,1 29.58750427330803,-30.492523968695096" fill="none" id="id47" stroke="none" /><text fill="#e1ed5e" style="font-size:6.75px; font-family:Arial;" text-anchor="middle"><textPath startOffset="21.46611528233685" xlink:href="#id47">November</textPath></text><line stroke="#e1ed5e" stroke-width="0.3" x1="56.762969772571076" x2="54.21961505331055" y1="26.818313649435495" y2="22.513508569990535" /><path d="M 56.25429882871897 25.957352633546506 a86.0,86.0 0 0,1 42.265352541879196,-11.944610805530505" fill="none" id="id48" stroke="none" /><text fill="#e1ed5e" style="font-size:6.75px; font-family:Arial;" text-anchor="middle"><textPath startOffset="22.20632615414155" xlink:href="#id48">December</textPath></text></svg>