<?xml version="1.0" encoding="utf-8" ?>
<svg baseProfile="full" height="200mm" version="1.1" viewBox="0,0,200,200" width="200mm" xmlns="http://www.w3.org/2000/svg" xmlns:ev="http://www.w3.org/2001/xml-events" xmlns:xlink="http://www.w3.org/1999/xlink"><defs /><rect fill="#1a1a1a" height="200" width="200" x="0" y="0" /><text alignment-baseline="middle" fill="#e1ed5e" style="dominant-baseline: central; font-size:9.0px; font-family:Arial;" text-anchor="middle" x="100.0" y="100.0">2024</text><line stroke="#e1ed5e" stroke-width="0.3" x1="100.0" x2="100.0" y1="15.0" y2="10.0" /><path d="M 100.0 14.0 a86.0,86.0 0 0,1 42.35913384403234,11.155469271406648" fill="none" id="id61" stroke="none" /><text fill="#e1ed5e" style="font-size:6.75px; font-family:Arial;" text-anchor="middle"><textPath startOffset="22.145653131862478" xlink:href="#id61">January</textPath></text><line stroke="#e1ed5e" stroke-width="0.3" x1="143.13028292997686" x2="145.6673583964461" y1="26.7553504044142" y2="22.446841604673864" /><path d="M 143.63769802327073 25.89364864446614 a86.0,86.0 0 0,1 29.32050498858742,28.57503671076993" fill="none" id="id62" stroke="none" /><text fill="#e1ed5e" style="font-size:6.75px; font-family:Arial;" text-anchor="middle"><textPath startOffset="20.669276256404974" xlink:href="#id62">February</textPath></text><line stroke="#e1ed5e" stroke-width="0.3" x1="172.87174338648825" x2="177.1583165268699" y1="56.24261187166439" y2="53.66864786411523" /><path d="M 173.72905801456457 55.72781907015455 a86.0,86.0 0 0,1 12.242430191666344,42.057860355516425" fill="none" id="id63" stroke="none" /><text fill="#e1ed5e" style="font-size:6.75px; font-family:Arial;" text-anchor="middle"><textPath startOffset="22.145653131862474" xlink:href="#id63">March</textPath></text><line stroke="#e1ed5e" stroke-width="0.3" x1="184.99686870605535" x2="189.99668451229388" y1="99.2704041080226" y2="99.22748670261217" /><path d="M 185.99683186730306 99.26182062694052 a86.0,86.0 0 0,1 -10.086455211305974,41.156179273409016" fill="none" id="id64" stroke="none" /><text fill="#e1ed5e" style="font-size:6.75px; font-family:Arial;" text-anchor="middle"><textPath startOffset="21.40746469413373" xlink:href="#id64">April</textPath></text><path d="M 120.82617615685814 102.69636545807757 l 22.06485493318283 2.8567372248858476 a43.24901729952249,43.24901729952249 0 0,0 -0.10164648368238141,0.7354633207864889 l -22.012563932945238 -3.2350888538724214" fill="#fdff18" stroke="none" /><path d="M 120.77682067341334 103.0534771498775 l 38.36295225967883 5.638032881357381 a59.77503734169271,59.77503734169271 0 0,0 -0.15791570852840242,1.0139321298380852 l -38.26051505901216 -6.295753193126917" fill="#3fff2d" stroke="none" /><path d="M 120.7213421655516 103.40968896794604 l 18.430340055470168 3.0327054425606854 a39.67818880035228,39.67818880035228 0 0,0 -0.11636135708796569,0.6711413858560679 l -18.37556388088997 -3.3486398613373414" fill="#ffd213" stroke="none" /><path d="M 120.65975698304385 103.76489593502545 l 19.836284273906465 3.6148317761014 a41.162965619291754,41.162965619291754 0 0,0 -0.13265002400568943,0.6940809781625272 l -19.771307957618614 -3.954815319297242" fill="#ffe615" stroke="none" /><path d="M 120.35273937422433 105.17358676015961 l 25.355777007513378 6.445339362315207 a47.162144926403755,47.162144926403755 0 0,0 -0.20618957200265164,0.7829353893780778 l -25.241397954705995 -6.879655256066088" fill="#cdff1d" stroke="none" /><path d="M 119.83427380445688 106.89939002012753 l 13.282739006352582 4.620426129228636 a35.06340972618444,35.06340972618444 0 0,0 -0.20263283057377574,0.5668000910539439 l -13.201466005734863 -4.847761176663501" fill="#ff940d" stroke="none" /><line stroke="#e1ed5e" stroke-width="0.3" x1="174.33088141563837" x2="178.70328620479359" y1="141.23008692659167" y2="143.65538615756765" /><path d="M 175.20536237346943 141.71514677278685 a86.0,86.0 0 0,1 -30.301960400862466,31.631185727798858" fill="none" id="id65" stroke="none" /><text fill="#e1ed5e" style="font-size:6.75px; font-family:Arial;" text-anchor="middle"><textPath startOffset="22.145653131862474" xlink:href="#id65">May</textPath></text><path d="M 111.8722381534696 117.32195027204791 l 12.471894690184746 18.19686708006803 a43.06069193594621,43.06069193594621 0 0,0 -0.6133148950072832,0.4126656327350033 l -12.15768350708046 -18.408282386860158" fill="#fffe18" stroke="none" /><line stroke="#e1ed5e" stroke-width="0.3" x1="143.1302829299769" x2="145.66735839644613" y1="173.24464959558577" y2="177.55315839532614" /><path d="M 143.63769802327073 174.10635135553383 a86.0,86.0 0 0,1 -40.68552437913181,11.842963189579606" fill="none" id="id66" stroke="none" /><text fill="#e1ed5e" style="font-size:6.75px; font-family:Arial;" text-anchor="middle"><textPath startOffset="21.407464694133747" xlink:href="#id66">June</textPath></text><path d="M 110.65571695917076 118.09573695890943 l 8.086855969056739 13.733249391041019 a36.9373579460586,36.9373579460586 0 0,0 -0.5491486365760025,0.31705111315227225 l -7.849914864620337 -13.870047401469463" fill="#ffae10" stroke="none" /><path d="M 109.06512990194946 118.94263497670748 l 1.7119319044559058 3.57727925819509 a24.96580858547243,24.96580858547243 0 0,0 -0.3881722985943045,0.18168423571050588 l -1.650270891990095 -3.6061397254761296" fill="#ff0000" stroke="none" /><path d="M 107.407793817531 119.65005319985036 l 4.052763823382713 10.750437538830171 a32.48898611211662,32.48898611211662 0 0,0 -0.5235535881951748,0.19225612955810276 l -3.867621083533411 -10.818424517396997" fill="#ff6f0a" stroke="none" /><path d="M 107.06938296918513 119.77432235084164 l 3.690701835596896 10.32354989340016 a31.96343752847622,31.96343752847622 0 0,0 -0.5182555230497946,0.18027617339850774 l -3.5129405405020795 -10.385384499367259" fill="#ff6809" stroke="none" /><path d="M 106.72888874123015 119.89276391827305 l 3.462987104246996 10.237706041223037 a31.807539251405736,31.807539251405736 0 0,0 -0.5187313792849368,0.1705173076853507 l -3.2867329873143247 -10.295644270310406" fill="#ff6609" stroke="none" /><path d="M 106.38641147887787 120.00534299687104 l 5.68005217297927 17.79268253171474 a39.67732701331091,39.67732701331091 0 0,0 -0.6506313914118738,0.2015672682138863 l -5.373780148695771 -17.88756638773527" fill="#ffd213" stroke="none" /><path d="M 106.0420521117495 120.11202640906438 l 3.6856685507456977 12.268391906701375 a33.810058260693886,33.810058260693886 0 0,0 -0.5572863403682731,0.16221793170305432 l -3.474522197995818 -12.329853532706947" fill="#ff820c" stroke="none" /><path d="M 103.2317021107853 120.74984581791261 l 1.6189671234618288 10.394930301276828 a31.520248595696465,31.520248595696465 0 0,0 -0.5353562542423589,0.07867893336851511 l -1.4402857636117845 -10.421190307944226" fill="#ff6209" stroke="none" /><path d="M 101.08105385017728 120.97215588758144 l 1.1221553105721511 21.769513238898497 a42.79841597913991,42.79841597913991 0 0,0 -0.7340422344179057,0.03152293193524624 l -0.7482873155534159 -21.785568739259574" fill="#fffb17" stroke="none" /><path d="M 100.72087961077811 120.9876233191556 l 0.15354249956728014 4.470222345339134 a25.472858494960764,25.472858494960764 0 0,0 -0.4371466216258957,0.011259346307263359 l -0.0767825638706406 -4.472199408996442" fill="#ff0801" stroke="none" /><line stroke="#e1ed5e" stroke-width="0.3" x1="101.45913802915013" x2="101.54496967792366" y1="184.9874750549273" y2="189.98673829345242" /><path d="M 101.47630435890484 185.9873277026323 a86.0,86.0 0 0,1 -42.54439059252881,-10.42667462771756" fill="none" id="id67" stroke="none" /><text fill="#e1ed5e" style="font-size:6.75px; font-family:Arial;" text-anchor="middle"><textPath startOffset="22.145653131862474" xlink:href="#id67">July</textPath></text><path d="M 100.36049292484886 120.99690560180557 l 0.4627835395364672 26.954821090568554 a47.958793530665005,47.958793530665005 0 0,0 -0.8232764643853162,0.007066838290884118 l -3.301500020620327e-15 -26.958793530665005" fill="#c3ff1e" stroke="none" /><path d="M 100.0 121.0 l 1.7313965626973311e-15 14.137925840354924 a35.137925840354924,35.137925840354924 0 0,0 -0.6031892218719813,-0.005177654013170575 l 0.24269629702312745 -14.135842584536189" fill="#ff950d" stroke="none" /><path d="M 99.63950707515114 120.99690560180557 l -0.2878762870222427 16.767350499704555 a37.76982157139939,37.76982157139939 0 0,0 -0.6481781344883788,-0.016694769498285942 l 0.5756677355813654 -16.75993801285622" fill="#ffb911" stroke="none" /><path d="M 99.27912038922189 120.98762331915562 l -0.24183339416659497 7.04071540778211 a28.044867411379332,28.044867411379332 0 0,0 -0.4810018470925655,-0.020656288937724736 l 0.3626610018599992 -7.035526550418557" fill="#ff2f04" stroke="none" /><path d="M 98.91894614982273 120.97215588758144 l -0.9038566141299759 17.534576846886118 a38.55785698706597,38.55785698706597 0 0,0 -0.6607267907840526,-0.03974768300420802 l 1.2047277570464747 -17.51647718605722" fill="#ffc312" stroke="none" /><path d="M 98.55909050195518 120.95050786540614 l -1.196884548747952 17.402438658744305 a38.4435490624583,38.4435490624583 0 0,0 -0.657990642091758,-0.050932637121561986 l 1.495444185614946 -17.37932825462769" fill="#ffc212" stroke="none" /><path d="M 98.19965949673042 120.92268563240118 l -0.7461359874299385 8.671231178583453 a29.703273468309256,29.703273468309256 0 0,0 -0.5076437055557373,-0.048074386711299294 l 0.894879256370691 -8.65714503636697" fill="#ff4706" stroke="none" /><path d="M 97.84075906011543 120.88869738790638 l -1.7875943861125516 17.293354110737422 a38.385499420166795,38.385499420166795 0 0,0 -0.6548641114937666,-0.07337888960870034 l 2.0841943992071177 -17.26011946062175" fill="#ffc112" stroke="none" /><path d="M 97.12497278360702 120.80226474461374 l -0.7191445265752218 5.20337155285311 a26.252832033022194,26.252832033022194 0 0,0 -0.44589171870844657,-0.06553072752551153 l 0.8083613508913532 -5.190259752028716" fill="#ff1402" stroke="none" /><path d="M 96.05791012581884 120.62667999033965 l -2.0648871667892674 10.80436219490512 a31.999909156455157,31.999909156455157 0 0,0 -0.5386704928331891,-0.10774918491364607 l 2.2500541451534146 -10.767323613328614" fill="#ff6809" stroke="none" /><path d="M 95.70440661134978 120.55596938700252 l -7.170553599897 34.31369474513034 a56.05490673202514,56.05490673202514 0 0,0 -0.9402211849489636,-0.20491683115561724 l 7.7585372014651 -34.185546455841006" fill="#66ff29" stroke="none" /><path d="M 95.35216902796893 120.47920084513623 l -7.885547519713021 34.7451773530178 a56.628769400279786,56.628769400279786 0 0,0 -0.9461530645636528,-0.22328954699579412 l 8.480832738016563 -34.60469166237578" fill="#60ff29" stroke="none" /><path d="M 95.00130118170881 120.39639698878247 l -8.481107129174573 34.60581127193668 a56.629922143129015,56.629922143129015 0 0,0 -0.9421997638984856,-0.2395034955394814 l 9.073912186298438 -34.45512254456193" fill="#60ff29" stroke="none" /><path d="M 94.6519064749342 120.30758222061772 l -9.077401082858355 34.468370453076936 a56.643621759153845,56.643621759153845 0 0,0 -0.9381764364882814,-0.2557041596501798 l 9.667758920281333 -34.30746579928262" fill="#60ff29" stroke="none" /><path d="M 94.30408787586889 120.21278271476187 l -9.678065460591213 34.34404007488318 a56.68162047503827,56.68162047503827 0 0,0 -0.9342750194962005,-0.27195384190532035 l 10.266200492469022 -34.17284253867535" fill="#5fff29" stroke="none" /><path d="M 93.95794788825049 120.11202640906438 l -10.33250164855488 34.3935375240028 a56.912059447104646,56.912059447104646 0 0,0 -0.9332476558655676,-0.28912250936990286 l 10.92138993729208 -34.21109842682625" fill="#5dff2a" stroke="none" /><path d="M 93.61358852112213 120.00534299687104 l -10.937674245344024 34.26210878986397 a56.96560602333479,56.96560602333479 0 0,0 -0.9290202285289957,-0.3053874018039277 l 11.524217211520764 -34.06930046665802" fill="#5cff2a" stroke="none" /><path d="M 93.27111125876986 119.89276391827306 l -11.625488091730304 34.36868982934138 a57.28165947081854,57.28165947081854 0 0,0 -0.9287654484522059,-0.3230728348950473 l 12.213759312227532 -34.16405856187774" fill="#59ff2a" stroke="none" /><path d="M 92.93061703081489 119.77432235084164 l -13.125229790979281 36.713603711529 a59.98923382875336,59.98923382875336 0 0,0 -0.966714643409898,-0.35499100745317047 l 13.753533586043298 -36.482881855067106" fill="#3cff2e" stroke="none" /><path d="M 92.59220618246901 119.65005319985036 l -13.673094135218305 36.26950665497215 a59.761199881139,59.761199881139 0 0,0 -0.9568272869860664,-0.37012134959742166 l 14.2936936846979 -36.02944541723668" fill="#3fff2d" stroke="none" /><path d="M 92.25597844496254 119.51999308798841 l -12.812234038777186 32.29519934844895 a55.74382307720983,55.74382307720983 0 0,0 -0.886447668229694,-0.3605105495654514 l 13.364736168197322 -32.070501542304214" fill="#69ff28" stroke="none" /><path d="M 91.92203290615298 119.3841803445677 l -15.032071914170341 36.0715003603736 a60.07833574093479,60.07833574093479 0 0,0 -0.9485651844680306,-0.4048860720769406 l 15.649072173808802 -35.80813963863725" fill="#3bff2e" stroke="none" /><path d="M 91.59046798132341 119.24265499422711 l -15.95363910638378 36.5050483837582 a60.83889002265582,60.83889002265582 0 0,0 -0.9533934900760026,-0.4264407814353708 l 16.577945999315418 -36.22580385141298" fill="#34ff2f" stroke="none" /><path d="M 91.26138138417905 119.09545874513695 l -16.307808253100887 35.635504123833066 a60.18971503059991,60.18971503059991 0 0,0 -0.935839107921414,-0.43801995579392367 l 16.917136074893794 -35.35030793646862" fill="#3aff2e" stroke="none" /><path d="M 90.93487009805054 118.94263497670748 l -16.705420526569988 34.907903867892735 a59.69926132912082,59.69926132912082 0 0,0 -0.9206187575267174,-0.4503207671005721 l 17.302199533358774 -34.61598935069494" fill="#3fff2d" stroke="none" /><path d="M 90.6110303473126 118.78422872680471 l -17.797093545973294 35.60610889228026 a60.80617451015664,60.80617451015664 0 0,0 -0.929676542235464,-0.4746994666730501 l 18.405697309922342 -35.295351473934375" fill="#34ff2f" stroke="none" /><path d="M 90.28995756902619 118.62028667847754 l -17.045109952653664 32.68624581620409 a57.86361944865659,57.86361944865659 0 0,0 -0.8768024222682259,-0.4668479037649955 l 17.603701190708453 -32.388827444716526" fill="#53ff2b" stroke="none" /><path d="M 89.97174638481275 118.45085714620012 l -30.084760845561753 55.35257143860034 a84.0,84.0 0 0,0 -1.2610232473755896,-0.6994683382674065 l 31.030528281093442 -54.82797018489979" fill="#4dd2ff" stroke="none" /><line stroke="#e1ed5e" stroke-width="0.3" x1="58.13341422392154" x2="55.67067388415222" y1="173.97424548756322" y2="178.32567169271397" /><path d="M 57.64086615596768 174.84453072859336 a86.0,86.0 0 0,1 -31.369924170532247,-30.572349798747897" fill="none" id="id68" stroke="none" /><text fill="#e1ed5e" style="font-size:6.75px; font-family:Arial;" text-anchor="middle"><textPath startOffset="22.145653131862474" xlink:href="#id68">August</textPath></text><path d="M 89.65649057296885 118.27599006163327 l -19.278786632225174 34.06376872148564 a60.14092428037089,60.14092428037089 0 0,0 -0.8941166452461505,-0.516218485819794 l 19.860695745331725 -33.72780333838968" fill="#3bff2e" stroke="none" /><path d="M 89.34428304082925 118.09573695890944 l -23.1673557966978 39.34323501054541 a66.65760085359057,66.65760085359057 0 0,0 -0.9810324262054534,-0.5890817845853049 l 23.83932097946068 -38.93973922542419" fill="#36ff72" stroke="none" /><path d="M 89.03521579738668 117.91015095944536 l -18.589203000878584 30.36406606909409 a56.60245744967873,56.60245744967873 0 0,0 -0.8243362803221771,-0.5144468065687207 l 19.107703409990474 -30.04048346568382" fill="#60ff29" stroke="none" /><line stroke="#e1ed5e" stroke-width="0.3" x1="26.387840678322732" x2="22.057713659400548" y1="142.50000000000003" y2="145.00000000000006" /><path d="M 25.521815274538298 143.00000000000003 a86.0,86.0 0 0,1 -11.493303480769221,-40.785679425670985" fill="none" id="id69" stroke="none" /><text fill="#e1ed5e" style="font-size:6.75px; font-family:Arial;" text-anchor="middle"><textPath startOffset="21.40746469413373" xlink:href="#id69">September</textPath></text><line stroke="#e1ed5e" stroke-width="0.3" x1="15.003131293944662" x2="10.003315487706104" y1="100.72959589197737" y2="100.7725132973878" /><path d="M 14.003168132696942 100.73817937305945 a86.0,86.0 0 0,1 10.791469493833604,-42.45332614584628" fill="none" id="id70" stroke="none" /><text fill="#e1ed5e" style="font-size:6.75px; font-family:Arial;" text-anchor="middle"><textPath startOffset="22.145653131862435" xlink:href="#id70">October</textPath></text><line stroke="#e1ed5e" stroke-width="0.3" x1="26.387840678322718" x2="22.05771365940052" y1="57.49999999999999" y2="54.99999999999999" /><path d="M 25.521815274538284 56.99999999999999 a86.0,86.0 0 0,1 29.574782752854787,-30.34633250058573" fill="none" id="id71" stroke="none" /><text fill="#e1ed5e" style="font-size:6.75px; font-family:Arial;" text-anchor="middle"><textPath startOffset="21.40746469413373" xlink:href="#id71">November</textPath></text><line stroke="#e1ed5e" stroke-width="0.3" x1="56.869717070023135" x2="54.33264160355391" y1="26.7553504044142" y2="22.446841604673864" /><path d="M 56.362301976729285 25.89364864446614 a86.0,86.0 0 0,1 42.16139366436587,-11.88097634709845" fill="none" id="id72" stroke="none" /><text fill="#e1ed5e" style="font-size:6.75px; font-family:Arial;" text-anchor="middle"><textPath startOffset="22.145653131862474" xlink:href="#id72">December</textPath></text></svg>