<?xml version="1.0" encoding="utf-8" ?>
<svg baseProfile="full" height="200mm" version="1.1" viewBox="0,0,200,200" width="200mm" xmlns="http://www.w3.org/2000/svg" xmlns:ev="http://www.w3.org/2001/xml-events" xmlns:xlink="http://www.w3.org/1999/xlink"><defs /><rect fill="#1a1a1a" height="200" width="200" x="0" y="0" /><rect fill="#1a1a1a" height="200" width="180" x="10" y="0" /><text alignment-baseline="middle" fill="#e1ed5e" style="dominant-baseline: central; font-size:9.0px; font-family:Arial;" text-anchor="middle" x="100.0" y="100.0">2023</text><line stroke="#e1ed5e" stroke-width="0.3" x1="100.0" x2="100.0" y1="15.0" y2="10.0" /><path d="M 100.0 14.0 a86.0,86.0 0 0,1 42.46469731375804,11.215312516191453" fill="none" id="id37" stroke="none" /><text fill="#e1ed5e" style="font-size:6.75px; font-family:Arial;" text-anchor="middle"><textPath startOffset="22.20632615414155" xlink:href="#id37">January</textPath></text><path d="M 102.16513564639614 79.11191278185805 l 2.3382251280151807 -22.55796328092798 a43.67882281188723,43.67882281188723 0 0,0 0.7471851193108981,0.08395495411087611 l -2.726176950835804 22.5143723733465" fill="red" stroke="none" /><path d="M 109.41281617654863 81.2277094730956 l 10.597789832717176 -21.13552266945332 a44.64367712200069,44.64367712200069 0 0,0 0.6839826147370253,0.3503624612971918 l -10.960032935042957 20.949967682843628" fill="red" stroke="none" /><path d="M 109.73455568895987 81.39251694778311 l 3.5904360065698917 -6.86307411216393 a28.74551592770477,28.74551592770477 0 0,0 0.4364595306499045,0.23314156572241845 l -3.7080405837481076 6.8002538199397575" fill="red" stroke="none" /><path d="M 110.05341064243156 81.56283822128135 l 15.203015679187512 -27.881131048058116 a52.756718253947646,52.756718253947646 0 0,0 0.7935512588588431,0.4416104163952279 l -15.68069102711839 27.61530523410271" fill="red" stroke="none" /><line stroke="#e1ed5e" stroke-width="0.3" x1="143.23703022742887" x2="145.7803849466894" y1="26.81831364943548" y2="22.513508569990506" /><path d="M 143.74570117128098 25.957352633546492 a86.0,86.0 0 0,1 28.547481713284135,27.462654790039103" fill="none" id="id38" stroke="none" /><text fill="#e1ed5e" style="font-size:6.75px; font-family:Arial;" text-anchor="middle"><textPath startOffset="19.985693538727396" xlink:href="#id38">February</textPath></text><path d="M 112.19680574252982 82.90503203632743 l 7.468707439510845 -10.468094442405912 a33.859338710529954,33.859338710529954 0 0,0 0.4715391519551407,0.3425932475149898 l -7.647791907819775 10.337981960074247" fill="red" stroke="none" /><path d="M 112.48926042617603 83.11751280151076 l 8.42039326191284 -11.382353846393002 a35.15842511615486,35.15842511615486 0 0,0 0.4834347847660756,0.3641130572316492 l -8.615074200437299 11.235724199655506" fill="red" stroke="none" /><path d="M 112.77801427241765 83.33499621200491 l 18.942682234546982 -24.70492397828454 a52.1313102681503,52.1313102681503 0 0,0 0.7074155373002735,0.5521490477021842 l -19.365130327006685 24.375196541359134" fill="red" stroke="none" /><path d="M 113.06298171725822 83.55741782278167 l 8.62093035730135 -10.851301709833171 a34.85897503509074,34.85897503509074 0 0,0 0.46660663866139307,0.3772967848141927 l -8.806440394527234 10.701298827754847" fill="red" stroke="none" /><path d="M 113.34407831869373 83.78471172551755 l 9.566796905003615 -11.62525923283444 a36.05557223263829,36.05557223263829 0 0,0 0.47583476642389677,0.3984979326047091 l -9.76548920838663 11.45886014283591" fill="red" stroke="none" /><path d="M 113.6212207817346 84.01681056812373 l 9.535298735987695 -11.18875381501698 a35.700684811177524,35.700684811177524 0 0,0 0.4642894483090408,0.4026272343894034 l -9.7264819829435 11.022961587207906" fill="red" stroke="none" /><path d="M 114.16331599549186 84.49514656593476 l 9.884637337676157 -10.820901914377949 a35.655987634341464,35.655987634341464 0 0,0 0.44959163909914523,0.4178464302757506 l -10.069436860570148 10.649150898027557" fill="red" stroke="none" /><path d="M 114.42810811169701 84.74124197986012 l 9.373169755861248 -9.912798551213397 a34.64257623724824,34.64257623724824 0 0,0 0.42976055210654424,0.41342931062765637 l -9.54241355158021 9.74998615382344" fill="red" stroke="none" /><path d="M 114.68862486808459 84.99185889309783 l 9.439252119132162 -9.644580688786712 a34.49508863368665,34.49508863368665 0 0,0 0.42078127514312513,0.41897430662381163 l -9.60386919444261 9.480670531512782" fill="red" stroke="none" /><path d="M 114.94478906791727 85.2469230424477 l 17.161101764807356 -16.940958742341955 a45.114300671837995,45.114300671837995 0 0,0 0.5408038903402124,0.5573459469996337 l -17.450169918850676 16.643048599792206" fill="red" stroke="none" /><line stroke="#e1ed5e" stroke-width="0.3" x1="172.23445277983987" x2="176.4835382374775" y1="55.19839476539836" y2="52.563006222186495" /><path d="M 173.08426987136738 54.67131705675599 a86.0,86.0 0 0,1 12.851231095245387,41.99856678651699" fill="none" id="id39" stroke="none" /><text fill="#e1ed5e" style="font-size:6.75px; font-family:Arial;" text-anchor="middle"><textPath startOffset="22.20632615414155" xlink:href="#id39">March</textPath></text><path d="M 118.3937258080291 89.86733742301442 l 4.448502647203518 -2.4505734600688953 a26.078827235235586,26.078827235235586 0 0,0 0.21321540086527932,0.3950557559959923 l -4.490026147287263 2.373636720740444" fill="red" stroke="none" /><path d="M 118.56541770881063 90.18545643968196 l 3.9093281305437424 -2.0666527320088117 a25.421979188890436,25.421979188890436 0 0,0 0.20118538721873463,0.388626132083984 l -3.944322950922593 1.999053877664483" fill="red" stroke="none" /><path d="M 118.73160827565052 90.50648371742162 l 6.140885767335145 -3.1123114557885168 a27.884545054343953,27.884545054343953 0 0,0 0.21330347411094858,0.43000678785325325 l -6.193549254399501 3.0061450794363136" fill="red" stroke="none" /><path d="M 118.89224826269711 90.83032412892265 l 6.242362041527885 -3.029837200676058 a27.938803738405397,27.938803738405397 0 0,0 0.20627059969062225,0.4344584885098432 l -6.293590835060264 2.9219362965256748" fill="red" stroke="none" /><path d="M 119.04729006885535 91.15688171328212 l 12.214240432503873 -5.670726519971295 a34.466432660779844,34.466432660779844 0 0,0 0.24520024676473012,0.540266241221706 l -12.31004299623195 5.459638269907526" fill="red" stroke="none" /><line stroke="#e1ed5e" stroke-width="0.3" x1="184.98032266829074" x2="189.97916517819016" y1="98.17113171792111" y2="98.06355123074" /><path d="M 185.9800911702706 98.14961562048488 a86.0,86.0 0 0,1 -9.607161424134198,41.387399972396054" fill="none" id="id40" stroke="none" /><text fill="#e1ed5e" style="font-size:6.75px; font-family:Arial;" text-anchor="middle"><textPath startOffset="21.466115282336823" xlink:href="#id40">April</textPath></text><path d="M 120.92983693683757 101.71520430193887 l 3.712585496339221 0.30424712021664935 a24.725031191518866,24.725031191518866 0 0,0 -0.038412577365962285,0.4238795903649478 l -3.706798322696183 -0.36810809913016773" fill="red" stroke="none" /><path d="M 120.89721153311464 102.0752229133903 l 4.866206575674585 0.4832445405994946 a25.890142300910863,25.890142300910863 0 0,0 -0.04785693990150575,0.443095827136834 l -4.857167334272028 -0.56693668962112" fill="red" stroke="none" /><path d="M 120.5718875245553 104.21870165774334 l 34.80958502865202 7.138443367943042 a56.53399194552007,56.53399194552007 0 0,0 -0.20369994501439848,0.9516183279037597 l -34.681551044913185 -7.73657551526297" fill="red" stroke="none" /><path d="M 120.41448212921028 104.9243191809786 l 33.915737960169025 8.181050977302705 a55.888492034997384,55.888492034997384 0 0,0 -0.23363701246587523,0.9332637264159028 l -33.76988963340809 -8.763642543116005" fill="red" stroke="none" /><path d="M 120.23288151984713 105.62410040840565 l 7.450463780238981 2.070993019365549 a28.73294398188127,28.73294398188127 0 0,0 -0.1365599701586185,0.4753831711071551 l -7.413711173194263 -2.198933665977286" fill="red" stroke="none" /><line stroke="#e1ed5e" stroke-width="0.3" x1="174.80103733775053" x2="179.2010983576182" y1="140.37084112569926" y2="142.7455964860345" /><path d="M 175.68104954172406 140.8457921977663 a86.0,86.0 0 0,1 -30.038265399797805,32.042727171017184" fill="none" id="id41" stroke="none" /><text fill="#e1ed5e" style="font-size:6.75px; font-family:Arial;" text-anchor="middle"><textPath startOffset="22.206326154141568" xlink:href="#id41">May</textPath></text><path d="M 118.30583269289576 110.29060199501025 l 11.798058819344622 6.632264680902123 a34.534442238313964,34.534442238313964 0 0,0 -0.2957595476453198,0.5156817009660765 l -11.682147275546921 -6.834366227726515" fill="red" stroke="none" /><path d="M 117.94076556474637 110.91462005526583 l 11.4816554206485 6.985092473874781 a34.43949136191877,34.43949136191877 0 0,0 -0.31247337601406056,0.5038065758235913 l -11.359717404966476 -7.181695381063646" fill="red" stroke="none" /><path d="M 117.35343817320211 111.8261652097733 l 25.34248986886508 17.270610528294064 a51.66782973693363,51.66782973693363 0 0,0 -0.5071790262320335,0.7306292144864661 l -25.04144993547091 -17.704281004967548" fill="red" stroke="none" /><path d="M 116.93607887273984 112.41649034213515 l 15.73990159649975 11.53952680709736 a40.51679228764845,40.51679228764845 0 0,0 -0.4172047543742459,0.5589139471108606 l -15.538935575430413 -11.808753633717537" fill="red" stroke="none" /><path d="M 116.71984013943494 112.70617746262583 l 7.282411021564283 5.534239922398279 a30.14665631833119,30.14665631833119 0 0,0 -0.31753499339450963,0.4104567831102685 l -7.186069210951706 -5.658774699621801" fill="red" stroke="none" /><path d="M 116.498646956653 112.99209946851258 l 16.451582579620496 12.955037940410518 a41.94009497140709,41.94009497140709 0 0,0 -0.4515192495120684,0.5633396880247014 l -16.226145418053573 -13.236305462013469" fill="red" stroke="none" /><path d="M 115.56566222782051 114.09645910891815 l 46.696986683461546 42.289377326754476 a84.0,84.0 0 0,0 -0.9798143680171121,1.0633949807946608 l -45.96212590744871 -43.08692356235047" fill="red" stroke="none" /><path d="M 115.32070863581623 114.36230785411682 l 17.810269484985618 16.696131973305302 a45.41242556563844,45.41242556563844 0 0,0 -0.5395286983151054,0.5656936831760776 l -17.52023423529155 -17.000232773063885" fill="red" stroke="none" /><path d="M 115.07121518719521 114.62390073753431 l 17.91193604690938 17.380308854565154 a45.95821685995711,45.95821685995711 0 0,0 -0.5557866679674692,0.5630089603296217 l -17.610108753886376 -17.686058308875438" fill="red" stroke="none" /><path d="M 114.81725581225074 114.88116024355365 l 13.59541826547507 13.654053108767854 a40.26833059998365,40.26833059998365 0 0,0 -0.4953964346787161,0.4848496784612243 l -13.35837187842056 -13.886052890151651" fill="red" stroke="none" /><path d="M 114.55890576462653 115.13401014063108 l 20.196250868643748 20.99404106257874 a50.13139731091586,50.13139731091586 0 0,0 -0.6270343640711725,0.5929001287409597 l -19.831880670181768 -21.338575828065622" fill="red" stroke="none" /><path d="M 112.34349029814194 116.9893568818739 l 18.3073749144353 25.197939843516238 a52.14636653953649,52.14636653953649 0 0,0 -0.7307262202171865,0.52135375614049 l -17.87092136636923 -25.509337861500946" fill="red" stroke="none" /><path d="M 111.7513745106137 117.40417183066458 l 8.392708263750896 12.429876744633754 a35.99797946015461,35.99797946015461 0 0,0 -0.5165286669325558,0.342327034995569 l -8.177504898078375 -12.572501800720643" fill="red" stroke="none" /><path d="M 111.45004920935366 117.60387380957326 l 17.05545342950214 26.22190039958415 a52.280609844624635,52.280609844624635 0 0,0 -0.7586120580829298,0.4841821079557821 l -16.60155956937228 -26.51159693636374" fill="red" stroke="none" /><line stroke="#e1ed5e" stroke-width="0.3" x1="143.8653032363475" x2="146.44561519142675" y1="172.8068346515853" y2="177.08958963109032" /><path d="M 144.38136562736335 173.6633856474863 a86.0,86.0 0 0,1 -40.68145358897372,12.25698825130547" fill="none" id="id42" stroke="none" /><text fill="#e1ed5e" style="font-size:6.75px; font-family:Arial;" text-anchor="middle"><textPath startOffset="21.466115282336833" xlink:href="#id42">June</textPath></text><path d="M 109.2508944713604 118.85261126421891 l 6.700237625832164 13.654568834264435 a36.20987949631037,36.20987949631037 0 0,0 -0.5619210010040793,0.26975622836495344 l -6.464203956827852 -13.767879339128948" fill="red" stroke="none" /><path d="M 108.59647513512805 119.15986991738527 l 3.6106566311355768 8.047450877419625 a29.820334853759533,29.820334853759533 0 0,0 -0.4701379211839322,0.20609464856711127 l -3.4715980352938907 -8.10841007928119" fill="red" stroke="none" /><path d="M 106.91757812671514 119.82793768551818 l 4.870042662108235 13.959062067861426 a35.78420540120983,35.78420540120983 0 0,0 -0.583334123410728,0.19789860626288394 l -4.62903880576028 -14.040823661022433" fill="red" stroke="none" /><path d="M 106.2309692047433 120.05430185196036 l 4.918535869915246 15.830250441598563 a37.57675553741969,37.57675553741969 0 0,0 -0.619345498611525,0.1866037181630569 l -4.6453153968634755 -15.912569528867346" fill="red" stroke="none" /><path d="M 105.88484417918355 120.15858648285463 l 5.810304764473595 19.90325104965366 a41.73400694032883,41.73400694032883 0 0,0 -0.6913314402212604,0.19537717052963566 l -5.466842156147728 -20.000317013521816" fill="red" stroke="none" /><line stroke="#e1ed5e" stroke-width="0.3" x1="102.19456741930631" x2="102.32365962044197" y1="184.97166512339345" y2="189.96999836594603" /><path d="M 102.22038585953345 185.97133177190398 a86.0,86.0 0 0,1 -42.740103519485714,-10.115201625700543" fill="none" id="id43" stroke="none" /><text fill="#e1ed5e" style="font-size:6.75px; font-family:Arial;" text-anchor="middle"><textPath startOffset="22.20632615414155" xlink:href="#id43">July</textPath></text><path d="M 99.45781275523022 120.99299961872073 l -0.39802572047379653 15.411195816115923 a36.41633487430873,36.41633487430873 0 0,0 -0.6264990788899376,-0.021577895020185436 l 0.6632451510383772 -15.402061122669643" fill="red" stroke="none" /><path d="M 99.09653310690486 120.98055641714683 l -0.18701145233370375 4.342831327109484 a25.346856015446967,25.346856015446967 0 0,0 -0.43573892618008037,-0.022522725296137417 l 0.26173844692727305 -4.338968795051144" fill="red" stroke="none" /><path d="M 97.65516085044442 120.86867818915974 l -0.4127204456165441 3.6731432786298663 a24.696257527766928,24.696257527766928 0 0,0 -0.4220385514274401,-0.05110299111103531 l 0.4758864200953735 -3.6654947587934825" fill="red" stroke="none" /><path d="M 97.2962882734958 120.8252237178851 l -0.7973999180605694 6.141938699842688 a27.193485094996863,27.193485094996863 0 0,0 -0.4636766437383542,-0.06426135779093292 l 0.9030051529857547 -6.127302776559151" fill="red" stroke="none" /><path d="M 96.93821686468263 120.77559828337769 l -0.8529791572704657 5.787853525984096 a26.85036937987546,26.85036937987546 0 0,0 -0.45666614244550163,-0.07132185963642358 l 0.9524811633244845 -5.7723133590005675" fill="red" stroke="none" /><line stroke="#e1ed5e" stroke-width="0.3" x1="58.666819895761336" x2="56.23545636021788" y1="174.27360380694188" y2="178.64263932499728" /><path d="M 58.180547188652646 175.14741091055294 a86.0,86.0 0 0,1 -31.652253787137756,-30.449443065178592" fill="none" id="id44" stroke="none" /><text fill="#e1ed5e" style="font-size:6.75px; font-family:Arial;" text-anchor="middle"><textPath startOffset="22.20632615414155" xlink:href="#id44">August</textPath></text><line stroke="#e1ed5e" stroke-width="0.3" x1="26.63291911575756" x2="22.317208475507996" y1="142.92168965132927" y2="145.44649492493687" /><path d="M 25.769776987707644 143.4266507060508 a86.0,86.0 0 0,1 -11.730757126820373,-40.83630448921669" fill="none" id="id45" stroke="none" /><text fill="#e1ed5e" style="font-size:6.75px; font-family:Arial;" text-anchor="middle"><textPath startOffset="21.46611528233685" xlink:href="#id45">September</textPath></text><line stroke="#e1ed5e" stroke-width="0.3" x1="15.007084014347285" x2="10.007500721073583" y1="101.09737516637583" y2="101.16192664675087" /><path d="M 14.007167355692545 101.11028546245083 a86.0,86.0 0 0,1 10.666146001902534,-42.60595125391555" fill="none" id="id46" stroke="none" /><text fill="#e1ed5e" style="font-size:6.75px; font-family:Arial;" text-anchor="middle"><textPath startOffset="22.20632615414155" xlink:href="#id46">October</textPath></text><line stroke="#e1ed5e" stroke-width="0.3" x1="26.266209847984243" x2="21.928928074336255" y1="57.711370442889674" y2="55.22380399835377" /><path d="M 25.398753493254645 57.213857153982495 a86.0,86.0 0 0,1 29.58750427330803,-30.492523968695096" fill="none" id="id47" stroke="none" /><text fill="#e1ed5e" style="font-size:6.75px; font-family:Arial;" text-anchor="middle"><textPath startOffset="21.46611528233685" xlink:href="#id47">November</textPath></text><line stroke="#e1ed5e" stroke-width="0.3" x1="56.762969772571076" x2="54.21961505331055" y1="26.818313649435495" y2="22.513508569990535" /><path d="M 56.25429882871897 25.957352633546506 a86.0,86.0 0 0,1 42.265352541879196,-11.944610805530505" fill="none" id="id48" stroke="none" /><text fill="#e1ed5e" style="font-size:6.75px; font-family:Arial;" text-anchor="middle"><textPath startOffset="22.20632615414155" xlink:href="#id48">December</textPath></text></svg>