<?xml version="1.0" encoding="utf-8" ?>
<svg baseProfile="full" height="200mm" version="1.1" viewBox="0,0,200,200" width="200mm" xmlns="http://www.w3.org/2000/svg" xmlns:ev="http://www.w3.org/2001/xml-events" xmlns:xlink="http://www.w3.org/1999/xlink"><defs /><rect fill="#1a1a1a" height="200" width="200" x="0" y="0" /><text alignment-baseline="middle" fill="#e1ed5e" style="dominant-baseline: central; font-size:9.0px; font-family:Arial;" text-anchor="middle" x="100.0" y="100.0">2023</text><line stroke="#e1ed5e" stroke-width="0.3" x1="100.0" x2="100.0" y1="15.0" y2="10.0" /><path d="M 100.0 14.0 a86.0,86.0 0 0,1 42.46469731375804,11.215312516191453" fill="none" id="id37" stroke="none" /><text fill="#e1ed5e" style="font-size:6.75px; font-family:Arial;" text-anchor="middle"><textPath startOffset="22.20632615414155" xlink:href="#id37">January</textPath></text><path d="M 109.41281617654863 81.2277094730956 l 21.34423730155999 -42.5675181778585 a68.61900954248858,68.61900954248858 0 0,0 1.0513069843972764,0.5385202703930938 l -22.073804773546023 42.19380538215291" fill="#38ff7e" stroke="none" /><line stroke="#e1ed5e" stroke-width="0.3" x1="143.23703022742887" x2="145.7803849466894" y1="26.81831364943548" y2="22.513508569990506" /><path d="M 143.74570117128098 25.957352633546492 a86.0,86.0 0 0,1 28.547481713284135,27.462654790039103" fill="none" id="id38" stroke="none" /><text fill="#e1ed5e" style="font-size:6.75px; font-family:Arial;" text-anchor="middle"><textPath startOffset="19.985693538727396" xlink:href="#id38">February</textPath></text><path d="M 112.19680574252982 82.90503203632743 l 15.042180156536828 -21.083027253859676 a46.899058323589685,46.899058323589685 0 0,0 0.6531356793014588,0.47453084757017766 l -15.402861152192076 20.820977171472823" fill="#edff1a" stroke="none" /><path d="M 112.48926042617603 83.11751280151076 l 16.9589013173178 -22.92437058882936 a49.5154537187208,49.5154537187208 0 0,0 0.6808465576037814,0.5127995117577511 l -17.350994028679963 22.62905448756576" fill="#caff1d" stroke="none" /><path d="M 112.77801427241765 83.33499621200491 l 38.1510778307775 -49.7563896088613 a83.69930658754404,83.69930658754404 0 0,0 1.1357894063418994,0.8865016472428933 l -39.001899792278834 49.09230957239519" fill="#4dd5ff" stroke="none" /><path d="M 113.06298171725822 83.55741782278167 l 17.36278848806767 -21.85481712521558 a48.912353101413565,48.912353101413565 0 0,0 0.6547188678581393,0.5294037918292972 l -17.7364107544903 21.552707236122153" fill="#d2ff1c" stroke="none" /><path d="M 113.34407831869373 83.78471172551755 l 19.267789471144184 -23.413588651450993 a51.32233244068948,51.32233244068948 0 0,0 0.6773141724578893,0.5672311409206507 l -19.667961180561193 23.078456353136524" fill="#b3ff20" stroke="none" /><path d="M 113.6212207817346 84.01681056812373 l 19.20435130104904 -22.534454853897305 a50.60757951026122,50.60757951026122 0 0,0 0.6581544666537757,0.5707450679203441 l -19.58939956634958 22.20054479255729" fill="#bcff1f" stroke="none" /><path d="M 114.16331599549186 84.49514656593476 l 19.90792875736117 -21.793591109380465 a50.51755817900653,50.51755817900653 0 0,0 0.636983387416004,0.5920066376457639 l -20.28012002857202 21.44767988566006" fill="#bdff1f" stroke="none" /><path d="M 114.42810811169701 84.74124197986012 l 18.877819120292305 -19.96464620825675 a48.47652003000624,48.47652003000624 0 0,0 0.6013783694845173,0.5785255149726479 l -19.218680733389238 19.6367376065218" fill="#d8ff1c" stroke="none" /><path d="M 114.68862486808459 84.99185889309783 l 19.01091079934673 -19.424448129740547 a48.17947598033669,48.17947598033669 0 0,0 0.5877074720409834,0.5851836693832199 l -19.342454071555032 19.09432860970721" fill="#dcff1b" stroke="none" /><path d="M 114.94478906791727 85.2469230424477 l 34.562926252176375 -34.11955221042304 a69.56685818696909,69.56685818696909 0 0,0 0.8339268698837171,0.8594349436565447 l -35.1451173857632 33.51955307121638" fill="#39ff8a" stroke="none" /><line stroke="#e1ed5e" stroke-width="0.3" x1="172.23445277983987" x2="176.4835382374775" y1="55.19839476539836" y2="52.563006222186495" /><path d="M 173.08426987136738 54.67131705675599 a86.0,86.0 0 0,1 12.851231095245387,41.99856678651699" fill="none" id="id39" stroke="none" /><text fill="#e1ed5e" style="font-size:6.75px; font-family:Arial;" text-anchor="middle"><textPath startOffset="22.20632615414155" xlink:href="#id39">March</textPath></text><line stroke="#e1ed5e" stroke-width="0.3" x1="184.98032266829074" x2="189.97916517819016" y1="98.17113171792111" y2="98.06355123074" /><path d="M 185.9800911702706 98.14961562048488 a86.0,86.0 0 0,1 -9.607161424134198,41.387399972396054" fill="none" id="id40" stroke="none" /><text fill="#e1ed5e" style="font-size:6.75px; font-family:Arial;" text-anchor="middle"><textPath startOffset="21.466115282336823" xlink:href="#id40">April</textPath></text><line stroke="#e1ed5e" stroke-width="0.3" x1="174.80103733775053" x2="179.2010983576182" y1="140.37084112569926" y2="142.7455964860345" /><path d="M 175.68104954172406 140.8457921977663 a86.0,86.0 0 0,1 -30.038265399797805,32.042727171017184" fill="none" id="id41" stroke="none" /><text fill="#e1ed5e" style="font-size:6.75px; font-family:Arial;" text-anchor="middle"><textPath startOffset="22.206326154141568" xlink:href="#id41">May</textPath></text><path d="M 117.94076556474637 110.91462005526583 l 23.124366663367887 14.068166446880594 a48.067501561079055,48.067501561079055 0 0,0 -0.4361218442952835,0.7031672772223299 l -22.878780179404643 -14.464130055468198" fill="#ddff1b" stroke="none" /><path d="M 116.93607887273984 112.41649034213515 l 31.70059041383704 23.240921211517303 a60.307351110775855,60.307351110775855 0 0,0 -0.6209897720556431,0.831917280366732 l -31.295839375086306 -23.783151371393352" fill="#49ff2c" stroke="none" /><path d="M 116.71984013943494 112.70617746262583 l 14.666974097929558 11.146109901402898 a39.42161488913196,39.42161488913196 0 0,0 -0.41522821274908,0.5367384383045464 l -14.47293906796241 -11.396926333820696" fill="#ffa90f" stroke="none" /><path d="M 116.498646956653 112.99209946851258 l 33.13393529295907 26.091799178465045 a63.1739214724852,63.1739214724852 0 0,0 -0.6801186700086738,0.848552613861971 l -32.67989871089554 -26.658279625905266" fill="#30ff37" stroke="none" /><path d="M 115.56566222782051 114.09645910891815 l 28.115952973512822 25.46215995173138 a58.931891608728634,58.931891608728634 0 0,0 -0.6874085015792786,0.7460461636363931 l -27.67349806393782 -25.94235737016911" fill="#58ff2a" stroke="none" /><path d="M 115.07121518719521 114.62390073753431 l 36.07512694159342 35.004415299971065 a71.26652836973057,71.26652836973057 0 0,0 -0.8618477618685102,0.8730472325766587 l -35.46723855466937 -35.620203026528394" fill="#3bff9f" stroke="none" /><path d="M 114.81725581225074 114.88116024355365 l 27.381542590740604 27.499634761762653 a59.80694250619194,59.80694250619194 0 0,0 -0.7357679259396582,0.7201037741526802 l -26.90412471242515 -27.966888638837908" fill="#4eff2b" stroke="none" /><path d="M 114.55890576462653 115.13401014063108 l 40.67579919459924 42.28257036906027 a79.67142743392131,79.67142743392131 0 0,0 -0.9965156671344885,0.9422677626474678 l -39.94194769307395 -42.976472768453654" fill="#47ffff" stroke="none" /><path d="M 112.34349029814194 116.9893568818739 l 36.871551588615255 50.7493369862902 a83.729630328099,83.729630328099 0 0,0 -1.1733020026130843,0.8371198257641272 l -35.992522258153286 -51.376501073898545" fill="#4dd5ff" stroke="none" /><path d="M 111.7513745106137 117.40417183066458 l 16.903142977155444 25.034110229999044 a51.206339028652614,51.206339028652614 0 0,0 -0.7347507397253468,0.48695272555670394 l -16.469717538690134 -25.321360976647068" fill="#b5ff20" stroke="none" /><path d="M 111.45004920935366 117.60387380957326 l 34.35014762806101 52.81162142871979 a84.0,84.0 0 0,0 -1.2188727918122781,0.7779422847047646 l -33.4359930342018 -53.39507814224836" fill="#4dd2ff" stroke="none" /><line stroke="#e1ed5e" stroke-width="0.3" x1="143.8653032363475" x2="146.44561519142675" y1="172.8068346515853" y2="177.08958963109032" /><path d="M 144.38136562736335 173.6633856474863 a86.0,86.0 0 0,1 -40.68145358897372,12.25698825130547" fill="none" id="id42" stroke="none" /><text fill="#e1ed5e" style="font-size:6.75px; font-family:Arial;" text-anchor="middle"><textPath startOffset="21.466115282336833" xlink:href="#id42">June</textPath></text><path d="M 109.2508944713604 118.85261126421891 l 13.494461026307771 27.500673446956004 a51.63311147152131,51.63311147152131 0 0,0 -0.8012655685857456,0.38465616574957223 l -13.019082789721793 -27.728883889205136" fill="#afff20" stroke="none" /><path d="M 108.59647513512805 119.15986991738527 l 7.271960773508725 16.207785199704436 a38.764394573731124,38.764394573731124 0 0,0 -0.6111471239415015,0.2679089391775471 l -6.99189297490947 -16.33055869217644" fill="#ffa00e" stroke="none" /><path d="M 106.91757812671514 119.82793768551818 l 9.808398533046583 28.113931110789785 a50.77579225285709,50.77579225285709 0 0,0 -0.8277185962973547,0.2808070881013451 l -9.323010203812002 -28.278601185789253" fill="#baff1f" stroke="none" /><path d="M 106.2309692047433 120.05430185196036 l 9.90606517404293 31.882555448070644 a54.386037038433976,54.386037038433976 0 0,0 -0.8963984980962713,0.27007751420740117 l -9.355791701506412 -32.04834833138377" fill="#8dff24" stroke="none" /><path d="M 105.88484417918355 120.15858648285463 l 11.702112010605175 40.085689580750156 a62.75885456610384,62.75885456610384 0 0,0 -1.039611877571594,0.2938047010040982 l -11.010368964928976 -40.28118307509278" fill="#30ff31" stroke="none" /><line stroke="#e1ed5e" stroke-width="0.3" x1="102.19456741930631" x2="102.32365962044197" y1="184.97166512339345" y2="189.96999836594603" /><path d="M 102.22038585953345 185.97133177190398 a86.0,86.0 0 0,1 -42.740103519485714,-10.115201625700543" fill="none" id="id43" stroke="none" /><text fill="#e1ed5e" style="font-size:6.75px; font-family:Arial;" text-anchor="middle"><textPath startOffset="22.20632615414155" xlink:href="#id43">July</textPath></text><path d="M 97.65516085044442 120.86867818915974 l -0.8312302158747851 7.397810583077471 a28.444363310241936,28.444363310241936 0 0,0 -0.4860905695623351,-0.058858798494793176 l 0.9584482084885095 -7.38240625585733" fill="#ff0000" stroke="none" /><path d="M 96.93821686468263 120.77559828337769 l -1.7179232494175236 11.656894604938723 a32.78280323698647,32.78280323698647 0 0,0 -0.5575638860300086,-0.08708001211742311 l 1.9183229990560493 -11.625596285474195" fill="#ff4506" stroke="none" /><line stroke="#e1ed5e" stroke-width="0.3" x1="58.666819895761336" x2="56.23545636021788" y1="174.27360380694188" y2="178.64263932499728" /><path d="M 58.180547188652646 175.14741091055294 a86.0,86.0 0 0,1 -31.652253787137756,-30.449443065178592" fill="none" id="id44" stroke="none" /><text fill="#e1ed5e" style="font-size:6.75px; font-family:Arial;" text-anchor="middle"><textPath startOffset="22.20632615414155" xlink:href="#id44">August</textPath></text><line stroke="#e1ed5e" stroke-width="0.3" x1="26.63291911575756" x2="22.317208475507996" y1="142.92168965132927" y2="145.44649492493687" /><path d="M 25.769776987707644 143.4266507060508 a86.0,86.0 0 0,1 -11.730757126820373,-40.83630448921669" fill="none" id="id45" stroke="none" /><text fill="#e1ed5e" style="font-size:6.75px; font-family:Arial;" text-anchor="middle"><textPath startOffset="21.46611528233685" xlink:href="#id45">September</textPath></text><line stroke="#e1ed5e" stroke-width="0.3" x1="15.007084014347285" x2="10.007500721073583" y1="101.09737516637583" y2="101.16192664675087" /><path d="M 14.007167355692545 101.11028546245083 a86.0,86.0 0 0,1 10.666146001902534,-42.60595125391555" fill="none" id="id46" stroke="none" /><text fill="#e1ed5e" style="font-size:6.75px; font-family:Arial;" text-anchor="middle"><textPath startOffset="22.20632615414155" xlink:href="#id46">October</textPath></text><line stroke="#e1ed5e" stroke-width="0.3" x1="26.266209847984243" x2="21.928928074336255" y1="57.711370442889674" y2="55.22380399835377" /><path d="M 25.398753493254645 57.213857153982495 a86.0,86.0 0 0,1 29.58750427330803,-30.492523968695096" fill="none" id="id47" stroke="none" /><text fill="#e1ed5e" style="font-size:6.75px; font-family:Arial;" text-anchor="middle"><textPath startOffset="21.46611528233685" xlink:href="#id47">November</textPath></text><line stroke="#e1ed5e" stroke-width="0.3" x1="56.762969772571076" x2="54.21961505331055" y1="26.818313649435495" y2="22.513508569990535" /><path d="M 56.25429882871897 25.957352633546506 a86.0,86.0 0 0,1 42.265352541879196,-11.944610805530505" fill="none" id="id48" stroke="none" /><text fill="#e1ed5e" style="font-size:6.75px; font-family:Arial;" text-anchor="middle"><textPath startOffset="22.20632615414155" xlink:href="#id48">December</textPath></text></svg>