<?xml version="1.0" encoding="utf-8" ?>
<svg baseProfile="full" height="200mm" version="1.1" viewBox="0,0,200,200" width="200mm" xmlns="http://www.w3.org/2000/svg" xmlns:ev="http://www.w3.org/2001/xml-events" xmlns:xlink="http://www.w3.org/1999/xlink"><defs /><rect fill="#1a1a1a" height="200" width="200" x="0" y="0" /><rect fill="#1a1a1a" height="200" width="180" x="10" y="0" /><text alignment-baseline="middle" fill="#e1ed5e" style="dominant-baseline: central; font-size:9.0px; font-family:Arial;" text-anchor="middle" x="100.0" y="100.0">2026</text><line stroke="#e1ed5e" stroke-width="0.3" x1="100.0" x2="100.0" y1="15.0" y2="10.0" /><path d="M 100.0 14.0 a86.0,86.0 0 0,1 42.46469731375804,11.215312516191453" fill="none" id="id73" stroke="none" /><text fill="#e1ed5e" style="font-size:6.75px; font-family:Arial;" text-anchor="middle"><textPath startOffset="22.20632615414155" xlink:href="#id73">January</textPath></text><path d="M 101.08401301168833 79.027996857942 l 2.078759521651734 -40.21699993412774 a61.27068815963403,61.27068815963403 0 0,0 1.0527995038909235,0.06350774114543553 l -2.7707210743822692 40.175258923602" fill="red" stroke="none" /><path d="M 101.44485096284872 79.0497635885617 l 2.106399900705884 -30.542649056212042 a51.61519772780545,51.61519772780545 0 0,0 0.8858392209096991,0.0687581725488533 l -2.631829310977924 30.501865621474725" fill="red" stroke="none" /><path d="M 101.80526077348638 79.07773832637324 l 1.625704078864606 -18.841270270444028 a39.91127650783931,39.91127650783931 0 0,0 0.6839555029011807,0.06494981630283657 l -1.949784708856031 18.810494909626016" fill="red" stroke="none" /><line stroke="#e1ed5e" stroke-width="0.3" x1="143.23703022742887" x2="145.7803849466894" y1="26.81831364943548" y2="22.513508569990506" /><path d="M 143.74570117128098 25.957352633546492 a86.0,86.0 0 0,1 28.547481713284135,27.462654790039103" fill="none" id="id74" stroke="none" /><text fill="#e1ed5e" style="font-size:6.75px; font-family:Arial;" text-anchor="middle"><textPath startOffset="19.985693538727396" xlink:href="#id74">February</textPath></text><line stroke="#e1ed5e" stroke-width="0.3" x1="172.23445277983987" x2="176.4835382374775" y1="55.19839476539836" y2="52.563006222186495" /><path d="M 173.08426987136738 54.67131705675599 a86.0,86.0 0 0,1 12.851231095245387,41.99856678651699" fill="none" id="id75" stroke="none" /><text fill="#e1ed5e" style="font-size:6.75px; font-family:Arial;" text-anchor="middle"><textPath startOffset="22.20632615414155" xlink:href="#id75">March</textPath></text><line stroke="#e1ed5e" stroke-width="0.3" x1="184.98032266829074" x2="189.97916517819016" y1="98.17113171792111" y2="98.06355123074" /><path d="M 185.9800911702706 98.14961562048488 a86.0,86.0 0 0,1 -9.607161424134198,41.387399972396054" fill="none" id="id76" stroke="none" /><text fill="#e1ed5e" style="font-size:6.75px; font-family:Arial;" text-anchor="middle"><textPath startOffset="21.466115282336823" xlink:href="#id76">April</textPath></text><path d="M 120.89721153311464 102.0752229133903 l 27.933779172043188 2.773997789300682 a49.071178859597595,49.071178859597595 0 0,0 -0.09070620123618171,0.8398267700756497 l -27.881890669305957 -3.254420881261123" fill="red" stroke="none" /><path d="M 120.8583938346157 102.4346265915055 l 17.223275670901124 2.010329523628842 a38.340203275320285,38.340203275320285 0 0,0 -0.08215482297897443,0.6548547719937932 l -17.1861193386753 -2.30650204991003" fill="red" stroke="none" /><path d="M 120.81339534386255 102.79330883721812 l 37.165033129189595 4.987817401252687 a58.49824009099626,58.49824009099626 0 0,0 -0.14252942705307242,0.9968504808447697 l -37.07366965111992 -5.626813354077866" fill="red" stroke="none" /><path d="M 120.76222939487914 103.15116336523771 l 25.95914125678007 3.93991865543937 a47.25642728554173,47.25642728554173 0 0,0 -0.12898359557907585,0.803180972795362 l -25.887475906839708 -4.386178857927937" fill="red" stroke="none" /><path d="M 120.64145759157962 103.86396538481128 l 29.524574342986586 5.526835145068701 a51.03741661420483,51.03741661420483 0 0,0 -0.1690798330761516,0.8621344261811222 l -29.42506457693477 -6.034233298317769" fill="red" stroke="none" /><path d="M 120.5718875245553 104.21870165774334 l 36.77605246052974 7.541709203654933 a58.54138266356381,58.54138266356381 0 0,0 -0.2109328568399418,0.9854080839923651 l -36.640785564965356 -8.173631107063466" fill="red" stroke="none" /><path d="M 120.49622156327973 104.57218783832717 l 39.607201112094124 8.835363272971827 a61.58070999994023,61.58070999994023 0 0,0 -0.23969392309475526,1.03259514731941 l -39.44924662306881 -9.515827077639804" fill="red" stroke="none" /><path d="M 120.41448212921028 104.9243191809786 l 36.366159035377365 8.772134083195306 a58.40919485046311,58.40919485046311 0 0,0 -0.24417459280980264,0.9753561217747806 l -36.2097731282725 -9.396818044367484" fill="red" stroke="none" /><path d="M 120.32669344350535 105.2749913415812 l 43.63632473017807 11.324086515589242 a66.08174543393478,66.08174543393478 0 0,0 -0.29520265037382865,1.0985588801224737 l -43.43493400346246 -12.073536328887263" fill="red" stroke="none" /><path d="M 120.23288151984713 105.62410040840565 l 25.075442806078414 6.970179111081153 a47.02616431135141,47.02616431135141 0 0,0 -0.22350273606080967,0.7780423450320125 l -24.951747433131505 -7.400778931617748" fill="red" stroke="none" /><path d="M 120.13307415673323 105.97154293290107 l 60.399222470199675 17.914628798703227 a84.0,84.0 0 0,0 -0.4230929099754692,1.3826921097917715 l -60.08190278771807 -18.951647881047055" fill="red" stroke="none" /><path d="M 120.02730092923936 106.31721596034902 l 49.48414559670963 15.608794987015827 a72.88752399549479,72.88752399549479 0 0,0 -0.3877191064064765,1.1932767108355216 l -49.208134239286906 -16.458270597829145" fill="red" stroke="none" /><path d="M 119.9155931802556 106.66101706037122 l 27.40533142922932 9.166052878415009 a49.89755553876148,49.89755553876148 0 0,0 -0.27944809737513,0.8122069777269688 l -27.243492500910957 -9.636432559231277" fill="red" stroke="none" /><path d="M 119.79798401119884 107.00284435728193 l 9.654683757061134 3.41500668104555 a31.240858805805587,31.240858805805587 0 0,0 -0.18368991085134356,0.5054357429853741 l -9.594469585204564 -3.580690221037055" fill="red" stroke="none" /><path d="M 119.54520255179757 107.68017299344265 l 24.694680843369014 9.703630361072173 a47.532766613004725,47.532766613004725 0 0,0 -0.3057882145966874,0.7589412711200234 l -24.523990014514933 -10.12727100003501" fill="red" stroke="none" /><line stroke="#e1ed5e" stroke-width="0.3" x1="174.80103733775053" x2="179.2010983576182" y1="140.37084112569926" y2="142.7455964860345" /><path d="M 175.68104954172406 140.8457921977663 a86.0,86.0 0 0,1 -30.038265399797805,32.042727171017184" fill="none" id="id77" stroke="none" /><text fill="#e1ed5e" style="font-size:6.75px; font-family:Arial;" text-anchor="middle"><textPath startOffset="22.206326154141568" xlink:href="#id77">May</textPath></text><line stroke="#e1ed5e" stroke-width="0.3" x1="143.8653032363475" x2="146.44561519142675" y1="172.8068346515853" y2="177.08958963109032" /><path d="M 144.38136562736335 173.6633856474863 a86.0,86.0 0 0,1 -40.68145358897372,12.25698825130547" fill="none" id="id78" stroke="none" /><text fill="#e1ed5e" style="font-size:6.75px; font-family:Arial;" text-anchor="middle"><textPath startOffset="21.466115282336833" xlink:href="#id78">June</textPath></text><line stroke="#e1ed5e" stroke-width="0.3" x1="102.19456741930631" x2="102.32365962044197" y1="184.97166512339345" y2="189.96999836594603" /><path d="M 102.22038585953345 185.97133177190398 a86.0,86.0 0 0,1 -42.740103519485714,-10.115201625700543" fill="none" id="id79" stroke="none" /><text fill="#e1ed5e" style="font-size:6.75px; font-family:Arial;" text-anchor="middle"><textPath startOffset="22.20632615414155" xlink:href="#id79">July</textPath></text><line stroke="#e1ed5e" stroke-width="0.3" x1="58.666819895761336" x2="56.23545636021788" y1="174.27360380694188" y2="178.64263932499728" /><path d="M 58.180547188652646 175.14741091055294 a86.0,86.0 0 0,1 -31.652253787137756,-30.449443065178592" fill="none" id="id80" stroke="none" /><text fill="#e1ed5e" style="font-size:6.75px; font-family:Arial;" text-anchor="middle"><textPath startOffset="22.20632615414155" xlink:href="#id80">August</textPath></text><line stroke="#e1ed5e" stroke-width="0.3" x1="26.63291911575756" x2="22.317208475507996" y1="142.92168965132927" y2="145.44649492493687" /><path d="M 25.769776987707644 143.4266507060508 a86.0,86.0 0 0,1 -11.730757126820373,-40.83630448921669" fill="none" id="id81" stroke="none" /><text fill="#e1ed5e" style="font-size:6.75px; font-family:Arial;" text-anchor="middle"><textPath startOffset="21.46611528233685" xlink:href="#id81">September</textPath></text><line stroke="#e1ed5e" stroke-width="0.3" x1="15.007084014347285" x2="10.007500721073583" y1="101.09737516637583" y2="101.16192664675087" /><path d="M 14.007167355692545 101.11028546245083 a86.0,86.0 0 0,1 10.666146001902534,-42.60595125391555" fill="none" id="id82" stroke="none" /><text fill="#e1ed5e" style="font-size:6.75px; font-family:Arial;" text-anchor="middle"><textPath startOffset="22.20632615414155" xlink:href="#id82">October</textPath></text><line stroke="#e1ed5e" stroke-width="0.3" x1="26.266209847984243" x2="21.928928074336255" y1="57.711370442889674" y2="55.22380399835377" /><path d="M 25.398753493254645 57.213857153982495 a86.0,86.0 0 0,1 29.58750427330803,-30.492523968695096" fill="none" id="id83" stroke="none" /><text fill="#e1ed5e" style="font-size:6.75px; font-family:Arial;" text-anchor="middle"><textPath startOffset="21.46611528233685" xlink:href="#id83">November</textPath></text><line stroke="#e1ed5e" stroke-width="0.3" x1="56.762969772571076" x2="54.21961505331055" y1="26.818313649435495" y2="22.513508569990535" /><path d="M 56.25429882871897 25.957352633546506 a86.0,86.0 0 0,1 42.265352541879196,-11.944610805530505" fill="none" id="id84" stroke="none" /><text fill="#e1ed5e" style="font-size:6.75px; font-family:Arial;" text-anchor="middle"><textPath startOffset="22.20632615414155" xlink:href="#id84">December</textPath></text></svg>