<?xml version="1.0" encoding="utf-8" ?>
<svg baseProfile="full" height="200mm" version="1.1" viewBox="0,0,200,200" width="200mm" xmlns="http://www.w3.org/2000/svg" xmlns:ev="http://www.w3.org/2001/xml-events" xmlns:xlink="http://www.w3.org/1999/xlink"><defs /><rect fill="#1a1a1a" height="200" width="200" x="0" y="0" /><text alignment-baseline="middle" fill="#e1ed5e" style="dominant-baseline: central; font-size:9.0px; font-family:Arial;" text-anchor="middle" x="100.0" y="100.0">2021</text><line stroke="#e1ed5e" stroke-width="0.3" x1="100.0" x2="100.0" y1="15.0" y2="10.0" /><path d="M 100.0 14.0 a86.0,86.0 0 0,1 42.46469731375804,11.215312516191453" fill="none" id="id13" stroke="none" /><text fill="#e1ed5e" style="font-size:6.75px; font-family:Arial;" text-anchor="middle"><textPath startOffset="22.20632615414155" xlink:href="#id13">January</textPath></text><line stroke="#e1ed5e" stroke-width="0.3" x1="143.23703022742887" x2="145.7803849466894" y1="26.81831364943548" y2="22.513508569990506" /><path d="M 143.74570117128098 25.957352633546492 a86.0,86.0 0 0,1 28.547481713284135,27.462654790039103" fill="none" id="id14" stroke="none" /><text fill="#e1ed5e" style="font-size:6.75px; font-family:Arial;" text-anchor="middle"><textPath startOffset="19.985693538727396" xlink:href="#id14">February</textPath></text><line stroke="#e1ed5e" stroke-width="0.3" x1="172.23445277983987" x2="176.4835382374775" y1="55.19839476539836" y2="52.563006222186495" /><path d="M 173.08426987136738 54.67131705675599 a86.0,86.0 0 0,1 12.851231095245387,41.99856678651699" fill="none" id="id15" stroke="none" /><text fill="#e1ed5e" style="font-size:6.75px; font-family:Arial;" text-anchor="middle"><textPath startOffset="22.20632615414155" xlink:href="#id15">March</textPath></text><path d="M 119.47837535516314 92.15188598940014 l 51.90334999232756 -20.91259670503675 a76.95797031141822,76.95797031141822 0 0,0 0.484492383961052,1.2329802710703497 l -52.255635926170314 20.01606742907062" fill="#3dffb1" stroke="none" /><path d="M 120.08093135843002 93.85539295169968 l 60.24279407529006 -18.433821144900946 a84.0,84.0 0 0,0 0.41117641155319085,1.3862824530138804 l -60.551176383954946 17.394109305140535" fill="#4dd2ff" stroke="none" /><path d="M 120.6074358757038 95.95851677861258 l 27.549915016566846 -5.40302636202195 a49.07473083199124,49.07473083199124 0 0,0 0.15543667598135266,0.8303489384395416 l -27.638837416458056 4.9279993461198455" fill="#ff0000" stroke="none" /><path d="M 120.67395015179393 96.31383870115 l 27.71259507635641 -4.9411503225619295 a49.14965172744145,49.14965172744145 0 0,0 0.14133599879759734,0.8341730654755791 l -27.793542936674232 4.463391468770512" fill="#ff0200" stroke="none" /><path d="M 120.73433829027371 96.67025291283417 l 28.24875568428764 -4.536494516438907 a49.61069695425565,49.61069695425565 0 0,0 0.1281470443874878,0.8443289107761142 l -28.322658622114428 4.049566493270711" fill="#ff0e01" stroke="none" /><line stroke="#e1ed5e" stroke-width="0.3" x1="184.98032266829074" x2="189.97916517819016" y1="98.17113171792111" y2="98.06355123074" /><path d="M 185.9800911702706 98.14961562048488 a86.0,86.0 0 0,1 -9.607161424134198,41.387399972396054" fill="none" id="id16" stroke="none" /><text fill="#e1ed5e" style="font-size:6.75px; font-family:Arial;" text-anchor="middle"><textPath startOffset="21.466115282336823" xlink:href="#id16">April</textPath></text><line stroke="#e1ed5e" stroke-width="0.3" x1="174.80103733775053" x2="179.2010983576182" y1="140.37084112569926" y2="142.7455964860345" /><path d="M 175.68104954172406 140.8457921977663 a86.0,86.0 0 0,1 -30.038265399797805,32.042727171017184" fill="none" id="id17" stroke="none" /><text fill="#e1ed5e" style="font-size:6.75px; font-family:Arial;" text-anchor="middle"><textPath startOffset="22.206326154141568" xlink:href="#id17">May</textPath></text><path d="M 114.81725581225074 114.88116024355365 l 20.706166738062283 20.795469091117777 a50.346156063513185,50.346156063513185 0 0,0 -0.619377705557349,0.6061914466144493 l -20.34513908012914 -21.148810640654798" fill="#ff2103" stroke="none" /><path d="M 113.20401910651253 116.32954008644616 l 17.836722508709133 22.05884987496901 a49.367966576036274,49.367966576036274 0 0,0 -0.6653920494822531,0.5286276865466208 l -17.454372966509528 -22.362611475520755" fill="#ff0801" stroke="none" /><path d="M 112.63410532772338 116.77436683061366 l 17.646780329925203 23.429721294460958 a50.33190576741907,50.33190576741907 0 0,0 -0.696533727785168,0.5152790000458353 l -17.240861631721472 -23.73001024324656" fill="#ff2003" stroke="none" /><path d="M 112.34349029814194 116.9893568818739 l 17.55495016152943 24.16231601710161 a50.86626509096956,50.86626509096956 0 0,0 -0.712788178603172,0.508555439733435 l -17.136434655077373 -24.460915718679264" fill="#ff2e04" stroke="none" /><path d="M 112.04921762599082 117.19931262002967 l 17.196552600430312 24.546729368020998 a50.97104175710666,50.97104175710666 0 0,0 -0.7229225652835121,0.49723273236189025 l -16.771473150523917 -24.839102889747984" fill="#ff3004" stroke="none" /><line stroke="#e1ed5e" stroke-width="0.3" x1="143.8653032363475" x2="146.44561519142675" y1="172.8068346515853" y2="177.08958963109032" /><path d="M 144.38136562736335 173.6633856474863 a86.0,86.0 0 0,1 -40.68145358897372,12.25698825130547" fill="none" id="id18" stroke="none" /><text fill="#e1ed5e" style="font-size:6.75px; font-family:Arial;" text-anchor="middle"><textPath startOffset="21.466115282336833" xlink:href="#id18">June</textPath></text><path d="M 110.8373102113329 117.98757091392108 l 15.078424338786926 25.026895214321335 a50.21821973716301,50.21821973716301 0 0,0 -0.7442630210457983,0.4397237115302734 l -14.645393446712745 -25.28273749814536" fill="#ff1d03" stroke="none" /><path d="M 110.5260780823613 118.17145234162733 l 14.710738362772739 25.395544188221272 a50.348585788651775,50.348585788651775 0 0,0 -0.7536733345922132,0.4279553890472334 l -14.271416261259327 -25.645002743063134" fill="#ff2103" stroke="none" /><path d="M 110.21172684928248 118.3499491758327 l 14.066618560915444 25.276991783888125 a49.92742766616207,49.92742766616207 0 0,0 -0.7545631715865692,0.4114480043436767 l -13.629432577460227 -25.51538043999157" fill="#ff1602" stroke="none" /><path d="M 109.57404056367764 118.69057910512821 l 13.363551950056628 26.088517505933744 a50.31203279165868,50.31203279165868 0 0,0 -0.7741969901505389,0.3881984429273547 l -12.912501052223329 -26.314683789770402" fill="#ff2003" stroke="none" /><path d="M 109.2508944713604 118.85261126421891 l 14.136659594630691 28.80942472506344 a53.090934817850986,53.090934817850986 0 0,0 -0.8238887191030004,0.3955166528044474 l -13.638658207527458 -29.048495654367446" fill="#ff6509" stroke="none" /><path d="M 108.92500713936063 119.00905698771935 l 13.783883302084423 29.357805445987182 a53.432640649350716,53.432640649350716 0 0,0 -0.835920596379545,0.3837301464816766 l -13.276494709937458 -29.590722662802932" fill="#ff6d0a" stroke="none" /><path d="M 106.57524785965236 119.94407469862006 l 9.357069383207474 28.381909659102515 a50.884570322151454,50.884570322151454 0 0,0 -0.8342129250540837,0.26708863502641583 l -8.86713511306245 -28.53877114078864" fill="#ff2e04" stroke="none" /><path d="M 106.2309692047433 120.05430185196036 l 8.717605830421748 28.057512885250965 a50.38061743259708,50.38061743259708 0 0,0 -0.8303805950749457,0.2501868615801921 l -8.233350260906557 -28.203415115936885" fill="#ff2203" stroke="none" /><path d="M 105.88484417918355 120.15858648285463 l 8.468710820345121 29.009644821878496 a51.220498931191926,51.220498931191926 0 0,0 -0.8484769110615726,0.23978805027278927 l -7.968102741178943 -29.151121665489804" fill="#ff3705" stroke="none" /><path d="M 104.48393922423573 120.51570834832081 l 6.26008452143299 28.642241086451648 a50.31836681450561,50.31836681450561 0 0,0 -0.8477651345667006,0.17765742661446068 l -5.766127925436911 -28.74575449379265" fill="#ff2003" stroke="none" /><path d="M 103.41894727170886 120.7198165907248 l 4.737285788214672 28.709332104029475 a50.097553617077125,50.097553617077125 0 0,0 -0.8520499749033028,0.1330726827871279 l -4.242399949702852 -28.78662309416371" fill="#ff1a02" stroke="none" /><line stroke="#e1ed5e" stroke-width="0.3" x1="102.19456741930631" x2="102.32365962044197" y1="184.97166512339345" y2="189.96999836594603" /><path d="M 102.22038585953345 185.97133177190398 a86.0,86.0 0 0,1 -42.740103519485714,-10.115201625700543" fill="none" id="id19" stroke="none" /><text fill="#e1ed5e" style="font-size:6.75px; font-family:Arial;" text-anchor="middle"><textPath startOffset="22.20632615414155" xlink:href="#id19">July</textPath></text><line stroke="#e1ed5e" stroke-width="0.3" x1="58.666819895761336" x2="56.23545636021788" y1="174.27360380694188" y2="178.64263932499728" /><path d="M 58.180547188652646 175.14741091055294 a86.0,86.0 0 0,1 -31.652253787137756,-30.449443065178592" fill="none" id="id20" stroke="none" /><text fill="#e1ed5e" style="font-size:6.75px; font-family:Arial;" text-anchor="middle"><textPath startOffset="22.20632615414155" xlink:href="#id20">August</textPath></text><line stroke="#e1ed5e" stroke-width="0.3" x1="26.63291911575756" x2="22.317208475507996" y1="142.92168965132927" y2="145.44649492493687" /><path d="M 25.769776987707644 143.4266507060508 a86.0,86.0 0 0,1 -11.730757126820373,-40.83630448921669" fill="none" id="id21" stroke="none" /><text fill="#e1ed5e" style="font-size:6.75px; font-family:Arial;" text-anchor="middle"><textPath startOffset="21.46611528233685" xlink:href="#id21">September</textPath></text><line stroke="#e1ed5e" stroke-width="0.3" x1="15.007084014347285" x2="10.007500721073583" y1="101.09737516637583" y2="101.16192664675087" /><path d="M 14.007167355692545 101.11028546245083 a86.0,86.0 0 0,1 10.666146001902534,-42.60595125391555" fill="none" id="id22" stroke="none" /><text fill="#e1ed5e" style="font-size:6.75px; font-family:Arial;" text-anchor="middle"><textPath startOffset="22.20632615414155" xlink:href="#id22">October</textPath></text><line stroke="#e1ed5e" stroke-width="0.3" x1="26.266209847984243" x2="21.928928074336255" y1="57.711370442889674" y2="55.22380399835377" /><path d="M 25.398753493254645 57.213857153982495 a86.0,86.0 0 0,1 29.58750427330803,-30.492523968695096" fill="none" id="id23" stroke="none" /><text fill="#e1ed5e" style="font-size:6.75px; font-family:Arial;" text-anchor="middle"><textPath startOffset="21.46611528233685" xlink:href="#id23">November</textPath></text><line stroke="#e1ed5e" stroke-width="0.3" x1="56.762969772571076" x2="54.21961505331055" y1="26.818313649435495" y2="22.513508569990535" /><path d="M 56.25429882871897 25.957352633546506 a86.0,86.0 0 0,1 42.265352541879196,-11.944610805530505" fill="none" id="id24" stroke="none" /><text fill="#e1ed5e" style="font-size:6.75px; font-family:Arial;" text-anchor="middle"><textPath startOffset="22.20632615414155" xlink:href="#id24">December</textPath></text></svg>