<?xml version="1.0" encoding="utf-8" ?>
<svg baseProfile="full" height="200mm" version="1.1" viewBox="0,0,200,200" width="200mm" xmlns="http://www.w3.org/2000/svg" xmlns:ev="http://www.w3.org/2001/xml-events" xmlns:xlink="http://www.w3.org/1999/xlink"><defs /><rect fill="#1a1a1a" height="200" width="200" x="0" y="0" /><text alignment-baseline="middle" fill="#e1ed5e" style="dominant-baseline: central; font-size:9.0px; font-family:Arial;" text-anchor="middle" x="100.0" y="100.0">2025</text><line stroke="#e1ed5e" stroke-width="0.3" x1="100.0" x2="100.0" y1="15.0" y2="10.0" /><path d="M 100.0 14.0 a86.0,86.0 0 0,1 42.46469731375804,11.215312516191453" fill="none" id="id61" stroke="none" /><text fill="#e1ed5e" style="font-size:6.75px; font-family:Arial;" text-anchor="middle"><textPath startOffset="22.20632615414155" xlink:href="#id61">January</textPath></text><path d="M 100.0 79.0 l 0.0 -4.383867791952781 a25.38386779195278,25.38386779195278 0 0,0 0.4369415569155042,0.003760893927744417 l -0.07546107764297581 4.383218274633595" fill="#ff0400" stroke="none" /><path d="M 100.36148047927253 79.00311137660856 l 0.12675693441065727 -7.3627799747840275 a28.363871011737093,28.363871011737093 0 0,0 0.4880927384004849,0.012605995419040105 l -0.25347630800600995 7.359507187222628" fill="#ff3104" stroke="none" /><path d="M 100.72285384407766 79.0124445844662 l 1.6908767706947705 -49.093423541346915 a70.12253351837373,70.12253351837373 0 0,0 1.2059712302974788,0.05193165800447939 l -2.5356888333815806 49.05704415681824" fill="#3bff9a" stroke="none" /><path d="M 101.08401301168833 79.027996857942 l 0.9523780486488262 -18.425309671866632 a39.4499067870743,39.4499067870743 0 0,0 0.6778582637388656,0.04089026161935047 l -1.2693983612273039 18.40618614086698" fill="#ffcd13" stroke="none" /><path d="M 101.44485096284872 79.0497635885617 l 0.314908337891734 -4.566148548468456 a25.576994628351045,25.576994628351045 0 0,0 0.43896189479449604,0.03407189136834151 l -0.3934604220485712 4.56005139491165" fill="#ff0701" stroke="none" /><path d="M 101.80526077348638 79.07773832637324 l 0.36975042259539725 -4.2852618353496625 a25.301184066337296,25.301184066337296 0 0,0 0.4335838285875939,0.041174008980396484 l -0.4434593782732354 4.278262281854088" fill="#ff0200" stroke="none" /><path d="M 102.16513564639614 79.11191278185805 l 0.42978944894096616 -4.146382010687912 a25.168597215968138,25.168597215968138 0 0,0 0.4305427688537231,0.04837649662404974 l -0.5010989213044145 4.138369560593261" fill="#ff0000" stroke="none" /><path d="M 102.52436894288641 79.15227682838746 l 0.5133142318997412 -4.2392507786356015 a25.270215294904155,25.270215294904155 0 0,0 0.4313809519361379,0.05600562827752948 l -0.5862099123437252 4.229786827193935" fill="#ff0200" stroke="none" /><path d="M 102.88285421437855 79.19881850522331 l 1.0069329864415206 -7.265506420539775 a28.334950414698707,28.334950414698707 0 0,0 0.482545581252961,0.07111467513714581 l -1.1318475481231376 7.2470972612416595" fill="#ff3004" stroke="none" /><path d="M 103.2404852339499 79.25152402106235 l 3.3919390531487057 -21.71821837944052 a42.98149813177763,42.98149813177763 0 0,0 0.7300116695238847,0.12045818045279305 l -3.7652799288114656 21.656613936048103" fill="#fffc17" stroke="none" /><path d="M 103.59715602781102 79.31037775812273 l 0.7454553920855432 -4.287606748547364 a25.35192777648921,25.35192777648921 0 0,0 0.42929853365554516,0.0784515630183806 l -0.8191490468439893 4.2741397041782445" fill="#ff0300" stroke="none" /><path d="M 103.95276090670814 79.375362276772 l 11.858282720124386 -61.87391316968404 a84.0,84.0 0 0,0 1.4177343621314986,0.2843841756911667 l -12.921583491723009 61.66062503791566" fill="#4dd2ff" stroke="none" /><path d="M 104.307194497241 79.44645832069477 l 1.5077435792308707 -7.194815678111821 a28.35109946489065,28.35109946489065 0 0,0 0.47678081210824536,0.1042058187062355 l -1.631367115492644 7.167796361309715" fill="#ff3104" stroke="none" /><path d="M 104.66035177308747 79.52364482259891 l 1.6380076854518941 -7.196973272342743 a28.381022521332344,28.381022521332344 0 0,0 0.4754176887041846,0.11251600678680898 l -1.7616490611186022 7.167711353415065" fill="#ff3104" stroke="none" /><path d="M 105.01212808612495 79.60689891045804 l 1.7544281632885323 -7.13833131825325 a28.350768136004234,28.350768136004234 0 0,0 0.4729058131901954,0.12055422146934806 l -1.877042865163753 7.107074100615034" fill="#ff3104" stroke="none" /><path d="M 105.36241919743992 79.69619591428918 l 1.8855355689897348 -7.139230145916944 a28.384026778004987,28.384026778004987 0 0,0 0.47131285951528823,0.12882760845194127 l -2.008146317728734 7.1057159966387085" fill="#ff3104" stroke="none" /><path d="M 105.71112130821622 79.79150937346287 l 5.12614701551051 -18.138591061647524 a39.84902832843929,39.84902832843929 0 0,0 0.6584763163897477,0.19222729336365826 l -5.437613549623684 18.047665439365165" fill="#ffd313" stroke="none" /><path d="M 106.0581310904928 79.89281104454417 l 4.380153421176203 -14.537911309263546 a36.183432063570294,36.183432063570294 0 0,0 0.5948119054224984,0.18481095441076334 l -4.629750699309421 14.460360219970262" fill="#ffa10e" stroke="none" /><path d="M 106.40334571778207 80.00007090966166 l 1.6712695164242353 -5.219969886446532 a26.48098781351843,26.48098781351843 0 0,0 0.4329227619223849,0.14272782802612868 l -1.7608751005890377 5.190428334161167" fill="#ff1402" stroke="none" /><path d="M 106.74666289553966 80.11325718540242 l 1.7017754093267425 -5.0162236378908975 a26.297031161804185,26.297031161804185 0 0,0 0.42741190358250697,0.14911562070721504 l -1.7878693169725233 4.986187164011475" fill="#ff1201" stroke="none" /><path d="M 107.08798089147638 80.2323363322302 l 1.4017913803320987 -3.909454746429466 a25.153174146162577,25.153174146162577 0 0,0 0.40630482063326806,0.14964549438666624 l -1.4688785267379432 3.884745984236475" fill="#ff0000" stroke="none" /><path d="M 107.4271985657038 80.35727306442388 l 1.710211396906684 -4.522999509757266 a25.83552971114582,25.83552971114582 0 0,0 0.41461945018130625,0.1608659051707081 l -1.7878140120876573 4.492890900696011" fill="#ff0a01" stroke="none" /><path d="M 107.76421540070413 80.48803036053334 l 1.5616586149291676 -3.924547930360878 a25.22384352069088,25.22384352069088 0 0,0 0.4020393951120798,0.16400196387424754 l -1.6289818796296347 3.8970850803030515" fill="#ff0100" stroke="none" /><line stroke="#e1ed5e" stroke-width="0.3" x1="143.23703022742887" x2="145.7803849466894" y1="26.81831364943548" y2="22.513508569990506" /><path d="M 143.74570117128098 25.957352633546492 a86.0,86.0 0 0,1 28.547481713284135,27.462654790039103" fill="none" id="id62" stroke="none" /><text fill="#e1ed5e" style="font-size:6.75px; font-family:Arial;" text-anchor="middle"><textPath startOffset="19.985693538727396" xlink:href="#id62">February</textPath></text><path d="M 116.15771136456269 86.58626213691792 l 3.467453397378904 -2.878595233908165 a25.506611097451533,25.506611097451533 0 0,0 0.27753805227563233,0.3402288356212317 l -3.516489941730945 2.8184822286788327" fill="#ff0500" stroke="none" /><path d="M 116.82858285166822 87.43820079747576 l 3.549837801341893 -2.6497982661425703 a25.429760633159315,25.429760633159315 0 0,0 0.25882336200644296,0.3530347749052436 l -3.5949237758619623 2.588301047565833" fill="#ff0400" stroke="none" /><line stroke="#e1ed5e" stroke-width="0.3" x1="172.23445277983987" x2="176.4835382374775" y1="55.19839476539836" y2="52.563006222186495" /><path d="M 173.08426987136738 54.67131705675599 a86.0,86.0 0 0,1 12.851231095245387,41.99856678651699" fill="none" id="id63" stroke="none" /><text fill="#e1ed5e" style="font-size:6.75px; font-family:Arial;" text-anchor="middle"><textPath startOffset="22.20632615414155" xlink:href="#id63">March</textPath></text><line stroke="#e1ed5e" stroke-width="0.3" x1="184.98032266829074" x2="189.97916517819016" y1="98.17113171792111" y2="98.06355123074" /><path d="M 185.9800911702706 98.14961562048488 a86.0,86.0 0 0,1 -9.607161424134198,41.387399972396054" fill="none" id="id64" stroke="none" /><text fill="#e1ed5e" style="font-size:6.75px; font-family:Arial;" text-anchor="middle"><textPath startOffset="21.466115282336823" xlink:href="#id64">April</textPath></text><line stroke="#e1ed5e" stroke-width="0.3" x1="174.80103733775053" x2="179.2010983576182" y1="140.37084112569926" y2="142.7455964860345" /><path d="M 175.68104954172406 140.8457921977663 a86.0,86.0 0 0,1 -30.038265399797805,32.042727171017184" fill="none" id="id65" stroke="none" /><text fill="#e1ed5e" style="font-size:6.75px; font-family:Arial;" text-anchor="middle"><textPath startOffset="22.206326154141568" xlink:href="#id65">May</textPath></text><line stroke="#e1ed5e" stroke-width="0.3" x1="143.8653032363475" x2="146.44561519142675" y1="172.8068346515853" y2="177.08958963109032" /><path d="M 144.38136562736335 173.6633856474863 a86.0,86.0 0 0,1 -40.68145358897372,12.25698825130547" fill="none" id="id66" stroke="none" /><text fill="#e1ed5e" style="font-size:6.75px; font-family:Arial;" text-anchor="middle"><textPath startOffset="21.466115282336833" xlink:href="#id66">June</textPath></text><line stroke="#e1ed5e" stroke-width="0.3" x1="102.19456741930631" x2="102.32365962044197" y1="184.97166512339345" y2="189.96999836594603" /><path d="M 102.22038585953345 185.97133177190398 a86.0,86.0 0 0,1 -42.740103519485714,-10.115201625700543" fill="none" id="id67" stroke="none" /><text fill="#e1ed5e" style="font-size:6.75px; font-family:Arial;" text-anchor="middle"><textPath startOffset="22.20632615414155" xlink:href="#id67">July</textPath></text><line stroke="#e1ed5e" stroke-width="0.3" x1="58.666819895761336" x2="56.23545636021788" y1="174.27360380694188" y2="178.64263932499728" /><path d="M 58.180547188652646 175.14741091055294 a86.0,86.0 0 0,1 -31.652253787137756,-30.449443065178592" fill="none" id="id68" stroke="none" /><text fill="#e1ed5e" style="font-size:6.75px; font-family:Arial;" text-anchor="middle"><textPath startOffset="22.20632615414155" xlink:href="#id68">August</textPath></text><line stroke="#e1ed5e" stroke-width="0.3" x1="26.63291911575756" x2="22.317208475507996" y1="142.92168965132927" y2="145.44649492493687" /><path d="M 25.769776987707644 143.4266507060508 a86.0,86.0 0 0,1 -11.730757126820373,-40.83630448921669" fill="none" id="id69" stroke="none" /><text fill="#e1ed5e" style="font-size:6.75px; font-family:Arial;" text-anchor="middle"><textPath startOffset="21.46611528233685" xlink:href="#id69">September</textPath></text><line stroke="#e1ed5e" stroke-width="0.3" x1="15.007084014347285" x2="10.007500721073583" y1="101.09737516637583" y2="101.16192664675087" /><path d="M 14.007167355692545 101.11028546245083 a86.0,86.0 0 0,1 10.666146001902534,-42.60595125391555" fill="none" id="id70" stroke="none" /><text fill="#e1ed5e" style="font-size:6.75px; font-family:Arial;" text-anchor="middle"><textPath startOffset="22.20632615414155" xlink:href="#id70">October</textPath></text><line stroke="#e1ed5e" stroke-width="0.3" x1="26.266209847984243" x2="21.928928074336255" y1="57.711370442889674" y2="55.22380399835377" /><path d="M 25.398753493254645 57.213857153982495 a86.0,86.0 0 0,1 29.58750427330803,-30.492523968695096" fill="none" id="id71" stroke="none" /><text fill="#e1ed5e" style="font-size:6.75px; font-family:Arial;" text-anchor="middle"><textPath startOffset="21.46611528233685" xlink:href="#id71">November</textPath></text><line stroke="#e1ed5e" stroke-width="0.3" x1="56.762969772571076" x2="54.21961505331055" y1="26.818313649435495" y2="22.513508569990535" /><path d="M 56.25429882871897 25.957352633546506 a86.0,86.0 0 0,1 42.265352541879196,-11.944610805530505" fill="none" id="id72" stroke="none" /><text fill="#e1ed5e" style="font-size:6.75px; font-family:Arial;" text-anchor="middle"><textPath startOffset="22.20632615414155" xlink:href="#id72">December</textPath></text></svg>