<?xml version="1.0" encoding="utf-8" ?>
<svg baseProfile="full" height="200mm" version="1.1" viewBox="0,0,200,200" width="200mm" xmlns="http://www.w3.org/2000/svg" xmlns:ev="http://www.w3.org/2001/xml-events" xmlns:xlink="http://www.w3.org/1999/xlink"><defs /><rect fill="#1a1a1a" height="200" width="200" x="0" y="0" /><text alignment-baseline="middle" fill="#e1ed5e" style="dominant-baseline: central; font-size:9.0px; font-family:Arial;" text-anchor="middle" x="100.0" y="100.0">2024</text><line stroke="#e1ed5e" stroke-width="0.3" x1="100.0" x2="100.0" y1="15.0" y2="10.0" /><path d="M 100.0 14.0 a86.0,86.0 0 0,1 42.35913384403234,11.155469271406648" fill="none" id="id49" stroke="none" /><text fill="#e1ed5e" style="font-size:6.75px; font-family:Arial;" text-anchor="middle"><textPath startOffset="22.145653131862478" xlink:href="#id49">January</textPath></text><line stroke="#e1ed5e" stroke-width="0.3" x1="143.13028292997686" x2="145.6673583964461" y1="26.7553504044142" y2="22.446841604673864" /><path d="M 143.63769802327073 25.89364864446614 a86.0,86.0 0 0,1 29.32050498858742,28.57503671076993" fill="none" id="id50" stroke="none" /><text fill="#e1ed5e" style="font-size:6.75px; font-family:Arial;" text-anchor="middle"><textPath startOffset="20.669276256404974" xlink:href="#id50">February</textPath></text><line stroke="#e1ed5e" stroke-width="0.3" x1="172.87174338648825" x2="177.1583165268699" y1="56.24261187166439" y2="53.66864786411523" /><path d="M 173.72905801456457 55.72781907015455 a86.0,86.0 0 0,1 12.242430191666344,42.057860355516425" fill="none" id="id51" stroke="none" /><text fill="#e1ed5e" style="font-size:6.75px; font-family:Arial;" text-anchor="middle"><textPath startOffset="22.145653131862474" xlink:href="#id51">March</textPath></text><line stroke="#e1ed5e" stroke-width="0.3" x1="184.99686870605535" x2="189.99668451229388" y1="99.2704041080226" y2="99.22748670261217" /><path d="M 185.99683186730306 99.26182062694052 a86.0,86.0 0 0,1 -10.086455211305974,41.156179273409016" fill="none" id="id52" stroke="none" /><text fill="#e1ed5e" style="font-size:6.75px; font-family:Arial;" text-anchor="middle"><textPath startOffset="21.40746469413373" xlink:href="#id52">April</textPath></text><path d="M 120.82617615685814 102.69636545807757 l 7.603137630462775 0.9843783863817261 a28.666596548360594,28.666596548360594 0 0,0 -0.06737398720767046,0.48748460912050734 l -7.585119126699894 -1.1147513037023187" fill="#ff5b08" stroke="none" /><path d="M 120.77682067341334 103.0534771498775 l 13.13390012618154 1.930231027858212 a34.274981142940206,34.274981142940206 0 0,0 -0.0905488005142543,0.5813882546281894 l -13.098829833529019 -2.155407464417852" fill="#ffa70f" stroke="none" /><path d="M 120.7213421655516 103.40968896794604 l 6.341183680134428 1.0434393614627249 a27.426459069056065,27.426459069056065 0 0,0 -0.08043159463378967,0.4639080639831923 l -6.322337268008404 -1.1521404583665051" fill="#ff4a06" stroke="none" /><path d="M 120.65975698304385 103.76489593502545 l 6.879427980060628 1.2536609437704356 a27.992724440071726,27.992724440071726 0 0,0 -0.09020816438016531,0.47200723437898306 l -6.856893523398303 -1.3715707431827333" fill="#ff5207" stroke="none" /><path d="M 120.35273937422433 105.17358676015961 l 8.853131811229717 2.250431486511949 a30.134680330613214,30.134680330613214 0 0,0 -0.13174669747319437,0.5002636694164374 l -8.813195632951793 -2.4020756603011892" fill="#ff700a" stroke="none" /><path d="M 120.26092885502905 105.52220625578681 l 10.024459283560313 2.732210954524745 a31.390128037121755,31.390128037121755 0 0,0 -0.14616066921151327,0.5186726522167266 l -9.97608012227422 -2.9038915306444797" fill="#ff810b" stroke="none" /><path d="M 119.83427380445688 106.89939002012753 l 7.04758345698769 2.4515153641889635 a28.461793361120442,28.461793361120442 0 0,0 -0.16448182869285724,0.46008494880047385 l -7.00446145825089 -2.5721352693703587" fill="#ff5908" stroke="none" /><line stroke="#e1ed5e" stroke-width="0.3" x1="174.33088141563837" x2="178.70328620479359" y1="141.23008692659167" y2="143.65538615756765" /><path d="M 175.20536237346943 141.71514677278685 a86.0,86.0 0 0,1 -30.301960400862466,31.631185727798858" fill="none" id="id53" stroke="none" /><text fill="#e1ed5e" style="font-size:6.75px; font-family:Arial;" text-anchor="middle"><textPath startOffset="22.145653131862474" xlink:href="#id53">May</textPath></text><path d="M 111.8722381534696 117.32195027204791 l 4.45418718458202 6.4987922173018955 a28.878710792950734,28.878710792950734 0 0,0 -0.41132045681641416,0.27675475999483184 l -4.341970439668603 -6.5742966513538486" fill="#ff5e08" stroke="none" /><line stroke="#e1ed5e" stroke-width="0.3" x1="143.1302829299769" x2="145.66735839644613" y1="173.24464959558577" y2="177.55315839532614" /><path d="M 143.63769802327073 174.10635135553383 a86.0,86.0 0 0,1 -40.68552437913181,11.842963189579606" fill="none" id="id54" stroke="none" /><text fill="#e1ed5e" style="font-size:6.75px; font-family:Arial;" text-anchor="middle"><textPath startOffset="21.407464694133747" xlink:href="#id54">June</textPath></text><path d="M 110.65571695917076 118.09573695890943 l 2.867534583190265 4.8697006251961445 a26.651259927204542,26.651259927204542 0 0,0 -0.39622495668017066,0.22876058539894523 l -2.783517158649696 -4.918208107871261" fill="#ff3f05" stroke="none" /><path d="M 109.06512990194946 118.94263497670748 l 0.5903408892153629 1.2335854088342082 a22.367565474252785,22.367565474252785 0 0,0 -0.3477744081219795,0.16277598316038744 l -0.5690777672218771 -1.2435376235651292" fill="#ff0200" stroke="none" /><path d="M 107.407793817531 119.65005319985036 l 1.4059415571583207 3.7294270162677714 a24.98563640235944,24.98563640235944 0 0,0 -0.4026385910182849,0.14785446774752287 l -1.3417138144859087 -3.753012333024016" fill="#ff2803" stroke="none" /><path d="M 107.06938296918513 119.77432235084164 l 1.274150231702371 3.5640249672294235 a24.784934976982022,24.784934976982022 0 0,0 -0.4018632047572299,0.13978888320758653 l -1.2127812549001191 -3.5853722830056007" fill="#ff2503" stroke="none" /><path d="M 106.72888874123015 119.89276391827305 l 1.1964054011843477 3.5369599812934363 a24.73382803477267,24.73382803477267 0 0,0 -0.4033701768019365,0.132595789064553 l -1.1355124867346769 -3.5569766917600085" fill="#ff2403" stroke="none" /><path d="M 106.38641147887787 120.00534299687104 l 1.9819871633920187 6.208546560175535 a27.51723281045861,27.51723281045861 0 0,0 -0.45122937503493815,0.1397920138256517 l -1.8751171554854562 -6.241655161807832" fill="#ff4b07" stroke="none" /><path d="M 106.0420521117495 120.11202640906438 l 1.2791193886006982 4.2577724336168545 a25.445758934845863,25.445758934845863 0 0,0 -0.4194187944118174,0.12208669837827413 l -1.2058405818072742 -4.279102826297647" fill="#ff2e04" stroke="none" /><path d="M 104.9986988182912 120.39639698878246 l 6.715179228912555 27.40022281449395 a49.21109431341389,49.21109431341389 0 0,0 -0.8222186035167244,0.19404135164476144 l -6.243828471655951 -27.511460309784937" fill="#a2ff22" stroke="none" /><path d="M 103.94208987418118 120.62667999033965 l 0.32245791326629564 1.687236059953638 a22.717773159598185,22.717773159598185 0 0,0 -0.383676431941692,0.06991862683418504 l -0.29344674777354646 -1.6925228607191867" fill="#ff0701" stroke="none" /><path d="M 103.58742460773223 120.69131181640829 l 0.23442407658404954 1.3520957779626719 a22.372267335640824,22.372267335640824 0 0,0 -0.378967561857064,0.06235896808950749 l -0.21117901167391329 -1.35592074454785" fill="#ff0200" stroke="none" /><path d="M 103.2317021107853 120.74984581791261 l 0.57003025235329 3.66000313222012 a24.70412707887554,24.70412707887554 0 0,0 -0.41958771032915476,0.06166494412203195 l -0.5071174364164497 -3.669249149641034" fill="#ff2303" stroke="none" /><path d="M 102.875027216393 120.80226474461374 l 0.17275021541345373 1.2499345033081954 a22.261815715342657,22.261815715342657 0 0,0 -0.3790044211054987,0.04906971024496096 l -0.15126797241717962 -1.2527158097535511" fill="#ff0000" stroke="none" /><path d="M 101.44090949804482 120.95050786540614 l 0.403729350226619 5.870136145882363 a26.88400337860449,26.88400337860449 0 0,0 -0.4606838310990817,0.027713595300052005 l -0.3029011669950722 -5.876201719007107" fill="#ff4206" stroke="none" /><path d="M 101.08105385017728 120.97215588758144 l 0.9049750824321154 17.556274833146183 a38.579583781102016,38.579583781102016 0 0,0 -0.6616843926045234,0.028415574871148503 l -0.6034649292267625 -17.569222976443164" fill="#ffde14" stroke="none" /><path d="M 100.72087961077811 120.9876233191556 l 0.12612709494134744 3.6720527524854147 a24.674218210873445,24.674218210873445 0 0,0 -0.42344093947199907,0.01090633655238056 l -0.06307284139860449 -3.6736768063878404" fill="#ff2303" stroke="none" /><line stroke="#e1ed5e" stroke-width="0.3" x1="101.45913802915013" x2="101.54496967792366" y1="184.9874750549273" y2="189.98673829345242" /><path d="M 101.47630435890484 185.9873277026323 a86.0,86.0 0 0,1 -42.54439059252881,-10.42667462771756" fill="none" id="id55" stroke="none" /><text fill="#e1ed5e" style="font-size:6.75px; font-family:Arial;" text-anchor="middle"><textPath startOffset="22.145653131862474" xlink:href="#id55">July</textPath></text><path d="M 100.36049292484886 120.99690560180557 l 0.43451306378745885 25.308207607463608 a46.3119373795267,46.3119373795267 0 0,0 -0.795005988636308,0.006824170257523336 l -3.0998183092055613e-15 -25.311937379526697" fill="#c3ff1e" stroke="none" /><path d="M 100.0 121.0 l 1.6180870235388984e-15 13.21268323785661 a34.21268323785661,34.21268323785661 0 0,0 -0.5873062022543918,-0.005041317392285573 l 0.22681327740553797 -13.210736318658759" fill="#ffa60f" stroke="none" /><path d="M 99.63950707515114 120.99690560180557 l -0.2556379690302307 14.889630098054276 a35.891824442562225,35.891824442562225 0 0,0 -0.6159493172766509,-0.015864669490397085 l 0.5112006003776256 -14.883047711213832" fill="#ffbc11" stroke="none" /><path d="M 99.27912038922189 120.98762331915562 l -0.20173913040452388 5.873414665028497 a26.876878295839397,26.876878295839397 0 0,0 -0.4609694856013229,-0.019796013141344215 l 0.3025343766066855 -5.869086083461323" fill="#ff4206" stroke="none" /><path d="M 98.91894614982273 120.97215588758144 l -0.6753459402605507 13.101530820936501 a34.11892533674064,34.11892533674064 0 0,0 -0.5846613324570236,-0.03517177391844991 l 0.9001516248500205 -13.08800706919336" fill="#ffa50f" stroke="none" /><path d="M 98.55909050195518 120.95050786540614 l -1.2337004519099506 17.937733810739683 a38.98010876135059,38.98010876135059 0 0,0 -0.6671742702791843,-0.05164350802459271 l 1.541443716964371 -17.913912535720037" fill="#ffe315" stroke="none" /><path d="M 98.19965949673042 120.92268563240118 l -0.7956787883053658 9.246993622511537 a30.281163493276484,30.281163493276484 0 0,0 -0.5175201332831746,-0.0490096946855708 l 0.9542984849735556 -9.231972172320784" fill="#ff720a" stroke="none" /><path d="M 97.84075906011543 120.88869738790638 l -1.266875882884891 12.25587494975614 a33.32117872959789,33.32117872959789 0 0,0 -0.5684658121503815,-0.06369777995766697 l 1.4770775966360716 -12.232321409291503" fill="#ff9a0e" stroke="none" /><path d="M 97.48249496171623 120.84855314841334 l -0.9621938682423897 7.968345523075656 a29.026228716850966,29.026228716850966 0 0,0 -0.49416764348307335,-0.06397989502977282 l 1.0988393336162572 -7.950654031845486" fill="#ff6008" stroke="none" /><path d="M 97.12497278360702 120.80226474461374 l -1.1535106760464169 8.346228631171353 a29.425563437749283,29.425563437749283 0 0,0 -0.4997790348377902,-0.0734503072848793 l 1.2966148164918918 -8.325197250587593" fill="#ff6609" stroke="none" /><path d="M 96.76829788921471 120.74984581791261 l -1.2244818699207334 7.862051988916316 a28.95683462981276,28.95683462981276 0 0,0 -0.49050464372364355,-0.0807123524658163 l 1.3592640166974403 -7.839873637954831" fill="#ff5f08" stroke="none" /><path d="M 96.41257539226777 120.69131181640829 l -0.9730680655236628 5.6123980191647735 a26.696127894075644,26.696127894075644 0 0,0 -0.4508661577479711,-0.0821628330836146 l 1.069268956822691 -5.594867012149793" fill="#ff4006" stroke="none" /><path d="M 96.05791012581884 120.62667999033965 l -0.7409874361783861 3.877159377572165 a24.94733165817999,24.94733165817999 0 0,0 -0.41995092465673417,-0.08400194634293351 l 0.8074348463660784 -3.86386803456637" fill="#ff2703" stroke="none" /><path d="M 95.70440661134978 120.55596938700252 l -2.5170594156914516 12.045040489849102 a33.30522606473466,33.30522606473466 0 0,0 -0.5586358258569278,-0.12175207816745447 l 2.723457658167516 -12.00005695354793" fill="#ff9a0e" stroke="none" /><path d="M 95.35216902796893 120.47920084513623 l -4.3496693495306635 19.165445721888005 a40.65283524504497,40.65283524504497 0 0,0 -0.6792272736569573,-0.16029578714306117 l 4.678028776927509 -19.087953791098716" fill="#fff817" stroke="none" /><path d="M 95.00130118170881 120.39639698878247 l -5.140669318576 20.975685077496514 a42.59643131429956,42.59643131429956 0 0,0 -0.7087127442240472,-0.1801520081821266 l 5.499987356025426 -20.884347837479122" fill="#efff19" stroke="none" /><path d="M 94.6519064749342 120.30758222061772 l -4.921336982076591 18.68711811610611 a40.32428371703479,40.32428371703479 0 0,0 -0.6678826605129012,-0.18203438906505823 l 5.241401043524187 -18.599883232896907" fill="#fff417" stroke="none" /><path d="M 94.30408787586889 120.21278271476187 l -5.711957205623552 20.269721048566794 a42.05915588302595,42.05915588302595 0 0,0 -0.6932550331709845,-0.20179643654896656 l 6.0590722511761435 -20.168680917715314" fill="#f5ff19" stroke="none" /><path d="M 93.95794788825049 120.11202640906438 l -6.023462537999638 20.050147763982263 a41.93538932774378,41.93538932774378 0 0,0 -0.6876592442468331,-0.21303859167334957 l 6.366762415118105 -19.943792584502265" fill="#f7ff19" stroke="none" /><path d="M 93.61358852112213 120.00534299687104 l -6.0394083738128295 18.918360712568674 a40.858973426553106,40.858973426553106 0 0,0 -0.6663461600785477,-0.21904121813431593 l 6.363277271539121 -18.811898573032337" fill="#fffa17" stroke="none" /><path d="M 93.27111125876986 119.89276391827306 l -5.094346415361576 15.060529970980324 a36.8988027350019,36.8988027350019 0 0,0 -0.5982775880817862,-0.2081120015369527 l 5.352129775488383 -14.97085953687478" fill="#ffc912" stroke="none" /><path d="M 92.93061703081489 119.77432235084164 l -8.341959151960248 23.33394442307745 a45.78025917605061,45.78025917605061 0 0,0 -0.737739825964838,-0.27090828285564694 l 8.741288129579205 -23.187305291213082" fill="#c9ff1d" stroke="none" /><path d="M 92.59220618246901 119.65005319985036 l -7.06903531224154 18.751456017638546 a41.0396697334849,41.0396697334849 0 0,0 -0.6570797763096408,-0.2541725731578532 l 7.389887351044709 -18.62734355634265" fill="#fffd17" stroke="none" /><path d="M 92.25597844496254 119.51999308798841 l -6.840792131360077 17.243264907191783 a39.550650167691416,39.550650167691416 0 0,0 -0.6289411038341948,-0.2557848715879468 l 7.135787696384712 -17.123292779024542" fill="#ffea16" stroke="none" /><path d="M 91.92203290615298 119.3841803445677 l -7.798478360667903 18.71350912923861 a41.2734232104966,41.2734232104966 0 0,0 -0.6516580697260613,-0.27815407998196295 l 8.118571505564395 -18.576880399597243" fill="#ffff18" stroke="none" /><path d="M 91.59046798132341 119.24265499422711 l -7.825363270701159 17.9059625777245 a40.54123348597291,40.54123348597291 0 0,0 -0.6353131700920954,-0.28416750012490466 l 8.13158984364889 -17.76899132668974" fill="#fff617" stroke="none" /><path d="M 91.26138138417905 119.09545874513695 l -5.648375245944456 12.342719281822367 a34.57375637724752,34.57375637724752 0 0,0 -0.5375581743347079,-0.2516043684920717 l 5.859422134150654 -12.243938681759769" fill="#ffab0f" stroke="none" /><path d="M 90.93487009805054 118.94263497670748 l -7.797205747923244 16.293161148130107 a39.06276605823105,39.06276605823105 0 0,0 -0.6023845915919828,-0.2946564896244731 l 8.075750588777296 -16.156910908408413" fill="#ffe415" stroke="none" /><path d="M 90.6110303473126 118.78422872680471 l -9.666059420274717 19.338593877056056 a42.619757580925636,42.619757580925636 0 0,0 -0.6516211417334002,-0.33272239795352926 l 9.996607783721698 -19.16981352742969" fill="#eeff19" stroke="none" /><path d="M 90.28995756902619 118.62028667847754 l -8.971790773733241 17.204591783589017 a40.40337620435123,40.40337620435123 0 0,0 -0.6122288661051263,-0.3259773872729594 l 9.26580845562493 -17.048043928593486" fill="#fff517" stroke="none" /><path d="M 89.97174638481275 118.45085714620012 l -14.9533233349601 27.512430708418794 a52.31350702564961,52.31350702564961 0 0,0 -0.7853398632272666,-0.4356147836687075 l 15.42340738634347 -27.251683009316938" fill="#80ff25" stroke="none" /><line stroke="#e1ed5e" stroke-width="0.3" x1="58.13341422392154" x2="55.67067388415222" y1="173.97424548756322" y2="178.32567169271397" /><path d="M 57.64086615596768 174.84453072859336 a86.0,86.0 0 0,1 -31.369924170532247,-30.572349798747897" fill="none" id="id56" stroke="none" /><text fill="#e1ed5e" style="font-size:6.75px; font-family:Arial;" text-anchor="middle"><textPath startOffset="22.145653131862474" xlink:href="#id56">August</textPath></text><path d="M 89.65649057296885 118.27599006163327 l -8.195822042489342 14.481232240578397 a37.639639003227245,37.639639003227245 0 0,0 -0.5595894668487154,-0.3230791293207874 l 8.443203977198458 -14.338406213981438" fill="#ffd213" stroke="none" /><path d="M 89.34428304082925 118.09573695890944 l -9.382844091273952 15.934120552631914 a39.491456433362984,39.491456433362984 0 0,0 -0.581215027590093,-0.3490029244037091 l 9.654991875421471 -15.770703627692285" fill="#ffe915" stroke="none" /><path d="M 89.03521579738668 117.91015095944536 l -12.725204155277263 20.785664651426284 a45.37159567601264,45.37159567601264 0 0,0 -0.660774356751154,-0.41237206927283965 l 13.08014264081813 -20.564156785311898" fill="#ceff1d" stroke="none" /><path d="M 88.72937992617639 117.7192867562869 l -7.934343874402678 12.474106430049627 a35.78367829552161,35.78367829552161 0 0,0 -0.5154798483375375,-0.33412780984155044 l 8.147309354997226 -12.336064778504182" fill="#ffbb11" stroke="none" /><path d="M 88.4268655584334 117.5232005979908 l -11.45324584081357 17.341673976053155 a41.782456461685,41.782456461685 0 0,0 -0.5951089438150112,-0.40041585626705956 l 11.749251072725588 -17.142508445728975" fill="#f8ff18" stroke="none" /><path d="M 88.1277618465304 117.32195027204791 l -10.919897821974322 15.932457267360698 a40.31546952622779,40.31546952622779 0 0,0 -0.5674976520755907,-0.39615743523749725 l 11.191790565223679 -15.742655016318071" fill="#fff417" stroke="none" /><path d="M 87.83215693770417 117.11559508785305 l -11.217415071187338 15.778699093000755 a40.359693849510215,40.359693849510215 0 0,0 -0.5612284295024057,-0.40628610225741413 l 11.486624511063697 -15.583812219370275" fill="#fff417" stroke="none" /><path d="M 87.54013794807813 116.9041958592261 l -8.729447709336846 11.843172356690873 a35.712715207613215,35.712715207613215 0 0,0 -0.49036450895220435,-0.36797866931745504 l 8.931465207199816 -11.691574660109403" fill="#ffba11" stroke="none" /><path d="M 87.2517909369889 116.68781488649013 l -4.510756684810363 5.904725297651611 a28.430525332053467,28.430525332053467 0 0,0 -0.3852878465856495,-0.2996021598977063 l 4.611454476031241 -5.826422086133111" fill="#ff5808" stroke="none" /><path d="M 86.96720088162412 116.46651593811092 l -0.8185341100165018 1.0341911086061315 a22.318919761919005,22.318919761919005 0 0,0 -0.29838188236483254,-0.24035532308790236 l 0.8361667627365962 -1.0199874917248186" fill="#ff0100" stroke="none" /><path d="M 86.68645165197938 116.24036423190432 l -0.9953895758917679 1.214213434506848 a22.57006836549588,22.57006836549588 0 0,0 -0.2975225811090476,-0.2482039189184478 l 1.016086491162708 -1.19694733167653" fill="#ff0500" stroke="none" /><path d="M 86.40962598614128 116.0094264158162 l -4.010347602714532 4.724179392122108 a27.196834580941257,27.196834580941257 0 0,0 -0.3533264075797983,-0.3051949355897691 l 4.090853490057193 -4.654640324067617" fill="#ff4706" stroke="none" /><path d="M 86.13680546590413 115.77377054828092 l -8.691944076047726 9.889836800375551 a34.16657752641907,34.16657752641907 0 0,0 -0.43722639500473554,-0.3909705384849749 l 8.860435497875832 -9.739170732007194" fill="#ffa50f" stroke="none" /><path d="M 85.86807049272751 115.53346607816431 l -3.7820902079098495 4.157179663179892 a26.620173404150805,26.620173404150805 0 0,0 -0.3353764459618107,-0.31041943150263795 l 3.8528964251856275 -4.0916424855448765" fill="#ff3f05" stroke="none" /><path d="M 85.60350026404147 115.28858382429668 l -5.305489367785604 5.634245852532185 a28.739053156456688,28.739053156456688 0 0,0 -0.35626506032404565,-0.34129386874873135 l 5.401426913974964 -5.542339853477872" fill="#ff5c08" stroke="none" /><path d="M 85.34317274990678 115.03919595460226 l -14.050709810484662 14.417266065531846 a41.131567424887365,41.131567424887365 0 0,0 -0.5014292189757331,-0.49714352490781505 l 14.296130949590358 -14.173942530395372" fill="#fffe18" stroke="none" /><path d="M 85.08716467003676 114.78537596483092 l -1.1392399519314698 1.1295029168342732 a22.60425824205891,22.60425824205891 0 0,0 -0.2708347487570297,-0.27790031146383 l 1.1584615018393087 -1.109779913302706" fill="#ff0500" stroke="none" /><path d="M 84.83555147118756 114.52719865689866 l -6.587920830869721 6.311079131174981 a30.123070791885787,30.123070791885787 0 0,0 -0.3545114864840211,-0.37647891342986256 l 6.695288151089995 -6.197058757800629" fill="#ff6f0a" stroke="none" /><path d="M 84.58840730492382 114.26474011684316 l -4.308969596302711 3.9883179291569553 a26.871447767450203,26.871447767450203 0 0,0 -0.31043214333765495,-0.3412193052354094 l 4.3767994404822455 -3.913761048363872" fill="#ff4206" stroke="none" /><path d="M 84.3458050057657 113.99807769240083 l -4.620179608285148 4.131393095169817 a27.19794066764363,27.19794066764363 0 0,0 -0.3082289981909445,-0.35070801912450594 l 4.690419670434685 -4.051472798234011" fill="#ff4706" stroke="none" /><path d="M 84.1078160697243 113.72728997021213 l -3.4087561266611006 2.9444023548752276 a25.50434496441429,25.50434496441429 0 0,0 -0.28334773020894577,-0.3337829137184041 l 3.4587984203771582 -2.885452658707269" fill="#ff2f04" stroke="none" /><path d="M 83.8745106332314 113.45245675266167 l -4.466082809570691 3.725765121483251 a26.816117382103283,26.816117382103283 0 0,0 -0.29185280587380813,-0.3560129685636056 l 4.529382434683129 -3.6485498712211504" fill="#ff4206" stroke="none" /><path d="M 83.64595745247003 113.17365903436017 l -4.940793024031964 3.979953119773008 a27.34440403362789,27.34440403362789 0 0,0 -0.29132671982965935,-0.36808179361169363 l 5.008386174503186 -3.894551382246634" fill="#ff4906" stroke="none" /><path d="M 83.4222238831116 112.89097897827486 l -13.043426012079598 10.14264695945003 a37.522840236370854,37.522840236370854 0 0,0 -0.39103806618002174,-0.5118813811202023 l 13.215616055613916 -9.917244665088957" fill="#ffd113" stroke="none" /><path d="M 82.98947788004972 112.3143062007846 l -5.593213799155423 4.049055454239928 a27.904990273314855,27.904990273314855 0 0,0 -0.2775681497030371,-0.3904343633690327 l 5.661897047388421 -3.9524438641613924" fill="#ff5107" stroke="none" /><path d="M 82.78059297857968 112.02048342749411 l -7.087949152167375 4.947938986084853 a29.644138094323147,29.644138094323147 0 0,0 -0.28770378985175477,-0.41976842752563787 l 7.171842678834454 -4.825535823489163" fill="#ff6909" stroke="none" /><path d="M 82.576782715395 111.72311816256416 l -5.327944952989652 3.5848791429998563 a27.42170973277392,27.42170973277392 0 0,0 -0.259429693662468,-0.39280962180780976 l 5.3886990855728465 -3.4928896428529854" fill="#ff4a06" stroke="none" /><path d="M 82.37810715431573 111.42229804090323 l -5.447833926740781 3.5312201324511583 a27.492180690428775,27.492180690428775 0 0,0 -0.2532976467724902,-0.3982259723472143 l 5.507649265139161 -3.4371804854252717" fill="#ff4b07" stroke="none" /><path d="M 82.18462484594161 111.11811171558189 l -3.7447864772945127 2.337023725042144 a25.4141936581824,25.4141936581824 0 0,0 -0.22779835257162945,-0.3720914892149407 l 3.784352794321547 -2.272395119702646" fill="#ff2e04" stroke="none" /><path d="M 81.99639281039703 110.81064883170644 l -11.012103070687179 6.612451490527142 a33.84487947604074,33.84487947604074 0 0,0 -0.29481515398367736,-0.5006605842132078 l 11.123991934800625 -6.422439738020374" fill="#ffa10e" stroke="none" /><line stroke="#e1ed5e" stroke-width="0.3" x1="26.387840678322732" x2="22.057713659400548" y1="142.50000000000003" y2="145.00000000000006" /><path d="M 25.521815274538298 143.00000000000003 a86.0,86.0 0 0,1 -11.493303480769221,-40.785679425670985" fill="none" id="id57" stroke="none" /><text fill="#e1ed5e" style="font-size:6.75px; font-family:Arial;" text-anchor="middle"><textPath startOffset="21.40746469413373" xlink:href="#id57">September</textPath></text><path d="M 81.81346652052679 110.50000000000001 l -4.494162424027743 2.5947058852943212 a26.189411770588638,26.189411770588638 0 0,0 -0.22144598667490148,-0.3912738399099316 l 4.538041775724023 -2.5171752752852683" fill="#ff3905" stroke="none" /><path d="M 81.4637452351635 109.86951160357371 l -7.590259724406125 4.041385780167079 a29.599118658797448,29.599118658797448 0 0,0 -0.23494924980355034,-0.45054616571810535 l 7.658517043184625 -3.9104933713444714" fill="#ff6809" stroke="none" /><path d="M 80.5471966667186 107.91128576633889 l -8.742647078480983 3.5555584563884954 a30.438001582732852,30.438001582732852 0 0,0 -0.19268896484722414,-0.48570206516312703 l 8.802394718294332 -3.404955374011803" fill="#ff740a" stroke="none" /><path d="M 80.28708602549918 107.23885506374661 l -1.4395467724687552 0.5286215146510022 a22.533536962670652,22.533536962670652 0 0,0 -0.1302222006713443,-0.36425467180595766 l 1.4484091431840427 -0.5038318864641229" fill="#ff0400" stroke="none" /><path d="M 80.16572619554312 106.89939002012753 l -3.294722417644127 1.1460754848648105 a24.48836420494404,24.48836420494404 0 0,0 -0.13470300321506865,-0.39822549385025086 l 3.313910842431563 -1.089348316540398" fill="#ff2003" stroke="none" /><path d="M 80.05021161711548 106.5578916946017 l -9.389978575227113 3.0866724663505503 a30.88429282031602,30.88429282031602 0 0,0 -0.16123848673208735,-0.5050772631923403 l 9.441581777736456 -2.9250261694668183" fill="#ff7a0b" stroke="none" /><path d="M 79.94057633289273 106.21446072829308 l -4.340221783602493 1.3446118031051817 a25.543732610080326,25.543732610080326 0 0,0 -0.12616618796003912,-0.41996620639019605 l 4.362664291566162 -1.269907993124262" fill="#ff2f04" stroke="none" /><path d="M 79.83685265289637 105.86919833188381 l -4.489133637105675 1.3067213764268233 a25.67545094802677,25.67545094802677 0 0,0 -0.11955163382682568,-0.4242465728182194 l 4.510903763007075 -1.229466879705608" fill="#ff3104" stroke="none" /><path d="M 79.64726062577567 105.17358676015961 l -6.293182458490292 1.5997023716496586 a27.493319115345514,27.493319115345514 0 0,0 -0.1123461770268889,-0.4584107404966204 l 6.319716162033473 -1.4914358065449385" fill="#ff4b07" stroke="none" /><path d="M 79.48165901384964 104.47187691870673 l -8.670344531894404 1.8896612360416865 a29.873877049449682,29.873877049449682 0 0,0 -0.10490324191323,-0.5019999879558655 l 8.701505484632001 -1.740544796800412" fill="#ff6c09" stroke="none" /><path d="M 79.407916724674 104.11899336999214 l -3.842809274640747 0.7686694790786753 a24.91893300393513,24.91893300393513 0 0,0 -0.08030269470232475,-0.42017763137143394 l 3.8554382616252285 -0.7025892826739268" fill="#ff2703" stroke="none" /><path d="M 79.34024301695615 103.76489593502545 l -12.709321797643105 2.316061801314915 a33.91863006760222,33.91863006760222 0 0,0 -0.09947071538698435,-0.5737206530381609 l 12.747207330522322 -2.0975481153561613" fill="#ffa20f" stroke="none" /><path d="M 79.22317932658666 103.0534771498775 l -6.363957476896258 0.9352825941921331 a27.432317490511686,27.432317490511686 0 0,0 -0.06447310913119539,-0.46649530042995285 l 6.379075102582666 -0.8258989855620946" fill="#ff4a06" stroke="none" /><path d="M 79.0935383218832 101.97986365728391 l -6.502384078245666 0.6157825327131009 a27.531476619311846,27.531476619311846 0 0,0 -0.04051896209927522,-0.4708917588726609 l 6.511996663042682 -0.504069726464778" fill="#ff4c07" stroke="none" /><path d="M 79.03789590574601 101.26102812881392 l -10.504198704942041 0.6319065098628903 a31.52318850302099,31.52318850302099 0 0,0 -0.027858108279852946,-0.5404398582757097 l 10.513498402678467 -0.45149485821044977" fill="#ff820c" stroke="none" /><path d="M 79.01933749520258 100.90099992219065 l -7.977631604481181 0.3425938267325753 a28.984984442497822,28.984984442497822 0 0,0 -0.017080869279399898,-0.497290872206591 l 7.982337160757429 -0.20559668996186442" fill="#ff6008" stroke="none" /><line stroke="#e1ed5e" stroke-width="0.3" x1="15.003131293944662" x2="10.003315487706104" y1="100.72959589197737" y2="100.7725132973878" /><path d="M 14.003168132696942 100.73817937305945 a86.0,86.0 0 0,1 10.791469493833604,-42.45332614584628" fill="none" id="id58" stroke="none" /><text fill="#e1ed5e" style="font-size:6.75px; font-family:Arial;" text-anchor="middle"><textPath startOffset="22.145653131862435" xlink:href="#id58">October</textPath></text><path d="M 79.00077361379809 100.18025310272382 l -42.589348440078545 0.36557833408350626 a63.59091743633579,63.59091743633579 0 0,0 0.0,-1.091662873614632 l 42.589348440078545 0.3655783340834906" fill="#34ff58" stroke="none" /><path d="M 79.00077361379809 99.81974689727619 l -28.89466357068045 -0.24802593509817034 a49.89572805324845,49.89572805324845 0 0,0 0.014703958380566016,-0.8564318598458511 l 28.88614818070122 0.7440047109130739" fill="#9aff22" stroke="none" /><path d="M 79.00696218219943 99.45929381324524 l -26.277536942182202 -0.6768161387899275 a47.2862516885439,47.2862516885439 0 0,0 0.027865817399592333,-0.811282869315514 l 26.26204643778576 1.12780527266958" fill="#b8ff1f" stroke="none" /><path d="M 79.01933749520258 99.09900007780938 l -62.941987514392274 -2.7029997665718684 a84.0,84.0 0 0,0 0.07423364217371864,-1.440112826493152 l 62.886312282761985 3.7830843864417325" fill="#4dd2ff" stroke="none" /><path d="M 79.06263194458094 98.37931529534042 l -3.165542160930455 -0.2450329835438506 a24.175011548900674,24.175011548900674 0 0,0 0.03557914420079721,-0.413483587038808 l 3.1608693940319146 0.29933761795833924" fill="#ff1c02" stroke="none" /><path d="M 79.0935383218832 98.0201363427161 l -3.3746735817699163 -0.31958509682850383 a24.389772325335535,24.389772325335535 0 0,0 0.04305097657224368,-0.4164791456387948 l 3.368690212716009 0.37746876475021135" fill="#ff1f03" stroke="none" /><path d="M 79.13060592940154 97.66154086499901 l -34.22236200102482 -3.8346870432310736 a55.436534170103585,55.436534170103585 0 0,0 0.11408815961078507,-0.9448136242347647 l 34.15149175515437 4.421594344389274" fill="#5fff29" stroke="none" /><path d="M 79.17382384314186 97.30363454192245 l -3.2514848067348243 -0.4209698052254634 a24.27862303800528,24.27862303800528 0 0,0 0.05706110368641039,-0.4128657213178521 l 3.243779186493206 0.47672383474338254" fill="#ff1d03" stroke="none" /><path d="M 79.22317932658666 96.9465228501225 l -30.118400758771287 -4.426367727447506 a51.44192496417636,51.44192496417636 0 0,0 0.13590101135941476,-0.872581981735009 l 30.037978255273607 4.942737891113964" fill="#8aff24" stroke="none" /><path d="M 79.2786578344484 96.59031103205396 l -10.012221437789744 -1.6475072274912044 a31.146864450852405,31.146864450852405 0 0,0 0.0913421586547802,-0.5268372978866996 l 9.98246446164273 1.8191375582984965" fill="#ff7d0b" stroke="none" /><path d="M 79.34024301695615 96.23510406497455 l -55.9070538641662 -10.188127576001959 a77.82778031276317,77.82778031276317 0 0,0 0.2508044979625836,-1.31231511323334 l 55.72392307392146 11.146345254268613" fill="#45fff2" stroke="none" /><line stroke="#e1ed5e" stroke-width="0.3" x1="26.387840678322718" x2="22.05771365940052" y1="57.49999999999999" y2="54.99999999999999" /><path d="M 25.521815274538284 56.99999999999999 a86.0,86.0 0 0,1 29.574782752854787,-30.34633250058573" fill="none" id="id59" stroke="none" /><text fill="#e1ed5e" style="font-size:6.75px; font-family:Arial;" text-anchor="middle"><textPath startOffset="21.40746469413373" xlink:href="#id59">November</textPath></text><line stroke="#e1ed5e" stroke-width="0.3" x1="56.869717070023135" x2="54.33264160355391" y1="26.7553504044142" y2="22.446841604673864" /><path d="M 56.362301976729285 25.89364864446614 a86.0,86.0 0 0,1 42.16139366436587,-11.88097634709845" fill="none" id="id60" stroke="none" /><text fill="#e1ed5e" style="font-size:6.75px; font-family:Arial;" text-anchor="middle"><textPath startOffset="22.145653131862474" xlink:href="#id60">December</textPath></text></svg>