<?xml version="1.0" encoding="utf-8" ?>
<svg baseProfile="full" height="200mm" version="1.1" viewBox="0,0,200,200" width="200mm" xmlns="http://www.w3.org/2000/svg" xmlns:ev="http://www.w3.org/2001/xml-events" xmlns:xlink="http://www.w3.org/1999/xlink"><defs /><rect fill="#1a1a1a" height="200" width="200" x="0" y="0" /><text alignment-baseline="middle" fill="#e1ed5e" style="dominant-baseline: central; font-size:9.0px; font-family:Arial;" text-anchor="middle" x="100.0" y="100.0">2024</text><line stroke="#e1ed5e" stroke-width="0.3" x1="100.0" x2="100.0" y1="15.0" y2="10.0" /><path d="M 100.0 14.0 a86.0,86.0 0 0,1 42.35913384403234,11.155469271406648" fill="none" id="id49" stroke="none" /><text fill="#e1ed5e" style="font-size:6.75px; font-family:Arial;" text-anchor="middle"><textPath startOffset="22.145653131862478" xlink:href="#id49">January</textPath></text><line stroke="#e1ed5e" stroke-width="0.3" x1="143.13028292997686" x2="145.6673583964461" y1="26.7553504044142" y2="22.446841604673864" /><path d="M 143.63769802327073 25.89364864446614 a86.0,86.0 0 0,1 29.32050498858742,28.57503671076993" fill="none" id="id50" stroke="none" /><text fill="#e1ed5e" style="font-size:6.75px; font-family:Arial;" text-anchor="middle"><textPath startOffset="20.669276256404974" xlink:href="#id50">February</textPath></text><line stroke="#e1ed5e" stroke-width="0.3" x1="172.87174338648825" x2="177.1583165268699" y1="56.24261187166439" y2="53.66864786411523" /><path d="M 173.72905801456457 55.72781907015455 a86.0,86.0 0 0,1 12.242430191666344,42.057860355516425" fill="none" id="id51" stroke="none" /><text fill="#e1ed5e" style="font-size:6.75px; font-family:Arial;" text-anchor="middle"><textPath startOffset="22.145653131862474" xlink:href="#id51">March</textPath></text><line stroke="#e1ed5e" stroke-width="0.3" x1="184.99686870605535" x2="189.99668451229388" y1="99.2704041080226" y2="99.22748670261217" /><path d="M 185.99683186730306 99.26182062694052 a86.0,86.0 0 0,1 -10.086455211305974,41.156179273409016" fill="none" id="id52" stroke="none" /><text fill="#e1ed5e" style="font-size:6.75px; font-family:Arial;" text-anchor="middle"><textPath startOffset="21.40746469413373" xlink:href="#id52">April</textPath></text><path d="M 120.82617615685814 102.69636545807757 l 34.680551551593496 4.490091727184475 a55.97000971748885,55.97000971748885 0 0,0 -0.13154413752458308,0.9517878504890535 l -34.5983628975137 -5.084767885873614" fill="#73ff27" stroke="none" /><path d="M 120.77682067341334 103.0534771498775 l 59.90828030976932 8.804454150601446 a81.55179982926963,81.55179982926963 0 0,0 -0.21544629371269372,1.3833197563784072 l -59.74831252391835 -9.831562088911303" fill="#4aebff" stroke="none" /><path d="M 120.7213421655516 103.40968896794604 l 28.92434126615172 4.75948934834253 a50.31331193396259,50.31331193396259 0 0,0 -0.14755021419158243,0.8510304255134874 l -28.838376234467905 -5.2553128067766055" fill="#b7ff1f" stroke="none" /><path d="M 120.65975698304385 103.76489593502545 l 31.37946046801282 5.718383002097993 a52.89624497369969,52.89624497369969 0 0,0 -0.17046119151054553,0.8919249840264994 l -31.276672984220113 -6.256210551157807" fill="#97ff23" stroke="none" /><path d="M 120.35273937422433 105.17358676015961 l 40.38220917404552 10.264999658641779 a62.66644976198815,62.66644976198815 0 0,0 -0.27397329946535326,1.0403212432748272 l -40.20004639377544 -10.95670140628941" fill="#30ff36" stroke="none" /><path d="M 119.83427380445688 106.89939002012753 l 21.312825230041216 7.413706957086906 a43.565450807192846,43.565450807192846 0 0,0 -0.25176646199618474,0.7042356027880257 l -21.18241859800109 -7.778477516255853" fill="#fff016" stroke="none" /><line stroke="#e1ed5e" stroke-width="0.3" x1="174.33088141563837" x2="178.70328620479359" y1="141.23008692659167" y2="143.65538615756765" /><path d="M 175.20536237346943 141.71514677278685 a86.0,86.0 0 0,1 -30.301960400862466,31.631185727798858" fill="none" id="id53" stroke="none" /><text fill="#e1ed5e" style="font-size:6.75px; font-family:Arial;" text-anchor="middle"><textPath startOffset="22.145653131862474" xlink:href="#id53">May</textPath></text><path d="M 111.8722381534696 117.32195027204791 l 20.317094834168035 29.643248546786445 a56.93753646129815,56.93753646129815 0 0,0 -0.8109632620088805,0.5456522748200382 l -19.80523528406215 -29.987650495663605" fill="#68ff28" stroke="none" /><line stroke="#e1ed5e" stroke-width="0.3" x1="143.1302829299769" x2="145.66735839644613" y1="173.24464959558577" y2="177.55315839532614" /><path d="M 143.63769802327073 174.10635135553383 a86.0,86.0 0 0,1 -40.68552437913181,11.842963189579606" fill="none" id="id54" stroke="none" /><text fill="#e1ed5e" style="font-size:6.75px; font-family:Arial;" text-anchor="middle"><textPath startOffset="21.407464694133747" xlink:href="#id54">June</textPath></text><path d="M 110.65571695917076 118.09573695890943 l 13.079821222735662 22.212395958254223 a46.777359395892255,46.777359395892255 0 0,0 -0.6954401874761295,0.4015125794446287 l -12.696588567399134 -22.433655434975023" fill="#e4ff1b" stroke="none" /><path d="M 109.06512990194946 118.94263497670748 l 2.692749840463006 5.62681151436217 a27.23794112840705,27.23794112840705 0 0,0 -0.4234997709203992,0.19821927654776755 l -2.5957613556711006 -5.672207022480471" fill="#ff0000" stroke="none" /><path d="M 107.407793817531 119.65005319985036 l 6.412987771811386 17.01121197351094 a39.17987197339751,39.17987197339751 0 0,0 -0.6313758910761973,0.23184997267052765 l -6.120022729081061 -17.11879279519019" fill="#ffb410" stroke="none" /><path d="M 107.06938296918513 119.77432235084164 l 5.811841760957219 16.256755778290852 a38.26440306206384,38.26440306206384 0 0,0 -0.6204194466083587,0.21581408930943183 l -5.531916542303838 -16.354128300168874" fill="#ffa70f" stroke="none" /><path d="M 106.72888874123015 119.89276391827305 l 5.457220585635147 16.13330297687958 a38.03128654752986,38.03128654752986 0 0,0 -0.6202309952634562,0.203882247496033 l -5.179466852723956 -16.224606145777635" fill="#ffa30f" stroke="none" /><path d="M 106.38641147887787 120.00534299687104 l 9.040531861374415 28.319337292797464 a50.72736249719701,50.72736249719701 0 0,0 -0.831830592648879,0.25770324394143995 l -8.553060635853912 -28.470357124545547" fill="#b2ff20" stroke="none" /><path d="M 106.0420521117495 120.11202640906438 l 5.834507811521655 19.421178933731273 a41.27865065971389,41.27865065971389 0 0,0 -0.6803900775360641,0.198051635459509 l -5.500257721603984 -19.5184742634933" fill="#ffd113" stroke="none" /><path d="M 103.2317021107853 120.74984581791261 l 2.6001059711848025 16.694545525177844 a37.895810171566986,37.895810171566986 0 0,0 -0.6436420995645168,0.09459322360299219 l -2.3131387660126004 -16.736719822079717" fill="#ffa10e" stroke="none" /><path d="M 101.08105385017728 120.97215588758144 l 1.7943006091021523 34.80895246532047 a55.855167284188504,55.855167284188504 0 0,0 -0.9579805901474296,0.04113980847771204 l -1.1964942583538931 -34.83462484222402" fill="#75ff27" stroke="none" /><path d="M 100.72087961077811 120.9876233191556 l 0.47601408533677525 13.858630717654895 a34.86680333666584,34.86680333666584 0 0,0 -0.5983586525451492,0.01541159636530109 l -0.23804211872088224 -13.86476003137024" fill="#ff750a" stroke="none" /><line stroke="#e1ed5e" stroke-width="0.3" x1="101.45913802915013" x2="101.54496967792366" y1="184.9874750549273" y2="189.98673829345242" /><path d="M 101.47630435890484 185.9873277026323 a86.0,86.0 0 0,1 -42.54439059252881,-10.42667462771756" fill="none" id="id55" stroke="none" /><text fill="#e1ed5e" style="font-size:6.75px; font-family:Arial;" text-anchor="middle"><textPath startOffset="22.145653131862474" xlink:href="#id55">July</textPath></text><path d="M 100.36049292484886 120.99690560180557 l 0.7352643979829021 42.82546505812356 a63.831776418676625,63.831776418676625 0 0,0 -1.095757322831749,0.009405758747501231 l -5.245379789292741e-15 -42.831776418676625" fill="#32ff46" stroke="none" /><path d="M 100.0 121.0 l 2.8173347145612635e-15 23.005283780783174 a44.005283780783174,44.005283780783174 0 0,0 -0.7554092123303944,-0.006484279556040539 l 0.3949162874815394 -23.001893899421567" fill="#fff617" stroke="none" /><path d="M 99.63950707515114 120.99690560180557 l -0.4641793470313668 27.03611987950076 a48.04010430092581,48.04010430092581 0 0,0 -0.8244292371764979,-0.02123437269782835 l 0.9282218982786086 -27.024167789452882" fill="#d3ff1c" stroke="none" /><path d="M 99.27912038922189 120.98762331915562 l -0.39187122905907246 11.408903265038981 a32.415631247162,32.415631247162 0 0,0 -0.5559654918614408,-0.02387555039281194 l 0.587662481521352 -11.40049514622034" fill="#ff5107" stroke="none" /><path d="M 98.91894614982273 120.97215588758144 l -1.4470661269303524 28.07269627562559 a49.10996756595838,49.10996756595838 0 0,0 -0.8415475807239285,-0.050625412709358865 l 1.9287580597867273 -28.043718885091536" fill="#c6ff1e" stroke="none" /><path d="M 98.55909050195518 120.95050786540614 l -1.932271745746248 28.0948071077949 a49.16117647619879,49.16117647619879 0 0,0 -0.8414310037558165,-0.06513208127229 l 2.4142717442773005 -28.05749725952756" fill="#c5ff1e" stroke="none" /><path d="M 98.19965949673042 120.92268563240118 l -1.206568994418761 14.022160651376513 a35.07397591554371,35.07397591554371 0 0,0 -0.5994316795196237,-0.0567668032772761 l 1.4471002373233999 -13.999382092594054" fill="#ff780b" stroke="none" /><path d="M 97.84075906011543 120.88869738790638 l -2.8942539047554368 27.99928107302128 a49.14847147308784,49.14847147308784 0 0,0 -0.8384825152383167,-0.09395371473961663 l 3.3744723215945527 -27.945471597774695" fill="#c5ff1e" stroke="none" /><path d="M 97.12497278360702 120.80226474461374 l -1.1591502003410445 8.387033419641396 a29.46675609481768,29.46675609481768 0 0,0 -0.5004786722953906,-0.07355312989780752 l 1.30295397824412 -8.365899216444705" fill="#ff2303" stroke="none" /><path d="M 96.05791012581884 120.62667999033965 l -3.3799010656477484 17.685070585714424 a39.00515073070115,39.00515073070115 0 0,0 -0.6565932316998846,-0.13133703530590038 l 3.682990782878591 -17.62444415374566" fill="#ffb110" stroke="none" /><path d="M 95.70440661134978 120.55596938700252 l -11.481182252253666 54.94161331179497 a77.12841008983125,77.12841008983125 0 0,0 -1.2936916561928749,-0.28195407519337706 l 12.422636325065676 -54.73642777846787" fill="#44ffe5" stroke="none" /><path d="M 95.35216902796893 120.47920084513623 l -12.51020765895244 55.122283233568425 a77.52407809555014,77.52407809555014 0 0,0 -1.2952717292707814,-0.30568060126583696 l 13.454611541963109 -54.89940648865636" fill="#44ffe9" stroke="none" /><path d="M 95.00130118170881 120.39639698878247 l -13.424088748803195 54.77486307663521 a77.39584899440631,77.39584899440631 0 0,0 -1.2876999983320696,-0.3273283040643423 l 14.362394040360643 -54.5363495407356" fill="#44ffe8" stroke="none" /><path d="M 94.6519064749342 120.30758222061772 l -14.354612825107628 54.50680299900324 a77.36529501857409,77.36529501857409 0 0,0 -1.281385168077831,-0.3492472256263482 l 15.288179394120155 -54.252355279232745" fill="#44ffe7" stroke="none" /><path d="M 94.30408787586889 120.21278271476187 l -15.334111196655547 54.41535104252972 a77.53463889752138,77.53463889752138 0 0,0 -1.2779923308564114,-0.37200494185250965 l 16.265963539893566 -54.14410240637469" fill="#44ffe9" stroke="none" /><path d="M 93.95794788825049 120.11202640906438 l -16.403679175130545 54.602512966495674 a78.01328891352384,78.01328891352384 0 0,0 -1.279266990374451,-0.39632018370097344 l 17.33858679837663 -54.31287619498805" fill="#45ffee" stroke="none" /><path d="M 93.61358852112213 120.00534299687104 l -17.316912592215917 54.244982052892134 a77.94201910404158,77.94201910404158 0 0,0 -1.271112824998068,-0.4178400330856683 l 18.24554815486173 -53.93972109840445" fill="#45ffed" stroke="none" /><path d="M 93.27111125876986 119.89276391827306 l -18.51257066634073 54.72912570680119 a78.77536216508821,78.77536216508821 0 0,0 -1.2772645772512148,-0.44429892237190494 l 19.449341015636964 -54.403268351860696" fill="#46fff6" stroke="none" /><path d="M 92.93061703081489 119.77432235084164 l -20.75002661042531 58.04151745232012 a82.6391219316218,82.6391219316218 0 0,0 -1.3317131123542307,-0.48902350100512115 l 21.743328874433658 -57.67676310230628" fill="#4be0ff" stroke="none" /><path d="M 92.59220618246901 119.65005319985036 l -21.65902228578964 57.45312985970275 a82.4001252201671,82.4001252201671 0 0,0 -1.319295603477464,-0.5103318811225903 l 22.64209015176063 -57.07285809044212" fill="#4be2ff" stroke="none" /><path d="M 92.25597844496254 119.51999308798841 l -20.698255586024437 52.17312517806648 a77.12889429830759,77.12889429830759 0 0,0 -1.2265166744873266,-0.49881365388852433 l 21.590826721702207 -51.81012426759866" fill="#44ffe5" stroke="none" /><path d="M 91.92203290615298 119.3841803445677 l -23.81191467784307 57.13992680365702 a82.90297663079022,82.90297663079022 0 0,0 -1.308939010225498,-0.5587082291405161 l 24.789288763239 -56.7227439248571" fill="#4cddff" stroke="none" /><path d="M 91.59046798132341 119.24265499422711 l -25.22859605602977 57.72796498268131 a84.0,84.0 0 0,0 -1.3163463885774596,-0.5887849963605802 l 26.215855847462862 -57.28637623541087" fill="#4dd2ff" stroke="none" /><path d="M 91.26138138417905 119.09545874513695 l -25.764201362720602 56.299429675592194 a82.91461744738285,82.91461744738285 0 0,0 -1.28916944674278,-0.6033963950570101 l 26.72685952333487 -55.84885704896466" fill="#4cddff" stroke="none" /><path d="M 90.93487009805054 118.94263497670748 l -26.557244392895907 55.49442666162504 a82.52169227391653,82.52169227391653 0 0,0 -1.2725621074503495,-0.6224738956543922 l 27.505966749608326 -55.03035901587342" fill="#4be1ff" stroke="none" /><path d="M 90.6110303473126 118.78422872680471 l -28.101797282186848 56.22241921208092 a83.85436685345013,83.85436685345013 0 0,0 -1.2820645017659869,-0.6546312696729543 l 29.062789005666417 -55.73172999073513" fill="#4dd3ff" stroke="none" /><line stroke="#e1ed5e" stroke-width="0.3" x1="58.13341422392154" x2="55.67067388415222" y1="173.97424548756322" y2="178.32567169271397" /><path d="M 57.64086615596768 174.84453072859336 a86.0,86.0 0 0,1 -31.369924170532247,-30.572349798747897" fill="none" id="id56" stroke="none" /><text fill="#e1ed5e" style="font-size:6.75px; font-family:Arial;" text-anchor="middle"><textPath startOffset="22.145653131862474" xlink:href="#id56">August</textPath></text><line stroke="#e1ed5e" stroke-width="0.3" x1="26.387840678322732" x2="22.057713659400548" y1="142.50000000000003" y2="145.00000000000006" /><path d="M 25.521815274538298 143.00000000000003 a86.0,86.0 0 0,1 -11.493303480769221,-40.785679425670985" fill="none" id="id57" stroke="none" /><text fill="#e1ed5e" style="font-size:6.75px; font-family:Arial;" text-anchor="middle"><textPath startOffset="21.40746469413373" xlink:href="#id57">September</textPath></text><line stroke="#e1ed5e" stroke-width="0.3" x1="15.003131293944662" x2="10.003315487706104" y1="100.72959589197737" y2="100.7725132973878" /><path d="M 14.003168132696942 100.73817937305945 a86.0,86.0 0 0,1 10.791469493833604,-42.45332614584628" fill="none" id="id58" stroke="none" /><text fill="#e1ed5e" style="font-size:6.75px; font-family:Arial;" text-anchor="middle"><textPath startOffset="22.145653131862435" xlink:href="#id58">October</textPath></text><line stroke="#e1ed5e" stroke-width="0.3" x1="26.387840678322718" x2="22.05771365940052" y1="57.49999999999999" y2="54.99999999999999" /><path d="M 25.521815274538284 56.99999999999999 a86.0,86.0 0 0,1 29.574782752854787,-30.34633250058573" fill="none" id="id59" stroke="none" /><text fill="#e1ed5e" style="font-size:6.75px; font-family:Arial;" text-anchor="middle"><textPath startOffset="21.40746469413373" xlink:href="#id59">November</textPath></text><line stroke="#e1ed5e" stroke-width="0.3" x1="56.869717070023135" x2="54.33264160355391" y1="26.7553504044142" y2="22.446841604673864" /><path d="M 56.362301976729285 25.89364864446614 a86.0,86.0 0 0,1 42.16139366436587,-11.88097634709845" fill="none" id="id60" stroke="none" /><text fill="#e1ed5e" style="font-size:6.75px; font-family:Arial;" text-anchor="middle"><textPath startOffset="22.145653131862474" xlink:href="#id60">December</textPath></text></svg>