<?xml version="1.0" encoding="utf-8" ?>
<svg baseProfile="full" height="200mm" version="1.1" viewBox="0,0,200,200" width="200mm" xmlns="http://www.w3.org/2000/svg" xmlns:ev="http://www.w3.org/2001/xml-events" xmlns:xlink="http://www.w3.org/1999/xlink"><defs /><rect fill="#1a1a1a" height="200" width="200" x="0" y="0" /><rect fill="#1a1a1a" height="200" width="180" x="10" y="0" /><text alignment-baseline="middle" fill="#e1ed5e" style="dominant-baseline: central; font-size:9.0px; font-family:Arial;" text-anchor="middle" x="100.0" y="100.0">2024</text><line stroke="#e1ed5e" stroke-width="0.3" x1="100.0" x2="100.0" y1="15.0" y2="10.0" /><path d="M 100.0 14.0 a86.0,86.0 0 0,1 42.35913384403234,11.155469271406648" fill="none" id="id49" stroke="none" /><text fill="#e1ed5e" style="font-size:6.75px; font-family:Arial;" text-anchor="middle"><textPath startOffset="22.145653131862478" xlink:href="#id49">January</textPath></text><line stroke="#e1ed5e" stroke-width="0.3" x1="143.13028292997686" x2="145.6673583964461" y1="26.7553504044142" y2="22.446841604673864" /><path d="M 143.63769802327073 25.89364864446614 a86.0,86.0 0 0,1 29.32050498858742,28.57503671076993" fill="none" id="id50" stroke="none" /><text fill="#e1ed5e" style="font-size:6.75px; font-family:Arial;" text-anchor="middle"><textPath startOffset="20.669276256404974" xlink:href="#id50">February</textPath></text><path d="M 115.16444852881244 85.47280134310134 l 6.59123600585582 -6.314254993819371 a30.12766170559925,30.12766170559925 0 0,0 0.35456551589077784,0.376536290787511 l -6.698657355482858 6.200177243087365" fill="#ff6e0a" stroke="none" /><path d="M 115.6541949942343 86.00192230759917 l 1.6589115286921814 -1.483408918312661 a23.225418944593887,23.225418944593887 0 0,0 0.2632091782733287,0.29948372823261477 l -1.6841317709241004 1.4547129122687485" fill="#ff0c01" stroke="none" /><path d="M 116.1254893667686 86.54754324733833 l 2.4014750310763815 -2.003395882343114 a24.1274074544697,24.1274074544697 0 0,0 0.2625902722497475,0.3203174355636605 l -2.4355121225647567 1.9618761650809582" fill="#ff1902" stroke="none" /><path d="M 116.35404254752997 86.82634096563983 l 2.1542176885289703 -1.7352852808099342 a23.766201159598975,23.766201159598975 0 0,0 0.2532046197870377,0.31991576555859413 l -2.183688738957567 1.6980495713366617" fill="#ff1402" stroke="none" /><path d="M 116.7966241395341 87.39550010848427 l 3.4979224823684514 -2.624906242068623 a25.373281888045806,25.373281888045806 0 0,0 0.25844255963729956,0.35062696747872474 l -3.542467061589577 2.5644729653210234" fill="#ff2b04" stroke="none" /><path d="M 117.21940702142032 87.97951657250589 l 1.3355456123095708 -0.9323145610914009 a22.62877024880196,22.62877024880196 0 0,0 0.21961788666447005,0.32042906000352356 l -1.3513532357893658 0.9092507660178286" fill="#ff0400" stroke="none" /><line stroke="#e1ed5e" stroke-width="0.3" x1="172.87174338648825" x2="177.1583165268699" y1="56.24261187166439" y2="53.66864786411523" /><path d="M 173.72905801456457 55.72781907015455 a86.0,86.0 0 0,1 12.242430191666344,42.057860355516425" fill="none" id="id51" stroke="none" /><text fill="#e1ed5e" style="font-size:6.75px; font-family:Arial;" text-anchor="middle"><textPath startOffset="22.145653131862474" xlink:href="#id51">March</textPath></text><line stroke="#e1ed5e" stroke-width="0.3" x1="184.99686870605535" x2="189.99668451229388" y1="99.2704041080226" y2="99.22748670261217" /><path d="M 185.99683186730306 99.26182062694052 a86.0,86.0 0 0,1 -10.086455211305974,41.156179273409016" fill="none" id="id52" stroke="none" /><text fill="#e1ed5e" style="font-size:6.75px; font-family:Arial;" text-anchor="middle"><textPath startOffset="21.40746469413373" xlink:href="#id52">April</textPath></text><path d="M 120.99922638620191 100.18025310272382 l 1.5718077578201466 0.013492079185289692 a22.571865663389953,22.571865663389953 0 0,0 -0.006651787362074176,0.3874332662238447 l -1.571344538859404 -0.04047226137820545" fill="#ff0300" stroke="none" /><path d="M 120.99303781780057 100.54070618675476 l 8.50209240003577 0.2189837412269073 a29.504912054669802,29.504912054669802 0 0,0 -0.017387262943194107,0.5062111894230659 l -8.49708045009573 -0.3649011952140839" fill="#ff6509" stroke="none" /><path d="M 120.98066250479742 100.90099992219065 l 1.3971282804565524 0.05999869983580655 a22.39841598819288,22.39841598819288 0 0,0 -0.019794238068159522,0.38400293044909745 l -1.3958924529318202 -0.08397342366163464" fill="#ff0000" stroke="none" /><path d="M 120.96210409425399 101.26102812881392 l 7.584887354988535 0.4562879883392687 a28.598599536504583,28.598599536504583 0 0,0 -0.03368647946474764,0.48979401825144847 l -7.575936914358721 -0.5864254307450607" fill="#ff5908" stroke="none" /><path d="M 120.9064616781168 101.97986365728391 l 4.026986827947412 0.38135983944903873 a25.045004108725546,25.045004108725546 0 0,0 -0.04420754202844283,0.427667867275923 l -4.019846893437303 -0.4504322290078931" fill="#ff2703" stroke="none" /><path d="M 120.86939407059847 102.33845913500097 l 6.360065754660394 0.7126586336373687 a27.399868649566315,27.399868649566315 0 0,0 -0.056388817133023954,0.46698029719751666 l -6.346894851267707 -0.8217326077582939" fill="#ff4806" stroke="none" /><path d="M 120.82617615685814 102.69636545807757 l 14.244350444777545 1.8442163469073607 a35.36323965990384,35.36323965990384 0 0,0 -0.08311284712326275,0.6013631591654338 l -14.210593081099072 -2.0884678142728794" fill="#ffb410" stroke="none" /><path d="M 120.77682067341334 103.0534771498775 l 14.694157373920136 2.1595351128666063 a35.851998277445205,35.851998277445205 0 0,0 -0.09471501753781252,0.6081383565618694 l -14.654920864244056 -2.4114616513599265" fill="#ffba11" stroke="none" /><path d="M 120.7213421655516 103.40968896794604 l 7.029916876037914 1.1567701467549247 a28.124454256743185,28.124454256743185 0 0,0 -0.08247855468251601,0.47571438558578116 l -7.0090235038631645 -1.277277565261294" fill="#ff5207" stroke="none" /><path d="M 120.65975698304385 103.76489593502545 l 7.62662135241766 1.3898244665347042 a28.752223248909402,28.752223248909402 0 0,0 -0.09265569297070479,0.4848137381918247 l -7.601639367164796 -1.5205407697598434" fill="#ff5b08" stroke="none" /><path d="M 120.592083275326 104.11899336999214 l 5.163829812616617 1.03291058401175 a26.266122160397693,26.266122160397693 0 0,0 -0.09223447504164833,0.4413753523300998 l -5.145337626750605 -1.121402387627259" fill="#ff3805" stroke="none" /><path d="M 120.43855184770803 104.8234425847677 l 1.9783412141881387 0.46688313980455537 a23.032686357013585,23.032686357013585 0 0,0 -0.09411865653665248,0.38403623673984744 l -1.9700350311351904 -0.5007752011525024" fill="#ff0a01" stroke="none" /><path d="M 120.35273937422433 105.17358676015961 l 11.483172230851357 2.918977476486712 a32.84836165854303,32.84836165854303 0 0,0 -0.14361072088499174,0.5453132987419532 l -11.431372029161636 -3.115671279601468" fill="#ff930d" stroke="none" /><path d="M 120.26092885502905 105.52220625578681 l 11.113243054514655 3.028963812904721 a32.5186280853496,32.5186280853496 0 0,0 -0.15141526142149553,0.5373193462457806 l -11.05960930101858 -3.21929108305351" fill="#ff8e0d" stroke="none" /><path d="M 120.16314734710363 105.8691983318838 l 11.625741786035672 3.3840839985387428 a33.108257371923585,33.108257371923585 0 0,0 -0.163529061565851,0.5443350610078778 l -11.565936404466191 -3.583156663137344" fill="#ff960d" stroke="none" /><path d="M 120.05942366710727 106.21446072829308 l 8.081042484982767 2.5035276187391737 a29.459958521286396,29.459958521286396 0 0,0 -0.153802425031977,0.4817839058274832 l -8.036875344173536 -2.6418805582580402" fill="#ff6509" stroke="none" /><path d="M 119.83427380445688 106.89939002012753 l 7.813040652768648 2.717781111524731 a29.272239020481464,29.272239020481464 0 0,0 -0.16916542618850858,0.4731858045674206 l -7.765235056536196 -2.8515018724730727" fill="#ff6209" stroke="none" /><path d="M 119.71291397450082 107.23885506374661 l 1.8744282717228946 0.6883160249135448 a22.99681253401186,22.99681253401186 0 0,0 -0.13926137735227567,0.3694073486738449 l -1.8623362105561785 -0.7203916537815487" fill="#ff0901" stroke="none" /><path d="M 119.58574465831526 107.57618678355244 l 2.786314008957286 1.077806115506922 a23.98750929356475,23.98750929356475 0 0,0 -0.15185386998804296,0.3827709506597011 l -2.7674014640031186 -1.1254780833801874" fill="#ff1702" stroke="none" /><path d="M 119.4528033332814 107.91128576633889 l 1.7781870926722434 0.7231732103144861 a22.919616844232912,22.919616844232912 0 0,0 -0.15135040521054,0.3631858753248955 l -1.765510842925218 -0.7535915950806594" fill="#ff0801" stroke="none" /><path d="M 119.31412917781788 108.2440532568976 l 4.357242452649917 1.8598477053843272 a25.73757272011713,25.73757272011713 0 0,0 -0.17693492666235025,0.4048617381598655 l -4.324673643970601 -1.9343715133200374" fill="#ff3104" stroke="none" /><path d="M 119.0197475246899 108.90220220490707 l 1.5890393642867544 0.7437506577873627 a22.754483155294455,22.754483155294455 0 0,0 -0.1686223596840765,0.3523558782891406 l -1.576037746642766 -0.7709190381416069" fill="#ff0500" stroke="none" /><path d="M 118.8641267826498 109.22738970284198 l 4.881299113228538 2.387688001297971 a26.43397966727407,26.43397966727407 0 0,0 -0.20288719699669228,0.4059103027386264 l -4.839592003020114 -2.471130160200343" fill="#ff3b05" stroke="none" /><path d="M 118.70294669586154 109.54985784667822 l 1.9491750935074768 0.9952626911673221 a23.188568337881982,23.188568337881982 0 0,0 -0.18406415399751902,0.35296728505866426 l -1.9318028705350085 -1.0285762193304893" fill="#ff0c01" stroke="none" /><path d="M 118.5362547648365 109.86951160357373 l 9.002983851539579 4.793581805862738 a31.199614931975653,31.199614931975653 0 0,0 -0.25576946670239614,0.47058701081699433 l -8.919369035221845 -4.947423650154335" fill="#ff7d0b" stroke="none" /><line stroke="#e1ed5e" stroke-width="0.3" x1="174.33088141563837" x2="178.70328620479359" y1="141.23008692659167" y2="143.65538615756765" /><path d="M 175.20536237346943 141.71514677278685 a86.0,86.0 0 0,1 -30.301960400862466,31.631185727798858" fill="none" id="id53" stroke="none" /><text fill="#e1ed5e" style="font-size:6.75px; font-family:Arial;" text-anchor="middle"><textPath startOffset="22.145653131862474" xlink:href="#id53">May</textPath></text><path d="M 118.00360718960297 110.81064883170644 l 7.141743766083266 4.288411932567689 a29.330364993430848,29.330364993430848 0 0,0 -0.26290068123711574,0.42942850504759933 l -7.067075120390745 -4.4103775537398455" fill="#ff6309" stroke="none" /><path d="M 117.62189284568427 111.42229804090321 l 1.990347241100478 1.2901190349881688 a23.371895711154917,23.371895711154917 0 0,0 -0.2211154520904745,0.3347969767274476 l -1.9679073500892768 -1.3240958900546775" fill="#ff0f01" stroke="none" /><path d="M 117.423217284605 111.72311816256416 l 3.2136161555461173 2.162264368583657 a24.87333396376216,24.87333396376216 0 0,0 -0.24140194006832366,0.35221264494406695 l -3.1760244786624736 -2.217111748597768" fill="#ff2403" stroke="none" /><path d="M 117.21940702142032 112.02048342749411 l 1.330657277304396 0.9289021236105605 a22.622808659359247,22.622808659359247 0 0,0 -0.2250268170374195,0.31652839904348484 l -1.314515361737016 -0.9516077493635493" fill="#ff0400" stroke="none" /><path d="M 117.01052211995028 112.31430620078461 l 3.1483833442817115 2.279186744859809 a24.88677371356954,24.88677371356954 0 0,0 -0.2534871731622285,0.3439040340157634 l -3.108794151535655 -2.33289708814445" fill="#ff2403" stroke="none" /><path d="M 116.79662413953412 112.60449989151573 l 1.2373515006233367 0.9285316338456966 a22.547000236311224,22.547000236311224 0 0,0 -0.23496982944327344,0.307583049374103 l -1.2212296938257587 -0.9496355964606769" fill="#ff0200" stroke="none" /><path d="M 116.57777611688842 112.89097897827486 l 6.4536519556066185 5.018398795244588 a29.1752033633554,29.1752033633554 0 0,0 -0.3108320183448485,0.39272610109780176 l -6.366553506620209 -5.128444840257073" fill="#ff6108" stroke="none" /><path d="M 116.35404254752997 113.17365903436017 l 2.147213233892939 1.7296429879744746 a23.75720683621201,23.75720683621201 0 0,0 -0.2585611994486703,0.31540262186442264 l -2.117205215205641 -1.76624789153739" fill="#ff1402" stroke="none" /><path d="M 116.1254893667686 113.45245675266167 l 6.828832134845495 5.6968546427192335 a29.893092889775197,29.893092889775197 0 0,0 -0.332105765941494,0.3912197572110094 l -6.730031805396886 -5.813241182379799" fill="#ff6b09" stroke="none" /><path d="M 115.89218393027572 113.72728997021213 l 3.728271222735584 3.2203918848805286 a25.926553582625754,25.926553582625754 0 0,0 -0.29382061439761076,0.33431392327822307 l -3.672439544379388 -3.283918085970045" fill="#ff3304" stroke="none" /><path d="M 115.6541949942343 113.99807769240083 l 8.231553891629156 7.3607062481749415 a32.0425756027621,32.0425756027621 0 0,0 -0.3701715481989511,0.4068833759813876 l -8.103984642588326 -7.500927199714001" fill="#ff880c" stroke="none" /><path d="M 115.41159269507618 114.26474011684316 l 7.193860419573534 6.658529806257215 a30.8024306637243,30.8024306637243 0 0,0 -0.36250671644203825,0.3849695705791397 l -7.078497869395236 -6.781040836780853" fill="#ff770b" stroke="none" /><path d="M 115.16444852881244 114.52719865689866 l 5.17745488263967 4.959884658801144 a28.1698322777022,28.1698322777022 0 0,0 -0.33751912430656644,0.3463243553505006 l -5.0915489571822965 -5.0480317062193825" fill="#ff5307" stroke="none" /><path d="M 114.91283532996324 114.78537596483092 l 1.3645008598596207 1.3528385294259988 a22.92146680514058,22.92146680514058 0 0,0 -0.27943241450422807,0.277044117620231 l -1.3410765252254278 -1.3760626572748915" fill="#ff0801" stroke="none" /><path d="M 114.65682725009322 115.03919595460226 l 10.527339427747325 10.801977660853957 a36.083354958781264,36.083354958781264 0 0,0 -0.44730905228852813,0.4285119535522876 l -10.340357889593486 -10.981101744711825" fill="#ffbd11" stroke="none" /><path d="M 114.39649973595853 115.28858382429668 l 8.275436489027387 8.788226774951895 a33.07127909261928,33.07127909261928 0 0,0 -0.4166512320225665,0.38564616011836766 l -8.123355485690853 -8.928990681202642" fill="#ff960d" stroke="none" /><path d="M 113.86319453409587 115.77377054828091 l 3.2841169305279543 3.736722209910981 a25.974788124877517,25.974788124877517 0 0,0 -0.33745024806088975,0.2914814871244362 l -3.219487202704209 -3.7925478295001347" fill="#ff3404" stroke="none" /><path d="M 113.59037401385872 116.0094264158162 l 2.426559881840999 2.8584814393106623 a24.74954783927926,24.74954783927926 0 0,0 -0.32625285999050063,0.2721717393891354 l -2.3771326876886034 -2.899715362611668" fill="#ff2203" stroke="none" /><path d="M 113.31354834802062 116.24036423190432 l 5.571396221839282 6.796197494289928 a29.787989317364794,29.787989317364794 0 0,0 -0.39823595492933966,0.32079069564694834 l -5.45390949655469 -6.890836483730281" fill="#ff6909" stroke="none" /><path d="M 113.03279911837588 116.46651593811092 l 2.1172540835782105 2.6750813693670823 a24.411572245631547,24.411572245631547 0 0,0 -0.3308233665202547,0.2572502507733949 l -2.071020772422725 -2.7110326717612705" fill="#ff1e03" stroke="none" /><path d="M 112.7482090630111 116.68781488649013 l 5.622354255192151 7.359842200042759 a30.261649128551973,30.261649128551973 0 0,0 -0.4155169560404321,0.3118116702395787 l -5.495184310240952 -7.455272897546353" fill="#ff700a" stroke="none" /><path d="M 112.45986205192187 116.90419585922612 l 1.2510568798009256 1.697298929880621 a23.108546175418297,23.108546175418297 0 0,0 -0.3213397288510552,0.23262518267490756 l -1.2217361405759026 -1.7185248839286056" fill="#ff0b01" stroke="none" /><path d="M 111.8722381534696 117.32195027204791 l 9.762239008472038 14.243398461408065 a38.26776506062596,38.26776506062596 0 0,0 -0.5450490750411919,0.3667333424550707 l -9.516293645333842 -14.408881477920255" fill="#ffd914" stroke="none" /><path d="M 111.5731344415666 117.5232005979908 l 5.831103735281734 8.829034258345974 a31.580813612698385,31.580813612698385 0 0,0 -0.4549357077549845,0.294883829389494 l -5.67868239526974 -8.927831929439364" fill="#ff820b" stroke="none" /><path d="M 111.27062007382361 117.71928675628689 l 3.517969316396975 5.530832084548197 a27.55486168111718,27.55486168111718 0 0,0 -0.4012983394439702,0.25043984370989536 l -3.42250684816329 -5.590407725099641" fill="#ff4a06" stroke="none" /><path d="M 110.96478420261333 117.91015095944535 l 4.57443379857511 7.4719938279261795 a29.761057946510412,29.761057946510412 0 0,0 -0.43800800673630336,0.26301122305292546 l -4.44549303528137 -7.549419051515029" fill="#ff6909" stroke="none" /><line stroke="#e1ed5e" stroke-width="0.3" x1="143.1302829299769" x2="145.66735839644613" y1="173.24464959558577" y2="177.55315839532614" /><path d="M 143.63769802327073 174.10635135553383 a86.0,86.0 0 0,1 -40.68552437913181,11.842963189579606" fill="none" id="id54" stroke="none" /><text fill="#e1ed5e" style="font-size:6.75px; font-family:Arial;" text-anchor="middle"><textPath startOffset="21.407464694133747" xlink:href="#id54">June</textPath></text><path d="M 110.65571695917076 118.09573695890943 l 5.849791513007461 9.934224875665395 a32.528611565402976,32.528611565402976 0 0,0 -0.48360369241724577,0.2792087219981949 l -5.678395352729816 -10.033180494939762" fill="#ff8e0d" stroke="none" /><path d="M 110.34350942703117 118.27599006163325 l 0.8329290357580201 1.4717057964656977 a22.691061421107914,22.691061421107914 0 0,0 -0.34064233285291906,0.18894855983031467 l -0.8075425147490066 -1.485787271729156" fill="#ff0500" stroke="none" /><path d="M 110.02825361518725 118.45085714620011 l 3.955444011320979 7.277571469886819 a29.283029869921126,29.283029869921126 0 0,0 -0.443723219631682,0.23625762164413297 l -3.8299319759027433 -7.34439955925352" fill="#ff6209" stroke="none" /><path d="M 109.71004243097381 118.62028667847754 l 12.61944491654238 24.19944956365238 a48.29219209197756,48.29219209197756 0 0,0 -0.7383480135482192,0.3770057566556029 l -12.202169681280578 -24.412513271980817" fill="#adff20" stroke="none" /><path d="M 109.3889696526874 118.78422872680471 l 1.4613550347710225 2.923688992471015 a24.268564801613515,24.268564801613515 0 0,0 -0.3742440941010398,0.18306154003552935 l -1.4109506914079133 -2.9483442826037676" fill="#ff1c02" stroke="none" /><path d="M 109.06512990194946 118.94263497670748 l 5.066407700046455 10.58684351390502 a32.73668362745639,32.73668362745639 0 0,0 -0.5089950797515423,0.23823539799195714 l -4.883923906423407 -10.67225514346751" fill="#ff910d" stroke="none" /><path d="M 108.73861861582097 119.09545874513695 l 2.193224028205794 4.792590315547518 a26.270593284496453,26.270593284496453 0 0,0 -0.4116809594742265,0.18413965680241687 l -2.110629665875941 -4.829533723259785" fill="#ff3805" stroke="none" /><path d="M 108.4095320186766 119.2426549942271 l 4.926051943396652 11.271770869045437 a33.30117093098471,33.30117093098471 0 0,0 -0.5257857255461224,0.22442666108379458 l -4.7318311426800985 -11.354672179788635" fill="#ff990e" stroke="none" /><path d="M 108.07796709384702 119.3841803445677 l 1.4262671103533127 3.4225218505374624 a24.707815217548195,24.707815217548195 0 0,0 -0.39290784122053124,0.159792198506055 l -1.3673048079423404 -3.446501305622809" fill="#ff2203" stroke="none" /><path d="M 107.74402155503746 119.51999308798841 l 0.6921716436918656 1.7447247020868373 a22.87700982160539,22.87700982160539 0 0,0 -0.3662802501538899,0.14168506935548295 l -0.6621191310444463 -1.7563496595803607" fill="#ff0701" stroke="none" /><path d="M 107.407793817531 119.65005319985036 l 2.9319785520116053 7.777421449217761 a29.311725610738637,29.311725610738637 0 0,0 -0.47235266335292925,0.17345444074932348 l -2.798036737004549 -7.826606738975807" fill="#ff6309" stroke="none" /><path d="M 107.06938296918513 119.77432235084164 l 5.025155132177978 14.056253265640763 a35.92750615375158,35.92750615375158 0 0,0 -0.5825289747699701,0.2026338163215214 l -4.783120385362985 -14.140445514530875" fill="#ffbb11" stroke="none" /><path d="M 106.72888874123015 119.89276391827305 l 2.4969230413402927 7.3817092975738845 a28.792577033835776,28.792577033835776 0 0,0 -0.4695620456483237,0.154354371091934 l -2.369838258044235 -7.4234845900678375" fill="#ff5c08" stroke="none" /><path d="M 106.38641147887787 120.00534299687104 l 3.699612804803446 11.588984418008916 a33.16518371198393,33.16518371198393 0 0,0 -0.5438448416073857,0.16848452211494983 l -3.500127330324436 -11.65078552793051" fill="#ff970d" stroke="none" /><path d="M 106.0420521117495 120.11202640906438 l 2.391481580817597 7.960464395310836 a29.31192983249987,29.31192983249987 0 0,0 -0.48314433472822454,0.14063627441840434 l -2.2544772337077656 -8.000344364031758" fill="#ff6309" stroke="none" /><path d="M 105.69591212413111 120.21278271476187 l 0.9330709462729256 3.31113961793238 a24.440096940526537,24.440096940526537 0 0,0 -0.4047962037559135,0.1103290053824372 l -0.876093341582317 -3.3266691174589593" fill="#ff1e03" stroke="none" /><path d="M 105.3480935250658 120.30758222061773 l 2.2821042789242516 8.665521659834388 a29.960985748060494,29.960985748060494 0 0,0 -0.498486182386745,0.12671323824765582 l -2.133012803312109 -8.703420129917314" fill="#ff6c09" stroke="none" /><path d="M 104.9986988182912 120.39639698878246 l 11.14874583119986 45.49068751013893 a67.8369211600614,67.8369211600614 0 0,0 -1.1334187821118267,0.2674837464390511 l -10.366194895348155 -45.67536740022421" fill="#39ff88" stroke="none" /><path d="M 104.64783097203109 120.47920084513623 l 0.9613204246053656 4.235755166333375 a25.34347312503293,25.34347312503293 0 0,0 -0.4250916060971179,0.09264673703028875 l -0.8884664018891117 -4.251633361497383" fill="#ff2b04" stroke="none" /><path d="M 104.29559338865022 120.5559693870025 l 0.6992634935834313 3.3462289530308933 a24.418511026684094,24.418511026684094 0 0,0 -0.41104902219208883,0.08222131653768582 l -0.6417179858603839 -3.3577396662314407" fill="#ff1e03" stroke="none" /><path d="M 103.94208987418118 120.62667999033965 l 0.35748094372100614 1.870491354616672 a22.904345171658587,22.904345171658587 0 0,0 -0.3868274134830881,0.07049284063574521 l -0.32531879668686087 -1.8763523691837807" fill="#ff0801" stroke="none" /><path d="M 103.58742460773223 120.69131181640829 l 0.2598855127459227 1.4989505756309978 a22.521313021018262,22.521313021018262 0 0,0 -0.38149227154095106,0.06277440810722638 l -0.23411573815189934 -1.503190982233895" fill="#ff0200" stroke="none" /><path d="M 103.2317021107853 120.74984581791261 l 0.6319427874995093 4.057526020914824 a25.1064423893528,25.1064423893528 0 0,0 -0.42642084227567323,0.06266917920634837 l -0.5621968396161505 -4.067776273420055" fill="#ff2803" stroke="none" /><path d="M 102.875027216393 120.80226474461374 l 0.1915130858736576 1.3856932872447651 a22.398864950013422,22.398864950013422 0 0,0 -0.38133766590967466,0.049371795498049875 l -0.16769759807320755 -1.3887766789432099" fill="#ff0000" stroke="none" /><path d="M 101.44090949804482 120.95050786540614 l 0.44757949235902966 6.507707588704286 a27.523080979265835,27.523080979265835 0 0,0 -0.47163505414782536,0.02837239368437865 l -0.3358000860787391 -6.514431960213357" fill="#ff4a06" stroke="none" /><path d="M 101.08105385017728 120.97215588758144 l 1.003266886009595 19.463109563682863 a40.48895015983382,40.48895015983382 0 0,0 -0.6944322298994794,0.02982190790986532 l -0.6690088955092861 -19.47746404001856" fill="#fff517" stroke="none" /><path d="M 100.72087961077811 120.9876233191556 l 0.1398261015575909 4.070884383190025 a25.07328503789966,25.07328503789966 0 0,0 -0.4302894333413458,0.01108272946117475 l -0.06992335414550126 -4.072684830001244" fill="#ff2703" stroke="none" /><line stroke="#e1ed5e" stroke-width="0.3" x1="101.45913802915013" x2="101.54496967792366" y1="184.9874750549273" y2="189.98673829345242" /><path d="M 101.47630435890484 185.9873277026323 a86.0,86.0 0 0,1 -42.54439059252881,-10.42667462771756" fill="none" id="id55" stroke="none" /><text fill="#e1ed5e" style="font-size:6.75px; font-family:Arial;" text-anchor="middle"><textPath startOffset="22.145653131862474" xlink:href="#id55">July</textPath></text><path d="M 100.36049292484886 120.99690560180557 l 0.4817067087250248 28.057000827676372 a49.06113570042138,49.06113570042138 0 0,0 -0.8421996335738736,0.007229270939443337 l -3.4364980015960566e-15 -28.06113570042138" fill="#a4ff21" stroke="none" /><path d="M 100.0 121.0 l 1.7938318533982162e-15 14.647748678616168 a35.64774867861617,35.64774867861617 0 0,0 -0.6119410088300546,-0.0052527775784180645 l 0.25144808398120067 -14.645590299232184" fill="#ffb811" stroke="none" /><path d="M 99.63950707515114 120.99690560180557 l -0.2834035037136125 16.50683329552359 a37.509265973753145,37.509265973753145 0 0,0 -0.6437066693295194,-0.01657960041717262 l 0.5667234871138758 -16.49953597775637" fill="#ffcf13" stroke="none" /><path d="M 99.27912038922189 120.98762331915562 l -0.22365056571865632 6.511342196726447 a27.51518202189445,27.51518202189445 0 0,0 -0.47191713126977664,-0.020266152151167796 l 0.3353934575892717 -6.50654347614945" fill="#ff4a06" stroke="none" /><path d="M 98.91894614982273 120.97215588758144 l -0.748697098536135 14.524523695563389 a35.54380747701023,35.54380747701023 0 0,0 -0.6090780889199578,-0.036640625355105 l 0.9979195395885393 -14.509531092383591" fill="#ffb610" stroke="none" /><path d="M 98.55909050195518 120.95050786540614 l -1.3676960113972771 19.88599983770247 a40.93297724688148,40.93297724688148 0 0,0 -0.7005991027947142,-0.05423080145470971 l 1.7088641089672274 -19.859591269252707" fill="#fffa17" stroke="none" /><path d="M 98.19965949673042 120.92268563240118 l -0.8820996242920235 10.2513347347369 a31.289215888045085,31.289215888045085 0 0,0 -0.5347482496933285,-0.05064121522161748 l 1.0579474373703672 -10.2346817640101" fill="#ff7e0b" stroke="none" /><path d="M 97.84075906011543 120.88869738790638 l -1.404474716106808 13.587018841579201 a34.65941544245622,34.65941544245622 0 0,0 -0.5912963916445196,-0.06625599401001692 l 1.6375070093521271 -13.560907087062214" fill="#ffab0f" stroke="none" /><path d="M 97.48249496171623 120.84855314841334 l -1.06670035967701 8.833809189640636 a29.897979234428142,29.897979234428142 0 0,0 -0.5090090789026933,-0.06590141598073117 l 1.2181872604704973 -8.81419617745951" fill="#ff6b09" stroke="none" /><path d="M 97.12497278360702 120.80226474461374 l -1.2787966060079026 9.252735209256466 a30.340686784822175,30.340686784822175 0 0,0 -0.5153219645127028,-0.07573458269691241 l 1.4374436761282903 -9.229419553260671" fill="#ff710a" stroke="none" /><path d="M 96.76829788921471 120.74984581791261 l -1.357476174160554 8.715970825812539 a29.821048066971912,29.821048066971912 0 0,0 -0.5051436990456125,-0.08312120344823237 l 1.5068973762592301 -8.691383623868639" fill="#ff6a09" stroke="none" /><path d="M 96.41257539226777 120.69131181640829 l -1.0787556330828998 6.221975823468312 a27.31479982768514,27.31479982768514 0 0,0 -0.4613147980421661,-0.08406692340773815 l 1.185405164676123 -6.202540726129207" fill="#ff4706" stroke="none" /><path d="M 96.05791012581884 120.62667999033965 l -0.8214680957502368 4.2982681963417635 a25.37606207908647,25.37606207908647 0 0,0 -0.42716795849245953,-0.08544555523489934 l 0.8951325397736544 -4.283533244444003" fill="#ff2b04" stroke="none" /><path d="M 95.70440661134978 120.55596938700252 l -2.790444080620664 13.35328507789813 a34.64173011530018,34.64173011530018 0 0,0 -0.5810532999974009,-0.12663786231794463 l 3.019259797237201 -13.303415757446468" fill="#ffaa0f" stroke="none" /><path d="M 95.35216902796893 120.47920084513623 l -4.822098760716273 21.24705687664814 a42.787383100721904,42.787383100721904 0 0,0 -0.7148912836026958,-0.16871239638219096 l 5.186122198058856 -21.16114833661972" fill="#edff19" stroke="none" /><path d="M 95.00130118170881 120.39639698878247 l -5.699011386470615 23.253911249204403 a44.942078422079334,44.942078422079334 0 0,0 -0.7477392529583069,-0.19007239409040022 l 6.097355932654301 -23.15265362327874" fill="#d4ff1c" stroke="none" /><path d="M 94.6519064749342 120.30758222061772 l -5.455856768721814 20.716776809427362 a42.423146698196206,42.423146698196206 0 0,0 -0.7026456882146913,-0.1915092068494987 l 5.810683857871201 -20.62006710843372" fill="#f2ff19" stroke="none" /><path d="M 94.30408787586889 120.21278271476187 l -6.332348403786994 22.47127054816363 a44.34644804581009,44.34644804581009 0 0,0 -0.7309561417855439,-0.21277067980482078 l 6.717164557954144 -22.359256174056295" fill="#dbff1b" stroke="none" /><path d="M 93.95794788825049 120.11202640906438 l -6.677687177036345 22.227848812303243 a44.209238868540396,44.209238868540396 0 0,0 -0.7249459770474926,-0.22459011680794327 l 7.058273786955471 -22.10994210768865" fill="#dcff1b" stroke="none" /><path d="M 93.61358852112213 120.00534299687104 l -6.695364933420675 20.97313529284801 a43.0159105104419,43.0159105104419 0 0,0 -0.7015224413907521,-0.23060436049136407 l 7.054410112459171 -20.855110010954625" fill="#ebff1a" stroke="none" /><path d="M 93.27111125876986 119.89276391827306 l -5.647657226824632 16.696295068182756 a38.62561491567112,38.62561491567112 0 0,0 -0.6262761395237013,-0.21785135112448187 l 5.9334391383933545 -16.596885284489684" fill="#ffde14" stroke="none" /><path d="M 92.93061703081489 119.77432235084164 l -8.881939466165305 24.844365465867607 a47.38430109141078,47.38430109141078 0 0,0 -0.7635886443152848,-0.2804003269973724 l 9.307117262134708 -24.688234289861516" fill="#b7ff1f" stroke="none" /><path d="M 92.59220618246901 119.65005319985036 l -7.424970421485258 19.695616182542377 a42.04869313211526,42.04869313211526 0 0,0 -0.6732350931864302,-0.2604217967815293 l 7.7619777771652165 -19.565254497622806" fill="#f6ff19" stroke="none" /><path d="M 92.25597844496254 119.51999308798841 l -7.583789159171005 19.11610277885691 a41.5654867061925,41.5654867061925 0 0,0 -0.6609813739990963,-0.26881537053261906 l 7.910824994360541 -18.983100151745" fill="#fcff18" stroke="none" /><path d="M 91.92203290615298 119.3841803445677 l -8.210588434806109 19.702423283765548 a42.34477092166694,42.34477092166694 0 0,0 -0.6685733708365625,-0.28537421618005715 l 8.547596880813103 -19.558574417926085" fill="#f3ff19" stroke="none" /><path d="M 91.59046798132341 119.24265499422711 l -8.07573983078642 18.478873145597007 a41.16646539544341,41.16646539544341 0 0,0 -0.6451110482594155,-0.2885499664051679 l 8.39176428190147 -18.337519428281986" fill="#fffd17" stroke="none" /><path d="M 91.26138138417905 119.09545874513695 l -5.703031324950082 12.462152678301456 a34.705101811758205,34.705101811758205 0 0,0 -0.5396003537037171,-0.2525602115524493 l 5.916120392525289 -12.362416235178479" fill="#ffab0f" stroke="none" /><path d="M 90.93487009805054 118.94263497670748 l -8.084725059984628 16.893965928209603 a39.72882441796736,39.72882441796736 0 0,0 -0.6126558379345505,-0.299680670909341 l 8.373541147181248 -16.752691507203043" fill="#ffeb16" stroke="none" /><path d="M 90.6110303473126 118.78422872680471 l -10.164144153636409 20.33509699751481 a43.73380734224334,43.73380734224334 0 0,0 -0.6686540489722381,-0.34141952175394885 l 10.51172542432223 -20.157619524088027" fill="#e2ff1b" stroke="none" /><path d="M 90.28995756902619 118.62028667847754 l -9.683788387394893 18.56994108818956 a41.94322013327165,41.94322013327165 0 0,0 -0.635561988015871,-0.3384009604471128 l 10.001139191197327 -18.400969660019875" fill="#f7ff18" stroke="none" /><path d="M 89.97174638481275 118.45085714620012 l -16.577444428018698 30.500630591075534 a55.71455213908572,55.71455213908572 0 0,0 -0.8363969698155532,-0.4639353000242746 l 17.098585585990353 -30.21156237561811" fill="#5dff2a" stroke="none" /><line stroke="#e1ed5e" stroke-width="0.3" x1="58.13341422392154" x2="55.67067388415222" y1="173.97424548756322" y2="178.32567169271397" /><path d="M 57.64086615596768 174.84453072859336 a86.0,86.0 0 0,1 -31.369924170532247,-30.572349798747897" fill="none" id="id56" stroke="none" /><text fill="#e1ed5e" style="font-size:6.75px; font-family:Arial;" text-anchor="middle"><textPath startOffset="22.145653131862474" xlink:href="#id56">August</textPath></text><path d="M 89.65649057296885 118.27599006163327 l -9.085992552147294 16.054078236653183 a39.446915424706035,39.446915424706035 0 0,0 -0.5864582912031906,-0.3385918522946526 l 9.360243311210883 -15.895739487082357" fill="#ffe815" stroke="none" /><path d="M 89.34428304082925 118.09573695890944 l -8.778804456318703 14.908329196800281 a38.301031388979354,38.301031388979354 0 0,0 -0.563694961542824,-0.3384826281347087 l 9.033432174418953 -14.755432568129654" fill="#ffd914" stroke="none" /><path d="M 89.03521579738668 117.91015095944536 l -14.107323167827714 23.043252188151207 a48.01866092848171,48.01866092848171 0 0,0 -0.6993251904482664,-0.43643064070716997 l 14.500812487065692 -22.79768575060249" fill="#b0ff20" stroke="none" /><path d="M 88.72937992617639 117.7192867562869 l -8.79611452948308 13.828953036137241 a37.38937377972303,37.38937377972303 0 0,0 -0.5386106080609169,-0.34912088883633424 l 9.032210769801006 -13.675918305597012" fill="#ffce13" stroke="none" /><path d="M 88.4268655584334 117.5232005979908 l -12.697214003433427 19.225200324179728 a44.03969554820172,44.03969554820172 0 0,0 -0.6272588766449957,-0.4220477658809879 l 13.025369168175429 -19.004402884241617" fill="#deff1b" stroke="none" /><path d="M 88.1277618465304 117.32195027204791 l -12.1059376065384 17.662924758268076 a42.4133751741672,42.4133751741672 0 0,0 -0.5970286619701227,-0.41677237363768765 l 12.40736135968229 -17.45250756882526" fill="#f2ff19" stroke="none" /><path d="M 87.83215693770417 117.11559508785305 l -12.435769012890379 17.492466490650315 a42.462402821410485,42.462402821410485 0 0,0 -0.5904679985239266,-0.42745329533773085 l 12.73421802178826 -17.27641242393952" fill="#f1ff19" stroke="none" /><path d="M 87.54013794807813 116.9041958592261 l -7.240890921767528 9.82365918874445 a33.20388385709806,33.20388385709806 0 0,0 -0.45591622222610867,-0.34212803274340725 l 7.408460132904404 -9.697912128737029" fill="#ff970e" stroke="none" /><path d="M 87.2517909369889 116.68781488649013 l -5.000682229343178 6.546053562266326 a29.23757488578576,29.23757488578576 0 0,0 -0.39622490740368704,-0.3081068845420332 l 5.112317081382093 -6.459245626103499" fill="#ff6209" stroke="none" /><path d="M 86.96720088162412 116.46651593811092 l -0.9074373246188148 1.1465174160172682 a22.462171222306836,22.462171222306836 0 0,0 -0.3002970127052786,-0.24189801652520204 l 0.9269851076793552 -1.1307711056986556" fill="#ff0100" stroke="none" /><path d="M 86.68645165197938 116.24036423190432 l -1.1035015433657056 1.3460924560650327 a22.740597758382357,22.740597758382357 0 0,0 -0.2997705293343222,-0.25007923727902104 l 1.1264464068619207 -1.3269510348741416" fill="#ff0500" stroke="none" /><path d="M 86.40962598614128 116.0094264158162 l -4.445922356644844 5.237285357014875 a27.869889628816235,27.869889628816235 0 0,0 -0.3620703708326308,-0.31274776279005373 l 4.535172207240337 -5.160193461760099" fill="#ff4f07" stroke="none" /><path d="M 86.13680546590413 115.77377054828092 l -9.635999748313607 10.963998857504636 a35.59663530053631,35.59663530053631 0 0,0 -0.45552670631751785,-0.40733478970618414 l 9.822791481454495 -10.796968537915069" fill="#ffb711" stroke="none" /><path d="M 85.86807049272751 115.53346607816431 l -4.192873305748423 4.608702246311589 a27.230595714152475,27.230595714152475 0 0,0 -0.34306690168334397,-0.31753760250665175 l 4.271369978745734 -4.53604689767256" fill="#ff4606" stroke="none" /><path d="M 85.60350026404147 115.28858382429668 l -5.8817329892335 6.246196609403843 a29.579612755827952,29.579612755827952 0 0,0 -0.3666850979900632,-0.35127602912198813 l 5.988090573088877 -6.144308449976273" fill="#ff6609" stroke="none" /><path d="M 85.34317274990678 115.03919595460226 l -15.57679559519457 15.983164521464 a43.318111683891594,43.318111683891594 0 0,0 -0.5280850759899487,-0.523571555453293 l 15.84887259131448 -15.713412955782047" fill="#e7ff1a" stroke="none" /><path d="M 85.08716467003676 114.78537596483092 l -1.2629758997566016 1.2521812988105991 a22.778501090372732,22.778501090372732 0 0,0 -0.27292245353992656,-0.2800424804878353 l 1.2842851544473375 -1.2303161262550264" fill="#ff0600" stroke="none" /><path d="M 84.83555147118756 114.52719865689866 l -7.303452819387657 6.996542590186756 a31.113952308633788,31.113952308633788 0 0,0 -0.36617294297558495,-0.38886297610860876 l 7.422481596099495 -6.870138154133657" fill="#ff7b0b" stroke="none" /><path d="M 84.58840730492382 114.26474011684316 l -4.776978496661455 4.421499980361821 a27.509161669055818,27.509161669055818 0 0,0 -0.31779932708692243,-0.3493171307164917 l 4.8521755245902565 -4.338845274087656" fill="#ff4a06" stroke="none" /><path d="M 84.3458050057657 113.99807769240083 l -5.121989873966474 4.580114929057711 a27.871115850601882,27.871115850601882 0 0,0 -0.3158579622653119,-0.3593883798115167 l 5.199858900190379 -4.491514271434894" fill="#ff4f07" stroke="none" /><path d="M 84.1078160697243 113.72728997021213 l -3.7789903951504042 3.2642018980191936 a25.99357411456675,25.99357411456675 0 0,0 -0.28878295975282026,-0.34018560045439794 l 3.8344679184103367 -3.198849515115241" fill="#ff3405" stroke="none" /><path d="M 83.8745106332314 113.45245675266167 l -4.951156203082617 4.130430598583972 a27.44782170015907,27.44782170015907 0 0,0 -0.2987279502163006,-0.3643995267786133 l 5.021330972537547 -4.044828790106863" fill="#ff4906" stroke="none" /><path d="M 83.64595745247003 113.17365903436017 l -5.477425984278757 4.412226646293723 a28.033487000877763,28.033487000877763 0 0,0 -0.29866819563189356,-0.37735750846072375 l 5.5523606105522125 -4.317549193918319" fill="#ff5107" stroke="none" /><path d="M 83.4222238831116 112.89097897827486 l -14.4601079654779 11.24426741513674 a39.31743082630267,39.31743082630267 0 0,0 -0.40974009484979157,-0.5363629369921163 l 14.651000037681985 -10.994383564903753" fill="#ffe615" stroke="none" /><path d="M 82.98947788004972 112.3143062007846 l -6.200707953177805 4.488834373138867 a28.654960035824843,28.654960035824843 0 0,0 -0.28502802398624705,-0.4009276107740184 l 6.276851075694013 -4.381729535655345" fill="#ff5a08" stroke="none" /><path d="M 82.78059297857968 112.02048342749411 l -7.85779057582255 5.485348088694137 a30.58300142896922,30.58300142896922 0 0,0 -0.29681569381978606,-0.43306296772754477 l 7.950796006457661 -5.349650385896541" fill="#ff740a" stroke="none" /><path d="M 82.576782715395 111.72311816256416 l -5.906627536584616 3.9742426110257028 a28.11918908213794,28.11918908213794 0 0,0 -0.26602836514228245,-0.40280085146169914 l 5.973980340647625 -3.8722618812249423" fill="#ff5207" stroke="none" /><path d="M 82.37810715431573 111.42229804090323 l -6.039537977653256 3.9147555494870927 a28.19731408205561,28.19731408205561 0 0,0 -0.2597943532640914,-0.40843987402627774 l 6.105850022543238 -3.8105020007821433" fill="#ff5307" stroke="none" /><path d="M 82.18462484594161 111.11811171558189 l -4.151517915553139 2.5908542242426376 a25.893631229918597,25.893631229918597 0 0,0 -0.23209575781184197,-0.37911097771228597 l 4.195381637820386 -2.519206130405794" fill="#ff3304" stroke="none" /><path d="M 81.99639281039703 110.81064883170644 l -12.208157517943336 7.330647820668925 a35.23999675047696,35.23999675047696 0 0,0 -0.30696770764779574,-0.5212982771368787 l 12.332198935720902 -7.119998375238487" fill="#ffb210" stroke="none" /><line stroke="#e1ed5e" stroke-width="0.3" x1="26.387840678322732" x2="22.057713659400548" y1="142.50000000000003" y2="145.00000000000006" /><path d="M 25.521815274538298 143.00000000000003 a86.0,86.0 0 0,1 -11.493303480769221,-40.785679425670985" fill="none" id="id57" stroke="none" /><text fill="#e1ed5e" style="font-size:6.75px; font-family:Arial;" text-anchor="middle"><textPath startOffset="21.40746469413373" xlink:href="#id57">September</textPath></text><path d="M 81.81346652052679 110.50000000000001 l -4.982285620790964 2.876523944343268 a26.75304788868653,26.75304788868653 0 0,0 -0.2262118423340946,-0.3996946502042566 l 5.030930828146436 -2.7905725240398898" fill="#ff3f05" stroke="none" /><path d="M 81.4637452351635 109.86951160357371 l -8.414658464676794 4.480331674917502 a30.533092310180674,30.533092310180674 0 0,0 -0.24236286273095925,-0.46476274602791745 l 8.490329396382704 -4.335222685785082" fill="#ff740a" stroke="none" /><path d="M 80.5471966667186 107.91128576633889 l -9.692209741660431 3.9417373249429235 a31.463088588709624,31.463088588709624 0 0,0 -0.19917831841148892,-0.5020594753045751 l 9.758446735038044 -3.774776832424783" fill="#ff800b" stroke="none" /><path d="M 80.28708602549918 107.23885506374661 l -1.5958998603569035 0.5860365342394595 a22.70009858059778,22.70009858059778 0 0,0 -0.1311847668441463,-0.36694714070571466 l 1.6057247972449928 -0.5585544371528234" fill="#ff0500" stroke="none" /><path d="M 80.16572619554312 106.89939002012753 l -3.6525711750342924 1.2705538585019616 a24.867244923203806,24.867244923203806 0 0,0 -0.1367871101885989,-0.4043867857959526 l 3.6738437067952585 -1.2076653982318475" fill="#ff2403" stroke="none" /><path d="M 80.05021161711548 106.5578916946017 l -10.409849671824075 3.421924353015951 a31.95785273070137,31.95785273070137 0 0,0 -0.16684325082281318,-0.5226341068787127 l 10.467057638424142 -3.242721212445846" fill="#ff870c" stroke="none" /><path d="M 79.94057633289273 106.21446072829308 l -4.811625068972568 1.490653745921534 a26.037239759490824,26.037239759490824 0 0,0 -0.12860372975248555,-0.42807999024974747 l 4.836505118728684 -1.4078361520810632" fill="#ff3505" stroke="none" /><path d="M 79.83685265289637 105.86919833188381 l -4.976710643652204 1.4486479370090857 a26.18326438415424,26.18326438415424 0 0,0 -0.12191614637584164,-0.43263739369783005 l 5.000845282102621 -1.36300261940826" fill="#ff3705" stroke="none" /><path d="M 79.64726062577567 105.17358676015961 l -6.976702111235609 1.7734503944947078 a28.19857615439698,28.19857615439698 0 0,0 -0.11522807469178421,-0.47016986641938274 l 7.006117712443687 -1.6534247034672256" fill="#ff5307" stroke="none" /><path d="M 79.48165901384964 104.47187691870673 l -9.612054218958596 2.0949024793053312 a30.837692956481177,30.837692956481177 0 0,0 -0.10828771769077247,-0.5181959297454296 l 9.646599647473735 -1.9295900982744925" fill="#ff780b" stroke="none" /><path d="M 79.407916724674 104.11899336999214 l -4.2601872353616 0.8521567605743751 a25.34457896981175,25.34457896981175 0 0,0 -0.08167436330642062,-0.42735478112004477 l 4.274187890950177 -0.7788994144210157" fill="#ff2b04" stroke="none" /><path d="M 79.34024301695615 103.76489593502545 l -14.089715784159994 2.56761556900136 a35.321757594254464,35.321757594254464 0 0,0 -0.10358556609224855,-0.5974540184271024 l 14.131716167744477 -2.325368517653665" fill="#ffb310" stroke="none" /><path d="M 79.22317932658666 103.0534771498775 l -7.05516419676906 1.0368661790027844 a28.130948977277278,28.130948977277278 0 0,0 -0.06611507554924617,-0.47837575148631234 l 7.071923788873519 -0.9156021193163865" fill="#ff5207" stroke="none" /><path d="M 79.0935383218832 101.97986365728391 l -7.208625687557819 0.6826643473915945 a28.240878048587618,28.240878048587618 0 0,0 -0.041563011062701834,-0.4830251904134933 l 7.2192823213182615 -0.5588181096024392" fill="#ff5407" stroke="none" /><path d="M 79.03789590574601 101.26102812881392 l -11.645088278465112 0.7005395935273052 a32.66614061013088,32.66614061013088 0 0,0 -0.02886817372914917,-0.5600348581509031 l 11.655398041650834 -0.5005329419996712" fill="#ff900d" stroke="none" /><path d="M 79.01933749520258 100.90099992219065 l -8.844103857588744 0.3798038734816595 a29.852255307328623,29.852255307328623 0 0,0 -0.01759195253705682,-0.5121705036125241 l 8.849320497122648 -0.2279271053050155" fill="#ff6a09" stroke="none" /><line stroke="#e1ed5e" stroke-width="0.3" x1="15.003131293944662" x2="10.003315487706104" y1="100.72959589197737" y2="100.7725132973878" /><path d="M 14.003168132696942 100.73817937305945 a86.0,86.0 0 0,1 10.791469493833604,-42.45332614584628" fill="none" id="id58" stroke="none" /><text fill="#e1ed5e" style="font-size:6.75px; font-family:Arial;" text-anchor="middle"><textPath startOffset="22.145653131862435" xlink:href="#id58">October</textPath></text><path d="M 79.00077361379809 100.18025310272382 l -47.2150933391698 0.40528479065173306 a68.21683274837534,68.21683274837534 0 0,0 0.0,-1.171075786751084 l 47.2150933391698 0.4052847906517157" fill="#39ff8c" stroke="none" /><path d="M 79.00077361379809 99.81974689727619 l -32.032991521648896 -0.27496470608540224 a53.03417162056204,53.03417162056204 0 0,0 0.015628838032473006,-0.9103014628408641 l 32.023551252017754 0.8248130848953188" fill="#79ff26" stroke="none" /><path d="M 79.00696218219943 99.45929381324524 l -29.131611656238963 -0.7503269793240345 a50.14127293489115,50.14127293489115 0 0,0 0.02954828318788706,-0.8602660250105234 l 29.114438686054225 1.2502992688986965" fill="#98ff23" stroke="none" /><path d="M 79.01933749520258 99.09900007780938 l -55.5089488465187 -2.3837931037764197 a76.56011043551877,76.56011043551877 0 0,0 0.0676587600339367,-1.3125618694752714 l 55.45984849702819 3.336326766628403" fill="#44ffe5" stroke="none" /><path d="M 79.06263194458094 98.37931529534042 l -3.5093602995052766 -0.2716466819274219 a24.51985818344233,24.51985818344233 0 0,0 0.03608666611501426,-0.41938176099169816 l 3.5041800106925196 0.33184949029480076" fill="#ff1f03" stroke="none" /><path d="M 79.0935383218832 98.0201363427161 l -3.7412060524164965 -0.3542961028811077 a24.757944711561702,24.757944711561702 0 0,0 0.04370084654899229,-0.4227660481493192 l 3.7345728133858405 0.41846667331333964" fill="#ff2303" stroke="none" /><path d="M 79.13060592940154 97.66154086499901 l -30.878156513294066 -3.4599618429857095 a52.07139980133502,52.07139980133502 0 0,0 0.10716272690249624,-0.8874611066831204 l 30.814211700131903 3.989516626592266" fill="#83ff25" stroke="none" /><path d="M 79.17382384314186 97.30363454192245 l -3.6046374096770304 -0.4666924800377558 a24.634723198012047,24.634723198012047 0 0,0 0.05789803204602477,-0.4189213180126256 l 3.5960948610757977 0.5285021062504485" fill="#ff2103" stroke="none" /><path d="M 79.22317932658666 96.9465228501225 l -33.38964213206184 -4.9071275579377565 a54.74830518080917,54.74830518080917 0 0,0 0.14463591806619286,-0.9286663487918023 l 33.30048472185737 5.479582088661009" fill="#67ff28" stroke="none" /><path d="M 79.2786578344484 96.59031103205396 l -11.099676023050412 -1.8264474656708451 a32.24894297974417,32.24894297974417 0 0,0 0.09457414471857493,-0.5454785346357939 l 11.066687060839604 2.016719033227232" fill="#ff8b0c" stroke="none" /><path d="M 79.34024301695615 96.23510406497455 l -61.97927094913153 -11.29468780507634 a84.0,84.0 0 0,0 0.27069483087136303,-1.4163897398667418 l 61.776249825978006 12.356980109976396" fill="#4dd2ff" stroke="none" /><path d="M 79.407916724674 95.88100663000787 l -41.33066885331567 -8.267291303553277 a63.14940442473945,63.14940442473945 0 0,0 0.22175150677895938,-1.061161234886426 l 41.18265963571234 8.975568989725113" fill="#33ff52" stroke="none" /><path d="M 79.48165901384962 95.52812308129327 l -6.918638549881152 -1.507885070287687 a28.081050541346112,28.081050541346112 0 0,0 0.1066934680595125,-0.4701111065362248 l 6.891734220263978 1.6264305107629198" fill="#ff5207" stroke="none" /><path d="M 79.56144815229197 95.17655741523228 l -8.986903943113068 -2.120884860503924 a30.233774692630092,30.233774692630092 0 0,0 0.12354452329159687,-0.5041038147016631 l 8.949171893305174 2.2748444998137045" fill="#ff6f0a" stroke="none" /><path d="M 79.83685265289637 94.1308016681162 l -16.649259791565047 -4.846356876412472 a38.34027181391846,38.34027181391846 0 0,0 0.18937114688574933,-0.6303549583550727 l 16.56361232467567 5.131449438358268" fill="#ffda14" stroke="none" /><path d="M 79.94057633289273 93.78553927170692 l -10.17744250911549 -3.1529977050671434 a31.654657692976798,31.654657692976798 0 0,0 0.16526035205443543,-0.5176756990317735 l 10.121817441283797 3.327242437790309" fill="#ff830c" stroke="none" /><path d="M 80.05021161711548 93.44210830539832 l -55.94749274953209 -18.391052125180238 a79.89272232823035,79.89272232823035 0 0,0 0.43946543519912534,-1.299201471275782 l 55.6235418927606 19.34875527093018" fill="#48f8ff" stroke="none" /><path d="M 80.16572619554312 93.10060997987247 l -24.187307404991717 -8.413601071003562 a46.60887585360903,46.60887585360903 0 0,0 0.26935453562080724,-0.7534325749848383 l 24.039312699326967 8.827568602369322" fill="#c0ff1e" stroke="none" /><path d="M 80.28708602549916 92.7611449362534 l -26.92741180472999 -9.888118598214271 a49.685543326105275,49.685543326105275 0 0,0 0.3008798366232868,-0.7981195133182579 l 26.753701284292266 10.348906391726674" fill="#9eff22" stroke="none" /><path d="M 80.41425534168474 92.42381321644754 l -9.42949383277741 -3.6475307831171695 a31.11038252274238,31.11038252274238 0 0,0 0.19694549880399423,-0.4964313113079668 l 9.365489659007284 3.8088631116387193" fill="#ff7b0b" stroke="none" /><path d="M 80.5471966667186 92.08871423366112 l -3.5525763415038982 -1.4448018706017034 a24.835133779610224,24.835133779610224 0 0,0 0.16399958108147722,-0.39353929264435217 l 3.5272509158859426 1.5055736726873195" fill="#ff2403" stroke="none" /><path d="M 80.68587082218212 91.75594674310238 l -6.489768678929441 -2.7700963435352275 a28.056240589611498,28.056240589611498 0 0,0 0.19287478757713922,-0.44133525934488455 l 6.441260009335324 2.881093672655979" fill="#ff5107" stroke="none" /><path d="M 80.9802524753101 91.09779779509293 l -28.320426400668467 -13.255389537672094 a52.26902466197349,52.26902466197349 0 0,0 0.38734020969563526,-0.809392064253591 l 28.088706933012926 13.739594103990772" fill="#81ff25" stroke="none" /><path d="M 81.1358732173502 90.77261029715801 l -14.468688703964407 -7.077360680345982 a37.10689253120957,37.10689253120957 0 0,0 0.2848043885058499,-0.5697995599080765 l 14.345064402246813 7.324692096417829" fill="#ffca12" stroke="none" /><path d="M 81.29705330413844 90.45014215332179 l -6.088716748713577 -3.108942155717613 a27.836519068478,27.836519068478 0 0,0 0.22095824364478595,-0.4237165666253615 l 6.034450436093851 3.213004965447461" fill="#ff4e07" stroke="none" /><path d="M 81.46374523516351 90.13048839642627 l -32.6395720205156 -17.37873366971932 a57.97785885696278,57.97785885696278 0 0,0 0.47529323912242744,-0.8744860265920799 l 32.33643343177782 17.936474529786018" fill="#46ff2c" stroke="none" /><line stroke="#e1ed5e" stroke-width="0.3" x1="26.387840678322718" x2="22.05771365940052" y1="57.49999999999999" y2="54.99999999999999" /><path d="M 25.521815274538284 56.99999999999999 a86.0,86.0 0 0,1 29.574782752854787,-30.34633250058573" fill="none" id="id59" stroke="none" /><text fill="#e1ed5e" style="font-size:6.75px; font-family:Arial;" text-anchor="middle"><textPath startOffset="21.40746469413373" xlink:href="#id59">November</textPath></text><path d="M 81.99639281039701 89.18935116829357 l -30.754022624163934 -18.466906950968777 a56.87250423239679,56.87250423239679 0 0,0 0.5097727256277773,-0.8326754364053262 l 30.432481934080762 18.992119503498646" fill="#51ff2b" stroke="none" /><path d="M 82.18462484594161 88.88188828441811 l -8.099148738136536 -5.054467823047953 a30.54692910085153,30.54692910085153 0 0,0 0.2814423979130015,-0.44247419585900793 l 8.011188648597644 5.192755693585633" fill="#ff740a" stroke="none" /><path d="M 82.37810715431573 88.57770195909679 l -34.840400504265126 -22.58312667708756 a62.519286094669084,62.519286094669084 0 0,0 0.5914787734825641,-0.8955742499596859 l 34.44759729186183 23.177880805386305" fill="#32ff4b" stroke="none" /><path d="M 82.576782715395 88.27688183743585 l -6.789154642626628 -4.5680462339041155 a29.182888680446794,29.182888680446794 0 0,0 0.2832272486881559,-0.41323702018489267 l 6.709737657123159 4.683917989159043" fill="#ff6108" stroke="none" /><path d="M 82.78059297857968 87.97951657250589 l -38.597516286206506 -26.9440640019502 a68.07176275013678,68.07176275013678 0 0,0 0.6771030216644488,-0.95243019590556 l 38.129298166012084 27.60267142456528" fill="#39ff8b" stroke="none" /><path d="M 82.98947788004972 87.6856937992154 l -30.29687861656163 -21.93260368973516 a58.40240578515844,58.40240578515844 0 0,0 0.5948646023281757,-0.8070480801129817 l 29.91591199464964 22.449458079117004" fill="#42ff2d" stroke="none" /><path d="M 83.2033758604659 87.39550010848427 l -1.265339880089286 -0.9495346355805472 a22.581992742180397,22.581992742180397 0 0,0 0.23533449804883697,-0.3080604122848009 l 1.2488534046861424 0.9711159611062324" fill="#ff0300" stroke="none" /><path d="M 83.42222388311158 87.10902102172516 l -5.460989293288328 -4.246498304959449 a27.91774182197003,27.91774182197003 0 0,0 0.297435048869367,-0.3757994678099948 l 5.387287813777399 4.339617716684126" fill="#ff4f07" stroke="none" /><path d="M 83.64595745247003 86.82634096563983 l -5.314348079521238 -4.2808626299002395 a27.824080917338794,27.824080917338794 0 0,0 0.3028229616866439,-0.36939477493288386 l 5.240078298595965 4.371459686531616" fill="#ff4e07" stroke="none" /><path d="M 83.8745106332314 86.54754324733833 l -5.338699454241521 -4.453732962154086 a27.952513873477457,27.952513873477457 0 0,0 0.3105463547773855,-0.36582282507005787 l 5.261458535957021 4.5447225696737" fill="#ff5007" stroke="none" /><path d="M 84.10781606972428 86.27271002978789 l -10.567010907727846 -9.12753234452767 a34.963293530698195,34.963293530698195 0 0,0 0.3962322394225852,-0.45083955311393664 l 10.408767604346668 9.307584175452908" fill="#ffaf10" stroke="none" /><path d="M 84.58840730492382 85.73525988315684 l -1.0414286589355806 -0.9639308190836612 a22.419061758920893,22.419061758920893 0 0,0 0.2638447774677876,-0.28019401041239134 l 1.0247280477315213 0.9816662894405637" fill="#ff0100" stroke="none" /><path d="M 84.83555147118756 85.47280134310135 l -0.997636920189823 -0.9557136020817145 a22.381545480152514,22.381545480152514 0 0,0 0.268166297783332,-0.2751622456871159 l 0.9810838212556885 0.9726985398365607" fill="#ff0000" stroke="none" /><path d="M 85.08716467003674 85.21462403516908 l -7.418061527043149 -7.354659672745879 a31.44598754167897,31.44598754167897 0 0,0 0.38335366143628163,-0.3800771541037247 l 7.290715945476891 7.4809168370782775" fill="#ff800b" stroke="none" /><path d="M 85.34317274990677 84.96080404539775 l -12.33522125451781 -12.65702368081659 a38.67365077890417,38.67365077890417 0 0,0 0.4794197795136005,-0.45927330385987153 l 12.11612898913891 12.86690911498203" fill="#ffde14" stroke="none" /><path d="M 85.60350026404147 84.71141617570332 l -9.646573890588257 -10.244327180110272 a35.071340632637856,35.071340632637856 0 0,0 0.44184917197634477,-0.40896899715618595 l 9.469294947297959 10.408413923398824" fill="#ffb010" stroke="none" /><path d="M 85.86807049272753 84.46653392183569 l -3.0379018116913876 -3.3391862531169507 a25.51431193544299,25.51431193544299 0 0,0 0.3265041873138516,-0.29196205762077365 l 2.9801325975541437 3.3908438406211254" fill="#ff2d04" stroke="none" /><path d="M 86.13680546590413 84.22622945171909 l -2.696691305904619 -3.0683396813242245 a25.08495439378831,25.08495439378831 0 0,0 0.32589001465897827,-0.28149603284530245 l 2.643621811482792 3.114179846634238" fill="#ff2703" stroke="none" /><path d="M 86.40962598614128 83.9905735841838 l -5.171662339122617 -6.0922052315264645 a28.99131127743987,28.99131127743987 0 0,0 0.3821685260903166,-0.3188185767591807 l 5.066319478870391 6.180085992197527" fill="#ff5e08" stroke="none" /><path d="M 86.68645165197937 83.75963576809568 l -27.65433043537242 -33.733786599922986 a64.62029745655008,64.62029745655008 0 0,0 0.8639094633495866,-0.6959043107322326 l 27.071170201667588 34.20353920444862" fill="#35ff63" stroke="none" /><path d="M 86.96720088162412 83.53348406188908 l -10.900582212093997 -13.772529531054605 a38.56431787022745,38.56431787022745 0 0,0 0.5226200646567645,-0.4063925233163018 l 10.662552202801988 13.957623105991711" fill="#ffdd14" stroke="none" /><path d="M 87.25179093698888 83.31218511350988 l -10.769242196743404 -14.097283732855841 a38.74006725288156,38.74006725288156 0 0,0 0.5319325048459447,-0.3991720683826922 l 10.525656702986709 14.280074828502535" fill="#ffdf14" stroke="none" /><path d="M 87.54013794807813 83.09580414077388 l -4.112926784254047 -5.579975093300766 a27.931975820391415,27.931975820391415 0 0,0 0.3884127313014029,-0.28118086392650204 l 4.0165330425786765 5.649756728600348" fill="#ff5007" stroke="none" /><path d="M 87.83215693770416 82.88440491214696 l -6.666485165715462 -9.377246252388467 a32.50542357945321,32.50542357945321 0 0,0 0.45756013207440005,-0.3194125080985926 l 6.504529942467297 9.490303576292186" fill="#ff8e0d" stroke="none" /><path d="M 88.12776184653039 82.6780497279521 l -10.186901491854178 -14.86299371585466 a39.01892183795346,39.01892183795346 0 0,0 0.5557478264850153,-0.37393193989658574 l 9.930257377272172 15.035675329808354" fill="#ffe215" stroke="none" /><path d="M 88.4268655584334 82.4767994020092 l -11.920297888195892 -18.048850303892902 a42.62994449913504,42.62994449913504 0 0,0 0.6141033670035195,-0.39805438310528957 l 11.608708888935345 18.250818528702098" fill="#efff19" stroke="none" /><path d="M 88.72937992617638 82.28071324371311 l -8.845955369051424 -13.907311114282065 a37.48223979987802,37.48223979987802 0 0,0 0.5458768316242443,-0.34066751580943727 l 8.605914408637481 14.057114426933039" fill="#ffcf13" stroke="none" /><path d="M 89.03521579738668 82.08984904055464 l -20.672830970119985 -33.767515766128874 a60.59306834958505,60.59306834958505 0 0,0 0.891777743168249,-0.5354869119168023 l 20.0901204703943 34.1174166785816" fill="#30ff33" stroke="none" /><line stroke="#e1ed5e" stroke-width="0.3" x1="56.869717070023135" x2="54.33264160355391" y1="26.7553504044142" y2="22.446841604673864" /><path d="M 56.362301976729285 25.89364864446614 a86.0,86.0 0 0,1 42.16139366436587,-11.88097634709845" fill="none" id="id60" stroke="none" /><text fill="#e1ed5e" style="font-size:6.75px; font-family:Arial;" text-anchor="middle"><textPath startOffset="22.145653131862474" xlink:href="#id60">December</textPath></text><path d="M 89.34428304082924 81.90426304109057 l -5.195402444323437 -8.822929173924717 a31.238959213053533,31.238959213053533 0 0,0 0.46443039821509874,-0.2681390154293309 l 5.043179578247939 8.910815086630222" fill="#ff7d0b" stroke="none" /><path d="M 89.65649057296885 81.72400993836675 l -9.986188145904304 -17.644637595745984 a41.27454536039248,41.27454536039248 0 0,0 0.6196209669561095,-0.3436933054282953 l 9.681822990792092 17.813463816607424" fill="#fffe18" stroke="none" /><path d="M 89.97174638481275 81.54914285379989 l -3.2152796814743554 -5.9157524694149215 a27.733063991192314,27.733063991192314 0 0,0 0.4202367206906841,-0.2237523838403618 l 3.1132541449971094 5.970075320977859" fill="#ff4d07" stroke="none" /><path d="M 90.61103034731259 81.2157712731953 l -3.060654898782196 -6.123360049000067 a27.845666271381447,27.845666271381447 0 0,0 0.42940636306934393,-0.21004417000447734 l 2.955088286450799 6.174997969101758" fill="#ff4e07" stroke="none" /><path d="M 90.93487009805054 81.0573650232925 l -4.8951396914253476 -10.228959246874332 a32.33992944743413,32.33992944743413 0 0,0 0.502826283675521,-0.2353480899476026 l 4.718824693878304 10.311483568392477" fill="#ff8c0c" stroke="none" /><path d="M 91.5904679813234 80.7573450057729 l -11.717374869229195 -26.811646777234923 a50.26023370947771,50.26023370947771 0 0,0 0.793549076752359,-0.33871891352067 l 11.255390717306403 27.008840340415" fill="#97ff23" stroke="none" /><path d="M 92.592206182469 80.34994680014964 l -1.0187230339431301 -2.702283879111449 a23.887929151345634,23.887929151345634 0 0,0 0.38494925568252314,-0.14135869878940593 l 0.9721846266064799 2.719373426909577" fill="#ff1602" stroke="none" /><path d="M 93.27111125876988 80.10723608172694 l -1.7767990025516665 -5.252790534551435 a26.545162134269994,26.545162134269994 0 0,0 0.4329102122114811,-0.1423061854433275 l 1.6863660526924242 5.282517641396791" fill="#ff3c05" stroke="none" /><path d="M 93.61358852112211 79.99465700312896 l -2.69212326609047 -8.433037787514959 a29.85232477971074,29.85232477971074 0 0,0 0.4895203651643886,-0.1516546604478036 l 2.546962268054465 8.478009035769405" fill="#ff6a09" stroke="none" /><path d="M 93.95794788825049 79.88797359093562 l -1.9927599668122329 -6.633249819463901 a27.926116910127014,27.926116910127014 0 0,0 0.4603021791190799,-0.13398725582572887 l 1.8785977753115286 6.666480769592151" fill="#ff5007" stroke="none" /><path d="M 94.30408787586887 79.78721728523814 l -3.692993410402128 -13.105130792882843 a34.61552986217722,34.61552986217722 0 0,0 0.5733297667888719,-0.15626357742253216 l 3.467482242678578 13.166594864449515" fill="#ffaa0f" stroke="none" /><path d="M 94.6519064749342 79.69241777938228 l -7.734404176475836 -29.368792450079578 a51.3701659188905,51.3701659188905 0 0,0 0.8546887646759248,-0.21725854174620635 l 7.229110118574533 29.497236223661044" fill="#8bff24" stroke="none" /><path d="M 95.00130118170881 79.60360301121753 l -1.626898203413566 -6.6382998503005775 a27.83475110496139,27.83475110496139 0 0,0 0.4650628176849322,-0.10975355867324306 l 1.512703231988728 6.665249552620053" fill="#ff4e07" stroke="none" /><path d="M 95.35216902796891 79.52079915486377 l -1.9581497891389992 -8.627969273829793 a29.847384042012425,29.847384042012425 0 0,0 0.5006366869142641,-0.10911143578230212 l 1.8097506856056167 8.66031216774581" fill="#ff6a09" stroke="none" /><path d="M 95.70440661134978 79.44403061299748 l -3.3836048302939723 -16.191773991693434 a37.5415333825395,37.5415333825395 0 0,0 0.6319554280611367,-0.1264087845562152 l 3.105152916701859 16.247472172912516" fill="#ffd013" stroke="none" /><path d="M 96.05791012581881 79.37332000966035 l -2.378202393693032 -12.443759856478419 a33.66897809576886,33.66897809576886 0 0,0 0.568629385114291,-0.10362321600926377 l 2.1642382750277025 12.482751246419044" fill="#ff9e0e" stroke="none" /><path d="M 96.41257539226777 79.30868818359171 l -1.5521476539443813 -8.952375200763242 a30.08593330786033,30.08593330786033 0 0,0 0.5096306342500381,-0.08385952692864371 l 1.3982395166412704 8.977700726187555" fill="#ff6d0a" stroke="none" /><path d="M 96.76829788921471 79.25015418208739 l -0.5038820202689969 -3.2352840306990247 a24.274287685840463,24.274287685840463 0 0,0 0.4122870950855153,-0.060592005091707424 l 0.44826981957579665 3.2434571090896167" fill="#ff1c02" stroke="none" /><path d="M 97.12497278360702 79.19773525538626 l -0.43161989249302163 -3.122986530870556 a24.152671978432675,24.152671978432675 0 0,0 0.41119599489935404,-0.05323755397033827 l 0.37794607570287353 3.129935681041289" fill="#ff1a02" stroke="none" /><path d="M 97.48249496171623 79.15144685158666 l -1.2676703566730683 -10.49812906185232 a31.57438896260658,31.57438896260658 0 0,0 0.5386652378187582,-0.06035856344575879 l 1.0872692172535108 10.518343385805048" fill="#ff820b" stroke="none" /><path d="M 97.84075906011542 79.11130261209362 l -1.2045144596222879 -11.652584749413151 a32.71467397863445,32.71467397863445 0 0,0 0.5591100368880368,-0.05294830179781107 l 1.0043048593492354 11.671544806716147" fill="#ff910d" stroke="none" /><path d="M 98.5590905019552 79.04949213459386 l -1.6396509445049285 -23.840164879184407 a44.89648335396892,44.89648335396892 0 0,0 0.7693453859197925,-0.04628190796380821 l 1.2301612064526524 23.86479876497291" fill="#d4ff1c" stroke="none" /><path d="M 98.9189461498227 79.02784411241856 l -0.2122884545038039 -4.118339304057204 a25.123807101606232,25.123807101606232 0 0,0 0.43090229112536854,-0.01850479843937029 l 0.14156040277761528 4.121376670922404" fill="#ff2803" stroke="none" /><path d="M 99.63950707515114 79.00309439819443 l -0.3092079438614071 -18.009812567912146 a39.01246674622533,39.01246674622533 0 0,0 0.6697008687102548,-0.005748576507617698 l 4.411781949102598e-15 18.01246674622533" fill="#ffe215" stroke="none" /></svg>