<?xml version="1.0" encoding="utf-8" ?>
<svg baseProfile="full" height="200mm" version="1.1" viewBox="0,0,200,200" width="200mm" xmlns="http://www.w3.org/2000/svg" xmlns:ev="http://www.w3.org/2001/xml-events" xmlns:xlink="http://www.w3.org/1999/xlink"><defs /><rect fill="#1a1a1a" height="200" width="200" x="0" y="0" /><text alignment-baseline="middle" fill="#e1ed5e" style="dominant-baseline: central; font-size:9.0px; font-family:Arial;" text-anchor="middle" x="100.0" y="100.0">2023</text><line stroke="#e1ed5e" stroke-width="0.3" x1="100.0" x2="100.0" y1="15.0" y2="10.0" /><path d="M 100.0 14.0 a86.0,86.0 0 0,1 42.46469731375804,11.215312516191453" fill="none" id="id49" stroke="none" /><text fill="#e1ed5e" style="font-size:6.75px; font-family:Arial;" text-anchor="middle"><textPath startOffset="22.20632615414155" xlink:href="#id49">January</textPath></text><path d="M 109.41281617654863 81.2277094730956 l 21.034768480898055 -41.95033427651364 a67.92858436982962,67.92858436982962 0 0,0 1.0407290292350029,0.5331018309089698 l -21.753757997721813 41.58203992029217" fill="#36ff72" stroke="none" /><line stroke="#e1ed5e" stroke-width="0.3" x1="143.23703022742887" x2="145.7803849466894" y1="26.81831364943548" y2="22.513508569990506" /><path d="M 143.74570117128098 25.957352633546492 a86.0,86.0 0 0,1 28.547481713284135,27.462654790039103" fill="none" id="id50" stroke="none" /><text fill="#e1ed5e" style="font-size:6.75px; font-family:Arial;" text-anchor="middle"><textPath startOffset="19.985693538727396" xlink:href="#id50">February</textPath></text><path d="M 112.19680574252982 82.90503203632743 l 14.956638831527979 -20.963133058488726 a46.75177649725691,46.75177649725691 0 0,0 0.651084571685888,0.47304063065794977 l -15.315268719567655 20.7025731930141" fill="#f5ff19" stroke="none" /><path d="M 112.48926042617603 83.11751280151076 l 17.35082524321071 -23.454157816886593 a50.17445210316486,50.17445210316486 0 0,0 0.6899079060883164,0.5196243315748478 l -17.75197930305741 23.1520168958059" fill="#c8ff1d" stroke="none" /><path d="M 112.77801427241765 83.33499621200491 l 38.28301594949257 -49.92846245220706 a83.91614000421953,83.91614000421953 0 0,0 1.1387318094231405,0.8887982395194263 l -39.136780314075146 49.2620858234644" fill="#4dd3ff" stroke="none" /><path d="M 113.06298171725822 83.55741782278167 l 19.205937097301486 -24.174817499411432 a51.87539183419946,51.87539183419946 0 0,0 0.6943807782251817,0.5614742983784617 l -19.61922127409116 23.84063710376884" fill="#b2ff20" stroke="none" /><path d="M 113.34407831869373 83.78471172551755 l 19.016036345799122 -23.10766647353982 a50.92614054897673,50.92614054897673 0 0,0 0.6720855249956942,0.5628522990389135 l -19.410979407753935 22.776913017107084" fill="#beff1f" stroke="none" /><path d="M 113.6212207817346 84.01681056812373 l 18.861373467346986 -22.132003430868803 a50.07880645657124,50.07880645657124 0 0,0 0.6512777428408606,0.5647816407941457 l -19.23954500883461 21.804056796654987" fill="#c9ff1d" stroke="none" /><path d="M 114.16331599549186 84.49514656593476 l 19.79899781878997 -21.674342323466263 a50.35604588127037,50.35604588127037 0 0,0 0.6349468548869224,0.5901139026093155 l -20.16915255747174 21.33032383478231" fill="#c5ff1e" stroke="none" /><path d="M 114.42810811169701 84.74124197986012 l 18.580866733830785 -19.650597784621365 a48.044308123399006,48.044308123399006 0 0,0 0.596016538818736,0.5733674381203391 l -18.916366516261938 19.32784725973872" fill="#e4ff1a" stroke="none" /><path d="M 114.68862486808459 84.99185889309783 l 19.464745873651314 -19.88815531101822 a48.82831388354329,48.82831388354329 0 0,0 0.5956221883407944,0.5930643973759508 l -19.80420386215943 19.55015506299215" fill="#daff1c" stroke="none" /><path d="M 114.94478906791727 85.2469230424477 l 33.884346752764856 -33.44967754500359 a68.6133372357612,68.6133372357612 0 0,0 0.8224966175633918,0.8476550638929048 l -34.45510763403136 32.861458285560566" fill="#37ff7b" stroke="none" /><line stroke="#e1ed5e" stroke-width="0.3" x1="172.23445277983987" x2="176.4835382374775" y1="55.19839476539836" y2="52.563006222186495" /><path d="M 173.08426987136738 54.67131705675599 a86.0,86.0 0 0,1 12.851231095245387,41.99856678651699" fill="none" id="id51" stroke="none" /><text fill="#e1ed5e" style="font-size:6.75px; font-family:Arial;" text-anchor="middle"><textPath startOffset="22.20632615414155" xlink:href="#id51">March</textPath></text><line stroke="#e1ed5e" stroke-width="0.3" x1="184.98032266829074" x2="189.97916517819016" y1="98.17113171792111" y2="98.06355123074" /><path d="M 185.9800911702706 98.14961562048488 a86.0,86.0 0 0,1 -9.607161424134198,41.387399972396054" fill="none" id="id52" stroke="none" /><text fill="#e1ed5e" style="font-size:6.75px; font-family:Arial;" text-anchor="middle"><textPath startOffset="21.466115282336823" xlink:href="#id52">April</textPath></text><line stroke="#e1ed5e" stroke-width="0.3" x1="174.80103733775053" x2="179.2010983576182" y1="140.37084112569926" y2="142.7455964860345" /><path d="M 175.68104954172406 140.8457921977663 a86.0,86.0 0 0,1 -30.038265399797805,32.042727171017184" fill="none" id="id53" stroke="none" /><text fill="#e1ed5e" style="font-size:6.75px; font-family:Arial;" text-anchor="middle"><textPath startOffset="22.206326154141568" xlink:href="#id53">May</textPath></text><path d="M 117.94076556474637 110.91462005526583 l 22.496347557621327 13.686098585733085 a47.3323935093584,47.3323935093584 0 0,0 -0.429452126318256,0.6924135681589245 l -22.25743079163511 -14.071308485257283" fill="#eeff19" stroke="none" /><path d="M 116.93607887273984 112.41649034213515 l 32.487006211343044 23.81747285774001 a61.28247244031855,61.28247244031855 0 0,0 -0.6310306768708293,0.8453687132278878 l -32.07221426777712 -24.373154450477216" fill="#41ff2d" stroke="none" /><path d="M 116.71984013943494 112.70617746262583 l 14.551297144166721 11.05820165045139 a39.27632546000099,39.27632546000099 0 0,0 -0.41369787792745866,0.5347602742563908 l -14.358792449021195 -11.307039918821031" fill="#ff9e0e" stroke="none" /><path d="M 116.498646956653 112.99209946851258 l 32.73368570808477 25.776616822446393 a62.664471133651745,62.664471133651745 0 0,0 -0.6746340225654438,0.841709672873445 l -32.28513377346447 -26.33625432889809" fill="#32ff2f" stroke="none" /><path d="M 115.56566222782051 114.09645910891815 l 27.965386972200303 25.325805490891174 a58.7287594848726,58.7287594848726 0 0,0 -0.6850390757035645,0.7434746198155994 l -27.525301488501018 -25.803431365508107" fill="#5eff29" stroke="none" /><path d="M 115.07121518719521 114.62390073753431 l 35.79880234594037 34.73629203267125 a70.88150191787258,70.88150191787258 0 0,0 -0.8571915201041799,0.8683304842524033 l -35.19557020078066 -35.34736301090432" fill="#3bff98" stroke="none" /><path d="M 114.81725581225074 114.88116024355365 l 26.536442920858764 26.65089031348984 a58.60921107114136,58.60921107114136 0 0,0 -0.7210329748307857,0.7056825231965403 l -26.073759993652185 -27.10372293960895" fill="#60ff29" stroke="none" /><path d="M 114.55890576462653 115.13401014063108 l 40.69096323309052 42.29833341581735 a79.69330028710581,79.69330028710581 0 0,0 -0.9967892487883552,0.9425264511773046 l -39.956838149911356 -42.99249450374058" fill="#47fffe" stroke="none" /><path d="M 112.34349029814194 116.9893568818739 l 37.03047089442582 50.96807064562168 a84.0,84.0 0 0,0 -1.1770906886044616,0.8398229526231229 l -36.14765287797247 -51.597937860089026" fill="#4dd2ff" stroke="none" /><path d="M 111.7513745106137 117.40417183066458 l 16.856785834194273 24.96545377785839 a51.123497655389826,51.123497655389826 0 0,0 -0.7335620634512894,0.4861649357387948 l -16.42454907200302 -25.251916734688503" fill="#bbff1f" stroke="none" /><path d="M 111.45004920935366 117.60387380957326 l 34.17442150412448 52.54145136619316 a83.67770893074831,83.67770893074831 0 0,0 -1.2141962225818619,0.7749574769576979 l -33.26494347949569 -53.121923271974666" fill="#4dd5ff" stroke="none" /><line stroke="#e1ed5e" stroke-width="0.3" x1="143.8653032363475" x2="146.44561519142675" y1="172.8068346515853" y2="177.08958963109032" /><path d="M 144.38136562736335 173.6633856474863 a86.0,86.0 0 0,1 -40.68145358897372,12.25698825130547" fill="none" id="id54" stroke="none" /><text fill="#e1ed5e" style="font-size:6.75px; font-family:Arial;" text-anchor="middle"><textPath startOffset="21.466115282336833" xlink:href="#id54">June</textPath></text><path d="M 109.2508944713604 118.85261126421891 l 13.478054733768685 27.467238684892294 a51.59586835471921,51.59586835471921 0 0,0 -0.8006876133490792,0.3843787121136905 l -13.003254452419373 -27.695171673505545" fill="#b5ff1f" stroke="none" /><path d="M 108.59647513512805 119.15986991738527 l 7.237067433022796 16.130014735161183 a38.679154968115306,38.679154968115306 0 0,0 -0.6098032634119908,0.26731983021383016 l -6.958343494953051 -16.252199118669466" fill="#ff950d" stroke="none" /><path d="M 106.91757812671514 119.82793768551818 l 9.782845007856048 28.040686733083877 a50.698218278386335,50.698218278386335 0 0,0 -0.8264540287069884,0.28037807811613197 l -9.298721246211834 -28.204927798098133" fill="#c1ff1e" stroke="none" /><path d="M 106.2309692047433 120.05430185196036 l 9.807561721938523 31.56552323413223 a54.05405457692256,54.05405457692256 0 0,0 -0.8909267153355079,0.26842891094730165 l -9.262760032162769 -31.729667514185255" fill="#96ff23" stroke="none" /><path d="M 105.88484417918355 120.15858648285463 l 11.959838922051839 40.9685354259697 a63.678550139272076,63.678550139272076 0 0,0 -1.0548468025590891,0.2981102429831169 l -11.252860951388145 -41.168334462291334" fill="#30ff3a" stroke="none" /><line stroke="#e1ed5e" stroke-width="0.3" x1="102.19456741930631" x2="102.32365962044197" y1="184.97166512339345" y2="189.96999836594603" /><path d="M 102.22038585953345 185.97133177190398 a86.0,86.0 0 0,1 -42.740103519485714,-10.115201625700543" fill="none" id="id55" stroke="none" /><text fill="#e1ed5e" style="font-size:6.75px; font-family:Arial;" text-anchor="middle"><textPath startOffset="22.20632615414155" xlink:href="#id55">July</textPath></text><path d="M 97.65516085044442 120.86867818915974 l -0.9163345755650979 8.155225220754536 a29.206544184710573,29.206544184710573 0 0,0 -0.4991156083490734,-0.060435949300302036 l 1.0565776069655608 -8.138243742728886" fill="#ff0000" stroke="none" /><path d="M 96.93821686468263 120.77559828337769 l -1.6899948021783244 11.467387322784344 a32.591249045816625,32.591249045816625 0 0,0 -0.5543059675889921,-0.08657119225941311 l 1.8871366333758337 -11.436597823177824" fill="#ff3705" stroke="none" /><line stroke="#e1ed5e" stroke-width="0.3" x1="58.666819895761336" x2="56.23545636021788" y1="174.27360380694188" y2="178.64263932499728" /><path d="M 58.180547188652646 175.14741091055294 a86.0,86.0 0 0,1 -31.652253787137756,-30.449443065178592" fill="none" id="id56" stroke="none" /><text fill="#e1ed5e" style="font-size:6.75px; font-family:Arial;" text-anchor="middle"><textPath startOffset="22.20632615414155" xlink:href="#id56">August</textPath></text><line stroke="#e1ed5e" stroke-width="0.3" x1="26.63291911575756" x2="22.317208475507996" y1="142.92168965132927" y2="145.44649492493687" /><path d="M 25.769776987707644 143.4266507060508 a86.0,86.0 0 0,1 -11.730757126820373,-40.83630448921669" fill="none" id="id57" stroke="none" /><text fill="#e1ed5e" style="font-size:6.75px; font-family:Arial;" text-anchor="middle"><textPath startOffset="21.46611528233685" xlink:href="#id57">September</textPath></text><line stroke="#e1ed5e" stroke-width="0.3" x1="15.007084014347285" x2="10.007500721073583" y1="101.09737516637583" y2="101.16192664675087" /><path d="M 14.007167355692545 101.11028546245083 a86.0,86.0 0 0,1 10.666146001902534,-42.60595125391555" fill="none" id="id58" stroke="none" /><text fill="#e1ed5e" style="font-size:6.75px; font-family:Arial;" text-anchor="middle"><textPath startOffset="22.20632615414155" xlink:href="#id58">October</textPath></text><line stroke="#e1ed5e" stroke-width="0.3" x1="26.266209847984243" x2="21.928928074336255" y1="57.711370442889674" y2="55.22380399835377" /><path d="M 25.398753493254645 57.213857153982495 a86.0,86.0 0 0,1 29.58750427330803,-30.492523968695096" fill="none" id="id59" stroke="none" /><text fill="#e1ed5e" style="font-size:6.75px; font-family:Arial;" text-anchor="middle"><textPath startOffset="21.46611528233685" xlink:href="#id59">November</textPath></text><line stroke="#e1ed5e" stroke-width="0.3" x1="56.762969772571076" x2="54.21961505331055" y1="26.818313649435495" y2="22.513508569990535" /><path d="M 56.25429882871897 25.957352633546506 a86.0,86.0 0 0,1 42.265352541879196,-11.944610805530505" fill="none" id="id60" stroke="none" /><text fill="#e1ed5e" style="font-size:6.75px; font-family:Arial;" text-anchor="middle"><textPath startOffset="22.20632615414155" xlink:href="#id60">December</textPath></text></svg>