<?xml version="1.0" encoding="utf-8" ?>
<svg baseProfile="full" height="200mm" version="1.1" viewBox="0,0,200,200" width="200mm" xmlns="http://www.w3.org/2000/svg" xmlns:ev="http://www.w3.org/2001/xml-events" xmlns:xlink="http://www.w3.org/1999/xlink"><defs /><rect fill="#1a1a1a" height="200" width="200" x="0" y="0" /><text alignment-baseline="middle" fill="#e1ed5e" style="dominant-baseline: central; font-size:9.0px; font-family:Arial;" text-anchor="middle" x="100.0" y="100.0">2024</text><line stroke="#e1ed5e" stroke-width="0.3" x1="100.0" x2="100.0" y1="15.0" y2="10.0" /><path d="M 100.0 14.0 a86.0,86.0 0 0,1 42.35913384403234,11.155469271406648" fill="none" id="id49" stroke="none" /><text fill="#e1ed5e" style="font-size:6.75px; font-family:Arial;" text-anchor="middle"><textPath startOffset="22.145653131862478" xlink:href="#id49">January</textPath></text><line stroke="#e1ed5e" stroke-width="0.3" x1="143.13028292997686" x2="145.6673583964461" y1="26.7553504044142" y2="22.446841604673864" /><path d="M 143.63769802327073 25.89364864446614 a86.0,86.0 0 0,1 29.32050498858742,28.57503671076993" fill="none" id="id50" stroke="none" /><text fill="#e1ed5e" style="font-size:6.75px; font-family:Arial;" text-anchor="middle"><textPath startOffset="20.669276256404974" xlink:href="#id50">February</textPath></text><line stroke="#e1ed5e" stroke-width="0.3" x1="172.87174338648825" x2="177.1583165268699" y1="56.24261187166439" y2="53.66864786411523" /><path d="M 173.72905801456457 55.72781907015455 a86.0,86.0 0 0,1 12.242430191666344,42.057860355516425" fill="none" id="id51" stroke="none" /><text fill="#e1ed5e" style="font-size:6.75px; font-family:Arial;" text-anchor="middle"><textPath startOffset="22.145653131862474" xlink:href="#id51">March</textPath></text><line stroke="#e1ed5e" stroke-width="0.3" x1="184.99686870605535" x2="189.99668451229388" y1="99.2704041080226" y2="99.22748670261217" /><path d="M 185.99683186730306 99.26182062694052 a86.0,86.0 0 0,1 -10.086455211305974,41.156179273409016" fill="none" id="id52" stroke="none" /><text fill="#e1ed5e" style="font-size:6.75px; font-family:Arial;" text-anchor="middle"><textPath startOffset="21.40746469413373" xlink:href="#id52">April</textPath></text><path d="M 120.82617615685814 102.69636545807757 l 18.511865147381066 2.396731563780195 a39.66637279772485,39.66637279772485 0 0,0 -0.09322633361585567,0.6745393093981736 l -18.46799429721 -2.7141591813784536" fill="#ffdb14" stroke="none" /><path d="M 120.77682067341334 103.0534771498775 l 32.27172321726624 4.742831975114909 a53.61837786518535,53.61837786518535 0 0,0 -0.14165083799652514,0.9094999933925783 l -32.185550887131456 -5.296120150438938" fill="#7cff26" stroke="none" /><path d="M 120.7213421655516 103.40968896794604 l 15.43930188651304 2.540531250082302 a36.646927550657665,36.646927550657665 0 0,0 -0.10747179626457708,0.6198687613356216 l -15.39341527275623 -2.8051930443385116" fill="#ffb310" stroke="none" /><path d="M 120.65975698304385 103.76489593502545 l 16.74980110155537 3.0523717259349703 a38.025651532172056,38.025651532172056 0 0,0 -0.12253984893184168,0.6411802700228161 l -16.694934960341367 -3.339454560991101" fill="#ffc512" stroke="none" /><path d="M 120.35273937422433 105.17358676015961 l 21.555309161422986 5.4792752974529355 a43.24081407749733,43.24081407749733 0 0,0 -0.18904579004195993,0.7178376568669766 l -21.458073890576294 -5.848493458692715" fill="#f6ff19" stroke="none" /><path d="M 119.83427380445688 106.89939002012753 l 11.376409224094237 3.9573056739776016 a33.04503860646996,33.04503860646996 0 0,0 -0.19096858410345358,0.5341731177114027 l -11.30680046994684 -4.152013748069926" fill="#ff820c" stroke="none" /><line stroke="#e1ed5e" stroke-width="0.3" x1="174.33088141563837" x2="178.70328620479359" y1="141.23008692659167" y2="143.65538615756765" /><path d="M 175.20536237346943 141.71514677278685 a86.0,86.0 0 0,1 -30.301960400862466,31.631185727798858" fill="none" id="id53" stroke="none" /><text fill="#e1ed5e" style="font-size:6.75px; font-family:Arial;" text-anchor="middle"><textPath startOffset="22.145653131862474" xlink:href="#id53">May</textPath></text><path d="M 111.8722381534696 117.32195027204791 l 10.844905946698818 15.823041880174381 a40.182821464385675,40.182821464385675 0 0,0 -0.5723252883206269,0.38508599604819643 l -10.571684370281186 -16.0068775502797" fill="#ffe215" stroke="none" /><line stroke="#e1ed5e" stroke-width="0.3" x1="143.1302829299769" x2="145.66735839644613" y1="173.24464959558577" y2="177.55315839532614" /><path d="M 143.63769802327073 174.10635135553383 a86.0,86.0 0 0,1 -40.68552437913181,11.842963189579606" fill="none" id="id54" stroke="none" /><text fill="#e1ed5e" style="font-size:6.75px; font-family:Arial;" text-anchor="middle"><textPath startOffset="21.407464694133747" xlink:href="#id54">June</textPath></text><path d="M 110.65571695917076 118.09573695890943 l 6.9817772726861405 11.856584171324721 a34.75949861357981,34.75949861357981 0 0,0 -0.5167703466931262,0.2983574987724938 l -6.777214458132616 -11.974688567373388" fill="#ff9a0e" stroke="none" /><path d="M 109.06512990194946 118.94263497670748 l 1.4373422478049562 3.0034924850789317 a24.329702666192677,24.329702666192677 0 0,0 -0.3782820242220198,0.1770550879150477 l -1.3855715097114303 -3.027723804564513" fill="#ff0400" stroke="none" /><path d="M 107.407793817531 119.65005319985036 l 3.423139469018088 9.080284135004748 a30.704094177035195,30.704094177035195 0 0,0 -0.49479040753057424,0.1816938912064957 l -3.266759909833387 -9.137708875219966" fill="#ff6109" stroke="none" /><path d="M 107.06938296918513 119.77432235084164 l 3.1022583587432693 8.677568759364227 a30.215433060789195,30.215433060789195 0 0,0 -0.4899133596361305,0.1704172977304145 l -2.952839227062117 -8.729544489663233" fill="#ff5a08" stroke="none" /><path d="M 106.72888874123015 119.89276391827305 l 2.9129678462725597 8.611671837038985 a30.090999587628865,30.090999587628865 0 0,0 -0.4907372933435377,0.1613150956032132 l -2.7647078152812874 -8.660407854044216" fill="#ff5808" stroke="none" /><path d="M 106.38641147887787 120.00534299687104 l 4.825676040053504 15.116361464077649 a36.86794041948098,36.86794041948098 0 0,0 -0.6045628871513872,0.18729512783293173 l -4.565472520030493 -15.196973179717226" fill="#ffb610" stroke="none" /><path d="M 106.0420521117495 120.11202640906438 l 3.114357095721206 10.366681881905421 a31.824385126199786,31.824385126199786 0 0,0 -0.524556774930751,0.15269083220998936 l -2.9359403084088482 -10.418616408417929" fill="#ff710a" stroke="none" /><path d="M 103.2317021107853 120.74984581791261 l 1.3878905886449708 8.911253184631265 a30.018684693825932,30.018684693825932 0 0,0 -0.5098529139507882,0.07493082060141057 l -1.234712569086497 -8.933765078531557" fill="#ff5708" stroke="none" /><path d="M 101.08105385017728 120.97215588758144 l 0.9577659357622459 18.58040328456087 a39.60507193763644,39.60507193763644 0 0,0 -0.6792726981660778,0.029170892389782644 l -0.6386674769953385 -18.594106745376486" fill="#ffda14" stroke="none" /><line stroke="#e1ed5e" stroke-width="0.3" x1="101.45913802915013" x2="101.54496967792366" y1="184.9874750549273" y2="189.98673829345242" /><path d="M 101.47630435890484 185.9873277026323 a86.0,86.0 0 0,1 -42.54439059252881,-10.42667462771756" fill="none" id="id55" stroke="none" /><text fill="#e1ed5e" style="font-size:6.75px; font-family:Arial;" text-anchor="middle"><textPath startOffset="22.145653131862474" xlink:href="#id55">July</textPath></text><path d="M 100.36049292484886 120.99690560180557 l 0.3924711336519794 22.85947594721679 a43.86284483987356,43.86284483987356 0 0,0 -0.7529640585008288,0.006463290851203971 l -2.7998909752553736e-15 -22.86284483987356" fill="#eeff19" stroke="none" /><path d="M 100.0 121.0 l 1.5038434505115903e-15 12.279813670019998 a33.27981367002,33.27981367002 0 0,0 -0.5712922556347773,-0.004903856920554292 l 0.21079933078592358 -12.278004211293878" fill="#ff850c" stroke="none" /><path d="M 99.63950707515114 120.99690560180557 l -0.24777072716564802 14.431402700536065 a35.43352951423455,35.43352951423455 0 0,0 -0.6080843939243559,-0.01566209696364579 l 0.4954684351607478 -14.425022886222372" fill="#ffa30f" stroke="none" /><path d="M 99.27912038922189 120.98762331915562 l -0.20917393244706653 6.089870814416531 a27.093462092300044,27.093462092300044 0 0,0 -0.4646841477040084,-0.01995553671524085 l 0.3136838407519137 -6.0853827092754615" fill="#ff2d04" stroke="none" /><path d="M 98.91894614982273 120.97215588758144 l -0.7724183094731333 14.984708850568714 a36.00460360626437,36.00460360626437 0 0,0 -0.6169742836641297,-0.03711564082293308 l 1.0295369452697094 -14.969241231921089" fill="#ffab0f" stroke="none" /><path d="M 98.55909050195518 120.95050786540614 l -1.0314124887009068 14.996511221785498 a36.031938017001885,36.031938017001885 0 0,0 -0.6167140810308273,-0.047737570244229095 l 1.2886955645069702 -14.976595884546215" fill="#ffab0f" stroke="none" /><path d="M 98.19965949673042 120.92268563240118 l -0.6440451929509466 7.484781395907993 a28.512439467649216,28.512439467649216 0 0,0 -0.48729176066179175,-0.04614703637000531 l 0.7724365169977536 -7.4726226040328045" fill="#ff4206" stroke="none" /><path d="M 97.84075906011543 120.88869738790638 l -1.5449015540426707 14.945521113650614 a36.025156311009205,36.025156311009205 0 0,0 -0.6145961974025709,-0.06886678584395066 l 1.8012336530460409 -14.916798567299692" fill="#ffab0f" stroke="none" /><path d="M 97.12497278360702 120.80226474461374 l -0.6187338791988509 4.476850127945731 a25.51940468218505,25.51940468218505 0 0,0 -0.43343480809395735,-0.06369999064245786 l 0.6954937929004932 -4.465569064004391" fill="#ff1602" stroke="none" /><path d="M 96.05791012581884 120.62667999033965 l -1.8041314206228594 9.439977946072151 a30.6108310673535,30.6108310673535 0 0,0 -0.5152874458632188,-0.1030719206392281 l 1.9659153520170363 -9.40761662877006" fill="#ff6008" stroke="none" /><path d="M 95.70440661134978 120.55596938700252 l -6.128452059651833 29.32686163005308 a50.960352763539525,50.960352763539525 0 0,0 -0.8547691193174035,-0.18629295117372593 l 6.630983595588373 -29.217337220745637" fill="#9aff23" stroke="none" /><path d="M 95.35216902796893 120.47920084513623 l -6.677727625056195 29.42330003943312 a51.17155334822759,51.17155334822759 0 0,0 -0.8549739387179545,-0.20177152156409736 l 7.181833717514038 -29.304332374222792" fill="#97ff23" stroke="none" /><path d="M 95.00130118170881 120.39639698878247 l -7.165541190272735 29.23785330323972 a51.103106921566436,51.103106921566436 0 0,0 -0.850245478958706,-0.2161290758922233 l 7.666391962456819 -29.110538995512236" fill="#98ff23" stroke="none" /><path d="M 94.6519064749342 120.30758222061772 l -7.66223848735328 29.094767574019496 a51.086797749566074,51.086797749566074 0 0,0 -0.8461399249517448,-0.23061919916270954 l 8.16055981323972 -28.958947880712643" fill="#98ff23" stroke="none" /><path d="M 94.30408787586889 120.21278271476187 l -8.185077397201622 29.04595213683755 a51.177190517568704,51.177190517568704 0 0,0 -0.8435462900997801,-0.24554403107269213 l 8.68248369968301 -28.90116441146234" fill="#97ff23" stroke="none" /><path d="M 93.95794788825049 120.11202640906438 l -8.755993870488695 29.14585586218713 a51.43268543194017,51.43268543194017 0 0,0 -0.8433965240502507,-0.2612863990546015 l 9.25503102741058 -28.99125287532588" fill="#94ff23" stroke="none" /><path d="M 93.61358852112213 120.00534299687104 l -9.243461719436143 28.9550121828759 a51.39464286793272,51.39464286793272 0 0,0 -0.8381665042372152,-0.27552197804495376 l 9.739150961321101 -28.792069283428926" fill="#95ff23" stroke="none" /><path d="M 93.27111125876986 119.89276391827306 l -9.881682856076598 29.213439504015582 a51.839466657561644,51.839466657561644 0 0,0 -0.8405256751030612,-0.29237846122523303 l 10.38171430322468 -29.03950261022176" fill="#90ff24" stroke="none" /><path d="M 92.93061703081489 119.77432235084164 l -10.2720403803512 28.732725128532785 a51.51367409682723,51.51367409682723 0 0,0 -0.8301326739295498,-0.3048362164025826 l 10.763762205934869 -28.552158063121485" fill="#93ff23" stroke="none" /><path d="M 92.59220618246901 119.65005319985036 l -10.656682034432595 28.26811518632202 a51.210117645751865,51.210117645751865 0 0,0 -0.8199172377843522,-0.3171616014033614 l 11.140371534710477 -28.08101369678062" fill="#97ff23" stroke="none" /><path d="M 92.25597844496254 119.51999308798841 l -11.048362815812999 27.84909162061528 a50.96061122546173,50.96061122546173 0 0,0 -0.8103842273214898,-0.3295762103298153 l 11.52480150432493 -27.655328153706176" fill="#9aff23" stroke="none" /><path d="M 91.92203290615298 119.3841803445677 l -11.755230848874758 28.208274695768306 a51.559650089984004,51.559650089984004 0 0,0 -0.8140653098249723,-0.3474760734487397 l 12.23773123387016 -28.00232397266016" fill="#93ff23" stroke="none" /><path d="M 91.59046798132341 119.24265499422711 l -12.149813526523955 27.801151052860433 a51.34010495356381,51.34010495356381 0 0,0 -0.8045400207715651,-0.359860517955189 l 12.625266950151154 -27.58848678399539" fill="#95ff23" stroke="none" /><path d="M 91.26138138417905 119.09545874513695 l -12.525158383347838 27.369731498810314 a51.09953147218272,51.09953147218272 0 0,0 -0.7945035115022219,-0.37186776021711626 l 12.99315060872155 -27.15068750702267" fill="#98ff23" stroke="none" /><path d="M 90.93487009805054 118.94263497670748 l -12.947313122174759 27.054904789588154 a50.99334576630821,50.99334576630821 0 0,0 -0.7863653515359218,-0.3846506987065061 l 13.409838722972749 -26.828660340784428" fill="#99ff23" stroke="none" /><path d="M 90.6110303473126 118.78422872680471 l -13.788424652829638 27.586085805158607 a51.840116479292575,51.840116479292575 0 0,0 -0.7925928678427606,-0.4047035657682848 l 14.259944742385981 -27.34532428771749" fill="#90ff24" stroke="none" /><path d="M 90.28995756902619 118.62028667847754 l -13.830576915913149 26.52195486618581 a50.91151864668504,50.91151864668504 0 0,0 -0.771457839936485,-0.4107578472305401 l 14.283823571636194 -26.280626551232697" fill="#9aff22" stroke="none" /><path d="M 89.97174638481275 118.45085714620012 l -24.879657555280176 45.77576764748399 a73.10007930689216,73.10007930689216 0 0,0 -1.097391659416551,-0.6087046547619939 l 25.66179340285283 -45.34193007728885" fill="#3fffbe" stroke="none" /><line stroke="#e1ed5e" stroke-width="0.3" x1="58.13341422392154" x2="55.67067388415222" y1="173.97424548756322" y2="178.32567169271397" /><path d="M 57.64086615596768 174.84453072859336 a86.0,86.0 0 0,1 -31.369924170532247,-30.572349798747897" fill="none" id="id56" stroke="none" /><text fill="#e1ed5e" style="font-size:6.75px; font-family:Arial;" text-anchor="middle"><textPath startOffset="22.145653131862474" xlink:href="#id56">August</textPath></text><path d="M 89.65649057296885 118.27599006163327 l -16.296324250227997 28.79404346652249 a54.0857540826948,54.0857540826948 0 0,0 -0.8040942764794026,-0.46424404697922395 l 16.788210994567798 -28.510052522267095" fill="#77ff27" stroke="none" /><path d="M 89.34428304082925 118.09573695890944 l -15.252396171470085 25.901903191456316 a51.05901159238358,51.05901159238358 0 0,0 -0.7514603793219219,-0.4512303665724104 l 15.694789307349435 -25.636258824347987" fill="#99ff23" stroke="none" /><path d="M 89.03521579738668 117.91015095944536 l -15.825105401754266 25.849120370923576 a51.30859589171244,51.30859589171244 0 0,0 -0.7472385297675452,-0.4663321080976541 l 16.266508060311523 -25.573652465984374" fill="#96ff23" stroke="none" /><path d="M 88.72937992617639 117.7192867562869 l -17.66832240262436 27.77753744727361 a53.920528597787815,53.920528597787815 0 0,0 -0.7767492674822671,-0.503479490763595 l 18.142557302363635 -27.47014411480612" fill="#79ff26" stroke="none" /><path d="M 88.4268655584334 117.5232005979908 l -17.925219962209088 27.141067681088796 a53.52615971126966,53.52615971126966 0 0,0 -0.7623749073120601,-0.5129598613506481 l 18.388491157618155 -26.829358145681024" fill="#7dff26" stroke="none" /><path d="M 88.1277618465304 117.32195027204791 l -17.964502866955968 26.210746558561315 a52.77619546789708,52.77619546789708 0 0,0 -0.7429001166420596,-0.5186019779467818 l 18.41179807477179 -25.898499764809404" fill="#85ff25" stroke="none" /><path d="M 87.83215693770417 117.11559508785305 l -18.063947508365086 25.409204380638485 a52.17585390718315,52.17585390718315 0 0,0 -0.7255400067072293,-0.5252350128061977 l 18.49746852544627 -25.09536859645922" fill="#8cff24" stroke="none" /><path d="M 86.13680546590413 115.77377054828092 l -10.935358583633917 12.442430692087617 a37.56490714975668,37.56490714975668 0 0,0 -0.4807144912034487,-0.4298578622667725 l 11.147338101660736 -12.252877299937463" fill="#ffbf11" stroke="none" /><line stroke="#e1ed5e" stroke-width="0.3" x1="26.387840678322732" x2="22.057713659400548" y1="142.50000000000003" y2="145.00000000000006" /><path d="M 25.521815274538298 143.00000000000003 a86.0,86.0 0 0,1 -11.493303480769221,-40.785679425670985" fill="none" id="id57" stroke="none" /><text fill="#e1ed5e" style="font-size:6.75px; font-family:Arial;" text-anchor="middle"><textPath startOffset="21.40746469413373" xlink:href="#id57">September</textPath></text><path d="M 79.48165901384964 104.47187691870673 l -9.104368564015038 1.9842547537493012 a30.31808960448449,30.31808960448449 0 0,0 -0.10646311099365019,-0.5094645261846398 l 9.137089385833056 -1.8276737762792523" fill="#ff5c08" stroke="none" /><path d="M 79.407916724674 104.11899336999214 l -9.356343464602636 1.8715307326017707 a30.54168697404633,30.54168697404633 0 0,0 -0.09842234273768889,-0.5149872865269159 l 9.387092099622482 -1.7106408810415403" fill="#ff5f08" stroke="none" /><path d="M 79.0935383218832 101.97986365728391 l -15.831787223038214 1.499286710268833 a36.90262076876465,36.90262076876465 0 0,0 -0.05431077718674413,-0.6311735560389538 l 15.855191622922698 -1.227292106854217" fill="#ffb710" stroke="none" /><path d="M 79.03789590574601 101.26102812881392 l -15.677731000761005 0.9431333657653603 a36.70607366205324,36.70607366205324 0 0,0 -0.032438399259889006,-0.6292962796538403 l 15.691610989477466 -0.6738652927347893" fill="#ffb410" stroke="none" /><path d="M 79.01933749520258 100.90099992219065 l -15.640685302132887 0.6716783246004666 a36.655101037428466,36.655101037428466 0 0,0 -0.02160087373811114,-0.6288858702645098 l 15.649910862867847 -0.40308618977183686" fill="#ffb310" stroke="none" /><line stroke="#e1ed5e" stroke-width="0.3" x1="15.003131293944662" x2="10.003315487706104" y1="100.72959589197737" y2="100.7725132973878" /><path d="M 14.003168132696942 100.73817937305945 a86.0,86.0 0 0,1 10.791469493833604,-42.45332614584628" fill="none" id="id58" stroke="none" /><text fill="#e1ed5e" style="font-size:6.75px; font-family:Arial;" text-anchor="middle"><textPath startOffset="22.145653131862435" xlink:href="#id58">October</textPath></text><path d="M 79.00077361379809 100.18025310272382 l -3.076525259123773 0.02640826920793865 a24.076638598650995,24.076638598650995 0 0,0 0.0,-0.41332274386351125 l 3.076525259123773 0.02640826920793752" fill="#ff0000" stroke="none" /><path d="M 79.01933749520258 99.09900007780938 l -30.30324867041325 -1.301351884761613 a51.33117862380021,51.33117862380021 0 0,0 0.04536309936088596,-0.8800320087517356 l 30.276443981595794 1.8213556868900607" fill="#96ff23" stroke="none" /><path d="M 79.13060592940154 97.66154086499901 l -14.955673614986942 -1.675814423109248 a36.04926999089051,36.04926999089051 0 0,0 0.07418924956515398,-0.6143934129539967 l 14.92470227916212 1.9323015129866812" fill="#ffab0f" stroke="none" /><path d="M 79.34024301695615 96.23510406497455 l -14.851476804240681 -2.706433802454751 a36.09606396362869,36.09606396362869 0 0,0 0.11632164202090917,-0.6086439839006823 l 14.802828869937612 2.960980351388748" fill="#ffac0f" stroke="none" /><path d="M 79.407916724674 95.88100663000787 l -3.2967641432318255 -0.6594451599110824 a24.36207104848027,24.36207104848027 0 0,0 0.08554832800830255,-0.4093797183630815 l 3.2849581043991565 0.715941329559573" fill="#ff0400" stroke="none" /><path d="M 79.48165901384962 95.52812308129327 l -15.194909285397609 -3.3116597565601085 a36.55160308568484,36.55160308568484 0 0,0 0.13887718661395743,-0.6119185087817044 l 15.13582123722599 3.5720125992808214" fill="#ffb210" stroke="none" /><path d="M 79.56144815229197 95.17655741523228 l -3.5069315241318444 -0.8276262908156469 a24.603267127510666,24.603267127510666 0 0,0 0.10053653371390196,-0.4102233657289727 l 3.492207463901644 0.8877054811527373" fill="#ff0801" stroke="none" /><path d="M 79.83685265289637 94.1308016681162 l -28.78643420129872 -8.379311458010783 a50.98118834429435,50.98118834429435 0 0,0 0.25180745074563204,-0.8381851075973212 l 28.638350430549462 8.872234169198826" fill="#9aff23" stroke="none" /><path d="M 80.28708602549916 92.7611449362534 l -59.138741923502494 -21.716565191239802 a84.0,84.0 0 0,0 0.5086772647422562,-1.3493268792234203 l 58.757233974945805 22.728560350657368" fill="#4dd2ff" stroke="none" /><path d="M 80.68587082218212 91.75594674310238 l -14.253013168499962 -6.083763785080584 a36.49711476933985,36.49711476933985 0 0,0 0.250902227468116,-0.5741133977169699 l 14.146477059014869 6.327539252573421" fill="#ffb110" stroke="none" /><path d="M 80.9802524753101 91.09779779509293 l -12.566190843333269 -5.881611818852383 a34.874527375688764,34.874527375688764 0 0,0 0.25843808707153776,-0.5400362047125167 l 12.463373498301827 6.096460525629986" fill="#ff9b0e" stroke="none" /><path d="M 81.1358732173502 90.77261029715801 l -14.879493627061715 -7.278305953930091 a37.56421045980714,37.56421045980714 0 0,0 0.28831441438304906,-0.5768219629355951 l 14.75235929946692 7.532659773029456" fill="#ffbf11" stroke="none" /><path d="M 81.29705330413844 90.45014215332179 l -13.372211598302552 -6.827946522873219 a36.014556162237824,36.014556162237824 0 0,0 0.28587313865209046,-0.5481994371516088 l 13.253030390675521 7.056492203129315" fill="#ffab0f" stroke="none" /><path d="M 81.46374523516351 90.13048839642627 l -8.272278724609816 -4.4045224829025935 a30.37178817515775,30.37178817515775 0 0,0 0.2489830749929005,-0.4581008144387581 l 8.195450300001564 4.5458781308159715" fill="#ff5c08" stroke="none" /><line stroke="#e1ed5e" stroke-width="0.3" x1="26.387840678322718" x2="22.05771365940052" y1="57.49999999999999" y2="54.99999999999999" /><path d="M 25.521815274538284 56.99999999999999 a86.0,86.0 0 0,1 29.574782752854787,-30.34633250058573" fill="none" id="id59" stroke="none" /><text fill="#e1ed5e" style="font-size:6.75px; font-family:Arial;" text-anchor="middle"><textPath startOffset="21.40746469413373" xlink:href="#id59">November</textPath></text><path d="M 82.18462484594161 88.88188828441811 l -12.930067975670802 -8.06931872051133 a36.2414094646349,36.2414094646349 0 0,0 0.33390816961661335,-0.5249591033101376 l 12.789642114428299 8.29009149850014" fill="#ffae10" stroke="none" /><path d="M 82.37810715431573 88.57770195909679 l -13.33853355119627 -8.645876296294936 a36.89552308756221,36.89552308756221 0 0,0 0.3490589881302199,-0.528519797330688 l 13.188150124145322 8.873575971964685" fill="#ffb610" stroke="none" /><path d="M 82.576782715395 88.27688183743585 l -14.91053307316072 -10.03247208757098 a38.97149110991379,38.97149110991379 0 0,0 0.3782280885624384,-0.5518460846959667 l 14.736115247782967 10.286952907336982" fill="#ffd213" stroke="none" /><path d="M 82.78059297857968 87.97951657250589 l -16.297707823588542 -11.377065804640484 a40.875937880416586,40.875937880416586 0 0,0 0.4065888693640853,-0.5719181632796845 l 16.100003855694485 11.655161194629688" fill="#ffea16" stroke="none" /><path d="M 82.98947788004972 87.6856937992154 l -8.660910970363354 -6.269831632134551 a31.692154485035992,31.692154485035992 0 0,0 0.32280418282794376,-0.43794587034447335 l 8.55200476795159 6.417583811747888" fill="#ff6f0a" stroke="none" /><path d="M 83.2033758604659 87.39550010848427 l -2.778975163181904 -2.0853947705126656 a24.47441711751244,24.47441711751244 0 0,0 0.25505608531302404,-0.33387660308507777 l 2.742767100514573 2.1327922868386278" fill="#ff0601" stroke="none" /><path d="M 83.42222388311158 87.10902102172516 l -11.99357884095118 -9.32627944923672 a36.192939866246,36.192939866246 0 0,0 0.3855988391357399,-0.4871915367277585 l 11.831713571173879 9.530790929879162" fill="#ffad10" stroke="none" /><path d="M 83.64595745247003 86.82634096563983 l -11.671521267827956 -9.401751349721856 a35.987239143596696,35.987239143596696 0 0,0 0.39166657014710043,-0.47776953148597345 l 11.508407878442226 9.600723162906322" fill="#ffaa0f" stroke="none" /><path d="M 83.8745106332314 86.54754324733833 l -4.976095917403287 -4.15123619528195 a27.480300342439122,27.480300342439122 0 0,0 0.30530016506420715,-0.35964282677929016 l 4.904101188831965 4.2360458045107965" fill="#ff3304" stroke="none" /><path d="M 84.10781606972428 86.27271002978789 l -23.2075676454423 -20.046144190754546 a51.66657941365979,51.66657941365979 0 0,0 0.5855273458836086,-0.6662226358431669 l 22.8600292356001 20.441579104409012" fill="#92ff23" stroke="none" /><path d="M 85.34317274990677 84.96080404539775 l -11.048740002114952 -11.336980583038683 a36.83040695543015,36.83040695543015 0 0,0 0.4565699184417371,-0.4373836538377951 l 10.852497597807915 11.524976367182047" fill="#ffb610" stroke="none" /><path d="M 85.86807049272753 84.46653392183569 l -6.67192571396704 -7.333615109005861 a30.914459304456983,30.914459304456983 0 0,0 0.3956093519977424,-0.35375632200470003 l 6.545051335145906 7.447066960893962" fill="#ff6409" stroke="none" /><path d="M 86.13680546590413 84.22622945171909 l -5.922549569328928 -6.738774222467271 a29.97149215139531,29.97149215139531 0 0,0 0.3893732419536842,-0.33633133258400844 l 5.805996847612396 6.83944968751599" fill="#ff5708" stroke="none" /><path d="M 86.40962598614128 83.9905735841838 l -6.179922836214895 -7.27993356186621 a30.549286828174992,30.549286828174992 0 0,0 0.4027060317661126,-0.3359516944356308 l 6.054042470286873 7.384947440213723" fill="#ff5f08" stroke="none" /><path d="M 86.68645165197937 83.75963576809568 l -7.6023150314441725 -9.273588219228598 a32.99143995928502,32.99143995928502 0 0,0 0.4410629215924018,-0.35528906842880686 l 7.442001339496525 9.402725581450804" fill="#ff810b" stroke="none" /><path d="M 86.96720088162412 83.53348406188908 l -18.609244816068482 -23.512172909037083 a50.985434256132244,50.985434256132244 0 0,0 0.6909498837023224,-0.5372868087399362 l 18.202884987730915 23.828160769397822" fill="#99ff23" stroke="none" /><path d="M 87.25179093698888 83.31218511350988 l -11.137875102783378 -14.579836040137423 a39.34731263053235,39.34731263053235 0 0,0 0.5402704757813431,-0.40542903721628826 l 10.885951638091282 14.76888410461771" fill="#ffd714" stroke="none" /><path d="M 87.54013794807813 83.09580414077388 l -9.032925904952194 -12.25489881371815 a36.22420097538215,36.22420097538215 0 0,0 0.5037216461353059,-0.36465562589630157 l 8.82122324844292 12.40815521098753" fill="#ffad10" stroke="none" /><path d="M 87.83215693770416 82.88440491214696 l -9.016650539794405 -12.683048170303591 a36.56148122278262,36.56148122278262 0 0,0 0.5146549201625116,-0.35926910438879567 l 8.797600528458128 12.835962090497512" fill="#ffb210" stroke="none" /><path d="M 88.12776184653039 82.6780497279521 l -8.46889772743946 -12.356374880409058 a35.98006104470316,35.98006104470316 0 0,0 0.5124652291889349,-0.34480947679483853 l 8.255536210153537 12.499934031261006" fill="#ffaa0f" stroke="none" /><path d="M 88.4268655584334 82.4767994020092 l -4.97483083216712 -7.532527946796539 a30.02706591744801,30.02706591744801 0 0,0 0.4325532791044471,-0.2803758095550452 l 4.844791920805648 7.61681759805549" fill="#ff5808" stroke="none" /><path d="M 89.03521579738668 82.08984904055464 l -1.8840614471536425 -3.077472781210814 a24.608396632265375,24.608396632265375 0 0,0 0.36217377679407514,-0.2174749468670184 l 1.8309549138021333 3.109361728613756" fill="#ff0801" stroke="none" /><line stroke="#e1ed5e" stroke-width="0.3" x1="56.869717070023135" x2="54.33264160355391" y1="26.7553504044142" y2="22.446841604673864" /><path d="M 56.362301976729285 25.89364864446614 a86.0,86.0 0 0,1 42.16139366436587,-11.88097634709845" fill="none" id="id60" stroke="none" /><text fill="#e1ed5e" style="font-size:6.75px; font-family:Arial;" text-anchor="middle"><textPath startOffset="22.145653131862474" xlink:href="#id60">December</textPath></text></svg>