<?xml version="1.0" encoding="utf-8" ?>
<svg baseProfile="full" height="200mm" version="1.1" viewBox="0,0,200,200" width="200mm" xmlns="http://www.w3.org/2000/svg" xmlns:ev="http://www.w3.org/2001/xml-events" xmlns:xlink="http://www.w3.org/1999/xlink"><defs /><rect fill="#1a1a1a" height="200" width="200" x="0" y="0" /><text alignment-baseline="middle" fill="#e1ed5e" style="dominant-baseline: central; font-size:9.0px; font-family:Arial;" text-anchor="middle" x="100.0" y="100.0">2024</text><line stroke="#e1ed5e" stroke-width="0.3" x1="100.0" x2="100.0" y1="15.0" y2="10.0" /><path d="M 100.0 14.0 a86.0,86.0 0 0,1 42.35913384403234,11.155469271406648" fill="none" id="id49" stroke="none" /><text fill="#e1ed5e" style="font-size:6.75px; font-family:Arial;" text-anchor="middle"><textPath startOffset="22.145653131862478" xlink:href="#id49">January</textPath></text><line stroke="#e1ed5e" stroke-width="0.3" x1="143.13028292997686" x2="145.6673583964461" y1="26.7553504044142" y2="22.446841604673864" /><path d="M 143.63769802327073 25.89364864446614 a86.0,86.0 0 0,1 29.32050498858742,28.57503671076993" fill="none" id="id50" stroke="none" /><text fill="#e1ed5e" style="font-size:6.75px; font-family:Arial;" text-anchor="middle"><textPath startOffset="20.669276256404974" xlink:href="#id50">February</textPath></text><line stroke="#e1ed5e" stroke-width="0.3" x1="172.87174338648825" x2="177.1583165268699" y1="56.24261187166439" y2="53.66864786411523" /><path d="M 173.72905801456457 55.72781907015455 a86.0,86.0 0 0,1 12.242430191666344,42.057860355516425" fill="none" id="id51" stroke="none" /><text fill="#e1ed5e" style="font-size:6.75px; font-family:Arial;" text-anchor="middle"><textPath startOffset="22.145653131862474" xlink:href="#id51">March</textPath></text><line stroke="#e1ed5e" stroke-width="0.3" x1="184.99686870605535" x2="189.99668451229388" y1="99.2704041080226" y2="99.22748670261217" /><path d="M 185.99683186730306 99.26182062694052 a86.0,86.0 0 0,1 -10.086455211305974,41.156179273409016" fill="none" id="id52" stroke="none" /><text fill="#e1ed5e" style="font-size:6.75px; font-family:Arial;" text-anchor="middle"><textPath startOffset="21.40746469413373" xlink:href="#id52">April</textPath></text><path d="M 120.82617615685814 102.69636545807757 l 14.803062152896658 1.9165527633214607 a35.92661460603564,35.92661460603564 0 0,0 -0.08443692535312072,0.6109435296478535 l -14.767980710988327 -2.1703846011693995" fill="#ffb010" stroke="none" /><path d="M 120.77682067341334 103.0534771498775 l 25.806169219737143 3.792618191058084 a47.08337253004016,47.08337253004016 0 0,0 -0.12438644062212913,0.7986501776059239 l -25.737261286976747 -4.235056550595459" fill="#c2ff1e" stroke="none" /><path d="M 120.7213421655516 103.40968896794604 l 12.346078777249549 2.031542564562437 a33.512107191264015,33.512107191264015 0 0,0 -0.09827853512351434,0.5668444740880496 l -12.3093854246338 -2.243180071571075" fill="#ff900d" stroke="none" /><path d="M 120.65975698304385 103.76489593502545 l 13.394022956679704 2.440837161087044 a34.61460748648327,34.61460748648327 0 0,0 -0.11154756332419292,0.5836639868258264 l -13.350149101073352 -2.6704037129461846" fill="#ff9f0e" stroke="none" /><path d="M 120.35273937422433 105.17358676015961 l 17.23676024544663 4.3815170505659164 a38.784926073037504,38.784926073037504 0 0,0 -0.16956496189122508,0.6438657793104975 l -17.159005802750674 -4.676763334249217" fill="#ffd513" stroke="none" /><path d="M 119.83427380445688 106.89939002012753 l 9.097175864252591 3.164469997135246 a30.631847126481453,30.631847126481453 0 0,0 -0.17702265516712928,0.495163872424951 l -9.041513039041519 -3.3201688259411184" fill="#ff6809" stroke="none" /><line stroke="#e1ed5e" stroke-width="0.3" x1="174.33088141563837" x2="178.70328620479359" y1="141.23008692659167" y2="143.65538615756765" /><path d="M 175.20536237346943 141.71514677278685 a86.0,86.0 0 0,1 -30.301960400862466,31.631185727798858" fill="none" id="id53" stroke="none" /><text fill="#e1ed5e" style="font-size:6.75px; font-family:Arial;" text-anchor="middle"><textPath startOffset="22.145653131862474" xlink:href="#id53">May</textPath></text><path d="M 111.8722381534696 117.32195027204791 l 8.672157856228381 12.65293748281465 a36.33959415458439,36.33959415458439 0 0,0 -0.5175860714611729,0.34825500801152587 l -8.453675496670206 -12.799942164883298" fill="#ffb610" stroke="none" /><line stroke="#e1ed5e" stroke-width="0.3" x1="143.1302829299769" x2="145.66735839644613" y1="173.24464959558577" y2="177.55315839532614" /><path d="M 143.63769802327073 174.10635135553383 a86.0,86.0 0 0,1 -40.68552437913181,11.842963189579606" fill="none" id="id54" stroke="none" /><text fill="#e1ed5e" style="font-size:6.75px; font-family:Arial;" text-anchor="middle"><textPath startOffset="21.407464694133747" xlink:href="#id54">June</textPath></text><path d="M 110.65571695917076 118.09573695890943 l 5.582996747352369 9.48114903667613 a32.00281962665079,32.00281962665079 0 0,0 -0.47578673034025926,0.2746955968388016 l -5.419417549151711 -9.575591530791103" fill="#ff7b0b" stroke="none" /><path d="M 109.06512990194946 118.94263497670748 l 1.149374547612837 2.401750746259703 a23.66260558435891,23.66260558435891 0 0,0 -0.3679098944047765,0.1722004074410412 l -1.1079759393365542 -2.4211273852712782" fill="#ff0300" stroke="none" /><path d="M 107.407793817531 119.65005319985036 l 2.737322572008756 7.261073335738564 a28.75990469337106,28.75990469337106 0 0,0 -0.4634601783633407,0.17018899708739504 l -2.612273241991289 -7.306993181834681" fill="#ff4d07" stroke="none" /><path d="M 107.06938296918513 119.77432235084164 l 2.480729139565746 6.93904091555441 a28.369145533345694,28.369145533345694 0 0,0 -0.4599776336247124,0.1600040982694874 l -2.361245733896012 -6.980603446392489" fill="#ff4806" stroke="none" /><path d="M 106.72888874123015 119.89276391827305 l 2.329362478305578 6.88634626652262 a28.269641975901422,28.269641975901422 0 0,0 -0.461033790075496,0.15155096409246585 l -2.2108059505823476 -6.925318152017105" fill="#ff4606" stroke="none" /><path d="M 106.38641147887787 120.00534299687104 l 3.8588646677108245 12.087838610365555 a33.68884071907088,33.68884071907088 0 0,0 -0.5524318033003762,0.1711447847975687 l -3.6507922315388237 -12.152299982969769" fill="#ff920d" stroke="none" /><path d="M 106.0420521117495 120.11202640906438 l 2.490403926737653 8.289744712129338 a29.65574832759055,29.65574832759055 0 0,0 -0.48881144566316087,0.1422858878182046 l -2.3477324686928855 -8.33127429425006" fill="#ff5a08" stroke="none" /><path d="M 103.2317021107853 120.74984581791261 l 1.1098303969677736 7.125907287141032 a28.211815178924326,28.211815178924326 0 0,0 -0.47916410474087284,0.07042062247473861 l -0.9873411866192153 -7.1439089829146525" fill="#ff4606" stroke="none" /><path d="M 101.08105385017728 120.97215588758144 l 0.7658800754078278 14.857868856404858 a35.8775952103837,35.8775952103837 0 0,0 -0.6153421698272034,0.02642544042677839 l -0.5107121449797948 -14.868826865257468" fill="#ffaf10" stroke="none" /><line stroke="#e1ed5e" stroke-width="0.3" x1="101.45913802915013" x2="101.54496967792366" y1="184.9874750549273" y2="189.98673829345242" /><path d="M 101.47630435890484 185.9873277026323 a86.0,86.0 0 0,1 -42.54439059252881,-10.42667462771756" fill="none" id="id55" stroke="none" /><text fill="#e1ed5e" style="font-size:6.75px; font-family:Arial;" text-anchor="middle"><textPath startOffset="22.145653131862474" xlink:href="#id55">July</textPath></text><path d="M 100.36049292484886 120.99690560180557 l 0.31384058485808414 18.27964068100233 a39.282334624966786,39.282334624966786 0 0,0 -0.6743335097069342,0.005788342158889771 l -2.23894025794064e-15 -18.282334624966786" fill="#ffdc14" stroke="none" /><path d="M 100.0 121.0 l 1.2025524110572422e-15 9.819585629869003 a30.819585629869003,30.819585629869003 0 0,0 -0.5290591698257682,-0.004541336672680894 l 0.16856624497691478 -9.818138691390757" fill="#ff6a09" stroke="none" /><path d="M 99.63950707515114 120.99690560180557 l -0.19813052032849193 11.540109515098681 a32.54181022732382,32.54181022732382 0 0,0 -0.5584588162840002,-0.014383918117673186 l 0.396202650683236 -11.535007879630962" fill="#ff820c" stroke="none" /><path d="M 99.27912038922189 120.98762331915562 l -0.16726649087640913 4.86978137811645 a25.87265315301837,25.87265315301837 0 0,0 -0.4437458652679382,-0.019056356775551512 l 0.2508381167451861 -4.86619245291507" fill="#ff2403" stroke="none" /><path d="M 98.91894614982273 120.97215588758144 l -0.617666353559397 11.982562248159567 a32.99847114241386,32.99847114241386 0 0,0 -0.565461248171053,-0.03401674452582119 l 0.8232719538628964 -11.970193525809053" fill="#ff890c" stroke="none" /><path d="M 98.55909050195518 120.95050786540614 l -0.8247717371511515 11.992000045663097 a33.02032917659026,33.02032917659026 0 0,0 -0.5651681004187827,-0.043747585345291544 l 1.0305088323451703 -11.976074693322753" fill="#ff890c" stroke="none" /><path d="M 98.19965949673042 120.92268563240118 l -0.5150124498328018 5.985225331016715 a27.00734218157472,27.00734218157472 0 0,0 -0.461568900037022,-0.043711054724882244 l 0.617680913254839 -5.975502520786649" fill="#ff3405" stroke="none" /><path d="M 97.84075906011543 120.88869738790638 l -1.235384632641172 11.951225670207446 a33.01490616737357,33.01490616737357 0 0,0 -0.5632407424661097,-0.06311230000109187 l 1.4403612767080807 -11.928257609699383" fill="#ff890c" stroke="none" /><path d="M 97.12497278360702 120.80226474461374 l -0.49477219053636035 3.5799251002300827 a24.61395396259907,24.61395396259907 0 0,0 -0.41805616334225376,-0.06143985945667445 l 0.556153459486299 -3.570904167474526" fill="#ff1101" stroke="none" /><path d="M 96.05791012581884 120.62667999033965 l -1.4426784842505298 7.548703447499417 a28.685326599905107,28.685326599905107 0 0,0 -0.48287446508374987,-0.09658841670486469 l 1.5720494348652376 -7.522825634131691" fill="#ff4c07" stroke="none" /><path d="M 95.70440661134978 120.55596938700252 l -4.900632973382913 23.4513028267437 a44.95787569488257,44.95787569488257 0 0,0 -0.7540882613667951,-0.16435002678579333 l 5.302483651368844 -23.36372134182419" fill="#dcff1b" stroke="none" /><path d="M 95.35216902796893 120.47920084513623 l -5.339862638736138 23.528420057050507 a45.1267628036085,45.1267628036085 0 0,0 -0.7539776225520501,-0.1779366659476554 l 5.742972415028076 -23.433287247456626" fill="#daff1c" stroke="none" /><path d="M 95.00130118170881 120.39639698878247 l -5.729944052328767 23.380127081703773 a45.072029436660216,45.072029436660216 0 0,0 -0.7499013575599522,-0.1906219926252942 l 6.130450703114098 -23.278319857243215" fill="#daff1b" stroke="none" /><path d="M 94.6519064749342 120.30758222061772 l -6.127129365711373 23.265708198140373 a45.0589877639351,45.0589877639351 0 0,0 -0.7463025713977438,-0.2034080844945758 l 6.525613338043812 -23.157099619501654" fill="#daff1b" stroke="none" /><path d="M 94.30408787586889 120.21278271476187 l -6.5452188892045085 23.226672804090548 a45.131270581050615,45.131270581050615 0 0,0 -0.7438922590536768,-0.21653619500858118 l 6.942971160639791 -23.11089291477945" fill="#daff1c" stroke="none" /><path d="M 93.95794788825049 120.11202640906438 l -7.001753764048103 23.306561083520084 a45.33557776820215,45.33557776820215 0 0,0 -0.7434157556503299,-0.230312101431849 l 7.400810152570067 -23.182932394281586" fill="#d7ff1c" stroke="none" /><path d="M 93.61358852112213 120.00534299687104 l -7.391558724707552 23.153952428268976 a45.30515693081086,45.30515693081086 0 0,0 -0.7388564817192124,-0.24287680109559542 l 7.787937944074508 -23.02365470577136" fill="#d8ff1c" stroke="none" /><path d="M 93.27111125876986 119.89276391827306 l -7.901913952436597 23.3606045222844 a45.66086145612692,45.66086145612692 0 0,0 -0.7403457032982457,-0.25753066672057645 l 8.301765427779864 -23.221515422995232" fill="#d3ff1c" stroke="none" /><path d="M 92.93061703081489 119.77432235084164 l -8.214064383939998 22.976199994625578 a45.4003405692737,45.4003405692737 0 0,0 -0.7316175127257065,-0.26866008463136326 l 8.607271048319824 -22.831809060985496" fill="#d6ff1c" stroke="none" /><path d="M 92.59220618246901 119.65005319985036 l -8.52164410465579 22.604673419823758 a45.15760084659281,45.15760084659281 0 0,0 -0.7230113316128683,-0.2796763151202654 l 8.908427698762187 -22.45505721656545" fill="#d9ff1c" stroke="none" /><path d="M 92.25597844496254 119.51999308798841 l -8.834852682219866 22.26960011212073 a44.958082374645414,44.958082374645414 0 0,0 -0.7149310020212146,-0.2907562145826097 l 9.21583814543152 -22.11465664095883" fill="#dcff1b" stroke="none" /><path d="M 91.92203290615298 119.3841803445677 l -9.400101583073564 22.55682181255058 a45.43710539436412,45.43710539436412 0 0,0 -0.7173976397407398,-0.3062143933047605 l 9.785934297984735 -22.392132769586418" fill="#d6ff1c" stroke="none" /><path d="M 91.59046798132341 119.24265499422711 l -9.715630669699598 22.231264309732904 a45.26154554267332,45.26154554267332 0 0,0 -0.7092841906730027,-0.317253796757347 l 10.095828263228235 -22.0612067620657" fill="#d8ff1c" stroke="none" /><path d="M 91.26138138417905 119.09545874513695 l -10.015776181785943 21.88627851701378 a45.06917031906022,45.06917031906022 0 0,0 -0.7007425126486299,-0.3279828784832646 l 10.390007408306063 -21.711119406959988" fill="#daff1b" stroke="none" /><path d="M 90.93487009805054 118.94263497670748 l -10.353353340394342 21.63452650245965 a44.98425863721211,44.98425863721211 0 0,0 -0.6936995763907319,-0.33932322454178376 l 10.723213166047143 -21.453609527820646" fill="#dbff1b" stroke="none" /><path d="M 90.6110303473126 118.78422872680471 l -11.025950410796169 22.05928681295924 a45.66138108780069,45.66138108780069 0 0,0 -0.6981250707740503,-0.3564676354752982 l 11.403002703283802 -21.866761225811103" fill="#d3ff1c" stroke="none" /><path d="M 90.28995756902619 118.62028667847754 l -11.059657579973484 21.20835168011212 a44.91882536358296,44.91882536358296 0 0,0 -0.6806510767820169,-0.36240836056206094 l 11.422097472542063 -21.015372851827486" fill="#dcff1b" stroke="none" /><path d="M 89.97174638481275 118.45085714620012 l -19.895084271705656 36.6047142298963 a62.661966852642024,62.661966852642024 0 0,0 -0.9406928205650024,-0.5217864503212479 l 20.52052128042676 -36.25779486414191" fill="#32ff48" stroke="none" /><line stroke="#e1ed5e" stroke-width="0.3" x1="58.13341422392154" x2="55.67067388415222" y1="173.97424548756322" y2="178.32567169271397" /><path d="M 57.64086615596768 174.84453072859336 a86.0,86.0 0 0,1 -31.369924170532247,-30.572349798747897" fill="none" id="id56" stroke="none" /><text fill="#e1ed5e" style="font-size:6.75px; font-family:Arial;" text-anchor="middle"><textPath startOffset="22.145653131862474" xlink:href="#id56">August</textPath></text><path d="M 89.65649057296885 118.27599006163327 l -13.031398987584476 23.025233366527726 a47.45711116423483,47.45711116423483 0 0,0 -0.7055460742409728,-0.4073472158887124 l 13.42473752968585 -22.79813925336284" fill="#beff1f" stroke="none" /><path d="M 89.34428304082925 118.09573695890944 l -12.196619125589121 20.712525710878175 a45.03676848951364,45.03676848951364 0 0,0 -0.6628280900293001,-0.39800922346470624 l 12.550379972175849 -20.50010248687755" fill="#dbff1b" stroke="none" /><path d="M 89.03521579738668 117.91015095944536 l -12.654587583328976 20.67031778819017 a45.23634923764128,45.23634923764128 0 0,0 -0.6588046799746116,-0.4111428452876126 l 13.0075563920933 -20.45003914606101" fill="#d8ff1c" stroke="none" /><path d="M 88.72937992617639 117.7192867562869 l -14.128520955678326 22.212381627281797 a47.32498816620907,47.32498816620907 0 0,0 -0.681737565406916,-0.4418940533771706 l 14.507744153342252 -21.96657373220073" fill="#c0ff1e" stroke="none" /><path d="M 88.4268655584334 117.5232005979908 l -14.333949771801601 21.70342688759116 a47.009630038229034,47.009630038229034 0 0,0 -0.6695597542676575,-0.45050968417370196 l 14.704405814166263 -21.454167529360337" fill="#c3ff1e" stroke="none" /><path d="M 88.1277618465304 117.32195027204791 l -14.365362450960879 20.959493130010014 a46.40991913828955,46.40991913828955 0 0,0 -0.6532857102622383,-0.45604416248813373 l 14.72304325239688 -20.70980415171675" fill="#caff1d" stroke="none" /><path d="M 87.83215693770417 117.11559508785305 l -14.444883622697585 20.31853779765991 a45.9298544140998,45.9298544140998 0 0,0 -0.6386852228417532,-0.46235884733752886 l 14.791549855913292 -20.067578178949315" fill="#d0ff1d" stroke="none" /><path d="M 86.13680546590413 115.77377054828092 l -8.744488547694829 9.949622763654332 a34.246172016843,34.246172016843 0 0,0 -0.43824495801659663,-0.3918813438109523 l 8.913998532534796 -9.798045889959997" fill="#ff9a0e" stroke="none" /><line stroke="#e1ed5e" stroke-width="0.3" x1="26.387840678322732" x2="22.057713659400548" y1="142.50000000000003" y2="145.00000000000006" /><path d="M 25.521815274538298 143.00000000000003 a86.0,86.0 0 0,1 -11.493303480769221,-40.785679425670985" fill="none" id="id57" stroke="none" /><text fill="#e1ed5e" style="font-size:6.75px; font-family:Arial;" text-anchor="middle"><textPath startOffset="21.40746469413373" xlink:href="#id57">September</textPath></text><path d="M 79.48165901384964 104.47187691870673 l -7.280332513391271 1.5867145861899847 a28.451235111279882,28.451235111279882 0 0,0 -0.09990758128475855,-0.4780939433991244 l 7.306497805500396 -1.4615041915054512" fill="#ff4906" stroke="none" /><path d="M 79.407916724674 104.11899336999214 l -7.481824912167515 1.496574523160874 a28.630035341969567,28.630035341969567 0 0,0 -0.0922619354135222,-0.4827534322665226 l 7.506413139863194 -1.3679185258610367" fill="#ff4c07" stroke="none" /><path d="M 79.0935383218832 101.97986365728391 l -12.65993071947292 1.1989086016144266 a33.71657295252456,33.71657295252456 0 0,0 -0.04962176785761293,-0.5766801599604693 l 12.678646110028273 -0.9814073942782954" fill="#ff920d" stroke="none" /><path d="M 79.03789590574601 101.26102812881392 l -12.536739251986868 0.7541791019296827 a33.559403536398364,33.559403536398364 0 0,0 -0.029657580401001322,-0.5753491366931477 l 12.547838421844443 -0.5388581718598042" fill="#ff900d" stroke="none" /><path d="M 79.01933749520258 100.90099992219065 l -12.507115560644932 0.5371093569802098 a33.51864314167803,33.51864314167803 0 0,0 -0.019752557158057866,-0.5750741497265438 l 12.514492804799838 -0.3223289426895461" fill="#ff900d" stroke="none" /><line stroke="#e1ed5e" stroke-width="0.3" x1="15.003131293944662" x2="10.003315487706104" y1="100.72959589197737" y2="100.7725132973878" /><path d="M 14.003168132696942 100.73817937305945 a86.0,86.0 0 0,1 10.791469493833604,-42.45332614584628" fill="none" id="id58" stroke="none" /><text fill="#e1ed5e" style="font-size:6.75px; font-family:Arial;" text-anchor="middle"><textPath startOffset="22.145653131862435" xlink:href="#id58">October</textPath></text><path d="M 79.00077361379809 100.18025310272382 l -2.460151598079715 0.021117442641421146 a23.46024223033381,23.46024223033381 0 0,0 0.0,-0.4027410907304765 l 2.460151598079715 0.02111744264142024" fill="#ff0000" stroke="none" /><path d="M 79.01933749520258 99.09900007780938 l -24.232073317921312 -1.040629492465847 a45.25440757935975,45.25440757935975 0 0,0 0.039992851178926335,-0.7758506286950583 l 24.210638877285817 1.4564519145376171" fill="#d8ff1c" stroke="none" /><path d="M 79.13060592940154 97.66154086499901 l -11.959344144877212 -1.340069456238255 a33.034188735563006,33.034188735563006 0 0,0 0.06798422472644755,-0.5630069060077426 l 11.934577833891096 1.5451700391694339" fill="#ff890c" stroke="none" /><path d="M 79.34024301695615 96.23510406497455 l -11.87602288830309 -2.164206981385991 a33.07160766019915,33.07160766019915 0 0,0 0.10657515764549623,-0.5576462591762431 l 11.837121438375435 2.3677558055955488" fill="#ff8a0c" stroke="none" /><path d="M 79.407916724674 95.88100663000787 l -2.6362662069524627 -0.5273270743316567 a23.688489047261065,23.688489047261065 0 0,0 0.08318301949794976,-0.398060860889724 l 2.626825476630146 0.5725043865067897" fill="#ff0300" stroke="none" /><path d="M 79.48165901384962 95.52812308129327 l -12.15064958439312 -2.6481775237294922 a33.43588072956229,33.43588072956229 0 0,0 0.1270390531653598,-0.5597575085249737 l 12.1033996696701 2.856369366193474" fill="#ff8f0d" stroke="none" /><path d="M 79.56144815229197 95.17655741523228 l -2.8043271115239614 -0.6618135625328156 a23.881362132738733,23.881362132738733 0 0,0 0.09758660737001537,-0.3981866595810823 l 2.792552977637648 0.7098560467220156" fill="#ff0601" stroke="none" /><path d="M 79.83685265289637 94.1308016681162 l -23.019148597372986 -6.7005386720289986 a44.97453692239529,44.97453692239529 0 0,0 0.22213926074873672,-0.7394293521535088 l 22.90073301662062 7.094705627773231" fill="#dbff1b" stroke="none" /><path d="M 80.28708602549916 92.7611449362534 l -47.29045211641318 -17.36570905816232 a71.37811739701583,71.37811739701583 0 0,0 0.4322431609519721,-1.1465763380018845 l 46.98537827164677 18.174953676358353" fill="#3dffac" stroke="none" /><path d="M 80.68587082218212 91.75594674310238 l -11.397459851807994 -4.864897875881001 a33.392309002616365,33.392309002616365 0 0,0 0.22955800100939355,-0.5252736305394752 l 11.312267968781624 5.059833576196342" fill="#ff8e0d" stroke="none" /><path d="M 80.9802524753101 91.09779779509293 l -10.048587897440457 -4.703246518949542 a32.09480268191363,32.09480268191363 0 0,0 0.23783890518999193,-0.49699183718315343 l 9.966369734290561 4.875050858197783" fill="#ff7c0b" stroke="none" /><path d="M 81.1358732173502 90.77261029715801 l -11.898426615115303 -5.82011669521412 a34.24561490687368,34.24561490687368 0 0,0 0.26284338965748066,-0.5258628511214227 l 11.79676331224608 6.023511402499312" fill="#ff9a0e" stroke="none" /><path d="M 81.29705330413844 90.45014215332179 l -10.693124535825756 -5.459985579521477 a33.00642973024293,33.00642973024293 0 0,0 0.26199550037986413,-0.5024109173799962 l 10.597820966470952 5.64274274000596" fill="#ff890c" stroke="none" /><path d="M 81.46374523516351 90.13048839642627 l -6.614949662368723 -3.52208810668988 a28.49417531600098,28.49417531600098 0 0,0 0.23359070426309786,-0.4297805859747673 l 6.553513608490275 3.635123526139267" fill="#ff4a06" stroke="none" /><line stroke="#e1ed5e" stroke-width="0.3" x1="26.387840678322718" x2="22.05771365940052" y1="57.49999999999999" y2="54.99999999999999" /><path d="M 25.521815274538284 56.99999999999999 a86.0,86.0 0 0,1 29.574782752854787,-30.34633250058573" fill="none" id="id59" stroke="none" /><text fill="#e1ed5e" style="font-size:6.75px; font-family:Arial;" text-anchor="middle"><textPath startOffset="21.40746469413373" xlink:href="#id59">November</textPath></text><path d="M 81.99639281039701 89.18935116829357 l -54.01082156880897 -32.43194649511929 a84.0,84.0 0 0,0 0.752928142178428,-1.2298515355018278 l 53.44612546217515 33.35433514674566" fill="#4dd2ff" stroke="none" /><path d="M 82.18462484594161 88.88188828441811 l -10.339563213170452 -6.452652155807259 a33.18783357627564,33.18783357627564 0 0,0 0.3057742214416003,-0.48072786385443217 l 10.227271300102963 6.629193694340363" fill="#ff8b0c" stroke="none" /><path d="M 82.37810715431573 88.57770195909679 l -10.666193795971434 -6.913697953251154 a33.71089727289182,33.71089727289182 0 0,0 0.318930068103688,-0.4829007723300349 l 10.545939288947016 7.095778603920251" fill="#ff920d" stroke="none" /><path d="M 82.576782715395 88.27688183743585 l -11.923247390663139 -8.022492962062463 a35.370950618010525,35.370950618010525 0 0,0 0.34328394069282286,-0.5008615286356867 l 11.783773713155002 8.225989225768185" fill="#ffa90f" stroke="none" /><path d="M 82.78059297857968 87.97951657250589 l -13.032505365698524 -9.097700900630995 a36.893846538340014,36.893846538340014 0 0,0 0.3669794047148322,-0.5162024908213536 l 12.87441086245372 9.32008061816187" fill="#ffbd11" stroke="none" /><path d="M 82.98947788004972 87.6856937992154 l -6.925720470318527 -5.013687524177741 a29.550009744034483,29.550009744034483 0 0,0 0.30098511454892635,-0.4083441137505913 l 6.838633336185782 5.131837947197196" fill="#ff5908" stroke="none" /><path d="M 83.2033758604659 87.39550010848427 l -2.2222148732407807 -1.6675914693334917 a23.778326879876875,23.778326879876875 0 0,0 0.24780189616590434,-0.3243806366288981 l 2.19326099972057 1.705493019203274" fill="#ff0500" stroke="none" /><path d="M 83.42222388311158 87.10902102172516 l -9.590697188250854 -7.457784142397202 a33.149074733135606,33.149074733135606 0 0,0 0.35316956242733577,-0.44621820498757814 l 9.461261195181956 7.621322291299463" fill="#ff8b0c" stroke="none" /><path d="M 83.64595745247003 86.82634096563983 l -9.333162994165136 -7.5181354481561815 a32.98458560370262,32.98458560370262 0 0,0 0.3589872359915205,-0.43790605740157285 l 9.202728938934985 7.677243787256248" fill="#ff880c" stroke="none" /><path d="M 83.8745106332314 86.54754324733833 l -3.9791483223135553 -3.319547053788181 a26.181989387608255,26.181989387608255 0 0,0 0.2908762124918114,-0.34265144691752086 l 3.9215775463146296 3.3873652831552588" fill="#ff2803" stroke="none" /><path d="M 84.10781606972428 86.27271002978789 l -18.557993132401243 -16.02995246665618 a45.522611712162885,45.522611712162885 0 0,0 0.5158989489144648,-0.5869983016008199 l 18.280083119528186 16.346163046068302" fill="#d5ff1c" stroke="none" /><path d="M 85.34317274990677 84.96080404539775 l -8.835154300248444 -9.065646646666853 a33.658826984812634,33.658826984812634 0 0,0 0.41725327417362945,-0.3997191980074223 l 8.678228540209513 9.215977974979843" fill="#ff920d" stroke="none" /><path d="M 85.86807049272753 84.46653392183569 l -5.335223125117466 -5.864344808032166 a28.928123726474126,28.928123726474126 0 0,0 0.37019040731826786,-0.33102654493132294 l 5.233767690975806 5.955066882846889" fill="#ff5007" stroke="none" /><path d="M 86.13680546590413 84.22622945171909 l -4.735982499893622 -5.388678712562542 a28.174077536974586,28.174077536974586 0 0,0 0.366022213849488,-0.3161612706658216 l 4.642780806281285 5.469184115693074" fill="#ff4506" stroke="none" /><path d="M 86.40962598614128 83.9905735841838 l -4.9417917166243335 -5.821418216224944 a28.63611258551709,28.63611258551709 0 0,0 0.37748623492858596,-0.3149124429406091 l 4.841131147533838 5.905392843077435" fill="#ff4c07" stroke="none" /><path d="M 86.68645165197937 83.75963576809568 l -6.079211414971311 -7.415649460315575 a30.58898682584329,30.58898682584329 0 0,0 0.4089444993794784,-0.3294167410378906 l 5.951016145236586 7.5189144951468645" fill="#ff6709" stroke="none" /><path d="M 86.96720088162412 83.53348406188908 l -14.880932063709624 -18.801571540800087 a44.97793217707826,44.97793217707826 0 0,0 0.6095367718317577,-0.4739794805265801 l 14.555985347242622 19.05425207294747" fill="#dbff1b" stroke="none" /><path d="M 87.25179093698888 83.31218511350988 l -8.906431420338423 -11.658804629512465 a35.671477295566824,35.671477295566824 0 0,0 0.48979827901498346,-0.3675537598164217 l 8.704980152412688 11.809977416592888" fill="#ffad10" stroke="none" /><path d="M 87.54013794807813 83.09580414077388 l -7.223203201241698 -9.799662398826076 a33.174072762120076,33.174072762120076 0 0,0 0.46130758141784656,-0.33395111392026294 l 7.053914609449883 9.922214284119418" fill="#ff8b0c" stroke="none" /><path d="M 87.83215693770416 82.88440491214696 l -7.210188562248071 -10.142033169453347 a33.44377980813968,33.44377980813968 0 0,0 0.4707688324280855,-0.3286332067848309 l 7.03502463864622 10.264311192043305" fill="#ff8f0d" stroke="none" /><path d="M 88.12776184653039 82.6780497279521 l -6.7721765704169155 -9.880808005187061 a32.978845617849515,32.978845617849515 0 0,0 0.4697188161226251,-0.3160477823720229 l 6.601561466197301 9.995605461616194" fill="#ff880c" stroke="none" /><path d="M 88.4268655584334 82.4767994020092 l -3.978136693543002 -6.023405987301882 a28.21851724666343,28.21851724666343 0 0,0 0.4065003287389808,-0.2634886018909664 l 3.874150732546995 6.090808430896755" fill="#ff4606" stroke="none" /><path d="M 88.72937992617638 82.28071324371311 l -14.250830030711514 -22.404671808231313 a47.552880736349195,47.552880736349195 0 0,0 0.6925417480267103,-0.43219727093489335 l 13.864124153895105 22.646004876007744" fill="#bdff1f" stroke="none" /><path d="M 89.03521579738668 82.08984904055464 l -1.5065947423475838 -2.460909286634274 a23.885463954845424,23.885463954845424 0 0,0 0.35153402394623046,-0.21108608098681733 l 1.4641279618439191 2.4864093681570147" fill="#ff0601" stroke="none" /><line stroke="#e1ed5e" stroke-width="0.3" x1="56.869717070023135" x2="54.33264160355391" y1="26.7553504044142" y2="22.446841604673864" /><path d="M 56.362301976729285 25.89364864446614 a86.0,86.0 0 0,1 42.16139366436587,-11.88097634709845" fill="none" id="id60" stroke="none" /><text fill="#e1ed5e" style="font-size:6.75px; font-family:Arial;" text-anchor="middle"><textPath startOffset="22.145653131862474" xlink:href="#id60">December</textPath></text><path d="M 89.34428304082924 81.90426304109057 l -1.4249758922184592 -2.4199205944729996 a23.80830411048347,23.80830411048347 0 0,0 0.3539586605125307,-0.20435812792890787 l 1.3832247638455288 2.4440256196780816" fill="#ff0500" stroke="none" /><path d="M 89.65649057296885 81.72400993836675 l -1.3766948241785895 -2.4324878419733333 a23.795046643665934,23.795046643665934 0 0,0 0.3572155594053481,-0.19814144922429358 l 1.3347350766171386 2.4557622066307734" fill="#ff0500" stroke="none" /><path d="M 89.97174638481275 81.54914285379989 l -1.347045856437415 -2.4784126549080527 a23.820826444032598,23.820826444032598 0 0,0 0.3609549234142093,-0.19218816585114992 l 1.3043021172366438 2.501171288481778" fill="#ff0500" stroke="none" /><path d="M 90.61103034731259 81.2157712731953 l -5.375182545776652 -10.753965783593388 a33.02249422853342,33.02249422853342 0 0,0 0.5092379190339786,-0.24909378443706515 l 5.1897843774806205 10.84465331812767" fill="#ff890c" stroke="none" /><path d="M 90.93487009805054 81.0573650232925 l -5.42615394210564 -11.338574798649656 a33.57006066286085,33.57006066286085 0 0,0 0.5219525563067478,-0.24430015128113683 l 5.23071267192737 11.430051181501337" fill="#ff900d" stroke="none" /><path d="M 93.95794788825049 79.88797359093562 l -3.4997243876771464 -11.649444262907672 a33.16378322826803,33.16378322826803 0 0,0 0.5466338817148187,-0.159117156239634 l 3.2992304935807035 11.707805113449826" fill="#ff8b0c" stroke="none" /><path d="M 94.30408787586887 79.78721728523814 l -6.485707921255686 -23.015489373222817 a44.91186229319605,44.91186229319605 0 0,0 0.743865763058768,-0.20274392154578236 l 6.089660757262241 23.123433788912738" fill="#dcff1b" stroke="none" /><path d="M 94.6519064749342 79.69241777938228 l -1.842057625077025 -6.994592839680604 a28.23308407852526,28.23308407852526 0 0,0 0.4697376253790276,-0.11940546747665466 l 1.7217147064726193 7.025183538992522" fill="#ff4606" stroke="none" /><path d="M 95.00130118170881 79.60360301121753 l -2.857190737258059 -11.658313226742736 a33.00332479781822,33.00332479781822 0 0,0 0.5514193091063254,-0.1301334555121564 l 2.6566392744118277 11.705642825901124" fill="#ff890c" stroke="none" /><path d="M 95.35216902796891 79.52079915486377 l -3.4389413104966975 -15.152609941303764 a36.53795048809007,36.53795048809007 0 0,0 0.61285901817215,-0.1335697705596773 l 3.178319875705429 15.209411169997155" fill="#ffb811" stroke="none" /><path d="M 95.70440661134978 79.44403061299748 l -2.9789388337320077 -14.255300707404661 a35.56323023349039,35.56323023349039 0 0,0 0.5986536606385654,-0.11974749840130977 l 2.7337886875624657 14.304337602468838" fill="#ffab0f" stroke="none" /><path d="M 96.05791012581881 79.37332000966035 l -3.286281676862201 -17.19521438380018 a38.50642867533321,38.50642867533321 0 0,0 0.6503282279111897,-0.11851146669850372 l 2.990618715399973 17.249094024430047" fill="#ffd213" stroke="none" /></svg>