<?xml version="1.0" encoding="utf-8" ?>
<svg baseProfile="full" height="200mm" version="1.1" viewBox="0,0,200,200" width="200mm" xmlns="http://www.w3.org/2000/svg" xmlns:ev="http://www.w3.org/2001/xml-events" xmlns:xlink="http://www.w3.org/1999/xlink"><defs /><rect fill="#1a1a1a" height="200" width="200" x="0" y="0" /><rect fill="#1a1a1a" height="200" width="180" x="10" y="0" /><text alignment-baseline="middle" fill="#e1ed5e" style="dominant-baseline: central; font-size:9.0px; font-family:Arial;" text-anchor="middle" x="100.0" y="100.0">2025</text><line stroke="#e1ed5e" stroke-width="0.3" x1="100.0" x2="100.0" y1="15.0" y2="10.0" /><path d="M 100.0 14.0 a86.0,86.0 0 0,1 42.46469731375804,11.215312516191453" fill="none" id="id61" stroke="none" /><text fill="#e1ed5e" style="font-size:6.75px; font-family:Arial;" text-anchor="middle"><textPath startOffset="22.20632615414155" xlink:href="#id61">January</textPath></text><path d="M 100.0 79.0 l 0.0 -10.050157671707595 a31.050157671707595,31.050157671707595 0 0,0 0.5344774226979255,0.004600415917705511 l -0.17299694342539712 10.048668632398448" fill="#ff860c" stroke="none" /><path d="M 100.36148047927253 79.00311137660856 l 0.027290602322952537 -1.5851969063266926 a22.585431805156837,22.585431805156837 0 0,0 0.388655880333637,0.010037834742480488 l -0.054573117851457346 1.5844922794418526" fill="#ff1101" stroke="none" /><path d="M 100.72285384407766 79.0124445844662 l 0.213164548675888 -6.189083470491725 a27.192753291511465,27.192753291511465 0 0,0 0.4676624830383117,0.020138530273794725 l -0.31966786410353126 6.184497213693735" fill="#ff5207" stroke="none" /><path d="M 101.08401301168833 79.027996857942 l 0.2588114165068503 -5.0071297868726345 a26.01381412219295,26.01381412219295 0 0,0 0.4469891137961559,0.026963604018505494 l -0.34496257914261813 5.001932913473825" fill="#ff4106" stroke="none" /><path d="M 101.44485096284872 79.0497635885617 l 0.03373479358663471 -0.4891521126425481 a21.490314007143382,21.490314007143382 0 0,0 0.36882476199325587,0.028627899992257354 l -0.04214974494223177 0.48849895046182623" fill="#ff0100" stroke="none" /><path d="M 101.80526077348638 79.07773832637324 l 0.13429051063536615 -1.5563741510718052 a22.562156982947357,22.562156982947357 0 0,0 0.3866453988956257,0.03671663949787121 l -0.16106103662123605 1.5538319670587557" fill="#ff1101" stroke="none" /><path d="M 102.16513564639614 79.11191278185805 l 0.04604151939197516 -0.4441843051802008 a21.44656412582779,21.44656412582779 0 0,0 0.3668723775862469,0.04122238629860268 l -0.053680600487947316 0.4433259654109973" fill="#ff0100" stroke="none" /><path d="M 102.52436894288641 79.15227682838746 l 0.05498917486323636 -0.45413294210209004 a21.457450039298763,21.457450039298763 0 0,0 0.36629427632701644,0.04755550978336787 l -0.06279817969809891 0.4531191091545855" fill="#ff0100" stroke="none" /><path d="M 102.88285421437855 79.19881850522331 l 0.10786845683602371 -0.778322863853625 a21.785762104187707,21.785762104187707 0 0,0 0.3710125863552097,0.05467761093560131 l -0.12125002361988917 0.7763507687570548" fill="#ff0600" stroke="none" /><path d="M 103.2404852339499 79.25152402106235 l 0.3633640334279018 -2.326580550406936 a23.35478459276445,23.35478459276445 0 0,0 0.39666521719794584,0.06545315959639351 l -0.4033584567647228 2.3199811278709177" fill="#ff1c02" stroke="none" /><path d="M 103.59715602781102 79.31037775812273 l 1.0578686782324225 -6.084502080234101 a27.17577944107125,27.17577944107125 0 0,0 0.4601828455750675,0.08409547361411958 l -1.162446644910391 6.065391125269243" fill="#ff5207" stroke="none" /><path d="M 103.95276090670814 79.375362276772 l 1.270327494449789 -6.628289689472344 a27.748922591845343,27.748922591845343 0 0,0 0.46834048893554986,0.09394469616190394 l -1.3842343928524643 6.6054410372332315" fill="#ff5908" stroke="none" /><path d="M 104.307194497241 79.44645832069477 l 0.16151816991398416 -0.7707500646693973 a21.787492083388933,21.787492083388933 0 0,0 0.3664005405569625,0.08008096662765264 l -0.17476143462447455 0.7678555999458742" fill="#ff0600" stroke="none" /><path d="M 104.66035177308747 79.52364482259891 l 0.5160396903227172 -2.267342144793431 a23.32532521672665,23.32532521672665 0 0,0 0.3907284240542942,0.09247279404457964 l -0.554991801339535 2.258123438607983" fill="#ff1c02" stroke="none" /><path d="M 105.01212808612495 79.60689891045804 l 0.9753357298513422 -3.968398211961567 a25.086497785956137,25.086497785956137 0 0,0 0.41845605659253493,0.10667376613820063 l -1.0435006751289022 3.9510214496544984" fill="#ff3505" stroke="none" /><path d="M 105.36241919743992 79.69619591428918 l 0.20198942221083802 -0.7647954225422575 a21.79101944668046,21.79101944668046 0 0,0 0.3618368798583162,0.09890368773260093 l -0.21512419129286506 0.761205193983363" fill="#ff0600" stroke="none" /><path d="M 105.71112130821622 79.79150937346287 l 0.7477901323879214 -2.6460145154399073 a23.749651413909667,23.749651413909667 0 0,0 0.39244577934691877,0.11456568456320598 l -0.7932261294582672 2.632750501957998" fill="#ff2203" stroke="none" /><path d="M 106.0581310904928 79.89281104454417 l 0.828934285835977 -2.751267357538152 a23.8734307235236,23.8734307235236 0 0,0 0.392450356635128,0.12193623615698242 l -0.8761700151818231 2.7365909864986486" fill="#ff2303" stroke="none" /><path d="M 106.40334571778207 80.00007090966166 l 0.8919112029573627 -2.7857563218067565 a23.92505450862837,23.92505450862837 0 0,0 0.3911372472189818,0.12895180079649593 l -0.939731272418762 2.769990796751024" fill="#ff2403" stroke="none" /><path d="M 106.74666289553966 80.11325718540242 l 1.2347854900440283 -3.63970482176259 a24.843455007670197,24.843455007670197 0 0,0 0.4037865845410581,0.14087321078895318 l -1.29725407864836 3.6179107578014293" fill="#ff3104" stroke="none" /><path d="M 107.08798089147638 80.2323363322302 l 0.15016796056789514 -0.4188032930154746 a21.444911917823884,21.444911917823884 0 0,0 0.3464044354655321,0.12758367700924372 l -0.15735472180600374 0.41615634819990616" fill="#ff0100" stroke="none" /><path d="M 107.4271985657038 80.35727306442388 l 0.18320768783198269 -0.4845297392747023 a21.518009773191928,21.518009773191928 0 0,0 0.345330073774637,0.13398270359996975 l -0.19152092660628667 0.48130433178418575" fill="#ff0200" stroke="none" /><path d="M 107.76421540070413 80.48803036053334 l 0.4285761058401138 -1.0770391512572886 a22.159176781961275,22.159176781961275 0 0,0 0.35319209074118696,0.14407592193859037 l -0.4470520661696883 1.069502343135119" fill="#ff0b01" stroke="none" /><path d="M 108.09893153111575 80.62456947434976 l 1.4953946468511847 -3.57749846102265 a24.87746055923856,24.87746055923856 0 0,0 0.3936754385126572,0.1685512776883579 l -1.5567538431541572 3.5512276553715014" fill="#ff3204" stroke="none" /><path d="M 109.41281617654863 81.2277094730956 l 0.22161822828490585 -0.4419805602692133 a21.49443043470647,21.49443043470647 0 0,0 0.3293146460771368,0.16868775237095734 l -0.2291933619507982 0.4381002825857554" fill="#ff0100" stroke="none" /><path d="M 110.36928655335952 81.73862282372117 l 0.20505359732935718 -0.3611204168112223 a21.41527693556905,21.41527693556905 0 0,0 0.31898898098123285,0.18477900709837486 l -0.21123931077591832 0.3575372523227979" fill="#ff0000" stroke="none" /><line stroke="#e1ed5e" stroke-width="0.3" x1="143.23703022742887" x2="145.7803849466894" y1="26.81831364943548" y2="22.513508569990506" /><path d="M 143.74570117128098 25.957352633546492 a86.0,86.0 0 0,1 28.547481713284135,27.462654790039103" fill="none" id="id62" stroke="none" /><text fill="#e1ed5e" style="font-size:6.75px; font-family:Arial;" text-anchor="middle"><textPath startOffset="19.985693538727396" xlink:href="#id62">February</textPath></text><path d="M 111.2981086023043 82.29822771554956 l 0.4816895066368863 -0.7547066733414455 a21.89532504912473,21.89532504912473 0 0,0 0.31595264147886754,0.20550438681234853 l -0.494609173900034 0.7463033623695688" fill="#ff0701" stroke="none" /><path d="M 111.60114157652 82.49532879139004 l 0.6727301117888826 -1.01506557275618 a22.217753636948917,22.217753636948917 0 0,0 0.3169683185934227,0.21401842363036494 l -0.6901031247888472 1.0033352368271449" fill="#ff0c01" stroke="none" /><path d="M 112.77801427241765 83.33499621200491 l 0.3436870324685431 -0.44823441075163173 a21.564831712343505,21.564831712343505 0 0,0 0.2926321424515912,0.2284040288375972 l -0.35135173007956466 0.44225199269081045" fill="#ff0200" stroke="none" /><path d="M 113.34407831869373 83.78471172551755 l 1.1227539092622436 -1.3643338914224528 a22.766913497613164,22.766913497613164 0 0,0 0.300460880122249,0.25162734631004985 l -1.1460723263436101 1.3448053877185835" fill="#ff1402" stroke="none" /><path d="M 113.6212207817346 84.01681056812373 l 0.3655699656081865 -0.42896111182305185 a21.563603615328397,21.563603615328397 0 0,0 0.280435898612821,0.24319124781580484 l -0.37289966286777165 0.42260487058757573" fill="#ff0200" stroke="none" /><path d="M 114.16331599549186 84.49514656593476 l 0.3690630601971769 -0.4040204044099705 a21.54721113802782,21.54721113802782 0 0,0 0.27169198264560157,0.25250808780714634 l -0.37596292663762526 0.39760773052818366" fill="#ff0200" stroke="none" /><path d="M 114.42810811169701 84.74124197986012 l 0.944568189801462 -0.9989485336623832 a22.374811710050157,22.374811710050157 0 0,0 0.27757206530881656,0.26702410690702244 l -0.9616234987226967 0.9825413399930589" fill="#ff0e01" stroke="none" /><path d="M 114.68862486808459 84.99185889309783 l 1.6427169630639482 -1.6784503792410128 a23.348555874641338,23.348555874641338 0 0,0 0.2848125777560028,0.28358950203397937 l -1.6713653409872737 1.6499250265569148" fill="#ff1c02" stroke="none" /><path d="M 115.19652480421416 85.50635884689758 l 0.3723797711635881 -0.3551561192742406 a21.514589703579254,21.514589703579254 0 0,0 0.253290934720124,0.2701931089597312 l -0.378438027854175 0.3486935934364546" fill="#ff0200" stroke="none" /><path d="M 116.15771136456269 86.58626213691792 l 5.031016191628946 -4.176626927959647 a27.538756488491543,27.538756488491543 0 0,0 0.2996498754267094,0.3673353162730528 l -5.102164559132064 4.089407442078493" fill="#ff5608" stroke="none" /><path d="M 116.82858285166822 87.43820079747576 l 1.3208550775217824 -0.985960398787735 a22.64826455515877,22.64826455515877 0 0,0 0.2305133760533272,0.3144199858805959 l -1.337631066088736 0.9630779692356454" fill="#ff1202" stroke="none" /><path d="M 117.04232023915458 87.72973835380427 l 4.910214384133834 -3.535294161050503 a27.050496682365225,27.050496682365225 0 0,0 0.2688141564593598,0.3802185606427125 l -4.970341160397076 3.4502491000759976" fill="#ff5007" stroke="none" /><path d="M 117.45458315368197 88.32363383020206 l 6.418666750576463 -4.293812269348191 a28.722441754999572,28.722441754999572 0 0,0 0.27136328975847346,0.413304907467346 l -6.491626675692861 4.182689297903171" fill="#ff6709" stroke="none" /><line stroke="#e1ed5e" stroke-width="0.3" x1="172.23445277983987" x2="176.4835382374775" y1="55.19839476539836" y2="52.563006222186495" /><path d="M 173.08426987136738 54.67131705675599 a86.0,86.0 0 0,1 12.851231095245387,41.99856678651699" fill="none" id="id63" stroke="none" /><text fill="#e1ed5e" style="font-size:6.75px; font-family:Arial;" text-anchor="middle"><textPath startOffset="22.20632615414155" xlink:href="#id63">March</textPath></text><path d="M 117.84615892207809 88.93136811851018 l 2.0846236241093345 -1.2929354494416099 a23.45302623928435,23.45302623928435 0 0,0 0.2098311006066754,0.34490715802433014 l -2.1065705230022336 1.2568605182101982" fill="#ff1d03" stroke="none" /><path d="M 118.03404312379186 89.2402003453031 l 2.1420021058141105 -1.2780003552333028 a23.494285053735545,23.494285053735545 0 0,0 0.20422164008551477,0.34908098232341234 l -2.163683420369953 1.240939960555995" fill="#ff1e03" stroke="none" /><path d="M 118.21658344932153 89.55222093294921 l 0.5472842785995918 -0.31388461209457863 a21.630906991015348,21.630906991015348 0 0,0 0.18246428025583142,0.32458359466360404 l -0.5526062001478562 0.3044175074961807" fill="#ff0300" stroke="none" /><path d="M 118.56541770881063 90.18545643968196 l 0.6835194853262133 -0.36134020081199986 a21.773153042769327,21.773153042769327 0 0,0 0.17230917362235104,0.3328464785299584 l -0.6896380921086808 0.3495210000216966" fill="#ff0500" stroke="none" /><path d="M 118.73160827565052 90.50648371742162 l 1.8547133458198293 -0.9400021124157587 a23.07931853416168,23.07931853416168 0 0,0 0.1765457823986619,0.35590552434603484 l -1.8706191411718993 0.907936999570774" fill="#ff1802" stroke="none" /><path d="M 119.04729006885535 91.15688171328212 l 5.424855373943211 -2.5186069822372317 a26.98100635003631,26.98100635003631 0 0,0 0.19194761117584033,0.4229311176059286 l -5.467405302082398 2.42485385578924" fill="#ff4f07" stroke="none" /><path d="M 119.196687751892 91.48605970444005 l 2.4330741379659586 -1.079094904967212 a23.66163400466048,23.66163400466048 0 0,0 0.16192364889390692,0.37374210665831475 l -2.4512884967025466 1.0370536537222947" fill="#ff2003" stroke="none" /><path d="M 119.34039704204932 91.81776055985345 l 9.188673970095232 -3.8874036762171142 a30.977155740519038,30.977155740519038 0 0,0 0.20353217591144587,0.4928693079969453 l -9.254227832892875 3.728659797766866" fill="#ff850c" stroke="none" /><path d="M 119.47837535516314 92.15188598940014 l 6.565033202235752 -2.645145096295846 a28.077884820122165,28.077884820122165 0 0,0 0.17676559423327817,0.4498491565786501 l -6.6095923463507305 2.5317469348214114" fill="#ff5e08" stroke="none" /><path d="M 119.61058180528143 92.48833698450437 l 0.4889204438065794 -0.18727672905005324 a21.523560668514843,21.523560668514843 0 0,0 0.1295466336955794,0.3471205717700683 l -0.49207166600378405 0.1788330202506517" fill="#ff0200" stroke="none" /><path d="M 120.08093135843002 93.85539295169968 l 0.7949599520537071 -0.24325149253872008 a21.83134386025973,21.83134386025973 0 0,0 0.10686349556958787,0.360290582371314 l -0.7990293447349973 0.2295315234208762" fill="#ff0601" stroke="none" /><path d="M 120.18372546131832 94.20196356495316 l 4.578838309528225 -1.3153305815476015 a25.7640166670109,25.7640166670109 0 0,0 0.11877607889120816,0.4273007516021726 l -4.600801158985796 1.236318526526477" fill="#ff3e05" stroke="none" /><path d="M 120.28053869075195 94.5502522615342 l 11.22306242080045 -3.015839962589769 a32.62120565092696,32.62120565092696 0 0,0 0.14105357771035135,0.5435369742935897 l -11.273312330381104 2.8222065627473287" fill="#ff9a0e" stroke="none" /><path d="M 120.37134235888165 94.90015583598534 l 1.923228081246148 -0.481468689368721 a22.982578712519675,22.982578712519675 0 0,0 0.09276994477359975,0.38459131305378885 l -1.9312308262805673 0.448292144655526" fill="#ff1702" stroke="none" /><path d="M 120.45610955862082 95.25157060432595 l 17.26317857552184 -4.007261712001955 a38.722174837159045,38.722174837159045 0 0,0 0.14512630986537514,0.6505727907167992 l -17.329599272389256 3.7095107517351917" fill="#ffe815" stroke="none" /><path d="M 120.67395015179393 96.31383870115 l 0.42431286872239915 -0.0756549021258429 a21.431004727096006,21.431004727096006 0 0,0 0.061627546724791836,0.36372926930511784 l -0.42555227696741404 0.06833984450488716" fill="#ff0000" stroke="none" /><path d="M 120.78858239683441 97.02765380044208 l 1.2666078952159794 -0.18109927323608885 a22.279489158605923,22.279489158605923 0 0,0 0.05101366560444455,0.38011106255703175 l -1.2695375598782601 0.15926986861439277" fill="#ff0d01" stroke="none" /><path d="M 120.83666639777658 97.38593545837742 l 4.9318247158234385 -0.6187222019596942 a25.970484100246654,25.970484100246654 0 0,0 0.05182922956986877,0.44404118737754356 l -4.941744298396896 0.5337372762572978" fill="#ff4106" stroke="none" /><path d="M 120.87857604477298 97.74499172005257 l 0.44397630360492807 -0.047952036507787246 a21.4465583455361,21.4465583455361 0 0,0 0.036482509920301706,0.3673738961459212 l -0.44473593920745846 0.040302609657431085" fill="#ff0100" stroke="none" /><path d="M 120.91429891909075 98.10471618934814 l 3.0240136066419425 -0.27404045691571277 a24.03640518791254,24.03640518791254 0 0,0 0.03379463191889962,0.41238010807427966 l -3.028282722380337 0.2219464316336643" fill="#ff2603" stroke="none" /><path d="M 120.94382443527127 98.46500227214037 l 1.073677056743507 -0.07869106464532659 a22.07655687533563,22.07655687533563 0 0,0 0.024514869475725443,0.37923418025141253 l -1.074872517223648 0.060197820140878794" fill="#ff0a01" stroke="none" /><path d="M 120.96714384426684 98.82574320788733 l 4.241365875038893 -0.23753605753800092 a25.248012225097185,25.248012225097185 0 0,0 0.020566780402284896,0.434132228301396 l -4.244826263674675 0.16449272261360515" fill="#ff3705" stroke="none" /><path d="M 120.98425023603335 99.18683210126433 l 1.3803273054427285 -0.053489538196934146 a22.381363312400943,22.381363312400943 0 0,0 0.011604529630697018,0.3850978431474937 l -1.3810435295290706 0.029721547624441406" fill="#ff0e01" stroke="none" /><line stroke="#e1ed5e" stroke-width="0.3" x1="184.98032266829074" x2="189.97916517819016" y1="98.17113171792111" y2="98.06355123074" /><path d="M 185.9800911702706 98.14961562048488 a86.0,86.0 0 0,1 -9.607161424134198,41.387399972396054" fill="none" id="id64" stroke="none" /><text fill="#e1ed5e" style="font-size:6.75px; font-family:Arial;" text-anchor="middle"><textPath startOffset="21.466115282336823" xlink:href="#id64">April</textPath></text><path d="M 120.99513854157772 99.54816195383933 l 4.291679210888549 -0.092361569586981 a25.29267295617888,25.29267295617888 0 0,0 0.005620986888592152,0.4353516290663503 l -4.292633204894856 0.01847368246016799" fill="#ff3705" stroke="none" /><path d="M 120.99980553446 99.90962569577887 l 9.796945109100973 -0.042161918893710904 a30.797035832237334,30.797035832237334 0 0,0 -0.0022814777199754496,0.5301350739416806 l -9.796219334091495 -0.12648263325165443" fill="#ff820c" stroke="none" /><path d="M 120.9904718944345 100.63252640178507 l 1.967563807506836 0.059290522943165135 a22.968456934434094,22.968456934434094 0 0,0 -0.01530997184671758,0.3950823450331678 l -1.9662517028089153 -0.09315011499033911" fill="#ff1702" stroke="none" /><path d="M 120.9764740272857 100.99374915477107 l 11.206207504557016 0.5308880425450453 a32.21877572415579,32.21877572415579 0 0,0 -0.031012334634355914,0.5537460678044513 l -11.19540881903513 -0.7237058266849199" fill="#ff950d" stroke="none" /><path d="M 120.95626037817324 101.35467743843564 l 4.70674168866375 0.3042583294497632 a25.716565535942955,25.716565535942955 0 0,0 -0.0323581028949383,0.44150060536898894 l -4.700807027104474 -0.38523207131552245" fill="#ff3d05" stroke="none" /><path d="M 120.92983693683757 101.71520430193887 l 1.9848350097888594 0.16265762402748682 a22.99148876942297,22.99148876942297 0 0,0 -0.035719362061595844,0.3941601839032758 l -1.9817410514501883 -0.19679919647933314" fill="#ff1702" stroke="none" /><path d="M 120.89721153311464 102.0752229133903 l 1.969103957266071 0.195544254528442 a22.978789516345785,22.978789516345785 0 0,0 -0.04247541539601431,0.393269593848089 l -1.9654462403690047 -0.22941017026132246" fill="#ff1702" stroke="none" /><path d="M 120.8583938346157 102.4346265915055 l 0.7986618975445837 0.09322115158058701 a21.804083956867395,21.804083956867395 0 0,0 -0.046721470014954504,0.3724160856835896 l -0.7969389182827812 -0.10695499155157151" fill="#ff0600" stroke="none" /><path d="M 120.81339534386255 102.79330883721812 l 2.3314456446532605 0.3128969404131376 a23.352348462556634,23.352348462556634 0 0,0 -0.05689738428941528,0.3979401732008199 l -2.325714209347244 -0.3529825855943668" fill="#ff1c02" stroke="none" /><path d="M 120.76222939487914 103.15116336523771 l 10.634139063236878 1.6139841632411702 a31.75592201977375,31.75592201977375 0 0,0 -0.08667589232443626,0.5397308642428649 l -10.604781416551154 -1.79679425717724" fill="#ff8f0d" stroke="none" /><path d="M 120.64145759157962 103.86396538481128 l 10.091310852226147 1.8890369368236213 a31.266597063532842,31.266597063532842 0 0,0 -0.10358186920632777,0.5281617195040942 l -10.057299050044156 -2.0624623833956606" fill="#ff890c" stroke="none" /><path d="M 120.5718875245553 104.21870165774334 l 1.9373654815366947 0.3972978638376185 a22.97768313985326,22.97768313985326 0 0,0 -0.08279183250772161,0.38677587865581986 l -1.93023961030453 -0.4305875619096074" fill="#ff1702" stroke="none" /><path d="M 120.49622156327973 104.57218783832717 l 1.9144104209035844 0.4270564707255014 a22.96146488341055,22.96146488341055 0 0,0 -0.08937414976073633,0.38502149803043495 l -1.9067757052122953 -0.45994662610450127" fill="#ff1602" stroke="none" /><path d="M 120.41448212921028 104.9243191809786 l 3.079943765257642 0.7429346511755166 a24.168281157515334,24.168281157515334 0 0,0 -0.1010334113602722,0.40357825578843365 l -3.066699039602309 -0.7958407463613463" fill="#ff2803" stroke="none" /><path d="M 120.32669344350535 105.2749913415812 l 1.9019235155338232 0.4935692125566132 a22.96492331314082,22.96492331314082 0 0,0 -0.10258969679377652,0.3817744260736042 l -1.8931457423982694 -0.5262345718057656" fill="#ff1702" stroke="none" /><path d="M 120.23288151984713 105.62410040840565 l 0.7808698522807832 0.21705709346521204 a21.81047609960108,21.81047609960108 0 0,0 -0.10365933846475882,0.36085175602344655 l -0.777017876929925 -0.23046632499324055" fill="#ff0601" stroke="none" /><path d="M 120.13307415673323 105.97154293290107 l 33.24489697453728 9.860557212368343 a55.67641508844286,55.67641508844286 0 0,0 -0.2804321009139454,0.9164683314795414 l -33.070238101117205 -10.431352516399942" fill="#59ff2a" stroke="none" /><path d="M 120.02730092923936 106.31721596034902 l 6.384220026928095 2.013775934709629 a27.694293007289524,27.694293007289524 0 0,0 -0.14731748245432402,0.4533965904877805 l -6.348610293457525 -2.123371425175205" fill="#ff5908" stroke="none" /><path d="M 119.9155931802556 106.66101706037122 l 0.8733020730260944 0.29208670586078483 a21.92085349241466,21.92085349241466 0 0,0 -0.12276635067895551,0.35681648072797967 l -0.868144891403908 -0.3070758896780649" fill="#ff0801" stroke="none" /><path d="M 119.79798401119884 107.00284435728193 l 0.7507869529362755 0.2655646238484015 a21.796370277031407,21.796370277031407 0 0,0 -0.12815823463619827,0.3526364199472145 l -0.7461044572948505 -0.27844884080174714" fill="#ff0600" stroke="none" /><path d="M 119.67450827220406 107.3425965602758 l 0.861961645197643 0.321687155966153 a21.920032882078363,21.920032882078363 0 0,0 -0.13497074491196015,0.35236602453486743 l -0.856296620692176 -0.3364767473341643" fill="#ff0801" stroke="none" /><path d="M 119.41010516605496 108.01547362559984 l 4.474388088096081 1.8477148580087528 a25.84088824074698,25.84088824074698 0 0,0 -0.17331732161087687,0.4096709511789689 l -4.441919785292894 -1.9244603348538853" fill="#ff3f05" stroke="none" /><path d="M 119.26925614724726 108.34839909993367 l 0.8704598400146034 0.37712644895970465 a21.948643606199507,21.948643606199507 0 0,0 -0.15317949516878487,0.3453793233998934 l -0.8638392601145456 -0.39205410885228575" fill="#ff0801" stroke="none" /><path d="M 118.97047184881838 109.00673069616215 l 1.7781430270224452 0.8442201918476423 a22.968375054930288,22.968375054930288 0 0,0 -0.17264205729869422,0.35569377292357157 l -1.7633477131090365 -0.8747029207364893" fill="#ff1702" stroke="none" /><path d="M 118.81262510543309 109.33194174019688 l 6.191330267094491 3.071189322225813 a27.91120643080455,27.91120643080455 0 0,0 -0.21720411822819627,0.42856433142426675 l -6.137547479080026 -3.177307865352774" fill="#ff5c08" stroke="none" /><path d="M 118.64920377521936 109.65438752849418 l 8.34361249364356 4.319351612654742 a30.39535352170572,30.39535352170572 0 0,0 -0.24453422567189734,0.4625665998421874 l -8.26802575974677 -4.4623332275830645" fill="#ff7d0b" stroke="none" /><line stroke="#e1ed5e" stroke-width="0.3" x1="174.80103733775053" x2="179.2010983576182" y1="140.37084112569926" y2="142.7455964860345" /><path d="M 175.68104954172406 140.8457921977663 a86.0,86.0 0 0,1 -30.038265399797805,32.042727171017184" fill="none" id="id65" stroke="none" /><text fill="#e1ed5e" style="font-size:6.75px; font-family:Arial;" text-anchor="middle"><textPath startOffset="22.206326154141568" xlink:href="#id65">May</textPath></text><path d="M 118.48025628344425 109.97397251340804 l 5.230245499202378 2.822813928947213 a26.94337837087503,26.94337837087503 0 0,0 -0.22378860937878856,0.4062413298181882 l -5.18088048037208 -2.912425777163206" fill="#ff4e07" stroke="none" /><path d="M 118.30583269289576 110.29060199501025 l 3.0596714077402285 1.719990629259199 a24.509979613627767,24.509979613627767 0 0,0 -0.20990813846937265,0.36599253263099757 l -3.0296112731184763 -1.7724030077485118" fill="#ff2c04" stroke="none" /><path d="M 118.12598468904814 110.60418214915192 l 1.6535610179687263 0.9673770848913956 a22.915745929010093,22.915745929010093 0 0,0 -0.2021159235091983,0.3387579134876156 l -1.6366642187613007 -0.9956970922651153" fill="#ff1602" stroke="none" /><path d="M 117.94076556474637 110.91462005526583 l 6.833533017751181 4.157315152171026 a28.99877758030353,28.99877758030353 0 0,0 -0.2631091683548444,0.4242157551710334 l -6.760959209728374 -4.2743272387073326" fill="#ff6a09" stroke="none" /><path d="M 117.75023020441432 111.22182372390056 l 7.978012808400087 5.043757313109198 a30.438653304605396,30.438653304605396 0 0,0 -0.2837971563044672,0.4404594888928127 l -7.890010788718569 -5.180338401923464" fill="#ff7e0b" stroke="none" /><path d="M 117.55443506779139 111.5257021239791 l 5.315063885645705 3.4897074659081433 a27.358298695886365,27.358298695886365 0 0,0 -0.2618539561485276,0.391436135630727 l -5.254206824086457 -3.5806805157446773" fill="#ff5407" stroke="none" /><path d="M 117.35343817320211 111.8261652097733 l 1.0621231770365402 0.7238245262636419 a22.285312253119443,22.285312253119443 0 0,0 -0.21875590721269395,0.3151341999264046 l -1.04950636266171 -0.741999988377066" fill="#ff0d01" stroke="none" /><path d="M 117.14729908036423 112.12312394758627 l 2.494739497384296 1.7637784237613277 a24.05526422555157,24.05526422555157 0 0,0 -0.2419503763895589,0.3360479112271644 l -2.464009328619134 -1.806459940439623" fill="#ff2603" stroke="none" /><path d="M 116.71984013943494 112.70617746262583 l 5.8703206478216385 4.461127336846606 a28.373080877340296,28.373080877340296 0 0,0 -0.29885390783752663,0.3863089617921929 l -5.792659922766044 -4.561514292752051" fill="#ff6209" stroke="none" /><path d="M 116.27256486870786 113.27417163493432 l 2.948716859386808 2.4053844006850222 a24.805365321738616,24.805365321738616 0 0,0 -0.2727456227091157,0.3285396727343834 l -2.906875236784149 -2.455785330533176" fill="#ff3104" stroke="none" /><path d="M 116.0416608686014 113.55231037782055 l 7.099369206651753 5.997686633782739 a30.293723047810886,30.293723047810886 0 0,0 -0.3399496547240463,0.39543824947919987 l -6.995077042356928 -6.119001982423467" fill="#ff7c0b" stroke="none" /><path d="M 115.80600337817218 113.82643327865902 l 1.776761741903973 1.5542371520959486 a23.360621827495663,23.360621827495663 0 0,0 -0.2673580344262117,0.3003795859209121 l -1.7497448578294228 -1.5845909077577272" fill="#ff1c02" stroke="none" /><path d="M 115.56566222782051 114.09645910891815 l 1.2447860265274535 1.12729385139394 a22.679370024511748,22.679370024511748 0 0,0 -0.26454253104277636,0.28710866966250803 l -1.2251970874889553 -1.1485537758577826" fill="#ff1202" stroke="none" /><path d="M 115.32070863581623 114.36230785411682 l 0.5735972979236854 0.5377154003053484 a21.786226247279302,21.786226247279302 0 0,0 -0.2588343199462778,0.271386749657698 l -0.5642564265984432 -0.5475092665455534" fill="#ff0600" stroke="none" /><path d="M 115.07121518719521 114.62390073753431 l 0.8013770104415626 0.7775920991424979 a22.11662643059937,22.11662643059937 0 0,0 -0.26746307734263036,0.27093868525477 l -0.7878733080433967 -0.7912712783779327" fill="#ff0a01" stroke="none" /><path d="M 114.81725581225074 114.88116024355365 l 0.28143496015766195 0.2826487436885344 a21.39886833555404,21.39886833555404 0 0,0 -0.263257078742595,0.25765245981991775 l -0.2765279290392727 -0.2874513064310241" fill="#ff0000" stroke="none" /><path d="M 114.55890576462653 115.13401014063108 l 5.456349218090849 5.67188535542593 a28.870325931932918,28.870325931932918 0 0,0 -0.3611047653226947,0.3414470946356268 l -5.357908618377347 -5.764967086807478" fill="#ff6909" stroke="none" /><path d="M 114.29624159901734 115.38237550388516 l 7.6000918756275535 8.177496601831741 a32.16390823999148,32.16390823999148 0 0,0 -0.4087886476266749,0.37341873732168235 l -7.458203678534015 -8.307108105740006" fill="#ff940d" stroke="none" /><path d="M 114.0293411484842 115.62618273729858 l 2.9840014531188697 3.323645173446931 a25.466641009885684,25.466641009885684 0 0,0 -0.3287108472148674,0.2900491041122592 l -2.926348252997415 -3.3745174193314793" fill="#ff3a05" stroke="none" /><path d="M 113.75828350139079 115.86535959552629 l 1.2896531461975553 1.487163054595998 a22.968466202009207,22.968466202009207 0 0,0 -0.30092466677361907,0.2564545294457022 l -1.2638630028468891 -1.5091419742646468" fill="#ff1702" stroke="none" /><path d="M 113.48314897796784 116.09983520530334 l 0.32111315053447775 0.38343185366479954 a21.50013362399563,21.50013362399563 0 0,0 -0.2857775968922793,0.2351755066026047 l -0.31446542509750736 -0.38890247912458265" fill="#ff0100" stroke="none" /><path d="M 113.20401910651253 116.32954008644616 l 1.2476860403794818 1.543025577842964 a22.984350873518956,22.984350873518956 0 0,0 -0.3097880142621403,0.24611433428862242 l -1.2209405333999905 -1.5642738261367124" fill="#ff1702" stroke="none" /><path d="M 112.92097659922987 116.55440617244103 l 1.2056739023099652 1.5447141581806418 a22.959538565375805,22.959538565375805 0 0,0 -0.313639620069144,0.24048548638951953 l -1.1789055537473274 -1.5652389863975327" fill="#ff1602" stroke="none" /><path d="M 112.63410532772338 116.77436683061366 l 1.7269714847982145 2.292908950857614 a23.870515975609457,23.870515975609457 0 0,0 -0.3303395574464703,0.2443773072954495 l -1.6872469569331798 -2.322296206892833" fill="#ff2303" stroke="none" /><path d="M 112.34349029814194 116.9893568818739 l 6.691952114627752 9.210681903232473 a32.38502895152248,32.38502895152248 0 0,0 -0.4538109051074169,0.3237820313672967 l -6.5324138816714505 -9.32450819644399" fill="#ff970e" stroke="none" /><path d="M 112.04921762599082 117.19931262002967 l 1.1689128115813192 1.6685313101639438 a23.0372417367795,23.0372417367795 0 0,0 -0.32673732612276885,0.22473291225724554 l -1.140018600835667 -1.6884050117862834" fill="#ff1802" stroke="none" /><path d="M 111.7513745106137 117.40417183066458 l 5.59688384004086 8.289168895124748 a31.001771327660624,31.001771327660624 0 0,0 -0.4448389564239086,0.2948150039908691 l -5.453370184876987 -8.384281920206936" fill="#ff850c" stroke="none" /><path d="M 111.45004920935366 117.60387380957326 l 21.519003930314245 33.08438442233965 a60.46699916079294,60.46699916079294 0 0,0 -0.8773997628526948,0.5599980413855755 l -20.94632236541462 -33.449896892549035" fill="#30ff36" stroke="none" /><path d="M 111.1453310114006 117.79835938074945 l 0.6569574161700918 1.0491177138555423 a22.237837236548636,22.237837236548636 0 0,0 -0.3261769722560385,0.20036453704515952 l -0.6388012439817448 -1.06027071772908" fill="#ff0c01" stroke="none" /><line stroke="#e1ed5e" stroke-width="0.3" x1="143.8653032363475" x2="146.44561519142675" y1="172.8068346515853" y2="177.08958963109032" /><path d="M 144.38136562736335 173.6633856474863 a86.0,86.0 0 0,1 -40.68145358897372,12.25698825130547" fill="none" id="id66" stroke="none" /><text fill="#e1ed5e" style="font-size:6.75px; font-family:Arial;" text-anchor="middle"><textPath startOffset="21.466115282336833" xlink:href="#id66">June</textPath></text><path d="M 110.8373102113329 117.98757091392108 l 1.067069480831723 1.771102569018447 a23.06771409699364,23.06771409699364 0 0,0 -0.34187684613885394,0.20198686676546626 l -1.036424763664487 -1.7892080080776627" fill="#ff1802" stroke="none" /><path d="M 110.5260780823613 118.17145234162733 l 2.4051077349405823 4.152002316531168 a25.798298287221336,25.798298287221336 0 0,0 -0.38617747037727357,0.21928164629308894 l -2.3332814976421097 -4.192787128618885" fill="#ff3e05" stroke="none" /><path d="M 109.89434966115114 118.52300852407294 l 0.9254339772408136 1.7324859173113119 a22.96416279872972,22.96416279872972 0 0,0 -0.35026810763313054,0.18324371922053612 l -0.8954749670811873 -1.748159055476565" fill="#ff1702" stroke="none" /><path d="M 109.57404056367764 118.69057910512821 l 5.668694075316437 11.066505759275257 a33.433890872916656,33.433890872916656 0 0,0 -0.514477675549716,0.2579697869019745 l -5.4773624920839605 -11.162443387086535" fill="#ffa50f" stroke="none" /><path d="M 109.2508944713604 118.85261126421891 l 2.120708962822053 4.321841720755206 a25.81411698697218,25.81411698697218 0 0,0 -0.4005949387054398,0.1923099146929457 l -2.0460013561163803 -4.357705911947711" fill="#ff3f05" stroke="none" /><path d="M 107.2578585660854 119.70592522655815 l 2.5931484835664467 7.040697976301918 a28.50305584754138,28.50305584754138 0 0,0 -0.4618586841522184,0.1656060919920889 l -2.4715702387844933 -7.084291609333967" fill="#ff6409" stroke="none" /><path d="M 106.91757812671514 119.82793768551818 l 1.0382916447416823 2.976067874365769 a24.151988187219676,24.151988187219676 0 0,0 -0.3937122174394215,0.13356856040645282 l -0.9869096943650338 -2.993499421670345" fill="#ff2703" stroke="none" /><path d="M 106.2309692047433 120.05430185196036 l 0.625240194043796 2.012328286229928 a23.10722339390227,23.10722339390227 0 0,0 -0.38085658513473203,0.11474896488688768 l -0.5905086344688182 -2.0227926202225412" fill="#ff1902" stroke="none" /><path d="M 105.88484417918355 120.15858648285463 l 17.654532537550654 60.47575944856389 a84.0,84.0 0 0,0 -1.391475327581577,0.39324482664592386 l -16.61092604186447 -60.77069306854833" fill="#4dd2ff" stroke="none" /><path d="M 105.53697534728816 120.25689768951611 l 15.883466138504648 58.10929764752618 a81.24097417590303,81.24097417590303 0 0,0 -1.3521189004658305,0.35710689083047564 l -14.88085679522732 -58.374095887660246" fill="#4aebff" stroke="none" /><path d="M 105.18746579009965 120.34920634021253 l 1.8155328611891244 7.12190774930666 a28.349675473086673,28.349675473086673 0 0,0 -0.47390764063919183,0.11647496795350123 l -1.6926719358067215 -7.152103975574191" fill="#ff6209" stroke="none" /><path d="M 104.83641907484287 120.43548508189849 l 0.5611376868810088 2.3709940457383647 a23.43649097444767,23.43649097444767 0 0,0 -0.3933757541632786,0.08953104092606237 l -0.5202417833248681 -2.380301820242112" fill="#ff1d03" stroke="none" /><path d="M 103.7750983002368 120.6578951692458 l 0.07941844209647891 0.43458943869910993 a21.441786452003498,21.441786452003498 0 0,0 -0.36364353801703386,0.06322409029319467 l -0.07192593260739512 -0.4358921075133108" fill="#ff0100" stroke="none" /><path d="M 103.06178313531738 120.77559828337769 l 0.8050761243203701 5.462809548294437 a26.521814532097903,26.521814532097903 0 0,0 -0.4522239758947566,0.06267412238476028 l -0.7109235572387831 -5.4758582361718" fill="#ff4906" stroke="none" /><path d="M 102.70371172650421 120.8252237178851 l 0.8246662439277185 6.351956406457523 a27.40526538118528,27.40526538118528 0 0,0 -0.4683332480622266,0.05670863415623098 l -0.7152055728141116 -6.365210569339105" fill="#ff5507" stroke="none" /><path d="M 102.34483914955558 120.86867818915974 l 0.2604972270628582 2.3183819673829555 a23.332971013963505,23.332971013963505 0 0,0 -0.3995131333794093,0.04141116978542395 l -0.22055149707784621 -2.3225225056241383" fill="#ff1c02" stroke="none" /><path d="M 101.98527174616119 120.90594882070398 l 0.3887430413114316 4.093667348954323 a25.11208384107897,25.11208384107897 0 0,0 -0.4306790327959716,0.03716079915249634 l -0.3182196907739184 -4.0997524003854835" fill="#ff3505" stroke="none" /><path d="M 101.62511606390274 120.93702456842531 l 0.9222126354698773 11.881236691351011 a32.9169736703966,32.9169736703966 0 0,0 -0.5652898337144986,0.038985696604600786 l -0.7175600409764483 -11.895350732471899" fill="#ff9e0e" stroke="none" /><path d="M 101.26447882468166 120.96189622390904 l 0.2821195141024704 4.676835912095591 a25.685337295105274,25.685337295105274 0 0,0 -0.4415577728741546,0.02282349320498509 l -0.2015736728148362 -4.680999212062778" fill="#ff3d05" stroke="none" /><path d="M 100.90346689309514 120.98055641714683 l 0.3159796906450453 7.337767190936615 a28.344567414986805,28.344567414986805 0 0,0 -0.4876340641724068,0.016795103136659745 l -0.18962527479798616 -7.342119092499369" fill="#ff6109" stroke="none" /><line stroke="#e1ed5e" stroke-width="0.3" x1="102.19456741930631" x2="102.32365962044197" y1="184.97166512339345" y2="189.96999836594603" /><path d="M 102.22038585953345 185.97133177190398 a86.0,86.0 0 0,1 -42.740103519485714,-10.115201625700543" fill="none" id="id67" stroke="none" /><text fill="#e1ed5e" style="font-size:6.75px; font-family:Arial;" text-anchor="middle"><textPath startOffset="22.20632615414155" xlink:href="#id67">July</textPath></text><path d="M 100.54218724476979 120.99299961872073 l 0.10005840896242738 3.874171075510816 a24.875462966863278,24.875462966863278 0 0,0 -0.4281426213717389,0.007370863500129962 l -0.033356097698020504 -3.8753194162901052" fill="#ff3204" stroke="none" /><path d="M 100.18074693466247 120.99922214144158 l 0.016166851232282092 1.8782686466485086 a22.878338221956202,22.878338221956202 0 0,0 -0.39382757178947375,0.0 l 0.016166851232280798 -1.8782686466485086" fill="#ff1502" stroke="none" /><path d="M 99.81925306533755 120.99922214144158 l -0.03598269184020768 4.18047775255877 a25.180632606885098,25.180632606885098 0 0,0 -0.43339503133958795,-0.0074612885010226495 l 0.10793741307246356 -4.1792389867785875" fill="#ff3605" stroke="none" /><path d="M 99.45781275523022 120.99299961872073 l -0.05151702709069177 1.9946926832108267 a22.995357838718427,22.995357838718427 0 0,0 -0.3956073710994254,-0.01362551775482275 l 0.08584474986476022 -1.9935103670299101" fill="#ff1702" stroke="none" /><path d="M 99.09653310690486 120.98055641714683 l -0.3402740705542883 7.901937956020574 a28.909261021352766,28.909261021352766 0 0,0 -0.49698038866939026,-0.0256882093819232 l 0.4762425276371675 -7.894909939876449" fill="#ff6909" stroke="none" /><path d="M 98.73552117531835 120.96189622390904 l -0.07787969928466261 1.2910506229832264 a22.29339744806693,22.29339744806693 0 0,0 -0.38284901469185256,-0.026403509566183248 l 0.10009147475544522 -1.2895187689007581" fill="#ff0d01" stroke="none" /><path d="M 98.37488393609728 120.93702456842531 l -0.19104788309468135 2.461346799128333 a23.468750161359843,23.468750161359843 0 0,0 -0.4024954155294218,-0.034728998064261704 l 0.23338761636564484 -2.457693548785408" fill="#ff1e03" stroke="none" /><path d="M 98.01472825383883 120.90594882070398 l -0.7569192901711109 7.970755626940822 a29.006614270479247,29.006614270479247 0 0,0 -0.4966587130713983,-0.05148070632480498 l 0.8940105998481025 -7.956545552160256" fill="#ff6a09" stroke="none" /><path d="M 97.65516085044442 120.86867818915974 l -0.26942137061090393 2.3978053597522537 a23.41289419954512,23.41289419954512 0 0,0 -0.4001069369150446,-0.048447378021456475 l 0.31065573057733786 -2.3928124530054484" fill="#ff1d02" stroke="none" /><path d="M 97.2962882734958 120.8252237178851 l -0.2860061236426946 2.2029499118403817 a23.22143823160552,23.22143823160552 0 0,0 -0.3959491953456653,-0.05487495057762192 l 0.323883910175191 -2.197700395770155" fill="#ff1a02" stroke="none" /><path d="M 96.93821686468263 120.77559828337769 l -0.3092836176858192 2.098630736629334 a23.12129849971526,23.12129849971526 0 0,0 -0.3932427909952614,-0.06141643650699719 l 0.3453622722895977 -2.092995992775231" fill="#ff1902" stroke="none" /><path d="M 96.58105272829116 120.7198165907248 l -1.2227484140117257 7.4102116416260735 a28.510416117477032,28.510416117477032 0 0,0 -0.4835244773332995,-0.08406692823579971 l 1.350121862817075 -7.388066134869268" fill="#ff6409" stroke="none" /><path d="M 96.22490169976321 120.6578951692458 l -1.117067566296679 6.112758621430826 a27.21398888891418,27.21398888891418 0 0,0 -0.4600879710595518,-0.08817695467216094 l 1.2221231519279256 -6.092624468410198" fill="#ff5207" stroke="none" /><path d="M 95.86986931433489 120.58985236759428 l -0.7575860851331321 3.7767777428386533 a24.85201074702405,24.85201074702405 0 0,0 -0.41870731442598824,-0.08774418875293127 l 0.8224848609885071 -3.763177573359181" fill="#ff3104" stroke="none" /><path d="M 95.51606077576429 120.51570834832081 l -1.5461101647759306 7.074035491710711 a28.241024428877882,28.241024428877882 0 0,0 -0.4740186700801615,-0.10788510603794892 l 1.6676489842489548 -7.046373652095076" fill="#ff6008" stroke="none" /><path d="M 95.16358092515715 120.4354850818985 l -0.4760917178199687 2.0116464364580584 a23.067216657511054,23.067216657511054 0 0,0 -0.38560336370171205,-0.09477192511465246 l 0.5106483662648913 -2.003153253029376" fill="#ff1802" stroke="none" /><path d="M 94.81253420990036 120.34920634021253 l -1.8482497890885712 7.250248550688795 a28.482120777535666,28.482120777535666 0 0,0 -0.4740368295593415,-0.12519743514032092 l 1.9727770614594018 -7.2173597662448925" fill="#ff6309" stroke="none" /><path d="M 94.46302465271185 120.25689768951611 l -0.2807683861761893 1.0271847202655846 a22.06486587710522,22.06486587710522 0 0,0 -0.3655085294569979,-0.10329636139056664 l 0.29840808373780114 -1.0221995655364966" fill="#ff0a01" stroke="none" /><path d="M 94.11515582081647 120.15858648285463 l -0.47080312468410923 1.6127403235100697 a22.680055633985877,22.680055633985877 0 0,0 -0.37381594457190515,-0.11262767764056315 l 0.49849404369626016 -1.604397276763781" fill="#ff1202" stroke="none" /><path d="M 93.76903079525671 120.05430185196036 l -1.6753114604123125 5.391970433360731 a26.646238893602106,26.646238893602106 0 0,0 -0.4368443468892763,-0.13986376478415097 l 1.767877152392529 -5.362333821916873" fill="#ff4a06" stroke="none" /><path d="M 93.42475214034765 119.94407469862007 l -0.5043144110284097 1.5296889942142775 a22.610677324665378,22.610677324665378 0 0,0 -0.3685866289058529,-0.12504459660461786 l 0.5305707728714883 -1.5207814107115365" fill="#ff1101" stroke="none" /><path d="M 93.08242187328487 119.8279376855182 l -2.7475153885001644 7.8752365228512025 a29.34075482800536,29.34075482800536 0 0,0 -0.4754326163966254,-0.17047322115755542 l 2.8826675655265164 -7.826775760653689" fill="#ff6f0a" stroke="none" /><path d="M 92.7421414339146 119.70592522655815 l -2.5938874657462154 7.042704398367839 a28.5051940299865,28.5051940299865 0 0,0 -0.45897404593069696,-0.1735447113230346 l 2.7147317324371953 -6.997011436938171" fill="#ff6409" stroke="none" /><path d="M 92.40401165467489 119.57807347666478 l -1.0344645859518342 2.666252599668224 a23.85989858296165,23.85989858296165 0 0,0 -0.38162081246645496,-0.1518547970363831 l 1.0802064744601474 -2.6480509582257743" fill="#ff2303" stroke="none" /><path d="M 92.06813273071674 119.44442032107085 l -0.944179368775435 2.314589980098328 a23.499760279785395,23.499760279785395 0 0,0 -0.3732305118226824,-0.15601038421177257 l 0.9838813400955796 -2.297994552866582" fill="#ff1e03" stroke="none" /><path d="M 91.7346041902142 119.30500536409082 l -2.2130629939978284 5.1689228142730865 a26.622758297785477,26.622758297785477 0 0,0 -0.4197259455228944,-0.1839955199087107 l 2.301709614178466 -5.130062741069923" fill="#ff4a06" stroke="none" /><path d="M 91.40352486487194 119.15986991738527 l -1.8924157170775633 4.217826306582039 a25.622909905972392,25.622909905972392 0 0,0 -0.40085456884190246,-0.18401267188027445 l 1.9647382816868852 -4.18462656436769" fill="#ff3c05" stroke="none" /><path d="M 91.07499286063937 119.00905698771935 l -1.3790429667927158 2.9371748319020647 a24.244804385077686,24.244804385077686 0 0,0 -0.376241648376619,-0.18061885538809813 l 1.429397283169577 -2.913001700014404" fill="#ff2904" stroke="none" /><path d="M 90.7491055286396 118.85261126421891 l -2.523630078051941 5.142963956998553 a26.72876836971392,26.72876836971392 0 0,0 -0.4112998595774136,-0.20623428803713809 l 2.6117838453121154 -5.098761828052114" fill="#ff4b07" stroke="none" /><path d="M 90.42595943632237 118.69057910512821 l -2.3808497170333096 4.6479289154525825 a26.222230230294123,26.222230230294123 0 0,0 -0.3999628047051407,-0.20924163601218093 l 2.460503424264946 -4.606257860495685" fill="#ff4406" stroke="none" /><path d="M 90.10565033884886 118.52300852407294 l -2.474800648264694 4.6330233995242605 a26.25257499415198,26.25257499415198 0 0,0 -0.3967604015643617,-0.21634540562456245 l 2.5541838616976964 -4.589737342139932" fill="#ff4506" stroke="none" /><line stroke="#e1ed5e" stroke-width="0.3" x1="58.666819895761336" x2="56.23545636021788" y1="174.27360380694188" y2="178.64263932499728" /><path d="M 58.180547188652646 175.14741091055294 a86.0,86.0 0 0,1 -31.652253787137756,-30.449443065178592" fill="none" id="id68" stroke="none" /><text fill="#e1ed5e" style="font-size:6.75px; font-family:Arial;" text-anchor="middle"><textPath startOffset="22.20632615414155" xlink:href="#id68">August</textPath></text><path d="M 89.7882731507175 118.34994917583269 l -1.559781130736319 2.8028466582461875 a24.2076263132483,24.2076263132483 0 0,0 -0.3623665324514397,-0.20576117431149327 l 1.607796430108966 -2.775582318140061" fill="#ff2803" stroke="none" /><path d="M 89.4739219176387 118.17145234162733 l -1.904281643042085 3.2874127334815006 a24.799127670437436,24.799127670437436 0 0,0 -0.367537395309962,-0.2171475715195056 l 1.9605869093804291 -3.2541465896682458" fill="#ff3004" stroke="none" /><path d="M 89.1626897886671 117.98757091392108 l -1.4060054160402344 2.333662286416204 a23.724487272309375,23.724487272309375 0 0,0 -0.34798264527678535,-0.213759362404966 l 1.4459672612493284 -2.30911445718286" fill="#ff2103" stroke="none" /><path d="M 88.8546689885994 117.79835938074946 l -1.0179221574011248 1.6255546255665931 a22.91796594318802,22.91796594318802 0 0,0 -0.3325486325218206,-0.21224827126940596 l 1.045752591969869 -1.607791925473383" fill="#ff1602" stroke="none" /><path d="M 85.97065885151581 115.62618273729859 l -2.0422409364450727 2.2746919993410013 a24.056954650360062,24.056954650360062 0 0,0 -0.3057529540303118,-0.27929807417411867 l 2.0810934399422387 -2.2392011585803067" fill="#ff2603" stroke="none" /><path d="M 85.70375840098266 115.38237550388516 l -1.204835032814062 1.2963704318102456 a22.769803309062322,22.769803309062322 0 0,0 -0.2848005422504795,-0.26929668905137955 l 1.2269714094553585 -1.2754391060129353" fill="#ff1402" stroke="none" /><path d="M 85.44109423537348 115.13401014063109 l -7.007008965485693 7.283799102320366 a31.107022509392163,31.107022509392163 0 0,0 -0.3826905117499384,-0.3745432114231008 l 7.131349429611426 -7.162105787974696" fill="#ff870c" stroke="none" /><path d="M 85.18274418774928 114.88116024355367 l -1.955698940591972 1.964133554273606 a23.77174655501834,23.77174655501834 0 0,0 -0.28747894745003516,-0.29121465599813595 l 1.9892185130975404 -1.9301784042948054" fill="#ff2203" stroke="none" /><path d="M 84.9287848128048 114.62390073753433 l -3.0185031682926637 2.9289138374554535 a25.20593600096707,25.20593600096707 0 0,0 -0.2994626618382173,-0.3139854037014258 l 3.0684723815098383 -2.8765213171715276" fill="#ff3605" stroke="none" /><path d="M 84.67929136418377 114.36230785411682 l -5.071394487005907 4.754148819315968 a27.95132886857163,27.95132886857163 0 0,0 -0.3260370670309189,-0.353848843159273 l 5.152477962032555 -4.666148721355351" fill="#ff5c08" stroke="none" /><path d="M 84.43433777217949 114.09645910891817 l -2.348123045199148 2.126489705667529 a24.16790787487662,24.16790787487662 0 0,0 -0.27659727524956335,-0.3107599709304698 l 2.38437917009705 -2.085755564996195" fill="#ff2803" stroke="none" /><path d="M 84.19399662182784 113.82643327865904 l -2.9262908095910314 2.5597972912392484 a24.887896613148648,24.887896613148648 0 0,0 -0.2792866313293583,-0.3248734483506777 l 2.9699199504911684 -2.50904674372704" fill="#ff3204" stroke="none" /><path d="M 83.95833913139862 113.55231037782056 l -3.5316407578817732 2.9835995216340794 a25.62324048133199,25.62324048133199 0 0,0 -0.281738510610925,-0.3393721855309269 l 3.5824752683862346 -2.9223660789893913" fill="#ff3c05" stroke="none" /><path d="M 83.72743513129214 113.27417163493432 l -2.3396462655448746 1.908541544891805 a24.0193501745336,24.0193501745336 0 0,0 -0.25858784945447605,-0.32262810189395713 l 2.3721520270542116 -1.8679856094195884" fill="#ff2603" stroke="none" /><path d="M 83.50135304334701 112.99209946851258 l -1.4649203156371609 1.1535728053462064 a22.8645969399312,22.8645969399312 0 0,0 -0.240832998579495,-0.31130911527891014 l 1.484560131434724 -1.1281856959540437" fill="#ff1502" stroke="none" /><path d="M 83.28015986056508 112.70617746262583 l -1.1053011494646612 0.839969308176469 a22.388250362753908,22.388250362753908 0 0,0 -0.2305336618740575,-0.3088375133528986 l 1.1195960780338037 -0.8208189153142624" fill="#ff0e01" stroke="none" /><path d="M 83.06392112726016 112.41649034213515 l -3.181127169796294 2.3322065914829744 a24.944459108138,24.944459108138 0 0,0 -0.25089399199519413,-0.34846981107266484 l 3.2208009541670957 -2.2771031749591715" fill="#ff3304" stroke="none" /><path d="M 82.85270091963577 112.12312394758628 l -2.597029211579593 1.8360971532557493 a24.18053666572036,24.18053666572036 0 0,0 -0.23735970917163599,-0.3419343641853801 l 2.628249827913363 -1.7911215268833567" fill="#ff2803" stroke="none" /><path d="M 82.6465618267979 111.8261652097733 l -2.7616255500718285 1.8820155220372738 a24.34193927293701,24.34193927293701 0 0,0 -0.23298353343528203,-0.3482787708648177 l 2.793612188917841 -1.8341998369666352" fill="#ff2a04" stroke="none" /><path d="M 82.44556493220864 111.52570212397912 l -1.8086400440943426 1.1874974225732573 a23.163637894315894,23.163637894315894 0 0,0 -0.2159679831524868,-0.3351871058725536 l 1.8288128906238752 -1.1561887167792553" fill="#ff1902" stroke="none" /><path d="M 82.24976979558568 111.22182372390057 l -3.909743650176896 2.4717681710411568 a25.625552215840905,25.625552215840905 0 0,0 -0.23250351548346943,-0.37486969769034806 l 3.951711805328322 -2.4041021419855446" fill="#ff3c05" stroke="none" /><path d="M 82.05923443525364 110.91462005526583 l -0.9768426422685402 0.5942815681786544 a22.143412493385945,22.143412493385945 0 0,0 -0.19530397481322745,-0.3273406956506124 l 0.9869274927799995 -0.577378778641931" fill="#ff0b01" stroke="none" /><line stroke="#e1ed5e" stroke-width="0.3" x1="26.63291911575756" x2="22.317208475507996" y1="142.92168965132927" y2="145.44649492493687" /><path d="M 25.769776987707644 143.4266507060508 a86.0,86.0 0 0,1 -11.730757126820373,-40.83630448921669" fill="none" id="id69" stroke="none" /><text fill="#e1ed5e" style="font-size:6.75px; font-family:Arial;" text-anchor="middle"><textPath startOffset="21.46611528233685" xlink:href="#id69">September</textPath></text><path d="M 81.87401531095188 110.60418214915194 l -2.8651363323585257 1.6761808018540505 a24.31942589667324,24.31942589667324 0 0,0 -0.20827620010651743,-0.36314711053887033 l 2.8935645286174205 -1.626613845456873" fill="#ff2a04" stroke="none" /><path d="M 81.69416730710424 110.29060199501025 l -3.7175687056264186 2.0898268098753863 a25.264703175641515,25.264703175641515 0 0,0 -0.2098457258112888,-0.3809309461588695 l 3.7529908408892236 -2.025525345318694" fill="#ff3705" stroke="none" /><path d="M 81.51974371655577 109.97397251340807 l -3.6529071284150945 1.9715092006318327 a25.15097326141735,25.15097326141735 0 0,0 -0.20234256420092464,-0.3827558766818718 l 3.686302200840905 -1.9083383088638348" fill="#ff3505" stroke="none" /><path d="M 81.35079622478065 109.6543875284942 l -4.054231323473361 2.0988091930756627 a25.565281114364314,25.565281114364314 0 0,0 -0.1989482022379738,-0.39254367723636485 l 4.089758195497602 -2.028711304136613" fill="#ff3b05" stroke="none" /><path d="M 81.18737489456691 109.33194174019688 l -3.987828379433719 1.9781493490789732 a25.451499750766985,25.451499750766985 0 0,0 -0.19130649285380288,-0.39414803839029644 l 4.021288128902241 -1.909212354723392" fill="#ff3a05" stroke="none" /><path d="M 81.02952815118164 109.00673069616217 l -18.623260260194918 8.841882857993458 a41.615642488009776,41.615642488009776 0 0,0 -0.30166462491400364,-0.6497587647198585 l 18.77269950194875 -8.520004025994773" fill="#f3ff19" stroke="none" /><path d="M 80.87730276802145 108.67885076344099 l -1.7688307752872918 0.8027852001352684 a22.942479443690374,22.942479443690374 0 0,0 -0.16011547146867477,-0.3610181189118864 l 1.7823873314872465 -0.7722187447306862" fill="#ff1602" stroke="none" /><path d="M 80.73074385275274 108.34839909993369 l -4.385151782103294 1.8998656155190288 a25.779021396595247,25.779021396595247 0 0,0 -0.17290237473966547,-0.40869013934874826 l 4.417205138035265 -1.8241009505041217" fill="#ff3e05" stroke="none" /><path d="M 80.58989483394504 108.01547362559985 l -2.1796428471470835 0.9000914526258443 a23.35817886603403,23.35817886603403 0 0,0 -0.15026804288140627,-0.3729529590391445 l 2.194813504285878 -0.8624391257438945" fill="#ff1c02" stroke="none" /><path d="M 80.45479744820244 107.68017299344265 l -3.25676409442805 1.279726397194059 a24.4991730477973,24.4991730477973 0 0,0 -0.15085158191946263,-0.3938258787148879 l 3.278309955941021 -1.2234769516460131" fill="#ff2c04" stroke="none" /><path d="M 80.32549172779594 107.34259656027581 l -3.9147203625918032 1.4609875820590532 a25.17845907389574,25.17845907389574 0 0,0 -0.1480442305189995,-0.40735413992130465 l 3.939288854116027 -1.3933856451316315" fill="#ff3605" stroke="none" /><path d="M 80.20201598880116 107.00284435728193 l -3.731817041677312 1.3199997483549863 a24.95839080539181,24.95839080539181 0 0,0 -0.13977788588649037,-0.40625996496419187 l 3.753985758507031 -1.2555670803014976" fill="#ff3304" stroke="none" /><path d="M 80.0844068197444 106.66101706037122 l -4.339221569629701 1.4513064533116398 a25.575492787860522,25.575492787860522 0 0,0 -0.13604670135628807,-0.41870869305124775 l 4.363560522002238 -1.3763988602825887" fill="#ff3b05" stroke="none" /><path d="M 79.97269907076064 106.31721596034903 l -1.8705457253310915 0.5900266517377898 a22.961395615452254,22.961395615452254 0 0,0 -0.11565242485761772,-0.37795881603921505 l 1.8804249226948397 -0.5577408631465268" fill="#ff1602" stroke="none" /><path d="M 79.86692584326677 105.97154293290107 l -3.197371650629777 0.9483520467633616 a24.335049786262754,24.335049786262754 0 0,0 -0.11565795954344106,-0.40262053006954635 l 3.2132222470593224 -0.8931740411892193" fill="#ff2a04" stroke="none" /><path d="M 79.76711848015287 105.62410040840567 l -4.810348226287256 1.3371244920056287 a25.992729911107375,25.992729911107375 0 0,0 -0.11611561876617472,-0.4321094134993787 l 4.832651921395205 -1.254124145330711" fill="#ff4106" stroke="none" /><path d="M 79.67330655649465 105.27499134158121 l -4.27570926376952 1.1095916514010893 a25.417338943430025,25.417338943430025 0 0,0 -0.10625498952194036,-0.4244358649553057 l 4.294175567586518 -1.0358279470483918" fill="#ff3905" stroke="none" /><path d="M 79.58551787078972 104.9243191809786 l -4.378748022430643 1.0562282569330823 a25.504337062730116,25.504337062730116 0 0,0 -0.09927190846780604,-0.4276607834920798 l 4.396280496829005 -0.9806988160924283" fill="#ff3a05" stroke="none" /><path d="M 79.50377843672027 104.57218783832718 l -3.4753272539807485 0.7752574763987439 a24.560747628936024,24.560747628936024 0 0,0 -0.08849583709475509,-0.4134230891255289 l 3.4881571297999443 -0.7153205678570512" fill="#ff2d04" stroke="none" /><path d="M 79.4281124754447 104.21870165774334 l -3.9940467540454665 0.8190639600903741 a25.077165098965217,25.077165098965217 0 0,0 -0.08307714555787087,-0.4236085753765944 l 4.007553832579004 -0.7501916576458247" fill="#ff3405" stroke="none" /><path d="M 79.35854240842038 103.8639653848113 l -1.8049984336788725 0.33788560892225433 a22.83635128183579,22.83635128183579 0 0,0 -0.06900227299164328,-0.3870013915654713 l 1.8105471490097045 -0.3067654666235693" fill="#ff1502" stroke="none" /><path d="M 79.29508885075956 103.50808413554451 l -5.117824816481085 0.8671256745698193 a26.190764663100015,26.190764663100015 0 0,0 -0.07148612773453299,-0.4451441856417817 l 5.131992698576909 -0.7789022592348238" fill="#ff4406" stroke="none" /><path d="M 79.23777060512086 103.15116336523772 l -4.8684409619588385 0.7389019990758412 a25.924194712266868,25.924194712266868 0 0,0 -0.06316362019445715,-0.44176621252602166 l 4.880438633169895 -0.6549903145694189" fill="#ff4006" stroke="none" /><path d="M 79.18660465613746 102.79330883721812 l -1.0289293167367781 0.1380897881306602 a22.038154289316566,22.038154289316566 0 0,0 -0.04722303247639742,-0.37641403199298307 l 1.0311538584600237 -0.12035800185026851" fill="#ff0901" stroke="none" /><path d="M 79.1416061653843 102.43462659150553 l -0.5186787810482533 0.06054105425385546 a21.52220005472986,21.52220005472986 0 0,0 -0.039782965369454686,-0.36834085051435506 l 0.5196440479187598 -0.05160388185471831" fill="#ff0200" stroke="none" /><path d="M 79.10278846688536 102.07522291339032 l -2.6607122381105017 0.2642252529106677 a23.673799655603744,23.673799655603744 0 0,0 -0.036779393877128905,-0.4058575466566615 l 2.664866228264706 -0.21838631770543998" fill="#ff2103" stroke="none" /><path d="M 79.07016306316243 101.71520430193888 l -0.5697685053441207 0.04669264239490937 a21.571678539509655,21.571678539509655 0 0,0 -0.027142761066692837,-0.3703414097309312 l 0.570487825075149 -0.036878096167217524" fill="#ff0300" stroke="none" /><path d="M 79.04373962182676 101.35467743843564 l -2.4140706397330516 0.15605298709890011 a23.419109255160592,23.419109255160592 0 0,0 -0.02254217414335127,-0.40250566230561813 l 2.4163991647639342 -0.1144756084578444" fill="#ff1d02" stroke="none" /><path d="M 79.0235259727143 100.99374915477108 l -5.166618523074593 0.24476576872029923 a26.17241309685477,26.17241309685477 0 0,0 -0.017445617213964936,-0.4501938624348955 l 5.170066273139759 -0.15579465927140695" fill="#ff4406" stroke="none" /><path d="M 79.0095281055655 100.63252640178507 l -3.911989435149284 0.11788380050151653 a24.91376518599932,24.91376518599932 0 0,0 -0.009227509709387918,-0.42876611739207093 l 3.9134390075436793 -0.05052786731931676" fill="#ff3204" stroke="none" /><line stroke="#e1ed5e" stroke-width="0.3" x1="15.007084014347285" x2="10.007500721073583" y1="101.09737516637583" y2="101.16192664675087" /><path d="M 14.007167355692545 101.11028546245083 a86.0,86.0 0 0,1 10.666146001902534,-42.60595125391555" fill="none" id="id70" stroke="none" /><text fill="#e1ed5e" style="font-size:6.75px; font-family:Arial;" text-anchor="middle"><textPath startOffset="22.20632615414155" xlink:href="#id70">October</textPath></text><path d="M 79.00175016825051 100.2711162175752 l -2.0648549713294693 0.0266601109213282 a23.065027073463774,23.065027073463774 0 0,0 -0.0017086821493273322,-0.39703755581108446 l 2.0650079507682997 0.008886923093431656" fill="#ff1802" stroke="none" /><path d="M 79.00019446554 99.90962569577889 l -1.1575600968797657 -0.0049816503385221225 a22.157570816290903,22.157570816290903 0 0,0 0.004924248823254441,-0.3813884980736473 l 1.1573028409387955 0.02490640647264135" fill="#ff0b01" stroke="none" /><path d="M 79.00486145842228 99.54816195383935 l -1.5004635512991757 -0.032291595409655274 a22.50081098607101,22.50081098607101 0 0,0 0.01166646214343426,-0.38715308173405255 l 1.4996853947000965 0.05811482456870225" fill="#ff1001" stroke="none" /><path d="M 79.01574976396665 99.18683210126434 l -0.7634641690696389 -0.02958526262026098 a21.764037188373383,21.764037188373383 0 0,0 0.017728768884048392,-0.37422629065549623 l 0.7628417919520917 0.04272265989876633" fill="#ff0500" stroke="none" /><path d="M 79.03285615573316 98.82574320788736 l -3.562303668198622 -0.19950544094224903 a24.567885907008087,24.567885907008087 0 0,0 0.027281360934401668,-0.4220305786390163 l 3.558341716259807 0.2607950838342771" fill="#ff2d04" stroke="none" /><path d="M 79.05617556472873 98.46500227214037 l -1.109615955193949 -0.08132506912878194 a22.112592169166124,22.112592169166124 0 0,0 0.031089795137313168,-0.3793742482386104 l 1.1080516762371388 0.10041323457517068" fill="#ff0a01" stroke="none" /><path d="M 79.08570108090925 98.10471618934814 l -1.9294019748086315 -0.17484517847053382 a22.937308136778928,22.937308136778928 0 0,0 0.039018408369435584,-0.3929100474557977 l 1.9261064407569672 0.20803075663076184" fill="#ff1602" stroke="none" /><path d="M 79.12142395522702 97.74499172005258 l -1.7978238697114606 -0.19417548895061834 a22.808279510201203,22.808279510201203 0 0,0 0.045518425850857545,-0.3899740750559284 l 1.794215090857014 0.22509330233140853" fill="#ff1402" stroke="none" /><path d="M 79.16333360222342 97.38593545837743 l -2.3820475580060227 -0.29883984025902555 a23.400719854278815,23.400719854278815 0 0,0 0.053580963596214684,-0.39924041458435505 l 2.3765505953519743 0.33979859690804" fill="#ff1d02" stroke="none" /><path d="M 79.21141760316559 97.0276538004421 l -3.452061725905299 -0.4935749035584247 a24.48716881508237,24.48716881508237 0 0,0 0.06325164736072017,-0.41674932711976775 l 3.4430541851052765 0.5529233430702845" fill="#ff2c04" stroke="none" /><path d="M 79.26566170972629 96.67025291283419 l -5.998035943568314 -0.9632302913269762 a27.07488664704678,27.07488664704678 0 0,0 0.07785723829362502,-0.45951782765454735 l 5.980566843754466 1.0663339072973517" fill="#ff5007" stroke="none" /><path d="M 79.32604984820605 96.31383870115002 l -15.262049168191977 -2.7212204040287453 a36.502747669352416,36.502747669352416 0 0,0 0.11561684935847438,-0.6176298323701378 l 15.212946594923642 2.9835283138614557" fill="#ffcc13" stroke="none" /><path d="M 79.3925641242962 95.95851677861259 l -2.6028854546885216 -0.510471945940617 a23.652469471609706,23.652469471609706 0 0,0 0.08179328506559015,-0.39885310627375914 l 2.593712873707937 0.5552007083777786" fill="#ff2003" stroke="none" /><path d="M 79.46518482838121 95.60439243477599 l -1.4641161671601048 -0.31340336141084435 a22.497283479466468,22.497283479466468 0 0,0 0.0843172612876353,-0.37797774939899154 l 1.458504518870432 0.33855928035979505" fill="#ff1001" stroke="none" /><path d="M 79.62865764111835 94.90015583598534 l -2.1893338694770663 -0.5480866876926409 a23.2568964994579,23.2568964994579 0 0,0 0.10056245292682789,-0.38750815313335407 l 2.1795750846799313 0.5856912663748588" fill="#ff1b02" stroke="none" /><path d="M 79.71946130924805 94.55025226153421 l -3.030145571318364 -0.8142549478749617 a24.13764135992614,24.13764135992614 0 0,0 0.11127823861740138,-0.40032703084712845 l 3.0156805621346017 0.8662932821410327" fill="#ff2703" stroke="none" /><path d="M 79.81627453868168 94.20196356495316 l -1.7292117773135345 -0.49673846921821574 a22.799144929571014,22.799144929571014 0 0,0 0.11160084045978226,-0.3762625542807599 l 1.7204050397420452 0.5264304102455148" fill="#ff1402" stroke="none" /><path d="M 80.02781315780177 93.51064311812611 l -1.518503786469104 -0.49339178902805897 a22.596649368835035,22.596649368835035 0 0,0 0.12338061753909506,-0.36889234226047535 l 1.5097858751582365 0.5194572342108564" fill="#ff1101" stroke="none" /><path d="M 80.14247586403 93.16781622104843 l -0.47128940875155456 -0.1621519294961572 a21.498404409130494,21.498404409130494 0 0,0 0.12340792471549941,-0.34889082146058487 l 0.4684284032262456 0.17024037738335313" fill="#ff0100" stroke="none" /><path d="M 80.2630227832202 92.82701384747504 l -1.981530592550886 -0.7201453061965426 a23.108334117556318,23.108334117556318 0 0,0 0.13908511427763853,-0.3726789574958007 l 1.9688408897716199 0.7541474007216847" fill="#ff1902" stroke="none" /><path d="M 80.38941819471856 92.48833698450439 l -1.4099904312038545 -0.5400845869562263 a22.509888862517407,22.509888862517407 0 0,0 0.14171202376528974,-0.3606416432133216 l 1.4004848575568736 0.5642752350653113" fill="#ff1001" stroke="none" /><path d="M 80.52162464483688 92.15188598940014 l -0.5316900653440993 -0.2142254769732479 a21.573224982506893,21.573224982506893 0 0,0 0.1417446281671807,-0.3432458601898796 l 0.5279237502907189 0.2233459076164388" fill="#ff0300" stroke="none" /><path d="M 80.65960295795068 91.81776055985345 l -1.670304637872452 -0.7066469450107791 a22.813633780064567,22.813633780064567 0 0,0 0.1561205293543866,-0.3603477066635939 l 1.6578933986753845 0.7352937962609722" fill="#ff1402" stroke="none" /><path d="M 80.95270993114464 91.15688171328213 l -1.578900834121362 -0.7330390196536648 a22.74076823509735,22.74076823509735 0 0,0 0.1678937990759818,-0.35362715911104325 l 1.5660488412036286 0.7601085944052403" fill="#ff1302" stroke="none" /><path d="M 81.10775173730289 90.83032412892265 l -1.39690876286606 -0.6780135640203963 a22.55275770317446,22.55275770317446 0 0,0 0.1725178431096555,-0.34778544452758253 l 1.3850309068029918 0.7019585970469403" fill="#ff1101" stroke="none" /><path d="M 81.26839172434947 90.50648371742162 l -1.7721573031125242 -0.8981612237887064 a22.986764981293128,22.986764981293128 0 0,0 0.18191350009792123,-0.3513989802850468 l 1.7564343698544889 0.9285329263340887" fill="#ff1702" stroke="none" /><path d="M 81.43458229118936 90.18545643968196 l -0.4106394659767427 -0.217083126791262 a21.464488810365907,21.464488810365907 0 0,0 0.17548947062645548,-0.32515533683927356 l 0.40684189613181543 0.22411944696300828" fill="#ff0100" stroke="none" /><line stroke="#e1ed5e" stroke-width="0.3" x1="26.266209847984243" x2="21.928928074336255" y1="57.711370442889674" y2="55.22380399835377" /><path d="M 25.398753493254645 57.213857153982495 a86.0,86.0 0 0,1 29.58750427330803,-30.492523968695096" fill="none" id="id71" stroke="none" /><text fill="#e1ed5e" style="font-size:6.75px; font-family:Arial;" text-anchor="middle"><textPath startOffset="21.46611528233685" xlink:href="#id71">November</textPath></text><path d="M 81.96595687620814 89.24020034530311 l -5.233286777601423 -3.1223789849031904 a27.09397579762038,27.09397579762038 0 0,0 0.2424061911423078,-0.39845204182155874 l 5.178764788172898 3.211998799931824" fill="#ff5007" stroke="none" /><path d="M 82.15384107792192 88.93136811851018 l -0.43802471103034124 -0.2716738264273083 a21.5154341038764,21.5154341038764 0 0,0 0.19791372017416173,-0.31305197623282016 l 0.4332833946102168 0.27917345037434405" fill="#ff0200" stroke="none" /><path d="M 82.54541684631803 88.32363383020206 l -2.271611691015093 -1.5196106183888423 a23.733026912834298,23.733026912834298 0 0,0 0.2300696969084956,-0.33759889110372776 l 2.2451175284378575 1.558487532762986" fill="#ff2103" stroke="none" /><path d="M 83.39014120810768 87.1503855733568 l -0.7997825417878504 -0.6187227366527004 a22.011172556490553,22.011172556490553 0 0,0 0.2344147106476706,-0.2976828773359646 l 0.7890137505462087 0.6323980079417127" fill="#ff0901" stroke="none" /><path d="M 83.6137871275137 86.86637796730984 l -2.4941954226106335 -1.9991086537900922 a24.196474028649423,24.196474028649423 0 0,0 0.2632824191419428,-0.32275311500436216 l 2.459414511392298 2.0417459384025367" fill="#ff2803" stroke="none" /><path d="M 83.84228863543731 86.58626213691792 l -2.3593620965153805 -1.9586848640061487 a24.066437003911908,24.066437003911908 0 0,0 0.26735449162825625,-0.31646339014023556 l 2.3252969914 1.9990072037755002" fill="#ff2603" stroke="none" /><path d="M 84.07557802195018 86.31012108654704 l -2.854191320827004 -2.4536861452057055 a24.763905391353326,24.763905391353326 0 0,0 0.28066718917764755,-0.32085111545949085 l 2.811532268071513 2.5024528168681397" fill="#ff3004" stroke="none" /><path d="M 84.31358615837235 86.03803664274999 l -2.2058022393417627 -1.9633123510551298 a23.95299151825581,23.95299151825581 0 0,0 0.276778367532129,-0.3056255863748862 l 2.171680231193589 2.000990724699572" fill="#ff2503" stroke="none" /><path d="M 84.5562425177563 85.77008943001954 l -2.2649867330608138 -2.0869635314271373 a24.07986715337664,24.07986715337664 0 0,0 0.2834919068059505,-0.30240940027900515 l 2.2287275042844072 2.1256423485841927" fill="#ff2603" stroke="none" /><path d="M 84.80347519578584 85.50635884689758 l -0.7513560031687561 -0.716603593812274 a22.038295022699423,22.038295022699423 0 0,0 0.26418221067938763,-0.2722629903770348 l 0.73890952878625 0.7294307797394325" fill="#ff0901" stroke="none" /><path d="M 85.31137513191541 84.99185889309783 l -0.31715793821621496 -0.324056957861694 a21.45343364422166,21.45343364422166 0 0,0 0.2661418545889831,-0.25602825325068396 l 0.31153284001480436 0.3294682978746915" fill="#ff0100" stroke="none" /><path d="M 85.57189188830299 84.74124197986013 l -2.1432547304952414 -2.266645429530292 a24.119490718530958,24.119490718530958 0 0,0 0.30412623757857804,-0.28265219295455113 l 2.1039206091218077 2.3032022085594908" fill="#ff2703" stroke="none" /><path d="M 85.83668400450813 84.49514656593479 l -0.46039602510200844 -0.5040043513189262 a21.682630856377106,21.682630856377106 0 0,0 0.2777328314465712,-0.249351278300233 l 0.4516522060594659 0.5118546383884379" fill="#ff0400" stroke="none" /><path d="M 86.10567301691215 84.25364557470407 l -0.9186174110182802 -1.0410634032687025 a22.38840590514854,22.38840590514854 0 0,0 0.29116249957663154,-0.2524932504699389 l 0.9005611127948752 1.056721647158322" fill="#ff0e01" stroke="none" /><path d="M 86.37877921826538 84.01681056812374 l -1.8656143460992656 -2.189118580363634 a23.876240088599122,23.876240088599122 0 0,0 0.3151009517290471,-0.26388798525482454 l 1.8276558574111081 2.2209077230122714" fill="#ff2303" stroke="none" /><path d="M 86.65592168130627 83.78471172551755 l -0.29460671156719903 -0.3579964566730058 a21.463631941836265,21.463631941836265 0 0,0 0.2873025711101241,-0.23231203194981678 l 0.28840074189257453 0.36301458588695684" fill="#ff0100" stroke="none" /><path d="M 86.93701828274178 83.55741782278169 l -0.28898973874017886 -0.3637559655565052 a21.464578810940687,21.464578810940687 0 0,0 0.2912717227777572,-0.2273421997035491 l 0.282685460802996 0.368676554483276" fill="#ff0100" stroke="none" /><path d="M 87.22198572758235 83.33499621200491 l -1.4764895907151445 -1.9256281999399976 a23.426533633785926,23.426533633785926 0 0,0 0.32211912813638705,-0.2426134490824559 l 1.4431243088203676 1.9507582385283078" fill="#ff1d02" stroke="none" /><path d="M 87.51073957382395 83.11751280151077 l -0.2736197661665165 -0.3698683542444309 a21.460076489193376,21.460076489193376 0 0,0 0.29886189907955696,-0.217135879681745 l 0.26721255073317784 0.3745234687428437" fill="#ff0100" stroke="none" /><path d="M 87.80319425747018 82.90503203632743 l -0.47825495639658683 -0.6703192073936796 a21.823441341638123,21.823441341638123 0 0,0 0.3076781623038874,-0.21554821510989272 l 0.46664565450903916 0.6784522652675149" fill="#ff0601" stroke="none" /><path d="M 88.39885842347998 82.49532879139004 l -1.091525974676657 -1.6469761338869753 a22.97584395613295,22.97584395613295 0 0,0 0.3315446823401466,-0.21564588390935477 l 1.0630142665522233 1.6655209419558652" fill="#ff1702" stroke="none" /><line stroke="#e1ed5e" stroke-width="0.3" x1="56.762969772571076" x2="54.21961505331055" y1="26.818313649435495" y2="22.513508569990535" /><path d="M 56.25429882871897 25.957352633546506 a86.0,86.0 0 0,1 42.265352541879196,-11.944610805530505" fill="none" id="id72" stroke="none" /><text fill="#e1ed5e" style="font-size:6.75px; font-family:Arial;" text-anchor="middle"><textPath startOffset="22.20632615414155" xlink:href="#id72">December</textPath></text><path d="M 90.91171255644093 81.06846463323043 l -0.21608790108889483 -0.45012613951758845 a21.499307042283615,21.499307042283615 0 0,0 0.3350019860092842,-0.15728792431757382 l 0.20830770378000216 0.45377904647516987" fill="#ff0100" stroke="none" /><path d="M 91.23893434514133 80.91482961587045 l -0.5586046892554027 -1.216868597018302 a22.338957946041404,22.338957946041404 0 0,0 0.3508470374011044,-0.15741483873620796 l 0.537575533387524 1.2263037662710388" fill="#ff0e01" stroke="none" /><path d="M 91.56875222667455 80.76684994638697 l -0.5338826769809214 -1.2178797152522391 a22.32976002105763,22.32976002105763 0 0,0 0.35335913998295615,-0.15128994267970408 l 0.512839779207657 1.2268891858947295" fill="#ff0d01" stroke="none" /><path d="M 93.25333710446033 80.11325718540243 l -0.3800200626536332 -1.1201628667969108 a22.182869433272305,22.182869433272305 0 0,0 0.3626552442093416,-0.11956173220932245 l 0.36068199620188235 1.126538323265467" fill="#ff0b01" stroke="none" /><path d="M 93.94186890950719 79.89281104454417 l -0.83892181816192 -2.7844163925584673 a23.908051661187677,23.908051661187677 0 0,0 0.3950632286479015,-0.1153297897893519 l 0.7908683717905972 2.798444511266518" fill="#ff2403" stroke="none" /><path d="M 94.28887869178378 79.79150937346287 l -0.9660664774349653 -3.41837343321181 a24.552261444166504,24.552261444166504 0 0,0 0.4076869233291369,-0.11143623660860343 l 0.9070816648821058 3.434496210646709" fill="#ff2d04" stroke="none" /><path d="M 94.63758080256005 79.69619591428918 l -0.6598281586202162 -2.498316742796984 a23.58398137498084,23.58398137498084 0 0,0 0.3933932878606816,-0.10028470834262491 l 0.6167259820745351 2.5093044473084722" fill="#ff1f03" stroke="none" /><path d="M 94.98787191387505 79.60689891045804 l -0.8000593283326015 -3.25524218055888 a24.3521182232943,24.3521182232943 0 0,0 0.40792849348775984,-0.09654349476752574 l 0.7439071478823077 3.2685315874672765" fill="#ff2a04" stroke="none" /><path d="M 95.33964822691252 79.52364482259891 l -0.7081434054168747 -3.1113951460886993 a24.19096330874232,24.19096330874232 0 0,0 0.4068197477246459,-0.08891503978538197 l 0.6544809335387078 3.1231236839699497" fill="#ff2803" stroke="none" /><path d="M 97.11714578562143 79.19881850522333 l -0.19728198421237705 -1.4234845240469158 a22.437090244729205,22.437090244729205 0 0,0 0.3830174470416879,-0.04972665730034703 l 0.1727498086628314 1.4266695045113995" fill="#ff0f01" stroke="none" /><path d="M 97.47563105711357 79.15227682838746 l -0.3299961776576142 -2.725302487531726 a23.745208758148504,23.745208758148504 0 0,0 0.40619379133521916,-0.04564060529353611 l 0.283035682812677 2.730579046295861" fill="#ff2203" stroke="none" /><path d="M 97.83486435360386 79.11191278185805 l -0.054752591472894026 -0.5282241359836963 a21.53105421955646,21.53105421955646 0 0,0 0.3689754952798148,-0.03503866923654601 l 0.04565196910284286 0.529088349735423" fill="#ff0200" stroke="none" /><path d="M 98.19473922651362 79.07773832637324 l -0.18833246633850276 -2.182699142553205 a23.190809134721608,23.190809134721608 0 0,0 0.3980092918466317,-0.030893181199107285 l 0.1507329851295369 2.1856175859407747" fill="#ff1a02" stroke="none" /><path d="M 98.55514903715128 79.0497635885617 l -0.08799821071611955 -1.275967809615048 a22.278998645919167,22.278998645919167 0 0,0 0.38281467739515646,-0.02309242676201146 l 0.06602148448134008 1.2772935057573658" fill="#ff0d01" stroke="none" /><path d="M 99.27714615592234 79.0124445844662 l -0.03536696176636964 -1.0268549804806744 a22.02746385480101,22.02746385480101 0 0,0 0.3790542253015534,-0.009789852320643702 l 0.017686101269937204 1.0273116249436778" fill="#ff0901" stroke="none" /><path d="M 99.63851952072746 79.00311137660856 l -0.02010877355103952 -1.1680345214045134 a22.168207603967033,22.168207603967033 0 0,0 0.381589252823575,-0.003284459171079042 l 2.861283405875653e-16 1.1682076039670335" fill="#ff0b01" stroke="none" /></svg>