<?xml version="1.0" encoding="utf-8" ?>
<svg baseProfile="full" class="activity-poster" data-activity-mode="running" data-poster-role="poster" data-poster-type="plain" height="200mm" version="1.1" viewBox="0,0,200,200" width="200mm" xmlns="http://www.w3.org/2000/svg" xmlns:ev="http://www.w3.org/2001/xml-events" xmlns:xlink="http://www.w3.org/1999/xlink"><defs /><rect class="poster-background" data-poster-role="background" fill="#1a1a1a" height="200" stroke="none" width="200" x="0" y="0" /><rect fill="#1a1a1a" height="200" width="180" x="10" y="0" /><text alignment-baseline="middle" fill="#e1ed5e" style="dominant-baseline: central; font-size:9.0px; font-family:Arial;" text-anchor="middle" x="100.0" y="100.0">2025</text><line stroke="#e1ed5e" stroke-width="0.3" x1="100.0" x2="100.0" y1="15.0" y2="10.0" /><path d="M 100.0 14.0 a86.0,86.0 0 0,1 42.46469731375804,11.215312516191453" fill="none" id="id61" stroke="none" /><text fill="#e1ed5e" style="font-size:6.75px; font-family:Arial;" text-anchor="middle"><textPath startOffset="22.20632615414155" xlink:href="#id61">January</textPath></text><path d="M 100.0 79.0 l 0.0 -4.383855193796471 a25.38385519379647,25.38385519379647 0 0,0 0.4369413400589527,0.003760892061191614 l -0.07546086078642433 4.383205678343838" fill="red" stroke="none" /><path d="M 100.36148047927253 79.00311137660856 l 0.12675681524338056 -7.362773052855514 a28.36386408878287,28.36386408878287 0 0,0 0.48809261926852,0.012605992342212925 l -0.2534760697067684 7.359500268370941" fill="red" stroke="none" /><path d="M 100.72285384407766 79.0124445844662 l 1.6908766057852058 -49.09341875331313 a70.12252872750088,70.12252872750088 0 0,0 1.2059711479037811,0.05193165445643345 l -2.5356885860783187 49.057039372332504" fill="red" stroke="none" /><path d="M 101.08401301168833 79.027996857942 l 0.9523776476185252 -18.42530191328012 a39.44989901813035,39.44989901813035 0 0,0 0.6778581302469696,0.040890253566754756 l -1.2693978267051067 18.40617839033306" fill="red" stroke="none" /><path d="M 101.44485096284872 79.0497635885617 l 0.31490830217604526 -4.566148030593505 a25.576994109245973,25.576994109245973 0 0,0 0.43896188588542173,0.03407189067682588 l -0.3934603774238082 4.560050877728214" fill="red" stroke="none" /><path d="M 101.80526077348638 79.07773832637324 l 0.36975056706592346 -4.285263509706187 a25.301185746915024,25.301185746915024 0 0,0 0.43358385738748423,0.04117401171529309 l -0.4434595515436519 4.278263953475715" fill="red" stroke="none" /><path d="M 102.16513564639614 79.11191278185805 l 0.4297912905933293 -4.146399777978959 a25.168615078451577,25.168615078451577 0 0,0 0.43054307441557116,0.04837653095748368 l -0.5011010685186258 4.138387293550875" fill="red" stroke="none" /><path d="M 102.52436894288641 79.15227682838746 l 0.5133132992353805 -4.239243076144863 a25.270207536152554,25.270207536152554 0 0,0 0.4313808194886058,0.056005611082038546 l -0.5862088472318324 4.229779141898687" fill="red" stroke="none" /><path d="M 102.88285421437855 79.19881850522331 l 1.006935419725605 -7.265523977856276 a28.334968139828725,28.334968139828725 0 0,0 0.4825458831127858,0.07111471962343728 l -1.1318502832670467 7.2471147740718695" fill="red" stroke="none" /><path d="M 103.2404852339499 79.25152402106235 l 3.39193750621699 -21.718208474604292 a42.981488106869726,42.981488106869726 0 0,0 0.7300114992576058,0.12045815235739811 l -3.765278211613471 21.65660405930727" fill="red" stroke="none" /><path d="M 103.59715602781102 79.31037775812273 l 0.7454552898086205 -4.28760616028517 a25.351927179402132,25.351927179402132 0 0,0 0.42929852354473197,0.07845156117069413 l -0.8191489344562534 4.274139117763738" fill="red" stroke="none" /><path d="M 103.95276090670814 79.375362276772 l 11.858282720124386 -61.87391316968404 a84.0,84.0 0 0,0 1.4177343621314986,0.2843841756911667 l -12.921583491723009 61.66062503791566" fill="red" stroke="none" /><path d="M 104.307194497241 79.44645832069477 l 1.5077467248529175 -7.194830688735068 a28.351114801570482,28.351114801570482 0 0,0 0.4767810700253924,0.10420587507693395 l -1.6313705190318373 7.167811315562263" fill="red" stroke="none" /><path d="M 104.66035177308747 79.52364482259891 l 1.6380101475916296 -7.196984090334639 a28.381033615974328,28.381033615974328 0 0,0 0.4754178745533386,0.11251605077129939 l -1.7616517091074924 7.167722127422471" fill="red" stroke="none" /><path d="M 105.01212808612495 79.60689891045804 l 1.7544324325204224 -7.138348688694711 a28.35078602339022,28.35078602339022 0 0,0 0.4729061115612581,0.12055429753077544 l -1.8770474327667055 7.107091394995067" fill="red" stroke="none" /><path d="M 105.36241919743992 79.69619591428918 l 1.885536174815585 -7.139232439763978 a28.384029150505604,28.384029150505604 0 0,0 0.47131289891033457,0.12882761922009558 l -2.0081469629496307 7.105718279717589" fill="red" stroke="none" /><path d="M 105.71112130821622 79.79150937346287 l 5.126149028144796 -18.13859818324395 a39.84903572896849,39.84903572896849 0 0,0 0.6584764386781299,0.1922273290629904 l -5.437615684546352 18.047672525262257" fill="red" stroke="none" /><path d="M 106.0581310904928 79.89281104454417 l 4.380158960831541 -14.537929695609922 a36.18345126631787,36.18345126631787 0 0,0 0.5948122210924672,0.18481105249095928 l -4.629756554634727 14.460378508236442" fill="red" stroke="none" /><path d="M 106.40334571778207 80.00007090966166 l 1.6712695675938396 -5.21997004626743 a26.480987981330966,26.480987981330966 0 0,0 0.4329227646658576,0.1427278289306085 l -1.7608751545021148 5.190428493077585" fill="red" stroke="none" /><path d="M 106.74666289553966 80.11325718540242 l 1.7017712849361235 -5.016211480666389 a26.297018324019884,26.297018324019884 0 0,0 0.42741169492694464,0.1491155479113864 l -1.7878649839263416 4.986175079582795" fill="red" stroke="none" /><path d="M 107.08798089147638 80.2323363322302 l 1.401787450828628 -3.909443787440696 a25.15316250397926,25.15316250397926 0 0,0 0.4063046325744896,0.14964542512303103 l -1.468874409175694 3.8847350945113406" fill="red" stroke="none" /><path d="M 107.4271985657038 80.35727306442388 l 1.7102091477079429 -4.522993561296847 a25.835523351658708,25.835523351658708 0 0,0 0.4146193481215815,0.1608658655731205 l -1.7878116608291914 4.492884991833179" fill="red" stroke="none" /><path d="M 107.76421540070413 80.48803036053334 l 1.5616609412525253 -3.92455377656019 a25.2238498127356,25.2238498127356 0 0,0 0.40203949540012085,0.16400200478425753 l -1.6289843062410336 3.8970908855923527" fill="red" stroke="none" /><line stroke="#e1ed5e" stroke-width="0.3" x1="143.23703022742887" x2="145.7803849466894" y1="26.81831364943548" y2="22.513508569990506" /><path d="M 143.74570117128098 25.957352633546492 a86.0,86.0 0 0,1 28.547481713284135,27.462654790039103" fill="none" id="id62" stroke="none" /><text fill="#e1ed5e" style="font-size:6.75px; font-family:Arial;" text-anchor="middle"><textPath startOffset="19.985693538727396" xlink:href="#id62">February</textPath></text><path d="M 116.15771136456269 86.58626213691792 l 3.4674441261683295 -2.8785875371752856 a25.506599047760975,25.506599047760975 0 0,0 0.27753792116265796,0.3402286748922281 l -3.5164805394073966 2.8184746926749566" fill="red" stroke="none" /><path d="M 116.82858285166822 87.43820079747576 l 3.549848950796585 -2.6498065887216184 a25.429774546306405,25.429774546306405 0 0,0 0.2588235036140454,0.35303496805785806 l -3.594935066924259 2.588309176992267" fill="red" stroke="none" /><line stroke="#e1ed5e" stroke-width="0.3" x1="172.23445277983987" x2="176.4835382374775" y1="55.19839476539836" y2="52.563006222186495" /><path d="M 173.08426987136738 54.67131705675599 a86.0,86.0 0 0,1 12.851231095245387,41.99856678651699" fill="none" id="id63" stroke="none" /><text fill="#e1ed5e" style="font-size:6.75px; font-family:Arial;" text-anchor="middle"><textPath startOffset="22.20632615414155" xlink:href="#id63">March</textPath></text><path d="M 119.196687751892 91.48605970444005 l 22.712311259738065 -10.073157647757503 a45.845876675130626,45.845876675130626 0 0,0 0.3137370663630011,0.7241484052532354 l -22.882339035943748 9.680710097917665" fill="red" stroke="none" /><path d="M 119.47837535516314 92.15188598940014 l 7.003573367607173 -2.8218391559033345 a28.550683156989553,28.550683156989553 0 0,0 0.17974211755418643,0.457424083765443 l -7.05110903504306 2.700866067242107" fill="red" stroke="none" /><path d="M 120.28053869075195 94.5502522615342 l 10.631540281254667 -2.8568872596365638 a32.00869899516806,32.00869899516806 0 0,0 0.13840510861050198,0.533331342473344 l -10.679141721735473 2.673459491614369" fill="red" stroke="none" /><path d="M 120.37134235888165 94.90015583598534 l 17.95300536272602 -4.4944279082180385 a39.50703335967811,39.50703335967811 0 0,0 0.15947145656678077,0.661112141710257 l -18.02770961955362 4.184730534848375" fill="red" stroke="none" /><path d="M 120.96714384426684 98.82574320788733 l 39.59240524408802 -2.2173573625126837 a60.654447754131915,60.654447754131915 0 0,0 0.04940851169824288,1.0429355913301224 l -39.624707364019756 1.5355106645595613" fill="red" stroke="none" /><path d="M 120.98425023603335 99.18683210126433 l 12.885118875171152 -0.49931567355645645 a33.89478982260475,33.89478982260475 0 0,0 0.01757413466429584,0.5831999718886864 l -12.891804704291093 0.2774455542427709" fill="red" stroke="none" /><line stroke="#e1ed5e" stroke-width="0.3" x1="184.98032266829074" x2="189.97916517819016" y1="98.17113171792111" y2="98.06355123074" /><path d="M 185.9800911702706 98.14961562048488 a86.0,86.0 0 0,1 -9.607161424134198,41.387399972396054" fill="none" id="id64" stroke="none" /><text fill="#e1ed5e" style="font-size:6.75px; font-family:Arial;" text-anchor="middle"><textPath startOffset="21.466115282336823" xlink:href="#id64">April</textPath></text><path d="M 120.9764740272857 100.99374915477107 l 18.779862139194606 0.8896858501226681 a39.80092452192348,39.80092452192348 0 0,0 -0.03831056774467104,0.6840609226648192 l -18.761765220562406 -1.2128184891229106" fill="red" stroke="none" /><path d="M 120.95626037817324 101.35467743843564 l 43.936589626197026 2.8401969442223027 a65.02829347888485,65.02829347888485 0 0,0 -0.08182244275702603,1.1164022231861848 l -43.88119062477566 -3.596072303905258" fill="red" stroke="none" /><path d="M 120.92983693683757 101.71520430193887 l 18.528102507099934 1.518381687485041 a39.59021423928441,39.59021423928441 0 0,0 -0.06150698681113021,0.6787244741662753 l -18.499220924011727 -1.8370875501998871" fill="red" stroke="none" /><path d="M 120.89721153311464 102.0752229133903 l 18.381222002595827 1.8253695243240624 a39.471634908936565,39.471634908936565 0 0,0 -0.07296181062645976,0.6755357508329747 l -18.347077890468313 -2.1415015970418283" fill="red" stroke="none" /><path d="M 120.8583938346157 102.4346265915055 l 7.455355441924821 0.8702015482089918 a28.505969324473913,28.505969324473913 0 0,0 -0.06108217128842716,0.4868850044531874 l -7.439271761389546 -0.9984043069495742" fill="red" stroke="none" /><path d="M 120.81339534386255 102.79330883721812 l 21.763641693116803 2.9208387995838585 a42.95876588152272,42.95876588152272 0 0,0 -0.10466790588017898,0.7320470899445909 l -21.71013973622002 -3.2950313615088587" fill="red" stroke="none" /><path d="M 120.76222939487914 103.15116336523771 l 36.83013797048051 5.589851614771827 a58.25191946732137,58.25191946732137 0 0,0 -0.1589951347121129,0.990062855625035 l -36.728461081407104 -6.222993700090067" fill="red" stroke="none" /><path d="M 120.64145759157962 103.86396538481128 l 50.02512156011636 9.364422896090344 a71.8940586245707,71.8940586245707 0 0,0 -0.23817497510299604,1.2144490667828038 l -49.8565166520377 -10.224135689941093" fill="red" stroke="none" /><path d="M 120.5718875245553 104.21870165774334 l 18.08497476152155 3.70870747351739 a39.46133319262169,39.46133319262169 0 0,0 -0.14218474805879816,0.664239807190752 l -18.01845597473831 -4.019461100124311" fill="red" stroke="none" /><path d="M 120.49622156327973 104.57218783832717 l 17.870667854509065 3.9864933141411627 a39.309912575156545,39.309912575156545 0 0,0 -0.1530080955815591,0.6591548711714479 l -17.79939919299695 -4.293516842661176" fill="red" stroke="none" /><path d="M 120.41448212921028 104.9243191809786 l 17.85050148090563 4.305843580853595 a39.36248055308956,39.36248055308956 0 0,0 -0.16455144923056944,0.6573012429633287 l -17.773738717380002 -4.61247266321432" fill="red" stroke="none" /><path d="M 120.32669344350535 105.2749913415812 l 17.75411411330058 4.607379871467908 a39.34220589864007,39.34220589864007 0 0,0 -0.17575085791949066,0.6540343232423654 l -17.67217517903931 -4.912305127885823" fill="red" stroke="none" /><path d="M 120.23288151984713 105.62410040840565 l 7.289291389789263 2.0261921981843045 a28.565660829645935,28.565660829645935 0 0,0 -0.13576491823871423,0.47261549107295525 l -7.253333834664449 -2.1513651647618417" fill="red" stroke="none" /><path d="M 120.13307415673323 105.97154293290107 l 17.591548867693543 5.217717299497814 a39.34903717860773,39.34903717860773 0 0,0 -0.19819403148369133,0.6477095623186188 l -17.49912806370372 -5.5197538343684895" fill="red" stroke="none" /><path d="M 120.02730092923936 106.31721596034902 l 34.90488805329314 11.01005655647448 a57.60017152131521,57.60017152131521 0 0,0 -0.3063993096059142,0.9430001109759925 l -34.71019649267098 -11.609255567428267" fill="red" stroke="none" /><path d="M 119.79798401119884 107.00284435728193 l 7.008455137395544 2.4789958656604645 a28.43396690299652,28.43396690299652 0 0,0 -0.1671859559952581,0.46002394738799157 l -6.964744920395059 -2.599267610054587" fill="red" stroke="none" /><path d="M 119.67450827220406 107.3425965602758 l 8.046258937655592 3.002892493236363 a29.588343624805532,29.588343624805532 0 0,0 -0.18218771847811194,0.47563464305605424 l -7.993376939583975 -3.1409507031255615" fill="red" stroke="none" /><path d="M 119.41010516605496 108.01547362559984 l 41.767629185863164 17.248094602218195 a66.18884392430101,66.18884392430101 0 0,0 -0.4439349391787239,1.0493310599574375 l -41.46454326549213 -17.964500187841796" fill="red" stroke="none" /><path d="M 119.26925614724726 108.34839909993367 l 8.125589403133768 3.520409025713391 a29.85542109990508,29.85542109990508 0 0,0 -0.2083608633949122,0.46979874129404503 l -8.063787455007583 -3.6597561035001234" fill="red" stroke="none" /><path d="M 118.97047184881838 109.00673069616215 l 16.598644486298667 7.880643243923364 a39.374426160305745,39.374426160305745 0 0,0 -0.29595833057469817,0.6097618209457716 l -16.460532899109257 -8.165194020834411" fill="red" stroke="none" /><path d="M 118.81262510543309 109.33194174019688 l 4.047988016339361 2.0079913420793387 a25.518654247703918,25.518654247703918 0 0,0 -0.1985853534487643,0.3918277421517751 l -4.012823993104328 -2.077373295933808" fill="red" stroke="none" /><line stroke="#e1ed5e" stroke-width="0.3" x1="174.80103733775053" x2="179.2010983576182" y1="140.37084112569926" y2="142.7455964860345" /><path d="M 175.68104954172406 140.8457921977663 a86.0,86.0 0 0,1 -30.038265399797805,32.042727171017184" fill="none" id="id65" stroke="none" /><text fill="#e1ed5e" style="font-size:6.75px; font-family:Arial;" text-anchor="middle"><textPath startOffset="22.206326154141568" xlink:href="#id65">May</textPath></text><path d="M 117.35343817320211 111.8261652097733 l 9.914742448687102 6.75678105054671 a32.99817519412119,32.99817519412119 0 0,0 -0.3239149476105258,0.4666236407513252 l -9.79696659391444 -6.926445953485055" fill="red" stroke="none" /><path d="M 116.71984013943494 112.70617746262583 l 6.638890511415668 5.045199014435139 a29.338399145988532,29.338399145988532 0 0,0 -0.30902161356323365,0.3994520920631941 l -6.551062080634366 -5.158729100611586" fill="red" stroke="none" /><path d="M 116.27256486870786 113.27417163493432 l 15.020489422956434 12.252804413424453 a40.38417701370837,40.38417701370837 0 0,0 -0.44404133397488,0.5348763917660863 l -14.80735208908801 -12.509542062304309" fill="red" stroke="none" /><path d="M 115.80600337817218 113.82643327865902 l 16.5857603579869 14.508532200000879 a43.035992222975395,43.035992222975395 0 0,0 -0.4925390417807178,0.5533728348111687 l -16.333562466557844 -14.791879204552913" fill="red" stroke="none" /><path d="M 115.32070863581623 114.36230785411682 l 5.354426280661693 5.019475303202245 a28.33927878708105,28.33927878708105 0 0,0 -0.33668878076294323,0.3530168405659391 l -5.267230948519785 -5.110899260350691" fill="red" stroke="none" /><path d="M 113.75828350139079 115.86535959552629 l 12.038696511966327 13.88241848661181 a39.37530290211978,39.37530290211978 0 0,0 -0.5158811999337682,0.4396451503871765 l -11.79794983545551 -14.087588027221933" fill="red" stroke="none" /><path d="M 112.92097659922987 116.55440617244103 l 11.254748596574185 14.419628284715305 a39.291939367968894,39.291939367968894 0 0,0 -0.5367489812593231,0.4115562306789263 l -11.004870886821369 -14.611223857221603" fill="red" stroke="none" /><path d="M 112.63410532772338 116.77436683061366 l 16.120968274644667 21.4038927560772 a47.79575046953815,47.79575046953815 0 0,0 -0.6614363541224643,0.4893148020698674 l -15.75014695010364 -21.67821750688684" fill="red" stroke="none" /><path d="M 112.34349029814194 116.9893568818739 l 11.189123548537584 15.400507358125388 a40.03607398262868,40.03607398262868 0 0,0 -0.5610248796813281,0.40027635551820245 l -10.922371341007372 -15.590827975487809" fill="red" stroke="none" /><path d="M 112.04921762599082 117.19931262002967 l 10.911597683863711 15.57544942535895 a40.01729709544483,40.01729709544483 0 0,0 -0.5675655445656634,0.3903767568912022 l -10.641875254675165 -15.76096697161525" fill="red" stroke="none" /><path d="M 111.7513745106137 117.40417183066458 l 20.470780506597293 30.317898652864216 a57.58179647412945,57.58179647412945 0 0,0 -0.8262310556981489,0.547580890714314 l -19.945874752159177 -30.66577756466985" fill="red" stroke="none" /><line stroke="#e1ed5e" stroke-width="0.3" x1="143.8653032363475" x2="146.44561519142675" y1="172.8068346515853" y2="177.08958963109032" /><path d="M 144.38136562736335 173.6633856474863 a86.0,86.0 0 0,1 -40.68145358897372,12.25698825130547" fill="none" id="id66" stroke="none" /><text fill="#e1ed5e" style="font-size:6.75px; font-family:Arial;" text-anchor="middle"><textPath startOffset="21.466115282336833" xlink:href="#id66">June</textPath></text><path d="M 110.5260780823613 118.17145234162733 l 22.451261432599885 38.75821782241473 a65.79127804254634,65.79127804254634 0 0,0 -0.9848366370716515,0.5592159451866616 l -21.780776028607033 -39.13893693339602" fill="red" stroke="none" /><path d="M 109.89434966115114 118.52300852407294 l 8.638765595154121 16.17245541511325 a39.33511890230997,39.33511890230997 0 0,0 -0.5999712587910424,0.3138766062066065 l -8.359103433836582 -16.318761440264574" fill="red" stroke="none" /><path d="M 109.2508944713604 118.85261126421891 l 19.796445446325333 40.34363288526463 a65.93893597639291,65.93893597639291 0 0,0 -1.0232697104881026,0.4912316450321894 l -19.099063067836997 -40.67841880679639" fill="red" stroke="none" /><path d="M 102.70371172650421 120.8252237178851 l 5.259479962971034 40.51091904321602 a61.85090808301446,61.85090808301446 0 0,0 -1.0569807033506482,0.127985643266872 l -4.561371836569006 -40.595450215208245" fill="red" stroke="none" /><path d="M 101.26447882468166 120.96189622390904 l 2.0700910156559225 34.31693136905653 a55.37931144455391,55.37931144455391 0 0,0 -0.9520281997395192,0.04920898347293239 l -1.4790747475029236 -34.34748015929167" fill="red" stroke="none" /><path d="M 100.90346689309514 120.98055641714683 l 1.5730793271047014 36.53048033437121 a57.564334699666645,57.564334699666645 0 0,0 -0.9903248855418179,0.03410879143503601 l -0.9440340898882313 -36.55214592423235" fill="red" stroke="none" /><line stroke="#e1ed5e" stroke-width="0.3" x1="102.19456741930631" x2="102.32365962044197" y1="184.97166512339345" y2="189.96999836594603" /><path d="M 102.22038585953345 185.97133177190398 a86.0,86.0 0 0,1 -42.740103519485714,-10.115201625700543" fill="none" id="id67" stroke="none" /><text fill="#e1ed5e" style="font-size:6.75px; font-family:Arial;" text-anchor="middle"><textPath startOffset="22.20632615414155" xlink:href="#id67">July</textPath></text><path d="M 100.18074693466247 120.99922214144158 l 0.06963050985425964 8.089689305005406 a29.089988965346084,29.089988965346084 0 0,0 -0.5007548890334246,0.0 l 0.06963050985425406 -8.089689305005406" fill="red" stroke="none" /><path d="M 99.81925306533755 120.99922214144158 l -0.07163871945995058 8.32300357777774 a29.323311880605395,29.323311880605395 0 0,0 -0.5046965209285728,-0.008688808306064503 l 0.21489493028119128 -8.320537292192515" fill="red" stroke="none" /><path d="M 99.09653310690486 120.98055641714683 l -1.572598404874439 36.519312226207866 a57.553156241537735,57.553156241537735 0 0,0 -0.989398862078943,-0.05114061985296573 l 2.200985335366871 -36.4868317995927" fill="red" stroke="none" /><path d="M 98.01472825383883 120.90594882070398 l -3.454642695857287 36.379192688892374 a57.54285452522286,57.54285452522286 0 0,0 -0.9852635612160222,-0.10212659661968296 l 4.080338853678903 -36.31433672381693" fill="red" stroke="none" /><path d="M 97.2962882734958 120.8252237178851 l -0.7208823497343114 5.552565408628977 a26.599165471680717,26.599165471680717 0 0,0 -0.4535428882713959,-0.06285691162220268 l 0.8163538291925384 -5.53933393151417" fill="red" stroke="none" /><path d="M 95.86986931433489 120.58985236759428 l -1.3172246072999556 6.566731724349999 a27.697540310118427,27.697540310118427 0 0,0 -0.46664886948207857,-0.09779080774194396 l 1.430064938211421 -6.543084935881514" fill="red" stroke="none" /><path d="M 95.51606077576429 120.51570834832081 l -7.811571480185085 35.740877432801106 a57.584572823207225,57.584572823207225 0 0,0 -0.966542934571424,-0.21998202511482154 l 8.425634564149371 -35.6011186741086" fill="red" stroke="none" /><path d="M 94.81253420990036 120.34920634021253 l -9.082970398655458 35.630353298336104 a57.76985759323935,57.76985759323935 0 0,0 -0.9614817783931624,-0.25393607644553157 l 9.694942619860111 -35.46872587258699" fill="red" stroke="none" /><path d="M 93.76903079525671 120.05430185196036 l -10.866785550816934 34.97462279715799 a57.62391661211191,57.62391661211191 0 0,0 -0.9446992619909383,-0.3024628710700734 l 11.467206157898811 -34.78238707942821" fill="red" stroke="none" /><path d="M 93.08242187328487 119.8279376855182 l -12.064577758460095 34.580844858550115 a57.62497600847053,57.62497600847053 0 0,0 -0.9337453407078007,-0.3348078581098537 l 12.658042659797623 -34.368049459400304" fill="red" stroke="none" /><path d="M 92.7421414339146 119.70592522655815 l -12.69240935767057 34.46135901791562 a57.72441314254535,57.72441314254535 0 0,0 -0.9294449082205276,-0.351436534849623 l 13.283724486651382 -34.23777423295937" fill="red" stroke="none" /><path d="M 90.42595943632237 118.69057910512821 l -16.663329677646935 32.53039084422428 a57.549868459735116,57.549868459735116 0 0,0 -0.8777974488598406,-0.45922213797394906 l 17.22081802903327 -32.23873928730561" fill="red" stroke="none" /><path d="M 90.10565033884886 118.52300852407294 l -17.323004990638562 32.43004139665958 a57.76675246598131,57.76675246598131 0 0,0 -0.8730404507206392,-0.47605126341512694 l 17.878668253227843 -32.12704948148469" fill="red" stroke="none" /><line stroke="#e1ed5e" stroke-width="0.3" x1="58.666819895761336" x2="56.23545636021788" y1="174.27360380694188" y2="178.64263932499728" /><path d="M 58.180547188652646 175.14741091055294 a86.0,86.0 0 0,1 -31.652253787137756,-30.449443065178592" fill="none" id="id68" stroke="none" /><text fill="#e1ed5e" style="font-size:6.75px; font-family:Arial;" text-anchor="middle"><textPath startOffset="22.20632615414155" xlink:href="#id68">August</textPath></text><line stroke="#e1ed5e" stroke-width="0.3" x1="26.63291911575756" x2="22.317208475507996" y1="142.92168965132927" y2="145.44649492493687" /><path d="M 25.769776987707644 143.4266507060508 a86.0,86.0 0 0,1 -11.730757126820373,-40.83630448921669" fill="none" id="id69" stroke="none" /><text fill="#e1ed5e" style="font-size:6.75px; font-family:Arial;" text-anchor="middle"><textPath startOffset="21.46611528233685" xlink:href="#id69">September</textPath></text><line stroke="#e1ed5e" stroke-width="0.3" x1="15.007084014347285" x2="10.007500721073583" y1="101.09737516637583" y2="101.16192664675087" /><path d="M 14.007167355692545 101.11028546245083 a86.0,86.0 0 0,1 10.666146001902534,-42.60595125391555" fill="none" id="id70" stroke="none" /><text fill="#e1ed5e" style="font-size:6.75px; font-family:Arial;" text-anchor="middle"><textPath startOffset="22.20632615414155" xlink:href="#id70">October</textPath></text><line stroke="#e1ed5e" stroke-width="0.3" x1="26.266209847984257" x2="21.92892807433627" y1="57.711370442889674" y2="55.22380399835377" /><path d="M 25.39875349325466 57.213857153982495 a86.0,86.0 0 0,1 29.58750427330802,-30.492523968695096" fill="none" id="id71" stroke="none" /><text fill="#e1ed5e" style="font-size:6.75px; font-family:Arial;" text-anchor="middle"><textPath startOffset="21.46611528233685" xlink:href="#id71">November</textPath></text><line stroke="#e1ed5e" stroke-width="0.3" x1="56.762969772571076" x2="54.21961505331055" y1="26.818313649435495" y2="22.513508569990535" /><path d="M 56.25429882871897 25.957352633546506 a86.0,86.0 0 0,1 42.265352541879196,-11.944610805530505" fill="none" id="id72" stroke="none" /><text fill="#e1ed5e" style="font-size:6.75px; font-family:Arial;" text-anchor="middle"><textPath startOffset="22.20632615414155" xlink:href="#id72">December</textPath></text></svg>